<?xml version="1.0" standalone="no"?>
<!DOCTYPE svg PUBLIC "-//W3C//DTD SVG 1.1//EN" "http://www.w3.org/Graphics/SVG/1.1/DTD/svg11.dtd" >
<svg xmlns="http://www.w3.org/2000/svg" xmlns:xlink="http://www.w3.org/1999/xlink" version="1.1">
<metadata>
Created by FontForge 20170731 at Sun Jun 26 23:23:51 2022
 By Aleksey,,,
Typeface (c) Ridz Studio. 2022. All Rights Reserved
</metadata>
<defs>
<font id="StudioRoundSansThin" horiz-adv-x="1019" >
  <font-face 
    font-family="Studio Round Sans"
    font-weight="500"
    font-stretch="normal"
    units-per-em="2048"
    panose-1="0 0 0 0 0 0 0 0 0 0"
    ascent="1638"
    descent="-410"
    x-height="1012"
    cap-height="1447"
    bbox="-219 -499.265 2046 1904"
    underline-thickness="50"
    underline-position="-150"
    unicode-range="U+0020-017F"
  />
<missing-glyph horiz-adv-x="457" 
d="M20 675h417v-675h-417v675zM68 48h320v579h-320v-579z" />
    <glyph glyph-name=".notdef" horiz-adv-x="457" 
d="M20 675h417v-675h-417v675zM68 48h320v579h-320v-579z" />
    <glyph glyph-name=".null" horiz-adv-x="0" 
 />
    <glyph glyph-name="nonmarkingreturn" horiz-adv-x="682" 
 />
    <glyph glyph-name="space" unicode=" " horiz-adv-x="550" 
 />
    <glyph glyph-name="exclam" unicode="!" horiz-adv-x="293" 
d="M118 798v649h57v-649l-11 -362h-35zM147 0q-19 0 -33 14t-14 32q0 20 14 34q13 13 33 13t33 -13t13 -34q0 -19 -13 -32q-14 -14 -33 -14z" />
    <glyph glyph-name="quotedbl" unicode="&#x22;" horiz-adv-x="449" 
d="M100 1275v172h56v-172l-10 -154h-35zM292 1274v172h57v-172l-11 -154h-35z" />
    <glyph glyph-name="numbersign" unicode="#" horiz-adv-x="1292" 
d="M66 510h282l83 413h-286q-9 0 -14 6q-6 6 -6 15v2q0 9 6 15q4 6 14 6h295l62 318q2 9 9 13q5 3 11 3q16 -2 21 -8t3 -18l-63 -308h412l62 318q2 9 9 13q6 4 16 3q11 -1 16 -8q4 -7 3 -18l-63 -308h289q8 0 14 -6t6 -15v-2q0 -9 -6 -15t-14 -6h-298l-83 -413h301
q9 0 15 -6t6 -15v-3q0 -8 -6 -14t-15 -6h-310l-66 -337q-1 -8 -8 -13q-7 -4 -16 -3q-11 2 -16 10q-5 9 -4 15l67 328h-412l-66 -337q-1 -8 -8 -13q-4 -3 -12 -3q-15 1 -20 10t-4 15l67 328h-273q-10 0 -15 6q-6 6 -6 14v3q0 9 6 15q5 6 15 6zM886 923h-412l-83 -413h412z
" />
    <glyph glyph-name="dollar" unicode="$" horiz-adv-x="921" 
d="M568 98q103 51 147 116q51 78 51 170q9 183 -201 273q-71 22 -191 53q-141 56 -195 116q-90 90 -89 234q0 130 80 231q74 92 203 129q41 11 87 11q44 0 87 -12q104 -29 168 -91q72 -68 101 -165q3 -11 -3 -20q-7 -9 -18 -9h-21q-17 0 -21 16q-38 124 -186 197
q-51 19 -107 19q-52 0 -106 -19q-105 -53 -149 -118q-50 -77 -50 -169q0 -182 200 -277q95 -32 193 -53q146 -52 201 -111q86 -85 82 -235q0 -129 -81 -231q-74 -92 -202 -128q-53 -11 -88 -11t-87 11q-103 28 -168 92q-73 68 -100 164q-5 12 3 20q8 9 18 9h21q17 0 21 -16
q38 -122 186 -197q56 -18 106 -18q47 -1 108 19zM378 -200h-2q-28 0 -28 27v1793q0 27 28 27t28 -27v-1793q0 -27 -26 -27zM544 -200h-3q-27 0 -27 27v1793q0 27 27 27q29 0 29 -27v-1793q0 -27 -26 -27z" />
    <glyph glyph-name="percent" unicode="%" horiz-adv-x="1244" 
d="M372 0h-58l558 1447h58zM909 0h-32q-97 0 -166 69q-68 68 -68 165q0 96 68 166q69 69 166 69h32q97 0 166 -69t69 -166q0 -98 -69 -165q-69 -69 -166 -69zM903 417h-20q-77 0 -129 -54q-54 -53 -54 -129q0 -75 54 -129q53 -53 129 -53h20q76 0 129 53q53 55 53 129
q0 76 -53 129q-52 54 -129 54zM366 978h-32q-98 0 -165 69q-69 69 -69 165q0 97 69 166q67 69 165 69h32q97 0 166 -69t69 -166q0 -96 -69 -165t-166 -69zM361 1395h-20q-75 0 -130 -53q-54 -54 -54 -130t54 -128q54 -54 130 -54h20q75 0 128 54q54 52 54 128t-54 130
q-53 53 -128 53z" />
    <glyph glyph-name="ampersand" unicode="&#x26;" horiz-adv-x="1263" 
d="M1163 0h-112q-169 0 -225 189q-22 -35 -69 -81q-113 -108 -269 -108q-161 0 -274 113q-114 114 -114 274q0 191 152 310q29 23 91 53q-58 28 -89 55q-131 108 -131 278q0 151 107 258q106 106 257 106q89 0 166 -40l-34 -47q-62 31 -132 31q-127 0 -217 -91
q-89 -91 -89 -217t89 -217q90 -90 217 -90h333v258l58 21v-271h285v-58h-285v-501q0 -72 51 -123t122 -51h112v-51zM820 719h-333q-137 0 -234 -97t-97 -235q0 -136 97 -233t234 -97q147 0 239 92q91 91 94 238v332z" />
    <glyph glyph-name="quotesingle" unicode="'" horiz-adv-x="256" 
d="M100 1275v172h56v-172l-10 -154h-35z" />
    <glyph glyph-name="parenleft" unicode="(" horiz-adv-x="596" 
d="M496 -371v-52q-170 26 -282 155q-114 132 -114 306v948q0 176 114 306q112 130 282 156v-53q-146 -24 -246 -145q-99 -120 -99 -269v-936q0 -150 99 -270q100 -120 246 -146z" />
    <glyph glyph-name="parenright" unicode=")" horiz-adv-x="596" 
d="M100 -423v52q147 26 247 146q99 120 99 270v936q0 149 -99 269q-100 121 -247 145v53q170 -26 282 -156q114 -130 114 -306v-948q0 -174 -114 -306q-112 -129 -282 -155z" />
    <glyph glyph-name="asterisk" unicode="*" horiz-adv-x="856" 
d="M427 1269h2q10 0 18 -8t8 -18v-246l235 75q9 4 19 -1q10 -4 15 -19l1 -3q1 -6 -3 -16t-16 -13l-235 -76l147 -199q6 -8 3 -20q-2 -12 -12 -19l-2 -2q-4 -3 -17 -1q-11 2 -17 9l-145 201l-145 -201q-6 -8 -16 -9l-10 -4v0l-1 2q-20 13 -21 24q-2 12 4 19l144 200l-233 76
q-10 3 -16 15q-5 9 -3 14l1 3q5 15 15 19q10 5 19 1l235 -75v246q0 10 8 18t18 8z" />
    <glyph glyph-name="plus" unicode="+" horiz-adv-x="1032" 
d="M549 1127v-373h371q14 0 23 -9t9 -23v-2q0 -13 -9 -22t-23 -9h-371v-371q0 -14 -9 -23t-23 -9h-2q-13 0 -22 9t-9 23v371h-373q-13 0 -22 9t-9 22v2q0 14 9 23t22 9h373v373q0 13 9 22t22 9h2q14 0 23 -9t9 -22z" />
    <glyph glyph-name="comma" unicode="," horiz-adv-x="343" 
d="M82 -157l71 241q3 8 11 8h46q6 0 9 -4q4 -4 2 -11l-81 -240q-2 -8 -11 -8h-36q-6 0 -9 4q-4 4 -2 10z" />
    <glyph glyph-name="hyphen" unicode="-" horiz-adv-x="692" 
d="M612 722v-2q0 -13 -9 -22t-23 -9h-469q-13 0 -22 9t-9 22v2q0 14 9 23t22 9h469q14 0 23 -9t9 -23z" />
    <glyph glyph-name="period" unicode="." horiz-adv-x="316" 
d="M159 0q-25 0 -42 17t-17 41t17 41t42 17q23 0 40 -17t17 -41t-17 -41t-40 -17z" />
    <glyph glyph-name="slash" unicode="/" horiz-adv-x="687" 
d="M159 0h-59l428 1447h59z" />
    <glyph glyph-name="zero" unicode="0" horiz-adv-x="1133" 
d="M567 0q-193 0 -330 137t-137 330v514q0 192 137 329t330 137q192 0 329 -137t137 -329v-514q0 -193 -137 -330t-329 -137zM567 1384q-171 0 -289 -120q-120 -120 -120 -289v-501q0 -170 120 -290q118 -120 289 -120q169 0 290 120q120 120 120 290v501q0 169 -120 289
q-121 120 -290 120z" />
    <glyph glyph-name="one" unicode="1" horiz-adv-x="422" 
d="M275 0h-3q-26 0 -26 27v1364h-168q-28 0 -28 26q0 30 28 30h197q27 0 27 -27v-1393q0 -27 -27 -27z" />
    <glyph glyph-name="two" unicode="2" horiz-adv-x="1079" 
d="M953 0h-825q-28 0 -28 27v99q0 178 142 332q96 105 307 237q208 130 252 169q110 98 110 219q0 127 -90 218q-90 90 -216 90h-393q-28 0 -28 26q0 30 28 30h393q151 0 257 -106q107 -107 107 -258q0 -131 -116 -244q-67 -66 -261 -186q-209 -129 -292 -215
q-136 -139 -136 -312v-69h789q26 0 26 -28q0 -29 -26 -29z" />
    <glyph glyph-name="three" unicode="3" horiz-adv-x="881" 
d="M393 0h-295q-28 0 -28 27q0 30 28 30h295q136 0 233 97t97 233q0 138 -97 235t-233 97h-249q-28 0 -28 28q0 29 28 29h249q126 0 216 90t90 217t-90 218q-90 90 -216 90h-295q-28 0 -28 26q0 30 28 30h295q151 0 257 -106q107 -107 107 -258q0 -172 -130 -278
q-38 -32 -89 -55q47 -20 91 -53q152 -119 152 -310q0 -161 -114 -273q-114 -114 -274 -114z" />
    <glyph glyph-name="four" unicode="4" horiz-adv-x="1130" 
d="M831 0q-26 0 -26 27v278h-729q-26 0 -26 28v16q0 7 3 13l714 1071q8 14 24 14h50l-1 -1q21 -4 21 -26v-1058h223q26 0 26 -27q0 -30 -26 -30h-223v-278q0 -27 -30 -27zM118 362h687v1028z" />
    <glyph glyph-name="five" unicode="5" horiz-adv-x="1006" 
d="M548 0h-422q-26 0 -26 27q0 30 26 30h422q137 0 234 97t97 233q0 138 -97 235t-234 97h-422q-26 0 -26 28v673q0 27 26 27h643q28 0 28 -27q0 -29 -28 -29h-613v-615h392q161 0 275 -114q113 -115 113 -275t-113 -273q-114 -114 -275 -114z" />
    <glyph glyph-name="six" unicode="6" horiz-adv-x="1085" 
d="M627 0h-139q-160 0 -274 114q-114 112 -114 273v672q0 161 114 274q114 114 274 114h323q26 0 26 -27q0 -29 -26 -29h-323q-136 0 -233 -97t-97 -235l-2 -283h471q160 0 274 -114t114 -275t-114 -273q-114 -114 -274 -114zM156 719v-332q0 -135 98 -233q97 -97 234 -97
h139q136 0 233 97t97 233q0 138 -97 235t-233 97h-471z" />
    <glyph glyph-name="seven" unicode="7" horiz-adv-x="880" 
d="M752 0h-2q-27 0 -27 27v1364h-687q-26 0 -26 26q0 30 26 30h716q28 0 28 -27v-1393q0 -27 -28 -27z" />
    <glyph glyph-name="eight" unicode="8" horiz-adv-x="1074" 
d="M616 0h-158q-160 0 -274 114q-114 112 -114 273q0 191 152 310q23 19 79 53q-34 18 -77 55q-131 108 -131 278q0 151 107 258q106 106 258 106h158q151 0 257 -106q107 -107 107 -258q0 -170 -130 -278q-36 -29 -79 -55q45 -25 81 -53q152 -119 152 -310
q0 -160 -113 -273q-114 -114 -275 -114zM616 719h-158q-137 0 -234 -97q-98 -98 -98 -235q0 -135 98 -233q97 -97 234 -97h158q137 0 234 97t97 233q0 138 -97 235t-234 97zM616 1391h-158q-127 0 -217 -90q-90 -91 -90 -218t90 -217t217 -90h158q127 0 217 90t90 217
t-90 218q-90 90 -217 90z" />
    <glyph glyph-name="nine" unicode="9" horiz-adv-x="1085" 
d="M597 0h-415q-27 0 -27 27q0 30 27 30h415q136 0 233 97t97 233v284h-469q-160 0 -274 114q-114 113 -114 274t114 274q114 114 274 114h139q160 0 274 -114q114 -113 114 -274v-672q0 -161 -114 -273q-114 -114 -274 -114zM597 1391h-139q-136 0 -233 -97t-97 -235
t97 -235t233 -97h469v332q0 138 -97 235t-233 97z" />
    <glyph glyph-name="colon" unicode=":" horiz-adv-x="316" 
d="M159 0q-25 0 -42 17t-17 41t17 41t42 17q23 0 40 -17t17 -41t-17 -41t-40 -17zM159 898q-25 0 -42 17t-17 41t17 41t42 17q23 0 40 -17t17 -41t-17 -41t-40 -17z" />
    <glyph glyph-name="semicolon" unicode=";" horiz-adv-x="323" 
d="M82 -157l71 241q3 8 11 8h46q6 0 9 -4q4 -4 2 -11l-81 -240q-2 -8 -11 -8h-36q-6 0 -9 4q-4 4 -2 10zM159 898q-25 0 -42 17t-17 41t17 41t42 17q23 0 40 -17t17 -41t-17 -41t-40 -17z" />
    <glyph glyph-name="less" unicode="&#x3c;" horiz-adv-x="1232" 
d="M100 678v67l1032 448v-59l-963 -423l963 -422v-59z" />
    <glyph glyph-name="equal" unicode="=" horiz-adv-x="932" 
d="M852 922v-2q0 -13 -9 -22t-23 -9h-709q-13 0 -22 9t-9 22v2q0 14 9 23t22 9h709q14 0 23 -9t9 -23zM852 522v-2q0 -13 -9 -22t-23 -9h-709q-13 0 -22 9t-9 22v2q0 14 9 23t22 9h709q14 0 23 -9t9 -23z" />
    <glyph glyph-name="greater" unicode="&#x3e;" horiz-adv-x="1232" 
d="M1132 745v-67l-1032 -448v59l964 422l-964 423v59z" />
    <glyph glyph-name="question" unicode="?" horiz-adv-x="990" 
d="M484 1448q162 0 274 -112t112 -274q0 -136 -85 -242q-85 -104 -273 -148v-354q0 -11 -9 -20q-8 -8 -20 -8h-3q-12 0 -20 8q-9 9 -9 22v387q0 12 8 20q9 10 21 10h4q134 0 229 95q96 96 96 230t-96 230q-95 95 -229 95q-109 0 -195 -65q-85 -64 -117 -165q-2 -11 -9 -15
q-8 -5 -18 -5h-3q-15 0 -24 12q-8 11 -3 25q35 120 137 197q104 77 232 77zM483 0q-25 0 -42 17t-17 41t17 41t42 17q23 0 40 -17t17 -41t-17 -41t-40 -17z" />
    <glyph glyph-name="at" unicode="@" horiz-adv-x="2115" 
d="M1056 -445q-398 0 -676 276q-280 277 -280 675q0 446 299 707q268 234 658 232q388 -1 659 -238q299 -261 299 -701q0 -233 -122 -409q-110 -160 -231 -164q-80 0 -119 40q-66 61 -66 268l1 256q-2 201 -138 319q-123 106 -300 108q-178 2 -300 -105q-136 -119 -135 -321
q1 -234 202 -359q197 -125 411 -36l21 -50q-164 -69 -343 -15q-182 56 -272 207q-71 116 -71 253q0 224 149 356q140 124 342 124q201 0 341 -124q151 -132 151 -356l-2 -264q0 -182 51 -232q25 -25 65 -25q109 1 209 163q98 164 98 366q0 413 -281 659q-255 222 -619 223
q-367 2 -618 -218q-283 -245 -281 -664q4 -375 264 -636q259 -260 634 -265q181 0 352 73l18 -49q-177 -74 -370 -74z" />
    <glyph glyph-name="A" unicode="A" horiz-adv-x="1091" 
d="M962 0q-28 0 -28 27v571h-778v-571q0 -27 -26 -27q-30 0 -30 27v974q0 185 131 316q130 130 315 130q184 0 314 -130q131 -131 131 -316v-974q0 -27 -29 -27zM546 1391q-161 0 -275 -114q-115 -115 -115 -276v-346h778v346q0 161 -114 276q-114 114 -274 114z" />
    <glyph glyph-name="B" unicode="B" horiz-adv-x="1007" 
d="M548 0h-251q-81 0 -139 58t-58 139v1053q0 82 58 140q59 57 139 57h251q152 0 258 -106q107 -107 107 -258q0 -170 -130 -278q-35 -30 -78 -55q43 -26 80 -53q152 -119 152 -310q0 -161 -114 -273q-114 -114 -275 -114zM156 719v-522q0 -59 42 -99q41 -41 99 -41h251
q138 0 235 97t97 233q0 138 -97 235t-235 97h-392zM548 1391h-251q-58 0 -99 -41q-42 -42 -42 -100v-474h392q126 0 218 90q90 90 90 217t-90 218q-91 90 -218 90z" />
    <glyph glyph-name="C" unicode="C" horiz-adv-x="1152" 
d="M824 0q-300 0 -512 212t-212 512q0 299 212 511t512 212q131 0 251 -45q17 -6 17 -25q0 -17 -11 -25q-8 -5 -15 -5q-5 0 -11 2q-113 42 -231 42q-276 0 -472 -196q-196 -195 -196 -471t196 -472q196 -195 472 -195q121 0 232 41q8 2 10 2q7 0 15 -5q11 -8 11 -22
q0 -21 -18 -29q-121 -44 -250 -44z" />
    <glyph glyph-name="D" unicode="D" horiz-adv-x="1251" 
d="M456 0h-159q-81 0 -139 58t-58 139v1053q0 82 58 140q59 57 139 57h159q300 0 512 -212q213 -211 213 -511t-213 -512q-212 -212 -512 -212zM456 1391h-159q-58 0 -99 -41q-42 -42 -42 -100v-1053q0 -59 42 -99q41 -41 99 -41h159q276 0 472 195q195 196 195 472
t-195 471q-196 196 -472 196z" />
    <glyph glyph-name="E" unicode="E" horiz-adv-x="733" 
d="M657 0h-272q-117 0 -202 83q-83 83 -83 201v879q0 116 83 201q85 83 202 83h272q26 0 26 -27q0 -29 -26 -29h-272q-94 0 -161 -67q-66 -68 -66 -161v-412h497q28 0 28 -26q0 -30 -28 -30h-497v-411q0 -94 66 -161q68 -66 161 -66h272q26 0 26 -28q0 -29 -26 -29z" />
    <glyph glyph-name="F" unicode="F" horiz-adv-x="727" 
d="M129 0h-3q-26 0 -26 27v1136q0 116 83 201q85 83 202 83h270q27 0 27 -27q0 -29 -27 -29h-270q-95 0 -162 -67t-67 -161v-412h499q27 0 27 -26q0 -30 -27 -30h-499v-668q0 -27 -27 -27z" />
    <glyph glyph-name="G" unicode="G" horiz-adv-x="1587" 
d="M794 0q-300 0 -512 212t-212 512q0 299 212 511t512 212q317 0 533 -233q7 -9 6 -21q-2 -13 -7 -18l-6 -3q-8 -6 -16 -6q-11 0 -20 9q-198 216 -490 216q-276 0 -472 -196q-196 -195 -196 -471t196 -472q196 -195 472 -195q247 0 432 157t226 401l13 80h-487
q-27 0 -27 28t27 28h513q26 0 26 -26q0 -299 -212 -513q-212 -212 -511 -212z" />
    <glyph glyph-name="H" unicode="H" horiz-adv-x="1140" 
d="M992 0h-2q-27 0 -27 27v668h-787v-668q0 -27 -27 -27q-29 0 -29 27v1393q0 27 27 27q29 0 29 -27v-669h787v669q0 27 27 27q30 0 30 -27v-1393q0 -27 -28 -27z" />
    <glyph glyph-name="I" unicode="I" horiz-adv-x="336" 
d="M170 0h-2q-28 0 -28 27v1393q0 27 28 27t28 -27v-1393q0 -27 -26 -27z" />
    <glyph glyph-name="J" unicode="J" horiz-adv-x="637" 
d="M232 0h-194q-28 0 -28 27q0 30 28 30h194q94 0 162 66q67 67 67 161v1136q0 27 27 27q29 0 29 -27v-1136q0 -118 -83 -201q-85 -83 -202 -83z" />
    <glyph glyph-name="K" unicode="K" horiz-adv-x="1010" 
d="M914 0h-2q-28 0 -28 27v270q-2 186 -133 316q-133 131 -318 131h-257v-717q0 -27 -26 -27q-30 0 -30 27v1393q0 27 28 27t28 -27v-616h211q185 0 318 131q131 130 133 316v169q0 27 27 27q29 0 29 -27v-169q0 -253 -204 -405q-39 -30 -111 -61q83 -31 117 -54
q116 -69 180 -184t64 -250v-270q0 -27 -26 -27z" />
    <glyph glyph-name="L" unicode="L" horiz-adv-x="749" 
d="M712 0h-307q-117 0 -202 83q-83 83 -83 201v1136q0 27 28 27t28 -27v-1136q0 -94 67 -161q67 -66 162 -66h307q27 0 27 -28q0 -29 -27 -29z" />
    <glyph glyph-name="M" unicode="M" horiz-adv-x="1790" 
d="M1654 0h-3q-27 0 -27 27v1014q0 144 -103 247q-102 103 -247 103t-248 -103t-103 -247v-1014q0 -27 -27 -27q-29 0 -29 27v1014q0 144 -103 247q-102 103 -247 103t-248 -103t-103 -247v-1014q0 -27 -27 -27q-29 0 -29 27v1014q0 168 119 287q121 119 288 119
q202 0 323 -160q24 -33 54 -84q30 54 56 84q123 160 324 160q168 0 287 -119t119 -287v-1014q0 -27 -26 -27z" />
    <glyph glyph-name="N" unicode="N" horiz-adv-x="1111" 
d="M973 0h-2q-28 0 -28 27v974q0 161 -114 276q-114 114 -274 114q-161 0 -275 -114q-114 -115 -114 -276v-974q0 -27 -27 -27q-29 0 -29 27v974q0 186 130 316t315 130t315 -130q131 -131 131 -316v-974q0 -27 -28 -27z" />
    <glyph glyph-name="O" unicode="O" horiz-adv-x="1587" 
d="M794 0q-300 0 -512 212t-212 512q0 299 212 511t512 212q299 0 511 -212t212 -511q0 -300 -212 -512t-511 -212zM794 1391q-276 0 -472 -196q-196 -195 -196 -471t196 -472q196 -195 472 -195q274 0 471 195q196 196 196 472t-196 471q-196 196 -471 196z" />
    <glyph glyph-name="P" unicode="P" horiz-adv-x="1099" 
d="M139 0h-3q-26 0 -26 27v961q0 190 135 325q136 134 325 134t325 -134q134 -136 134 -325q0 -191 -134 -325q-135 -135 -325 -135h-404v-501q0 -27 -27 -27zM570 1391q-167 0 -285 -118q-119 -119 -119 -285v-404h404q165 0 284 119q118 118 118 285t-118 285t-284 118z
" />
    <glyph glyph-name="Q" unicode="Q" horiz-adv-x="1587" 
d="M795 -285h-3q-27 0 -27 27v256l-61 7q-272 33 -453 238t-181 480q0 300 212 512t512 212q299 0 511 -212t212 -512q0 -274 -182 -480q-181 -205 -453 -238l-61 -7v-256q0 -27 -26 -27zM794 1390q-276 0 -472 -195q-196 -196 -196 -472q0 -245 158 -432q157 -185 401 -226
q39 -6 80 -9v338q0 27 27 27h3q26 0 26 -27v-340q11 1 80 11q243 39 402 226q158 187 158 432q0 276 -196 472q-197 195 -471 195z" />
    <glyph glyph-name="R" unicode="R" horiz-adv-x="1037" 
d="M185 744h343q134 0 228 94q96 96 96 229q0 134 -96 230q-94 94 -228 94h-107q-105 0 -169 -64q-52 -49 -62 -115q-5 -22 -5 -50v-418zM852 27v338q0 133 -96 228q-86 87 -208 95h-363v-661q0 -12 -7 -19q-8 -8 -19 -8h-2q-11 0 -19 8t-8 19v1143q0 114 80 196
q83 81 197 81h121q157 0 268 -111t111 -269q0 -157 -111 -268q-47 -47 -121 -83q71 -36 122 -83q110 -110 110 -268v-338q0 -11 -8 -19t-19 -8h-2q-10 0 -18 8t-8 19z" />
    <glyph glyph-name="S" unicode="S" horiz-adv-x="947" 
d="M499 0h-403q-26 0 -26 28v6q0 26 26 26h403q131 0 224 94q94 93 94 224q0 154 -114 235q-69 49 -252 104q-179 55 -251 109q-114 87 -114 249q0 157 111 268q112 110 268 110h284q27 0 27 -26v-6q0 -28 -27 -28h-284q-132 0 -225 -93q-94 -93 -94 -225q0 -143 114 -217
q61 -40 251 -97q177 -52 251 -113q115 -94 115 -270q0 -156 -111 -267t-267 -111z" />
    <glyph glyph-name="T" unicode="T" horiz-adv-x="846" 
d="M425 0h-4q-26 0 -26 27v1364h-359q-26 0 -26 26q0 30 26 30h774q26 0 26 -27q0 -29 -26 -29h-359v-1364q0 -27 -26 -27z" />
    <glyph glyph-name="U" unicode="U" horiz-adv-x="1131" 
d="M566 0q-184 0 -315 131t-131 314v975q0 27 28 27t28 -27v-975q0 -161 115 -275q115 -113 275 -113q159 0 274 113q114 114 114 275v975q0 27 28 27q29 0 29 -27v-975q0 -183 -131 -314t-314 -131z" />
    <glyph glyph-name="V" unicode="V" horiz-adv-x="1149" 
d="M575 0q-63 0 -87 58l-474 1353q-4 12 5 26q7 10 21 10h7q20 0 25 -17l431 -1263q8 -21 15.5 -41t11 -29.5t4.5 -11.5q17 -29 39 -29q23 0 38 27l32 79l433 1266q6 19 25 19h7q14 0 23 -12q7 -11 3 -24l-475 -1356q-21 -55 -84 -55z" />
    <glyph glyph-name="W" unicode="W" horiz-adv-x="1810" 
d="M1284 0q-202 0 -323 159q-37 53 -55 96q-16 -40 -55 -95q-123 -160 -324 -160q-167 0 -288 119q-119 121 -119 288v1013q0 27 26 27q30 0 30 -27v-1013q0 -145 103 -248q103 -102 248 -102t247 102q103 103 103 248v1013q0 27 26 27q30 0 30 -27v-1013q0 -145 103 -248
q104 -102 248 -102q145 0 247 102q103 103 103 248v1013q0 27 28 27t28 -27v-1013q0 -167 -119 -288q-119 -119 -287 -119z" />
    <glyph glyph-name="X" unicode="X" horiz-adv-x="1089" 
d="M961 0q-28 0 -28 27v319q0 161 -114 275t-274 114q-161 0 -275 -114t-114 -275v-319q0 -27 -27 -27q-29 0 -29 27v319q0 229 184 361q45 32 102 56q-71 35 -102 56q-184 132 -184 361v240q0 27 27 27q29 0 29 -27v-240q0 -162 114 -274q114 -114 275 -114q160 0 274 114
q114 112 114 274v240q0 27 28 27t28 -27v-240q0 -229 -184 -361q-30 -22 -101 -56q72 -35 101 -56q184 -132 184 -361v-319q0 -27 -28 -27z" />
    <glyph glyph-name="Y" unicode="Y" horiz-adv-x="1091" 
d="M517 27v476l-56 11q-157 30 -259 153q-102 125 -102 284v469q0 27 28 27q30 0 30 -27v-469q0 -160 113 -275q114 -114 275 -114q160 0 274 114t114 275v469q0 27 28 27q29 0 29 -27v-469q0 -161 -102 -284t-259 -153l-56 -11v-476q0 -27 -27 -27q-30 0 -30 27z" />
    <glyph glyph-name="Z" unicode="Z" horiz-adv-x="968" 
d="M891 0h-731q-48 6 -79 42q-31 35 -31 84q0 27 14 57l766 1099q24 35 5 72t-61 37h-650q-28 0 -28 26q0 30 28 30h653q51 -2 86 -38q36 -36 36 -87q0 -38 -20 -70l-759 -1087q-24 -34 -5 -71t62 -37h714q27 0 27 -28q0 -29 -27 -29z" />
    <glyph glyph-name="bracketleft" unicode="[" horiz-adv-x="538" 
d="M438 -435h-338v1882h338l-1 -48h-281v-1787h282v-47z" />
    <glyph glyph-name="backslash" unicode="\" horiz-adv-x="687" 
d="M587 0h-59l-428 1447h59z" />
    <glyph glyph-name="bracketright" unicode="]" horiz-adv-x="538" 
d="M438 -435h-338v47h281v1787h-281v48h338v-1882z" />
    <glyph glyph-name="asciicircum" unicode="^" horiz-adv-x="899" 
d="M765 848h-1l2 -4zM761 855h-67l-245 524l-245 -524h-66l266 556h93z" />
    <glyph glyph-name="underscore" unicode="_" horiz-adv-x="1047" 
d="M1097 -26v-2q0 -28 -26 -28h-1093q-28 0 -28 28q0 29 28 29h1093q26 0 26 -27z" />
    <glyph glyph-name="grave" unicode="`" horiz-adv-x="435" 
d="M209 1178h66l-173 220h-89z" />
    <glyph glyph-name="a" unicode="a" horiz-adv-x="1194" 
d="M1067 0h-3q-26 0 -26 27v246q-48 -87 -116 -146q-142 -127 -335 -127q-209 0 -358 149t-149 358t149 358t358 149t358 -149t149 -358v-480q0 -27 -27 -27zM587 956q-185 0 -318 -131q-133 -132 -133 -318t133 -318q132 -132 318 -132t318 132q133 132 133 318t-133 318
q-133 131 -318 131z" />
    <glyph glyph-name="b" unicode="b" horiz-adv-x="1184" 
d="M607 0q-209 0 -357 148q-149 149 -150 356v916q0 27 28 27t28 -27v-681q57 96 115 147q146 128 336 128q209 0 358 -149t149 -358t-149 -358t-358 -149zM607 954q-186 0 -318 -132q-133 -132 -133 -318t133 -318q132 -132 318 -132t318 132t132 318t-132 318t-318 132z
" />
    <glyph glyph-name="c" unicode="c" horiz-adv-x="849" 
d="M607 0q-209 0 -358 149t-149 358t149 358t358 149q75 0 153 -24q19 -6 19 -25v-6q0 -14 -11 -22q-7 -6 -14 -6q-2 0 -8 2q-67 21 -139 21q-186 0 -318 -132q-133 -132 -133 -318t133 -318q132 -132 318 -132q73 0 137 21q8 2 9 2q7 0 15 -6q11 -8 11 -21q0 -22 -18 -26
q-75 -24 -154 -24z" />
    <glyph glyph-name="d" unicode="d" horiz-adv-x="1184" 
d="M577 0q209 0 357 148q149 149 150 356v916q0 27 -28 27t-28 -27v-681q-57 96 -115 147q-146 128 -336 128q-209 0 -358 -149t-149 -358t149 -358t358 -149zM577 954q186 0 318 -132q133 -132 133 -318t-133 -318q-132 -132 -318 -132t-318 132q-133 132 -133 318t133 318
q132 132 318 132z" />
    <glyph glyph-name="e" unicode="e" horiz-adv-x="1150" 
d="M587 0q-209 0 -358 149t-149 358t149 358t358 149q149 0 273 -81q126 -80 187 -215q5 -11 2 -20q-4 -12 -13 -16q-212 -95 -390 -175q-66 -30 -150.5 -68t-142 -64t-95.5 -43q-5 -2 -17.5 -8t-18.5 -9q-9 -4 -22 -9.5t-15 -6.5q17 -38 47 -73q136 -172 355 -172
q143 0 260 84q117 82 165 218q6 19 28 19q13 0 21 -11q9 -12 4 -26q-52 -150 -185 -245q-132 -93 -293 -93zM587 954q-186 0 -318 -132q-133 -132 -133 -318q0 -37 4 -65q6 -44 23 -89l411 186q150 67 411 185q-25 40 -54 73q-136 160 -344 160z" />
    <glyph glyph-name="f" unicode="f" horiz-adv-x="582" 
d="M129 0h-2q-27 0 -27 27v1056q2 154 107 259q107 105 257 105h61q27 0 27 -27q0 -29 -27 -29h-61q-128 0 -217 -89q-90 -90 -91 -218v-70l70 -1h299q27 0 27 -27q0 -30 -27 -30h-369v-929q0 -27 -27 -27z" />
    <glyph glyph-name="g" unicode="g" horiz-adv-x="1184" 
d="M577 -435q-301 0 -449 231q-8 11 -3 25q4 10 17 15q8 3 12 3q13 0 24 -14q130 -202 399 -202q166 0 305 128q146 137 146 321v199q-46 -85 -115 -145q-145 -127 -336 -127q-209 0 -358 149t-149 358q0 210 149 359q148 148 358 148q209 0 357 -148q148 -149 150 -357
v-436q0 -207 -166 -361q-157 -146 -341 -146zM577 956q-186 0 -318 -132q-133 -132 -133 -318t133 -318q132 -132 318 -132t318 132q133 132 133 318v7l-2 7q-4 180 -137 308q-131 128 -312 128z" />
    <glyph glyph-name="h" unicode="h" horiz-adv-x="1029" 
d="M902 0h-3q-26 0 -26 27v577q0 145 -104 249q-103 103 -249 103q-147 0 -250 -103q-104 -104 -104 -249v-577q0 -27 -26 -27q-30 0 -30 27v1393q0 27 28 27t28 -27v-613q48 81 111 127q109 80 243 80q169 0 289 -120t120 -290v-577q0 -27 -27 -27z" />
    <glyph glyph-name="i" unicode="i" horiz-adv-x="316" 
d="M160 0h-3q-27 0 -27 27v959q0 28 27 28q29 0 29 -28v-959q0 -27 -26 -27zM160 1359q-19 0 -32 13t-13 31t13 31t32 13q18 0 30 -13q13 -13 13 -31t-13 -31t-30 -13z" />
    <glyph glyph-name="j" unicode="j" horiz-adv-x="353" 
d="M-131 -435h-61q-27 0 -27 28q0 30 27 30h61q128 0 217 89q88 88 90 218v1056q0 27 27 27q30 0 30 -27v-1056q-1 -152 -107 -259q-106 -106 -257 -106zM206 1358q-19 0 -32 13t-13 31t13 31t32 13q18 0 30 -13q13 -13 13 -31t-13 -31t-30 -13z" />
    <glyph glyph-name="k" unicode="k" horiz-adv-x="911" 
d="M835 0h-4q-26 0 -26 27v54q-2 186 -133 316q-133 131 -318 131h-188v-501q0 -27 -26 -27q-30 0 -30 27v1393q0 27 28 27t28 -27v-832h142q174 0 301 115q128 116 147 286q3 25 27 25q15 0 22 -9q9 -11 8 -22q-22 -219 -202 -355q-48 -37 -105 -62q55 -19 111 -52
q116 -69 180 -184t64 -249v-54q0 -27 -26 -27z" />
    <glyph glyph-name="l" unicode="l" horiz-adv-x="336" 
d="M196 1420v-1393q0 -27 -26 -27q-30 0 -30 27v1393q0 27 28 27t28 -27z" />
    <glyph glyph-name="m" unicode="m" horiz-adv-x="1770" 
d="M1643 0h-2q-27 0 -27 27v580q0 145 -103 247q-102 102 -247 102t-248 -102t-103 -247v-580q0 -27 -27 -27q-29 0 -29 27v580q0 145 -103 247q-102 102 -247 102t-248 -102t-103 -247v-580q0 -27 -27 -27q-29 0 -29 27v580q0 169 119 288q121 119 288 119q202 0 323 -160
q36 -48 54 -96q21 49 56 95q123 161 324 161q168 0 287 -119t119 -288v-580q0 -27 -27 -27z" />
    <glyph glyph-name="n" unicode="n" 
d="M893 0h-4q-26 0 -26 27v577q0 145 -104 249q-103 103 -249 103q-147 0 -250 -103q-104 -104 -104 -249v-577q0 -27 -26 -27q-30 0 -30 27v577q0 170 120 290q122 120 290 120q169 0 289 -120t120 -290v-577q0 -27 -26 -27z" />
    <glyph glyph-name="o" unicode="o" horiz-adv-x="1154" 
d="M577 0q-209 0 -358 149t-149 358t149 358t358 149t358 -149t149 -358t-149 -358t-358 -149zM577 954q-186 0 -318 -132q-133 -132 -133 -318t133 -318q132 -132 318 -132t318 132q133 132 133 318t-133 318q-132 132 -318 132z" />
    <glyph glyph-name="p" unicode="p" horiz-adv-x="1184" 
d="M129 -436h-2q-27 0 -27 28v913q2 211 149 359q148 148 358 148t358 -148q149 -149 149 -359q0 -209 -149 -358t-358 -149q-194 0 -336 127q-58 52 -115 148v-681q0 -28 -27 -28zM607 958q-186 0 -318 -132q-133 -132 -133 -318q0 -187 133 -319q132 -132 318 -132
t318 132t132 319q0 186 -132 318t-318 132z" />
    <glyph glyph-name="q" unicode="q" horiz-adv-x="1184" 
d="M1055 -435h2q27 0 27 28v913q-2 212 -149 359q-148 148 -358 148t-358 -148q-149 -149 -149 -359q0 -209 149 -358t358 -149q194 0 336 127q58 52 115 148v-681q0 -28 27 -28zM577 959q186 0 318 -132q133 -132 133 -318q0 -187 -133 -319q-132 -132 -318 -132t-318 132
q-133 132 -133 319q0 186 133 318q132 132 318 132z" />
    <glyph glyph-name="r" unicode="r" horiz-adv-x="574" 
d="M129 0h-3q-26 0 -26 27v622q2 154 107 259q105 106 257 106h61q27 0 27 -28q0 -30 -27 -30h-61q-129 0 -217 -88q-90 -90 -91 -219v-622q0 -27 -27 -27z" />
    <glyph glyph-name="s" unicode="s" horiz-adv-x="710" 
d="M372 0h-274q-28 0 -28 27q0 30 28 30h274q88 0 149 61q62 62 62 149q0 103 -71 147q-33 21 -154 53q-136 37 -197 88q-79 67 -79 191q0 111 78 189q78 79 189 79h195q27 0 27 -28q0 -30 -27 -30h-195q-87 0 -148 -61q-60 -61 -60 -149q0 -108 84 -164q48 -32 168 -65
q135 -35 181 -75q66 -56 66 -175q0 -110 -78 -188q-79 -79 -190 -79z" />
    <glyph glyph-name="t" unicode="t" horiz-adv-x="498" 
d="M436 0h-84q-96 0 -164 68t-68 163v1189q0 27 28 27t28 -27v-406h260q27 0 27 -28q0 -30 -27 -30h-260v-725q0 -72 52 -123q51 -51 124 -51h84q27 0 27 -28q0 -29 -27 -29z" />
    <glyph glyph-name="u" unicode="u" 
d="M510 0q-168 0 -290 120q-120 120 -120 289v577q0 28 28 28t28 -28v-577q0 -145 104 -249q103 -103 250 -103q146 0 249 103q104 104 104 249v577q0 28 26 28q30 0 30 -28v-577q0 -169 -120 -289t-289 -120z" />
    <glyph glyph-name="v" unicode="v" horiz-adv-x="990" 
d="M495 0q-63 0 -87 59l-392 917q-6 14 2 25q7 13 23 13q20 0 27 -16l353 -823q4 -10 21 -50q10 -27 15 -36q13 -28 38 -30q22 -1 38 30q2 4 16 38q5 12 12 28.5t9 20.5l351 821q8 17 25 17t26 -13q8 -12 2 -25l-392 -916q-24 -60 -87 -60z" />
    <glyph glyph-name="w" unicode="w" horiz-adv-x="1772" 
d="M1264 0q-202 0 -323 159q-31 39 -55 78q-29 -45 -55 -77q-123 -160 -324 -160q-167 0 -288 119q-119 121 -119 288v579q0 28 28 28t28 -28v-579q0 -145 103 -248q103 -102 248 -102t247 102q103 103 103 248v579q0 28 28 28t28 -28v-579q0 -145 103 -248
q103 -102 248 -102t247 102q103 103 103 248v579q0 28 28 28q30 0 30 -28v-579q0 -168 -120 -288q-121 -119 -288 -119z" />
    <glyph glyph-name="x" unicode="x" 
d="M892 0h-3q-26 0 -26 27v103q0 146 -104 250t-250 104q-145 0 -249 -104t-104 -250v-103q0 -27 -26 -27q-30 0 -30 27v103q0 204 162 327q49 36 118 55q-83 29 -118 55q-162 123 -162 326v93q0 28 28 28t28 -28v-93q0 -145 104 -249q103 -103 249 -103q147 0 250 103
q104 104 104 249v93q0 28 26 28q30 0 30 -28v-93q0 -201 -162 -326q-36 -29 -116 -55q79 -27 116 -55q162 -125 162 -327v-103q0 -27 -27 -27z" />
    <glyph glyph-name="y" unicode="y" 
d="M509 -436q-128 0 -231 61q-106 62 -158 166q-6 11 -2 21q5 12 14 17l4 1l3 1q3 1 9 1q15 0 23 -14q48 -90 140 -143t198 -53q142 0 248 104q105 105 105 248v252q-46 -79 -110 -125q-110 -80 -243 -80q-169 0 -289 120t-120 290v554q0 27 27 27q29 0 29 -27v-554
q0 -146 104 -250q103 -103 249 -103t249 103q104 104 104 248v556q0 27 27 27q30 0 30 -27v-1011q0 -164 -123 -287t-287 -123z" />
    <glyph glyph-name="z" unicode="z" horiz-adv-x="930" 
d="M406 487q77 81 180.5 190t132.5 139q89 89 79 118q-6 18 -22 22q-8 2 -35 2h-610q-27 0 -27 26q0 30 27 30h634q66 0 90 -57q25 -58 -20 -103q-154 -161 -296.5 -311t-224.5 -236t-104 -109q-89 -89 -79 -118q6 -18 22 -22q8 -2 36 -2h116v1h539q26 0 26 -28
q0 -29 -26 -29h-539h-141q-65 0 -89 57q-25 58 20 103q72 76 175.5 184.5t135.5 142.5z" />
    <glyph glyph-name="braceleft" unicode="{" horiz-adv-x="617" 
d="M103 545q46 15 81 44q66 54 85 140q20 91 20 240q0 188 4 224q7 74 27 115q17 37 44 61q28 23 70 35q23 6 93 8q4 0 8 -2q2 -4 2 -8v-30q0 -3 -2 -7q-2 -2 -6 -2q-94 3 -143 -46q-50 -53 -48 -268q-4 -240 -9 -260q-31 -223 -170 -279q151 -55 169 -309q9 -77 9 -198
q0 -144 2 -178q12 -91 62 -135q40 -33 127 -30q4 0 6 -3q3 -1 3 -6v-29q0 -5 -3 -8q-2 -2 -7 -2q-77 2 -108 12q-47 16 -79 56t-41 102q-12 69 -12 247q1 173 -20 264q-19 89 -84 141q-36 31 -80 44q-23 6 -23 29v9q0 23 23 29z" />
    <glyph glyph-name="bar" unicode="|" horiz-adv-x="356" 
d="M206 -387h-56v1834h56v-1834z" />
    <glyph glyph-name="braceright" unicode="}" horiz-adv-x="617" 
d="M514 545q23 -6 23 -29v-9q0 -23 -23 -29q-44 -13 -80 -44q-64 -52 -84 -141q-21 -91 -20 -264q0 -178 -12 -247q-9 -62 -41 -102t-79 -56q-32 -10 -108 -12q-5 0 -7 2q-3 3 -3 8v29q0 5 3 6q1 3 6 3q87 -3 127 30q50 44 62 135q2 34 2 178q0 121 9 198q18 254 169 309
q-139 56 -170 279q-5 20 -9 260q2 215 -48 268q-49 49 -143 46q-4 0 -6 2q-2 4 -2 7v30q0 4 2 8q4 2 8 2q70 -2 93 -8q42 -12 70 -35q27 -24 44 -61q20 -41 27 -115q4 -36 4 -224q0 -149 20 -240q19 -86 85 -140q35 -29 81 -44z" />
    <glyph glyph-name="asciitilde" unicode="~" horiz-adv-x="934" 
d="M68 641q71 77 185 81q45 4 105 -10q42 -11 107 -33q85 -32 110 -38q68 -18 122 -15q83 3 165 64q10 -13 4 -36q-40 -37 -83 -55q-41 -18 -102 -23q-55 -4 -113 12q-32 9 -122 43q-122 47 -207 42q-89 -6 -168 -63q-8 11 -3 31z" />
    <glyph glyph-name="exclamdown" unicode="&#xa1;" horiz-adv-x="293" 
d="M175 216v-649h-57v649l11 362h35zM146 1014q19 0 33 -14t14 -32q0 -20 -14 -34q-13 -13 -33 -13t-33 13t-13 34q0 19 13 32q14 14 33 14z" />
    <glyph glyph-name="cent" unicode="&#xa2;" horiz-adv-x="1039" 
d="M995 0h-415l-34 -207h-59l35 210q-175 16 -303 146q-149 149 -149 358t149 358t358 149h112l37 226h59l-37 -226h247v-60h-257l-149 -900h406v-54zM530 56l149 898h-102q-186 0 -318 -132q-133 -132 -133 -318t133 -318q115 -115 271 -130z" />
    <glyph glyph-name="sterling" unicode="&#xa3;" horiz-adv-x="1076" 
d="M949 0h-729q-28 0 -28 27v592h-69q-23 0 -23 23v10q0 23 23 23h69v384q0 161 114 274q114 114 274 114q133 0 236 -79q105 -79 139 -205q4 -13 -4 -24q-9 -11 -23 -11q-24 0 -28 19q-32 109 -120 176q-89 68 -200 68q-137 0 -234 -97t-97 -235v-384h405q27 0 27 -27
q0 -29 -27 -29h-405v-562h700q27 0 27 -28q0 -29 -27 -29z" />
    <glyph glyph-name="currency" unicode="&#xa4;" horiz-adv-x="1114" 
d="M557 1058q-135 0 -231 -96t-96 -231q0 -136 96 -232t231 -96t231 96t96 232q0 135 -96 231t-231 96zM214 991l-152 151l83 83l152 -152q125 87 261 87t262 -87l151 152l81 -81l-152 -153q87 -125 87 -260q0 -137 -87 -261l152 -153l-82 -81l-151 152q-126 -87 -261 -87
q-136 0 -261 87l-152 -152l-81 81l151 151q-87 128 -87 263t86 260z" />
    <glyph glyph-name="yen" unicode="&#xa5;" horiz-adv-x="1095" 
d="M899 226h-302v-226h-117v226h-284v103h284v163h-284v103h294l-461 910h127l381 -760l399 760h129l-479 -910h313v-103h-302v-163h302v-103z" />
    <glyph glyph-name="brokenbar" unicode="&#xa6;" horiz-adv-x="356" 
d="M206 714h-56v788h56v-788zM206 -411h-56v788h56v-788z" />
    <glyph glyph-name="section" unicode="&#xa7;" horiz-adv-x="1015" 
d="M714 190q160 -81 205 -143q25 -37 39 -84q13 -45 11 -108q-5 -113 -81 -203q-71 -83 -187 -123q-87 -31 -175 -28q-380 11 -446 340l110 19q36 -163 192 -238q57 -28 134 -32q157 -11 261 89q52 49 70 116q27 102 -22 178q-44 68 -146 114q-73 29 -169 57
q-220 64 -297 132q-93 84 -93 234q0 183 131 281q20 14 109 61q-113 53 -147 83q-93 84 -93 234q0 183 131 281q78 56 184 74q50 9 111 7q172 -6 270 -84q100 -80 124 -218l-116 -17q-27 136 -161 202q-57 28 -134 28q-111 0 -193 -61q-94 -70 -97 -182q-2 -61 16 -106
q17 -46 51 -80q52 -53 117 -75q48 -17 181 -53q237 -70 315 -179q25 -38 39 -84q13 -45 11 -108q-5 -113 -81 -203q-49 -58 -174 -121zM522 249q154 -8 255 89q52 49 70 116q27 102 -22 178q-44 68 -146 114q-27 11 -85 31q-32 6 -65 6q-111 0 -193 -61q-94 -70 -97 -182
q-2 -61 16 -106q17 -46 51 -80q54 -54 120 -76q51 -16 96 -29z" />
    <glyph glyph-name="dieresis" unicode="&#xa8;" horiz-adv-x="637" 
d="M145 1219q-19 0 -32 13t-13 31t13 31t32 13q18 0 30 -13q13 -13 13 -31t-13 -31t-30 -13zM493 1219q-17 0 -31 12q-13 13 -13 31t12 32q13 13 32 13q18 0 31 -13t13 -32q0 -17 -13 -30t-31 -13z" />
    <glyph glyph-name="copyright" unicode="&#xa9;" horiz-adv-x="1751" 
d="M876 1493q196 0 381 -100q187 -101 290 -287q104 -188 104 -389t-102 -385q-102 -186 -287 -288q-184 -102 -386 -102q-200 0 -385 102t-288 288q-103 184 -103 385t105 389q103 186 290 287q185 100 381 100zM876 1420q-179 0 -345 -91q-170 -92 -263 -260
q-95 -170 -95 -352t94 -348q93 -167 260 -260q166 -94 349 -94t349 94q167 93 260 260t93 348q0 183 -94 352q-93 168 -263 260q-167 91 -345 91zM1233 937l-57 -12q-13 63 -78 128q-85 80 -207 80q-136 0 -231 -98q-93 -96 -93 -234v-178q0 -137 93 -233q94 -99 231 -99
q121 0 204 79q80 77 92 165l59 -6q-15 -111 -115 -203q-101 -94 -240 -94q-162 0 -276 117q-113 116 -113 280v166q0 165 113 281q114 117 276 117q137 0 241 -95q83 -78 101 -161z" />
    <glyph glyph-name="ordfeminine" unicode="&#xaa;" horiz-adv-x="861" 
d="M430 1442q138 0 235 -88q96 -87 96 -210v-273q0 -8 -8 -16q-10 -8 -22 -8h-2q-13 0 -23 8q-7 7 -7 16v130q-79 -154 -269 -154q-137 0 -234 88q-96 87 -96 209q0 123 96 210q97 88 234 88zM430 1366q-100 0 -170 -64q-71 -65 -71 -158q0 -92 71 -157q70 -64 170 -64
t170 64q72 65 72 157q0 94 -72 158q-70 64 -170 64z" />
    <glyph glyph-name="guillemotleft" unicode="&#xab;" horiz-adv-x="898" 
d="M540 370h-75l-365 323l365 322h75l-358 -322zM828 370h-75l-365 323l365 322h75l-358 -322z" />
    <glyph glyph-name="logicalnot" unicode="&#xac;" horiz-adv-x="987" 
d="M130 695v61h727v-406h-72v345h-655z" />
    <glyph glyph-name="registered" unicode="&#xae;" horiz-adv-x="1751" 
d="M876 1503q196 0 381 -100q187 -101 290 -287q104 -188 104 -389t-102 -385q-102 -186 -287 -288q-184 -102 -386 -102q-200 0 -385 102t-288 288q-103 184 -103 385t105 389q103 186 290 287q185 100 381 100zM876 1430q-179 0 -345 -91q-170 -92 -263 -260
q-95 -170 -95 -352t94 -348q93 -167 260 -260q166 -94 349 -94t349 94q167 93 260 260t93 348q0 183 -94 352q-93 168 -263 260q-167 91 -345 91zM615 211v966l353 -1q100 -2 171 -72q70 -70 70 -171q0 -114 -88 -189q-45 -38 -96 -48q-55 -11 -135 -8l304 -477h-65
l-308 477h-139v-477h-67zM682 747h286q86 8 129 56q53 55 53 130q0 74 -53 129t-129 56h-286v-371z" />
    <glyph glyph-name="macron" unicode="&#xaf;" horiz-adv-x="832" 
d="M612 1315v-2q0 -13 -9 -22t-23 -9h-469q-13 0 -22 9t-9 22v2q0 14 9 23t22 9h469q14 0 23 -9t9 -23z" />
    <glyph glyph-name="degree" unicode="&#xb0;" horiz-adv-x="814" 
d="M433 816h-40q-121 0 -207 86t-86 207t86 207q86 87 207 87h40q123 0 208 -87q86 -86 86 -207t-86 -207t-208 -86zM427 1348h-27q-99 0 -169 -70t-70 -169t70 -168q70 -70 169 -70h27q98 0 168 70q70 69 70 168t-70 169t-168 70z" />
    <glyph glyph-name="plusminus" unicode="&#xb1;" horiz-adv-x="1032" 
d="M549 1247v-373h371q14 0 23 -9t9 -23v-2q0 -13 -9 -22t-23 -9h-371v-371q0 -14 -9 -23t-23 -9h-2q-13 0 -22 9t-9 23v371h-373q-13 0 -22 9t-9 22v2q0 14 9 23t22 9h373v373q0 13 9 22t22 9h2q14 0 23 -9t9 -22zM952 153v-2q0 -13 -9 -22t-23 -9h-809q-13 0 -22 9t-9 22
v2q0 14 9 23t22 9h809q14 0 23 -9t9 -23z" />
    <glyph glyph-name="uni00B2" unicode="&#xb2;" horiz-adv-x="699" 
d="M128 1427h261q104 0 177 -65q71 -68 71 -156q0 -76 -69 -141q-49 -46 -166 -113q-129 -74 -174 -115q-86 -78 -86 -200h461q19 0 31 -12q10 -9 10 -18v-2q0 -9 -9 -18q-14 -11 -32 -11h-508q-17 0 -31 11q-9 9 -9 18v57q0 91 71 170q54 57 167 123q140 84 174 107
q88 67 88 144q0 70 -52 116q-47 45 -114 45h-261q-21 0 -32 10q-9 9 -9 19v1q0 10 9 19q14 11 32 11z" />
    <glyph glyph-name="uni00B3" unicode="&#xb3;" horiz-adv-x="595" 
d="M95 1427h182q105 0 179 -67q69 -64 69 -154q0 -102 -114 -190q129 -91 129 -205q0 -96 -76 -166q-76 -69 -187 -69h-182q-17 0 -31 11q-9 9 -9 18v2q0 9 12 20q10 10 28 10h182q73 0 125 48q55 52 55 126t-55 126q-52 48 -125 48h-153q-19 0 -29 10q-11 11 -11 20v1
q0 9 9 18q13 11 31 11l153 1q67 0 114 44q51 46 51 116q0 68 -50 116q-48 45 -115 45h-182q-17 0 -31 11q-9 8 -9 18v1q0 10 9 19q14 11 31 11z" />
    <glyph glyph-name="acute" unicode="&#xb4;" horiz-adv-x="435" 
d="M162 1178h66l196 220h-89z" />
    <glyph glyph-name="mu" unicode="&#xb5;" 
d="M863 414v577q0 26 26 26h3q27 0 27 -26v-1045q0 -28 -28 -28t-28 28v259q-24 -41 -64 -81q-120 -121 -289 -121q-134 0 -243 80q-64 46 -111 128v-613q0 -28 -28 -28t-28 28v1393q0 26 30 26q26 0 26 -26v-577q0 -146 104 -250q103 -103 250 -103q146 0 249 103
q104 104 104 250z" />
    <glyph glyph-name="paragraph" unicode="&#xb6;" horiz-adv-x="1008" 
d="M952 1445v-89h-87v-1357h-89v1357h-182v-1357h-99v642q-201 30 -297 143q-98 112 -98 259q0 146 98 259q104 130 268 143h486z" />
    <glyph glyph-name="periodcentered" unicode="&#xb7;" horiz-adv-x="550" 
d="M150 674q-20 0 -36 14q-14 16 -14 35q0 21 14 35q15 15 36 15q20 0 34 -15q15 -14 15 -35q0 -20 -15 -35q-14 -14 -34 -14z" />
    <glyph glyph-name="cedilla" unicode="&#xb8;" horiz-adv-x="549" 
d="M219 -406h-100q-8 0 -15 7q-5 5 -3 14v4q1 19 18 19h58q117 0 170 36q52 37 52 91q0 36 -21 63q-26 28 -69 42q-17 5 -52 10q-20 3 -17 21l18 102h57l-16 -84q149 -25 150 -159q0 -81 -77 -128q-65 -38 -153 -38z" />
    <glyph glyph-name="uni00B9" unicode="&#xb9;" horiz-adv-x="377" 
d="M322 1397v-792q0 -10 -10 -20q-10 -9 -30 -9h-2q-18 0 -29 9q-11 11 -11 20v762h-145q-17 0 -31 11q-9 8 -9 18v1q0 10 9 19q14 11 31 11h187q18 0 32 -11q8 -8 8 -19z" />
    <glyph glyph-name="guillemotright" unicode="&#xbb;" horiz-adv-x="907" 
d="M175 370h-75l359 323l-359 322h75l365 -322zM463 370h-75l359 323l-359 322h75l365 -322z" />
    <glyph glyph-name="onequarter" unicode="&#xbc;" horiz-adv-x="1540" 
d="M322 1397v-792q0 -10 -10 -20q-10 -9 -30 -9h-2q-18 0 -29 9q-11 11 -11 20v762h-145q-17 0 -31 11q-9 8 -9 18v1q0 10 9 19q14 11 31 11h187q18 0 32 -11q8 -8 8 -19zM883 1512h48l-484 -1636h-49zM811 257l346 576q11 18 37 18h97q18 0 32 -11q9 -9 9 -19v-586h113
q17 0 31 -12q9 -9 9 -18v-2q0 -10 -10 -20q-11 -9 -30 -9h-113v-145q0 -9 -9 -17q-13 -12 -32 -12h-1q-18 0 -32 12q-9 8 -9 17v145h-401q-17 0 -31 11q-9 9 -9 18v42q0 7 3 12zM888 235h361v604z" />
    <glyph glyph-name="onehalf" unicode="&#xbd;" horiz-adv-x="1452" 
d="M322 1397v-792q0 -10 -10 -20q-10 -9 -30 -9h-2q-18 0 -29 9q-11 11 -11 20v762h-145q-17 0 -31 11q-9 8 -9 18v1q0 10 9 19q14 11 31 11h187q18 0 32 -11q8 -8 8 -19zM803 1512h48l-484 -1636h-49zM881 851h261q104 0 177 -65q71 -68 71 -156q0 -76 -69 -141
q-49 -46 -166 -113q-129 -74 -174 -115q-86 -78 -86 -200h461q19 0 31 -12q10 -9 10 -18v-2q0 -9 -9 -18q-14 -11 -32 -11h-508q-17 0 -31 11q-9 9 -9 18v57q0 91 71 170q54 57 167 123q140 84 174 107q88 67 88 144q0 70 -52 116q-46 45 -114 45h-261q-21 0 -32 10
q-9 9 -9 19v1q0 10 9 19q14 11 32 11z" />
    <glyph glyph-name="threequarters" unicode="&#xbe;" horiz-adv-x="1758" 
d="M95 1427h182q105 0 179 -67q69 -64 69 -154q0 -102 -114 -190q129 -91 129 -205q0 -96 -76 -166q-76 -69 -187 -69h-182q-17 0 -31 11q-9 9 -9 18v2q0 9 12 20q10 10 28 10h182q73 0 125 48q55 52 55 126t-55 126q-52 48 -125 48h-153q-19 0 -29 10q-11 11 -11 20v1
q0 9 9 18q13 11 31 11l153 1q67 0 114 44q51 46 51 116q0 68 -50 116q-48 45 -115 45h-182q-17 0 -31 11q-9 8 -9 18v1q0 10 9 19q14 11 31 11zM1021 1512h48l-484 -1636h-49zM1029 257l346 576q11 18 37 18h97q18 0 32 -11q9 -9 9 -19v-586h113q17 0 31 -12q9 -9 9 -18v-2
q0 -10 -10 -20q-11 -9 -30 -9h-113v-145q0 -9 -9 -17q-14 -12 -32 -12h-1q-18 0 -32 12q-9 8 -9 17v145h-401q-17 0 -31 11q-9 9 -9 18v42q0 7 3 12zM1106 235h361v604z" />
    <glyph glyph-name="questiondown" unicode="&#xbf;" horiz-adv-x="990" 
d="M496 -434q-162 0 -274 112t-112 274q0 136 85 242q85 104 273 148v354q0 11 9 20q8 8 20 8h3q12 0 20 -8q9 -9 9 -22v-387q0 -12 -8 -20q-9 -10 -21 -10h-4q-134 0 -229 -95q-96 -96 -96 -230t96 -230q95 -95 229 -95q109 0 195 65q85 64 117 165q2 11 9 15q8 5 18 5h3
q15 0 24 -12q8 -11 3 -25q-35 -120 -137 -197q-104 -77 -232 -77zM497 1014q25 0 42 -17t17 -41t-17 -41t-42 -17q-23 0 -40 17t-17 41t17 41t40 17z" />
    <glyph glyph-name="Agrave" unicode="&#xc0;" horiz-adv-x="1091" 
d="M962 0q-28 0 -28 27v571h-778v-571q0 -27 -26 -27q-30 0 -30 27v974q0 185 131 316q130 130 315 130q184 0 314 -130q131 -131 131 -316v-974q0 -27 -29 -27zM546 1391q-161 0 -275 -114q-115 -115 -115 -276v-346h778v346q0 161 -114 276q-114 114 -274 114zM567 1611
h66l-173 220h-89z" />
    <glyph glyph-name="Aacute" unicode="&#xc1;" horiz-adv-x="1091" 
d="M962 0q-28 0 -28 27v571h-778v-571q0 -27 -26 -27q-30 0 -30 27v974q0 185 131 316q130 130 315 130q184 0 314 -130q131 -131 131 -316v-974q0 -27 -29 -27zM546 1391q-161 0 -275 -114q-115 -115 -115 -276v-346h778v346q0 161 -114 276q-114 114 -274 114zM458 1611
h66l196 220h-89z" />
    <glyph glyph-name="Acircumflex" unicode="&#xc2;" horiz-adv-x="1091" 
d="M962 0q-28 0 -28 27v571h-778v-571q0 -27 -26 -27q-30 0 -30 27v974q0 185 131 316q130 130 315 130q184 0 314 -130q131 -131 131 -316v-974q0 -27 -29 -27zM546 1391q-161 0 -275 -114q-115 -115 -115 -276v-346h778v346q0 161 -114 276q-114 114 -274 114zM258 1537
l240 241q3 3 8 3h79q5 0 8 -3l240 -241q5 -6 2 -13t-11 -7h-27q-5 0 -8 3l-236 214q-7 8 -15 0l-236 -214q-3 -3 -8 -3h-27q-8 0 -11 7t2 13z" />
    <glyph glyph-name="Atilde" unicode="&#xc3;" horiz-adv-x="1091" 
d="M962 0q-28 0 -28 27v571h-778v-571q0 -27 -26 -27q-30 0 -30 27v974q0 185 131 316q130 130 315 130q184 0 314 -130q131 -131 131 -316v-974q0 -27 -29 -27zM546 1391q-161 0 -275 -114q-115 -115 -115 -276v-346h778v346q0 161 -114 276q-114 114 -274 114zM229 1578
q36 115 171 115q54 0 151 -41q99 -41 151 -41q89 0 108 73q5 19 22 17h9q11 0 18 -9t4 -20q-33 -116 -158 -116q-63 0 -157 42q-94 41 -145 41q-92 0 -119 -76q-6 -15 -22 -15h-12q-11 0 -18 10q-8 9 -3 20z" />
    <glyph glyph-name="Adieresis" unicode="&#xc4;" horiz-adv-x="1091" 
d="M962 0q-28 0 -28 27v571h-778v-571q0 -27 -26 -27q-30 0 -30 27v974q0 185 131 316q130 130 315 130q184 0 314 -130q131 -131 131 -316v-974q0 -27 -29 -27zM546 1391q-161 0 -275 -114q-115 -115 -115 -276v-346h778v346q0 161 -114 276q-114 114 -274 114zM372 1652
q-19 0 -32 13t-13 31t13 31t32 13q18 0 30 -13q13 -13 13 -31t-13 -31t-30 -13zM720 1652q-18 0 -31 12q-13 13 -13 31q0 19 12 32q13 13 32 13q18 0 31 -13t13 -32q0 -17 -13 -30t-31 -13z" />
    <glyph glyph-name="Aring" unicode="&#xc5;" horiz-adv-x="1091" 
d="M962 0q-28 0 -28 27v571h-778v-571q0 -27 -26 -27q-30 0 -30 27v974q0 185 131 316q130 130 315 130q184 0 314 -130q131 -131 131 -316v-974q0 -27 -29 -27zM546 1391q-161 0 -275 -114q-115 -115 -115 -276v-346h778v346q0 161 -114 276q-114 114 -274 114zM515 1448
h-27q-80 0 -136 57q-57 57 -57 137t57 137q56 57 136 57h27q80 0 137 -57t57 -137t-57 -137t-137 -57zM509 1778h-15q-56 0 -96 -40t-40 -96q0 -57 40 -96q40 -40 96 -40h15q57 0 97 40q39 39 39 96q0 56 -39 96q-40 40 -97 40z" />
    <glyph glyph-name="AE" unicode="&#xc6;" horiz-adv-x="1555" 
d="M934 284v314h-778v-571q0 -27 -26 -27q-30 0 -30 27v974q0 185 131 316q130 130 315 130q184 0 314 -130q49 -49 78 -103q15 86 79 150q85 83 202 83h272q26 0 26 -27q0 -29 -26 -29h-272q-94 0 -161 -67q-66 -68 -66 -161v-412h497q28 0 28 -26q0 -30 -28 -30h-497v-411
q0 -94 66 -161q68 -66 161 -66h272q26 0 26 -28q0 -29 -26 -29h-272q-117 0 -202 83q-83 83 -83 201zM934 655v346q0 161 -114 276q-114 114 -274 114q-161 0 -275 -114q-115 -115 -115 -276v-346h778z" />
    <glyph glyph-name="Ccedilla" unicode="&#xc7;" horiz-adv-x="1152" 
d="M824 0q-300 0 -512 212t-212 512q0 299 212 511t512 212q131 0 251 -45q17 -6 17 -25q0 -17 -11 -25q-8 -5 -15 -5q-5 0 -11 2q-113 42 -231 42q-276 0 -472 -196q-196 -195 -196 -471t196 -472q196 -195 472 -195q121 0 232 41q8 2 10 2q7 0 15 -5q11 -8 11 -22
q0 -21 -18 -29q-121 -44 -250 -44zM540 -406h-100q-8 0 -15 7q-5 5 -3 14v4q1 19 18 19h58q118 0 170 36q52 37 52 91q0 36 -21 63q-25 28 -69 42q-17 5 -52 10q-20 3 -17 21l18 102h57l-16 -84q148 -25 150 -159q0 -81 -77 -128q-65 -38 -153 -38z" />
    <glyph glyph-name="Egrave" unicode="&#xc8;" horiz-adv-x="733" 
d="M657 0h-272q-117 0 -202 83q-83 83 -83 201v879q0 116 83 201q85 83 202 83h272q26 0 26 -27q0 -29 -26 -29h-272q-94 0 -161 -67q-66 -68 -66 -161v-412h497q28 0 28 -26q0 -30 -28 -30h-497v-411q0 -94 66 -161q68 -66 161 -66h272q26 0 26 -28q0 -29 -26 -29z
M369 1611h66l-173 220h-89z" />
    <glyph glyph-name="Eacute" unicode="&#xc9;" horiz-adv-x="733" 
d="M657 0h-272q-117 0 -202 83q-83 83 -83 201v879q0 116 83 201q85 83 202 83h272q26 0 26 -27q0 -29 -26 -29h-272q-94 0 -161 -67q-66 -68 -66 -161v-412h497q28 0 28 -26q0 -30 -28 -30h-497v-411q0 -94 66 -161q68 -66 161 -66h272q26 0 26 -28q0 -29 -26 -29z
M245 1611h66l196 220h-89z" />
    <glyph glyph-name="Ecircumflex" unicode="&#xca;" horiz-adv-x="733" 
d="M657 0h-272q-117 0 -202 83q-83 83 -83 201v879q0 116 83 201q85 83 202 83h272q26 0 26 -27q0 -29 -26 -29h-272q-94 0 -161 -67q-66 -68 -66 -161v-412h497q28 0 28 -26q0 -30 -28 -30h-497v-411q0 -94 66 -161q68 -66 161 -66h272q26 0 26 -28q0 -29 -26 -29z
M104 1537l240 241q3 3 8 3h79q5 0 8 -3l240 -241q5 -6 2 -13t-11 -7h-27q-5 0 -8 3l-236 214q-7 8 -15 0l-236 -214q-3 -3 -8 -3h-27q-8 0 -11 7t2 13z" />
    <glyph glyph-name="Edieresis" unicode="&#xcb;" horiz-adv-x="733" 
d="M657 0h-272q-117 0 -202 83q-83 83 -83 201v879q0 116 83 201q85 83 202 83h272q26 0 26 -27q0 -29 -26 -29h-272q-94 0 -161 -67q-66 -68 -66 -161v-412h497q28 0 28 -26q0 -30 -28 -30h-497v-411q0 -94 66 -161q68 -66 161 -66h272q26 0 26 -28q0 -29 -26 -29z
M218 1652q-19 0 -32 13t-13 31t13 31t32 13q18 0 30 -13q13 -13 13 -31t-13 -31t-30 -13zM566 1652q-18 0 -31 12q-13 13 -13 31q0 19 12 32q13 13 32 13q18 0 31 -13t13 -32q0 -17 -13 -30t-31 -13z" />
    <glyph glyph-name="Igrave" unicode="&#xcc;" horiz-adv-x="336" 
d="M170 0h-2q-28 0 -28 27v1393q0 27 28 27t28 -27v-1393q0 -27 -26 -27zM146 1611h66l-173 220h-89z" />
    <glyph glyph-name="Iacute" unicode="&#xcd;" horiz-adv-x="336" 
d="M170 0h-2q-28 0 -28 27v1393q0 27 28 27t28 -27v-1393q0 -27 -26 -27zM22 1611h66l196 220h-89z" />
    <glyph glyph-name="Icircumflex" unicode="&#xce;" horiz-adv-x="336" 
d="M170 0h-2q-28 0 -28 27v1393q0 27 28 27t28 -27v-1393q0 -27 -26 -27zM-119 1537l240 241q3 3 8 3h79q5 0 8 -3l240 -241q5 -6 2 -13t-11 -7h-27q-5 0 -8 3l-236 214q-8 8 -15 0l-236 -214q-3 -3 -8 -3h-27q-8 0 -11 7t2 13z" />
    <glyph glyph-name="Idieresis" unicode="&#xcf;" horiz-adv-x="336" 
d="M170 0h-2q-28 0 -28 27v1393q0 27 28 27t28 -27v-1393q0 -27 -26 -27zM-5 1652q-19 0 -32 13t-13 31t13 31t32 13q18 0 30 -13q13 -13 13 -31t-13 -31t-30 -13zM343 1652q-17 0 -31 12q-13 13 -13 31q0 19 12 32q13 13 32 13q18 0 31 -13t13 -32q0 -17 -13 -30t-31 -13z
" />
    <glyph glyph-name="Eth" unicode="&#xd0;" horiz-adv-x="1373" 
d="M815 695h-536v-498q0 -58 41 -99t99 -41h159q276 0 472 195q195 196 195 472t-195 471q-196 196 -472 196h-159q-58 0 -99 -41q-41 -43 -41 -100v-498h536q26 0 26 -27v-2q0 -28 -26 -28zM38 752h184v498q0 82 58 140q58 57 139 57h159q300 0 512 -212q213 -211 213 -511
t-213 -512q-212 -212 -512 -212h-159q-81 0 -139 58t-58 139v498h-184q-28 0 -28 28q0 29 28 29z" />
    <glyph glyph-name="Ntilde" unicode="&#xd1;" horiz-adv-x="1111" 
d="M973 0h-2q-28 0 -28 27v974q0 161 -114 276q-114 114 -274 114q-161 0 -275 -114q-114 -115 -114 -276v-974q0 -27 -27 -27q-29 0 -29 27v974q0 186 130 316t315 130t315 -130q131 -131 131 -316v-974q0 -27 -28 -27zM239 1578q36 115 171 115q54 0 151 -41
q99 -41 151 -41q89 0 108 73q5 19 22 17h9q11 0 18 -9t4 -20q-33 -116 -158 -116q-63 0 -157 42q-94 41 -145 41q-92 0 -119 -76q-6 -15 -22 -15h-12q-11 0 -18 10q-8 9 -3 20z" />
    <glyph glyph-name="Ograve" unicode="&#xd2;" horiz-adv-x="1587" 
d="M794 0q-300 0 -512 212t-212 512q0 299 212 511t512 212q299 0 511 -212t212 -511q0 -300 -212 -512t-511 -212zM794 1391q-276 0 -472 -196q-196 -195 -196 -471t196 -472q196 -195 472 -195q274 0 471 195q196 196 196 472t-196 471q-196 196 -471 196zM815 1611h66
l-173 220h-89z" />
    <glyph glyph-name="Oacute" unicode="&#xd3;" horiz-adv-x="1587" 
d="M794 0q-300 0 -512 212t-212 512q0 299 212 511t512 212q299 0 511 -212t212 -511q0 -300 -212 -512t-511 -212zM794 1391q-276 0 -472 -196q-196 -195 -196 -471t196 -472q196 -195 472 -195q274 0 471 195q196 196 196 472t-196 471q-196 196 -471 196zM706 1611h66
l196 220h-89z" />
    <glyph glyph-name="Ocircumflex" unicode="&#xd4;" horiz-adv-x="1587" 
d="M794 0q-300 0 -512 212t-212 512q0 299 212 511t512 212q299 0 511 -212t212 -511q0 -300 -212 -512t-511 -212zM794 1391q-276 0 -472 -196q-196 -195 -196 -471t196 -472q196 -195 472 -195q274 0 471 195q196 196 196 472t-196 471q-196 196 -471 196zM506 1537
l240 241q3 3 8 3h79q5 0 8 -3l240 -241q5 -6 2 -13t-11 -7h-27q-5 0 -8 3l-236 214q-7 8 -15 0l-236 -214q-3 -3 -8 -3h-27q-8 0 -11 7t2 13z" />
    <glyph glyph-name="Otilde" unicode="&#xd5;" horiz-adv-x="1587" 
d="M794 0q-300 0 -512 212t-212 512q0 299 212 511t512 212q299 0 511 -212t212 -511q0 -300 -212 -512t-511 -212zM794 1391q-276 0 -472 -196q-196 -195 -196 -471t196 -472q196 -195 472 -195q274 0 471 195q196 196 196 472t-196 471q-196 196 -471 196zM477 1578
q36 115 171 115q54 0 151 -41q99 -41 151 -41q89 0 108 73q5 19 22 17h9q11 0 18 -9t4 -20q-33 -116 -158 -116q-63 0 -157 42q-94 41 -145 41q-92 0 -119 -76q-6 -15 -22 -15h-12q-11 0 -18 10q-8 9 -3 20z" />
    <glyph glyph-name="Odieresis" unicode="&#xd6;" horiz-adv-x="1587" 
d="M794 0q-300 0 -512 212t-212 512q0 299 212 511t512 212q299 0 511 -212t212 -511q0 -300 -212 -512t-511 -212zM794 1391q-276 0 -472 -196q-196 -195 -196 -471t196 -472q196 -195 472 -195q274 0 471 195q196 196 196 472t-196 471q-196 196 -471 196zM620 1652
q-19 0 -32 13t-13 31t13 31t32 13q18 0 30 -13q13 -13 13 -31t-13 -31t-30 -13zM968 1652q-18 0 -31 12q-13 13 -13 31q0 19 12 32q13 13 32 13q18 0 31 -13t13 -32q0 -17 -13 -30t-31 -13z" />
    <glyph glyph-name="multiply" unicode="&#xd7;" horiz-adv-x="737" 
d="M105 1032l264 -264l262 262q10 10 23 10t22 -10l2 -1q9 -9 9 -22t-10 -23l-262 -262l262 -262q10 -10 10 -23t-10 -23l-2 -1q-7 -9 -21 -9q-13 0 -23 10l-262 262l-264 -264q-9 -9 -22 -9t-22 9l-1 2q-10 9 -10 22t9 22l264 264l-264 264q-9 9 -9 22t9 22l1 1
q10 10 23 10t22 -9z" />
    <glyph glyph-name="Oslash" unicode="&#xd8;" horiz-adv-x="1587" 
d="M1123 1306l-601 -1193q126 -56 272 -56q274 0 471 195q196 196 196 472t-196 471q-68 68 -142 111zM471 138l602 1194q-129 59 -279 59q-276 0 -472 -196q-196 -195 -196 -471t196 -472q72 -70 149 -114zM347 -108l98 195q-88 50 -163 125q-212 212 -212 512
q0 299 212 511t512 212q165 0 304 -65l75 148l50 -25l-75 -149q84 -48 157 -121q212 -212 212 -511q0 -300 -212 -512t-511 -212q-160 0 -298 62l-98 -195z" />
    <glyph glyph-name="Ugrave" unicode="&#xd9;" horiz-adv-x="1131" 
d="M566 0q-184 0 -315 131t-131 314v975q0 27 28 27t28 -27v-975q0 -161 115 -275q115 -113 275 -113q159 0 274 113q114 114 114 275v975q0 27 28 27q29 0 29 -27v-975q0 -183 -131 -314t-314 -131zM587 1611h66l-173 220h-89z" />
    <glyph glyph-name="Uacute" unicode="&#xda;" horiz-adv-x="1131" 
d="M566 0q-184 0 -315 131t-131 314v975q0 27 28 27t28 -27v-975q0 -161 115 -275q115 -113 275 -113q159 0 274 113q114 114 114 275v975q0 27 28 27q29 0 29 -27v-975q0 -183 -131 -314t-314 -131zM478 1611h66l196 220h-89z" />
    <glyph glyph-name="Ucircumflex" unicode="&#xdb;" horiz-adv-x="1131" 
d="M566 0q-184 0 -315 131t-131 314v975q0 27 28 27t28 -27v-975q0 -161 115 -275q115 -113 275 -113q159 0 274 113q114 114 114 275v975q0 27 28 27q29 0 29 -27v-975q0 -183 -131 -314t-314 -131zM278 1537l240 241q3 3 8 3h79q5 0 8 -3l240 -241q5 -6 2 -13t-11 -7h-27
q-5 0 -8 3l-236 214q-7 8 -15 0l-236 -214q-3 -3 -8 -3h-27q-8 0 -11 7t2 13z" />
    <glyph glyph-name="Udieresis" unicode="&#xdc;" horiz-adv-x="1131" 
d="M566 0q-184 0 -315 131t-131 314v975q0 27 28 27t28 -27v-975q0 -161 115 -275q115 -113 275 -113q159 0 274 113q114 114 114 275v975q0 27 28 27q29 0 29 -27v-975q0 -183 -131 -314t-314 -131zM392 1652q-19 0 -32 13t-13 31t13 31t32 13q18 0 30 -13q13 -13 13 -31
t-13 -31t-30 -13zM740 1652q-18 0 -31 12q-13 13 -13 31q0 19 12 32q13 13 32 13q18 0 31 -13t13 -32q0 -17 -13 -30t-31 -13z" />
    <glyph glyph-name="Yacute" unicode="&#xdd;" horiz-adv-x="1091" 
d="M517 27v476l-56 11q-157 30 -259 153q-102 125 -102 284v469q0 27 28 27q30 0 30 -27v-469q0 -160 113 -275q114 -114 275 -114q160 0 274 114t114 275v469q0 27 28 27q29 0 29 -27v-469q0 -161 -102 -284t-259 -153l-56 -11v-476q0 -27 -27 -27q-30 0 -30 27zM458 1611
h66l196 220h-89z" />
    <glyph glyph-name="Thorn" unicode="&#xde;" horiz-adv-x="1141" 
d="M661 328h-426v-297q0 -13 -9 -22t-22 -9h-3q-13 0 -22 9t-9 22v1385q0 14 9 22q9 9 22 9h3q13 0 22 -9q9 -8 9 -22v-301h426q164 0 279 -115t115 -278q0 -164 -115 -279t-279 -115zM661 1050h-426v-657h426q135 0 232 96q97 97 97 233q0 135 -97 232q-97 96 -232 96z" />
    <glyph glyph-name="germandbls" unicode="&#xdf;" horiz-adv-x="933" 
d="M445 0h-19q-28 0 -28 27q0 30 28 30h19q136 0 233 97t97 233q0 138 -97 235t-233 97h-62q-26 0 -26 28q0 29 26 29h62q126 0 216 90t90 217t-90 218q-90 90 -216 90h-148q-58 0 -99 -41q-42 -42 -42 -100v-1223q0 -27 -26 -27q-30 0 -30 27v1223q0 82 58 140
q59 57 139 57h148q151 0 257 -106q107 -107 107 -258q0 -172 -130 -278q-37 -31 -89 -55q56 -26 91 -53q152 -119 152 -310q0 -161 -114 -273q-114 -114 -274 -114z" />
    <glyph glyph-name="agrave" unicode="&#xe0;" horiz-adv-x="1194" 
d="M1067 0h-3q-26 0 -26 27v246q-48 -87 -116 -146q-142 -127 -335 -127q-209 0 -358 149t-149 358t149 358t358 149t358 -149t149 -358v-480q0 -27 -27 -27zM587 956q-185 0 -318 -131q-133 -132 -133 -318t133 -318q132 -132 318 -132t318 132q133 132 133 318t-133 318
q-133 131 -318 131zM608 1178h66l-173 220h-89z" />
    <glyph glyph-name="aacute" unicode="&#xe1;" horiz-adv-x="1194" 
d="M1067 0h-3q-26 0 -26 27v246q-48 -87 -116 -146q-142 -127 -335 -127q-209 0 -358 149t-149 358t149 358t358 149t358 -149t149 -358v-480q0 -27 -27 -27zM587 956q-185 0 -318 -131q-133 -132 -133 -318t133 -318q132 -132 318 -132t318 132q133 132 133 318t-133 318
q-133 131 -318 131zM500 1178h66l196 220h-89z" />
    <glyph glyph-name="acircumflex" unicode="&#xe2;" horiz-adv-x="1194" 
d="M1067 0h-3q-26 0 -26 27v246q-48 -87 -116 -146q-142 -127 -335 -127q-209 0 -358 149t-149 358t149 358t358 149t358 -149t149 -358v-480q0 -27 -27 -27zM587 956q-185 0 -318 -131q-133 -132 -133 -318t133 -318q132 -132 318 -132t318 132q133 132 133 318t-133 318
q-133 131 -318 131zM299 1104l240 241q3 3 8 3h79q5 0 8 -3l240 -241q5 -6 2 -13t-11 -7h-27q-5 0 -8 3l-236 214q-8 7 -15 0l-236 -214q-3 -3 -8 -3h-27q-8 0 -11 7t2 13z" />
    <glyph glyph-name="atilde" unicode="&#xe3;" horiz-adv-x="1194" 
d="M1067 0h-3q-26 0 -26 27v246q-48 -87 -116 -146q-142 -127 -335 -127q-209 0 -358 149t-149 358t149 358t358 149t358 -149t149 -358v-480q0 -27 -27 -27zM587 956q-185 0 -318 -131q-133 -132 -133 -318t133 -318q132 -132 318 -132t318 132q133 132 133 318t-133 318
q-133 131 -318 131zM270 1145q36 115 171 115q54 0 151 -41q99 -41 151 -41q89 0 108 73q5 19 22 17h9q10 0 18 -9q7 -9 4 -20q-33 -116 -158 -116q-62 0 -157 42q-94 41 -145 41q-92 0 -119 -76q-6 -15 -22 -15h-12q-11 0 -18 10q-8 9 -3 20z" />
    <glyph glyph-name="adieresis" unicode="&#xe4;" horiz-adv-x="1194" 
d="M1067 0h-3q-26 0 -26 27v246q-48 -87 -116 -146q-142 -127 -335 -127q-209 0 -358 149t-149 358t149 358t358 149t358 -149t149 -358v-480q0 -27 -27 -27zM587 956q-185 0 -318 -131q-133 -132 -133 -318t133 -318q132 -132 318 -132t318 132q133 132 133 318t-133 318
q-133 131 -318 131zM414 1219q-19 0 -32 13t-13 31t13 31t32 13q18 0 30 -13q13 -13 13 -31t-13 -31t-30 -13zM762 1219q-18 0 -31 12q-13 13 -13 31t12 32q13 13 32 13q18 0 31 -13t13 -32q0 -17 -13 -30t-31 -13z" />
    <glyph glyph-name="aring" unicode="&#xe5;" horiz-adv-x="1194" 
d="M1067 0h-3q-26 0 -26 27v246q-48 -87 -116 -146q-142 -127 -335 -127q-209 0 -358 149t-149 358t149 358t358 149t358 -149t149 -358v-480q0 -27 -27 -27zM587 956q-185 0 -318 -131q-133 -132 -133 -318t133 -318q132 -132 318 -132t318 132q133 132 133 318t-133 318
q-133 131 -318 131zM600 1015h-27q-81 0 -136 57q-57 57 -57 137t57 137q56 57 136 57h27q80 0 137 -57t57 -137t-57 -137t-137 -57zM594 1345h-15q-56 0 -96 -40t-40 -96q0 -57 40 -96q40 -40 96 -40h15q57 0 97 40q39 39 39 96q0 55 -39 96q-40 40 -97 40z" />
    <glyph glyph-name="ae" unicode="&#xe6;" horiz-adv-x="2082" 
d="M269 825q-133 -132 -133 -318t133 -318q132 -132 318 -132t318 132q133 132 133 318t-133 318q-133 131 -318 131t-318 -131zM1226 822q-132 -132 -132 -318q0 -37 4 -65q6 -48 22 -89q136 62 411 186q150 67 411 185q-23 38 -53 73q-136 160 -344 160q-187 0 -319 -132z
M1094 272v-246q0 -27 -27 -27h-3q-26 0 -26 27v247q-48 -87 -116 -146q-142 -127 -335 -127q-209 0 -358 149t-149 358t149 358t358 149t358 -149q83 -83 121 -187q36 103 120 187q149 149 359 149q147 0 273 -81q126 -80 187 -215q5 -12 1 -20q-4 -12 -13 -16
q-215 -96 -389 -175q-375 -169 -389 -175q-5 -2 -17.5 -8t-18.5 -9q-7 -3 -13.5 -6l-13 -6t-9.5 -4q17 -38 47 -73q135 -172 355 -172q143 0 260 84q117 83 164 218q7 19 28 19q14 0 22 -11q8 -13 4 -26q-54 -150 -186 -245q-132 -93 -292 -93q-210 0 -359 149
q-58 58 -92 123z" />
    <glyph glyph-name="ccedilla" unicode="&#xe7;" horiz-adv-x="849" 
d="M607 0q-209 0 -358 149t-149 358t149 358t358 149q75 0 153 -24q19 -6 19 -25v-6q0 -14 -11 -22q-7 -6 -14 -6q-2 0 -8 2q-67 21 -139 21q-186 0 -318 -132q-133 -132 -133 -318t133 -318q132 -132 318 -132q73 0 137 21q8 2 9 2q7 0 15 -6q11 -8 11 -21q0 -22 -18 -26
q-75 -24 -154 -24zM536 -401h-100q-8 0 -15 7q-5 5 -3 14v4q1 19 18 19h58q118 0 170 36q52 37 52 91q0 36 -21 63q-25 29 -69 42q-17 5 -52 10q-20 3 -17 21l18 102h57l-16 -84q148 -26 150 -159q0 -81 -77 -128q-65 -38 -153 -38z" />
    <glyph glyph-name="egrave" unicode="&#xe8;" horiz-adv-x="1150" 
d="M587 0q-209 0 -358 149t-149 358t149 358t358 149q149 0 273 -81q126 -80 187 -215q5 -11 2 -20q-4 -12 -13 -16q-212 -95 -390 -175q-66 -30 -150.5 -68t-142 -64t-95.5 -43q-5 -2 -17.5 -8t-18.5 -9q-9 -4 -22 -9.5t-15 -6.5q17 -38 47 -73q136 -172 355 -172
q143 0 260 84q117 82 165 218q6 19 28 19q13 0 21 -11q9 -12 4 -26q-52 -150 -185 -245q-132 -93 -293 -93zM587 954q-186 0 -318 -132q-133 -132 -133 -318q0 -37 4 -65q6 -44 23 -89l411 186q150 67 411 185q-25 40 -54 73q-136 160 -344 160zM595 1178h66l-173 220h-89z
" />
    <glyph glyph-name="eacute" unicode="&#xe9;" horiz-adv-x="1150" 
d="M587 0q-209 0 -358 149t-149 358t149 358t358 149q149 0 273 -81q126 -80 187 -215q5 -11 2 -20q-4 -12 -13 -16q-212 -95 -390 -175q-66 -30 -150.5 -68t-142 -64t-95.5 -43q-5 -2 -17.5 -8t-18.5 -9q-9 -4 -22 -9.5t-15 -6.5q17 -38 47 -73q136 -172 355 -172
q143 0 260 84q117 82 165 218q6 19 28 19q13 0 21 -11q9 -12 4 -26q-52 -150 -185 -245q-132 -93 -293 -93zM587 954q-186 0 -318 -132q-133 -132 -133 -318q0 -37 4 -65q6 -44 23 -89l411 186q150 67 411 185q-25 40 -54 73q-136 160 -344 160zM486 1178h66l196 220h-89z
" />
    <glyph glyph-name="ecircumflex" unicode="&#xea;" horiz-adv-x="1150" 
d="M587 0q-209 0 -358 149t-149 358t149 358t358 149q149 0 273 -81q126 -80 187 -215q5 -11 2 -20q-4 -12 -13 -16q-212 -95 -390 -175q-66 -30 -150.5 -68t-142 -64t-95.5 -43q-5 -2 -17.5 -8t-18.5 -9q-9 -4 -22 -9.5t-15 -6.5q17 -38 47 -73q136 -172 355 -172
q143 0 260 84q117 82 165 218q6 19 28 19q13 0 21 -11q9 -12 4 -26q-52 -150 -185 -245q-132 -93 -293 -93zM587 954q-186 0 -318 -132q-133 -132 -133 -318q0 -37 4 -65q6 -44 23 -89l411 186q150 67 411 185q-25 40 -54 73q-136 160 -344 160zM286 1104l240 241q3 3 8 3
h79q5 0 8 -3l240 -241q5 -6 2 -13t-11 -7h-27q-5 0 -8 3l-236 214q-7 7 -15 0l-236 -214q-3 -3 -8 -3h-27q-8 0 -11 7t2 13z" />
    <glyph glyph-name="edieresis" unicode="&#xeb;" horiz-adv-x="1150" 
d="M587 0q-209 0 -358 149t-149 358t149 358t358 149q149 0 273 -81q126 -80 187 -215q5 -11 2 -20q-4 -12 -13 -16q-212 -95 -390 -175q-66 -30 -150.5 -68t-142 -64t-95.5 -43q-5 -2 -17.5 -8t-18.5 -9q-9 -4 -22 -9.5t-15 -6.5q17 -38 47 -73q136 -172 355 -172
q143 0 260 84q117 82 165 218q6 19 28 19q13 0 21 -11q9 -12 4 -26q-52 -150 -185 -245q-132 -93 -293 -93zM587 954q-186 0 -318 -132q-133 -132 -133 -318q0 -37 4 -65q6 -44 23 -89l411 186q150 67 411 185q-25 40 -54 73q-136 160 -344 160zM400 1219q-19 0 -32 13
t-13 31t13 31t32 13q18 0 30 -13q13 -13 13 -31t-13 -31t-30 -13zM748 1219q-18 0 -31 12q-13 13 -13 31t12 32q13 13 32 13q18 0 31 -13t13 -32q0 -17 -13 -30t-31 -13z" />
    <glyph glyph-name="igrave" unicode="&#xec;" horiz-adv-x="316" 
d="M160 0h-3q-27 0 -27 27v959q0 28 27 28q29 0 29 -28v-959q0 -27 -26 -27zM180 1178h66l-173 220h-89z" />
    <glyph glyph-name="iacute" unicode="&#xed;" horiz-adv-x="316" 
d="M160 0h-3q-27 0 -27 27v959q0 28 27 28q29 0 29 -28v-959q0 -27 -26 -27zM71 1178h66l196 220h-89z" />
    <glyph glyph-name="icircumflex" unicode="&#xee;" horiz-adv-x="316" 
d="M160 0h-3q-27 0 -27 27v959q0 28 27 28q29 0 29 -28v-959q0 -27 -26 -27zM-129 1104l240 241q3 3 8 3h79q5 0 8 -3l240 -241q5 -6 2 -13t-11 -7h-27q-5 0 -8 3l-236 214q-8 7 -15 0l-236 -214q-3 -3 -8 -3h-27q-8 0 -11 7t2 13z" />
    <glyph glyph-name="idieresis" unicode="&#xef;" horiz-adv-x="316" 
d="M160 0h-3q-27 0 -27 27v959q0 28 27 28q29 0 29 -28v-959q0 -27 -26 -27zM-15 1219q-19 0 -32 13t-13 31t13 31t32 13q18 0 30 -13q13 -13 13 -31t-13 -31t-30 -13zM333 1219q-17 0 -31 12q-13 13 -13 31t12 32q13 13 32 13q18 0 31 -13t13 -32q0 -17 -13 -30t-31 -13z
" />
    <glyph glyph-name="eth" unicode="&#xf0;" horiz-adv-x="1214" 
d="M1113 531q1 -9 1 -24q0 -209 -149 -358t-358 -149t-358 149t-149 358t149 358t358 149q227 0 379 -170q-100 256 -314 417l-113 -120q-8 -8 -16 0l-20 18q-8 8 0 16l107 116q-88 59 -195 103q-5 2 -7 7t1 9l14 25q4 9 14 6q115 -43 213 -108l99 106q8 8 17 0l20 -18
q8 -8 0 -16l-94 -101q249 -184 349 -497q50 -154 52 -276zM1057 521v-1q0 11 -1 20q-13 173 -143 294q-129 120 -306 120q-186 0 -318 -132q-133 -132 -133 -318t133 -318q132 -132 318 -132t318 132q133 132 133 318q0 10 -1 17z" />
    <glyph glyph-name="ntilde" unicode="&#xf1;" 
d="M893 0h-4q-26 0 -26 27v577q0 145 -104 249q-103 103 -249 103q-147 0 -250 -103q-104 -104 -104 -249v-577q0 -27 -26 -27q-30 0 -30 27v577q0 170 120 290q122 120 290 120q169 0 289 -120t120 -290v-577q0 -27 -26 -27zM193 1145q36 115 171 115q54 0 151 -41
q99 -41 151 -41q89 0 108 73q5 19 22 17h9q11 0 18 -9t4 -20q-33 -116 -158 -116q-63 0 -157 42q-94 41 -145 41q-92 0 -119 -76q-6 -15 -22 -15h-12q-11 0 -18 10q-8 9 -3 20z" />
    <glyph glyph-name="ograve" unicode="&#xf2;" horiz-adv-x="1154" 
d="M577 0q-209 0 -358 149t-149 358t149 358t358 149t358 -149t149 -358t-149 -358t-358 -149zM577 954q-186 0 -318 -132q-133 -132 -133 -318t133 -318q132 -132 318 -132t318 132q133 132 133 318t-133 318q-132 132 -318 132zM598 1178h66l-173 220h-89z" />
    <glyph glyph-name="oacute" unicode="&#xf3;" horiz-adv-x="1154" 
d="M577 0q-209 0 -358 149t-149 358t149 358t358 149t358 -149t149 -358t-149 -358t-358 -149zM577 954q-186 0 -318 -132q-133 -132 -133 -318t133 -318q132 -132 318 -132t318 132q133 132 133 318t-133 318q-132 132 -318 132zM490 1178h66l196 220h-89z" />
    <glyph glyph-name="ocircumflex" unicode="&#xf4;" horiz-adv-x="1154" 
d="M577 0q-209 0 -358 149t-149 358t149 358t358 149t358 -149t149 -358t-149 -358t-358 -149zM577 954q-186 0 -318 -132q-133 -132 -133 -318t133 -318q132 -132 318 -132t318 132q133 132 133 318t-133 318q-132 132 -318 132zM289 1104l240 241q3 3 8 3h79q5 0 8 -3
l240 -241q5 -6 2 -13t-11 -7h-27q-5 0 -8 3l-236 214q-8 7 -15 0l-236 -214q-3 -3 -8 -3h-27q-8 0 -11 7t2 13z" />
    <glyph glyph-name="otilde" unicode="&#xf5;" horiz-adv-x="1154" 
d="M577 0q-209 0 -358 149t-149 358t149 358t358 149t358 -149t149 -358t-149 -358t-358 -149zM577 954q-186 0 -318 -132q-133 -132 -133 -318t133 -318q132 -132 318 -132t318 132q133 132 133 318t-133 318q-132 132 -318 132zM260 1145q36 115 171 115q54 0 151 -41
q99 -41 151 -41q89 0 108 73q5 19 22 17h9q10 0 18 -9q7 -9 4 -20q-33 -116 -158 -116q-62 0 -157 42q-94 41 -145 41q-92 0 -119 -76q-6 -15 -22 -15h-12q-11 0 -18 10q-8 9 -3 20z" />
    <glyph glyph-name="odieresis" unicode="&#xf6;" horiz-adv-x="1154" 
d="M577 0q-209 0 -358 149t-149 358t149 358t358 149t358 -149t149 -358t-149 -358t-358 -149zM577 954q-186 0 -318 -132q-133 -132 -133 -318t133 -318q132 -132 318 -132t318 132q133 132 133 318t-133 318q-132 132 -318 132zM404 1219q-19 0 -32 13t-13 31t13 31t32 13
q18 0 30 -13q13 -13 13 -31t-13 -31t-30 -13zM752 1219q-18 0 -31 12q-13 13 -13 31t12 32q13 13 32 13q18 0 31 -13t13 -32q0 -17 -13 -30t-31 -13z" />
    <glyph glyph-name="divide" unicode="&#xf7;" horiz-adv-x="832" 
d="M752 722v-2q0 -13 -9 -22t-23 -9h-609q-13 0 -22 9t-9 22v2q0 14 9 23t22 9h609q14 0 23 -9t9 -23zM417 315q-26 0 -42 16q-17 17 -17 41q0 25 17 42t42 17q23 0 40 -17q17 -19 17 -42t-17 -40t-40 -17zM417 1012q-25 0 -42 17t-17 41t17 41t42 17q23 0 40 -17t17 -41
t-17 -41t-40 -17z" />
    <glyph glyph-name="oslash" unicode="&#xf8;" horiz-adv-x="1154" 
d="M738 925l-255 -862q45 -9 94 -9q186 0 318 132q133 132 133 318t-133 318q-71 72 -157 103zM429 78l256 864q-51 12 -108 12q-186 0 -318 -132q-133 -132 -133 -318t133 -318q77 -77 170 -108zM340 -225l74 250q-109 38 -195 124q-149 149 -149 358t149 358t358 149
q67 0 125 -15l66 223h58l-71 -239q100 -38 180 -118q149 -149 149 -358t-149 -358t-358 -149q-54 0 -109 11l-70 -236h-58z" />
    <glyph glyph-name="ugrave" unicode="&#xf9;" 
d="M510 0q-168 0 -290 120q-120 120 -120 289v577q0 28 28 28t28 -28v-577q0 -145 104 -249q103 -103 250 -103q146 0 249 103q104 104 104 249v577q0 28 26 28q30 0 30 -28v-577q0 -169 -120 -289t-289 -120zM531 1178h66l-173 220h-89z" />
    <glyph glyph-name="uacute" unicode="&#xfa;" 
d="M510 0q-168 0 -290 120q-120 120 -120 289v577q0 28 28 28t28 -28v-577q0 -145 104 -249q103 -103 250 -103q146 0 249 103q104 104 104 249v577q0 28 26 28q30 0 30 -28v-577q0 -169 -120 -289t-289 -120zM422 1178h66l196 220h-89z" />
    <glyph glyph-name="ucircumflex" unicode="&#xfb;" 
d="M510 0q-168 0 -290 120q-120 120 -120 289v577q0 28 28 28t28 -28v-577q0 -145 104 -249q103 -103 250 -103q146 0 249 103q104 104 104 249v577q0 28 26 28q30 0 30 -28v-577q0 -169 -120 -289t-289 -120zM222 1104l240 241q3 3 8 3h79q5 0 8 -3l240 -241q5 -6 2 -13
t-11 -7h-27q-5 0 -8 3l-236 214q-7 7 -15 0l-236 -214q-3 -3 -8 -3h-27q-8 0 -11 7t2 13z" />
    <glyph glyph-name="udieresis" unicode="&#xfc;" 
d="M510 0q-168 0 -290 120q-120 120 -120 289v577q0 28 28 28t28 -28v-577q0 -145 104 -249q103 -103 250 -103q146 0 249 103q104 104 104 249v577q0 28 26 28q30 0 30 -28v-577q0 -169 -120 -289t-289 -120zM336 1219q-19 0 -32 13t-13 31t13 31t32 13q18 0 30 -13
q13 -13 13 -31t-13 -31t-30 -13zM684 1219q-18 0 -31 12q-13 13 -13 31t12 32q13 13 32 13q18 0 31 -13t13 -32q0 -17 -13 -30t-31 -13z" />
    <glyph glyph-name="yacute" unicode="&#xfd;" 
d="M509 -436q-128 0 -231 61q-106 62 -158 166q-6 11 -2 21q5 12 14 17l4 1l3 1q3 1 9 1q15 0 23 -14q48 -90 140 -143t198 -53q142 0 248 104q105 105 105 248v252q-46 -79 -110 -125q-110 -80 -243 -80q-169 0 -289 120t-120 290v554q0 27 27 27q29 0 29 -27v-554
q0 -146 104 -250q103 -103 249 -103t249 103q104 104 104 248v556q0 27 27 27q30 0 30 -27v-1011q0 -164 -123 -287t-287 -123zM422 1178h66l196 220h-89z" />
    <glyph glyph-name="thorn" unicode="&#xfe;" horiz-adv-x="1184" 
d="M289 826q-133 -132 -133 -318q0 -187 133 -319q132 -132 318 -132t318 132t132 319q0 186 -132 318t-318 132t-318 -132zM156 273v-681q0 -28 -27 -28h-2q-27 0 -27 28v1828q0 27 28 27t28 -27v-681q33 65 93 125q148 148 358 148t358 -148q149 -149 149 -359
q0 -209 -149 -358t-358 -149q-194 0 -336 127q-58 52 -115 148z" />
    <glyph glyph-name="ydieresis" unicode="&#xff;" 
d="M509 -436q-128 0 -231 61q-106 62 -158 166q-6 11 -2 21q5 12 14 17l4 1l3 1q3 1 9 1q15 0 23 -14q48 -90 140 -143t198 -53q142 0 248 104q105 105 105 248v252q-46 -79 -110 -125q-110 -80 -243 -80q-169 0 -289 120t-120 290v554q0 27 27 27q29 0 29 -27v-554
q0 -146 104 -250q103 -103 249 -103t249 103q104 104 104 248v556q0 27 27 27q30 0 30 -27v-1011q0 -164 -123 -287t-287 -123zM336 1219q-19 0 -32 13t-13 31t13 31t32 13q18 0 30 -13q13 -13 13 -31t-13 -31t-30 -13zM684 1219q-18 0 -31 12q-13 13 -13 31t12 32
q13 13 32 13q18 0 31 -13t13 -32q0 -17 -13 -30t-31 -13z" />
    <glyph glyph-name="Amacron" unicode="&#x100;" horiz-adv-x="1091" 
d="M962 0q-28 0 -28 27v571h-778v-571q0 -27 -26 -27q-30 0 -30 27v974q0 185 131 316q130 130 315 130q184 0 314 -130q131 -131 131 -316v-974q0 -27 -29 -27zM546 1391q-161 0 -275 -114q-115 -115 -115 -276v-346h778v346q0 161 -114 276q-114 114 -274 114zM781 1637
v-2q0 -7 -9 -16t-23 -9h-409q-13 0 -22 9t-9 16v2q0 9 9 18t22 9h409q14 0 23 -9t9 -18z" />
    <glyph glyph-name="amacron" unicode="&#x101;" horiz-adv-x="1194" 
d="M1067 0h-3q-26 0 -26 27v246q-48 -87 -116 -146q-142 -127 -335 -127q-209 0 -358 149t-149 358t149 358t358 149t358 -149t149 -358v-480q0 -27 -27 -27zM587 956q-185 0 -318 -131q-133 -132 -133 -318t133 -318q132 -132 318 -132t318 132q133 132 133 318t-133 318
q-133 131 -318 131zM823 1204v-2q0 -7 -9 -16t-23 -9h-409q-13 0 -22 9t-9 16v2q0 9 9 18t22 9h409q14 0 23 -9t9 -18z" />
    <glyph glyph-name="Abreve" unicode="&#x102;" horiz-adv-x="1091" 
d="M962 0q-28 0 -28 27v571h-778v-571q0 -27 -26 -27q-30 0 -30 27v974q0 185 131 316q130 130 315 130q184 0 314 -130q131 -131 131 -316v-974q0 -27 -29 -27zM546 1391q-161 0 -275 -114q-115 -115 -115 -276v-346h778v346q0 161 -114 276q-114 114 -274 114zM545 1567
q-86 0 -157 42q-84 51 -117 148q-3 7 2 15q6 8 15 8h20q11 0 16 -11q27 -67 88 -107q59 -40 135 -40t135 40q59 39 86 107q5 11 16 11h20q10 0 14 -7q5 -8 2 -16q-28 -87 -104 -138q-74 -52 -171 -52z" />
    <glyph glyph-name="abreve" unicode="&#x103;" horiz-adv-x="1194" 
d="M1067 0h-3q-26 0 -26 27v246q-48 -87 -116 -146q-142 -127 -335 -127q-209 0 -358 149t-149 358t149 358t358 149t358 -149t149 -358v-480q0 -27 -27 -27zM587 956q-185 0 -318 -131q-133 -132 -133 -318t133 -318q132 -132 318 -132t318 132q133 132 133 318t-133 318
q-133 131 -318 131zM587 1134q-87 0 -157 42q-84 51 -117 148q-3 7 2 15q6 8 15 8h20q11 0 16 -11q27 -67 88 -107q59 -40 135 -40t135 40q59 39 86 107q5 11 16 11h20q10 0 14 -7q5 -8 2 -16q-28 -87 -104 -138q-74 -52 -171 -52z" />
    <glyph glyph-name="Aogonek" unicode="&#x104;" horiz-adv-x="1091" 
d="M962 0q-28 0 -28 27v571h-778v-571q0 -27 -26 -27q-30 0 -30 27v974q0 185 131 316q130 130 315 130q184 0 314 -130q131 -131 131 -316v-974q0 -27 -29 -27zM546 1391q-161 0 -275 -114q-115 -115 -115 -276v-346h778v346q0 161 -114 276q-114 114 -274 114zM889 -317
q69 -103 228 -28q12 6 22 -1q11 -8 11 -20v-10q0 -13 -10 -19q-53 -35 -140 -35q-81 0 -135 48q-56 50 -56 135q0 74 61 172q22 35 44 64q6 8 10 13.5t7 10t5 5.5l1 2h53q-33 -47 -74 -123q-76 -138 -27 -214z" />
    <glyph glyph-name="aogonek" unicode="&#x105;" horiz-adv-x="1194" 
d="M1067 0h-3q-26 0 -26 27v246q-48 -87 -116 -146q-142 -127 -335 -127q-209 0 -358 149t-149 358t149 358t358 149t358 -149t149 -358v-480q0 -27 -27 -27zM587 956q-185 0 -318 -131q-133 -132 -133 -318t133 -318q132 -132 318 -132t318 132q133 132 133 318t-133 318
q-133 131 -318 131zM992 -316q69 -103 228 -28q12 6 22 -1q11 -8 11 -20v-10q0 -13 -10 -19q-53 -35 -140 -35q-81 0 -135 48q-56 50 -56 135q0 74 61 172q22 35 44 64q6 8 10 13.5t7 10t4 6.5l2 1h53q-33 -47 -74 -123q-76 -138 -27 -214z" />
    <glyph glyph-name="Cacute" unicode="&#x106;" horiz-adv-x="1152" 
d="M824 0q-300 0 -512 212t-212 512q0 299 212 511t512 212q131 0 251 -45q17 -6 17 -25q0 -17 -11 -25q-8 -5 -15 -5q-5 0 -11 2q-113 42 -231 42q-276 0 -472 -196q-196 -195 -196 -471t196 -472q196 -195 472 -195q121 0 232 41q8 2 10 2q7 0 15 -5q11 -8 11 -22
q0 -21 -18 -29q-121 -44 -250 -44zM609 1611h66l196 220h-89z" />
    <glyph glyph-name="cacute" unicode="&#x107;" horiz-adv-x="849" 
d="M607 0q-209 0 -358 149t-149 358t149 358t358 149q75 0 153 -24q19 -6 19 -25v-6q0 -14 -11 -22q-7 -6 -14 -6q-2 0 -8 2q-67 21 -139 21q-186 0 -318 -132q-133 -132 -133 -318t133 -318q132 -132 318 -132q73 0 137 21q8 2 9 2q7 0 15 -6q11 -8 11 -21q0 -22 -18 -26
q-75 -24 -154 -24zM452 1178h66l196 220h-89z" />
    <glyph glyph-name="Ccircumflex" unicode="&#x108;" horiz-adv-x="1152" 
d="M824 0q-300 0 -512 212t-212 512q0 299 212 511t512 212q131 0 251 -45q17 -6 17 -25q0 -17 -11 -25q-8 -5 -15 -5q-5 0 -11 2q-113 42 -231 42q-276 0 -472 -196q-196 -195 -196 -471t196 -472q196 -195 472 -195q121 0 232 41q8 2 10 2q7 0 15 -5q11 -8 11 -22
q0 -21 -18 -29q-121 -44 -250 -44zM509 1537l240 241q3 3 8 3h79q5 0 8 -3l240 -241q5 -6 2 -13t-11 -7h-27q-5 0 -8 3l-236 214q-8 8 -15 0l-236 -214q-3 -3 -8 -3h-27q-8 0 -11 7t2 13z" />
    <glyph glyph-name="ccircumflex" unicode="&#x109;" horiz-adv-x="849" 
d="M607 0q-209 0 -358 149t-149 358t149 358t358 149q75 0 153 -24q19 -6 19 -25v-6q0 -14 -11 -22q-7 -6 -14 -6q-2 0 -8 2q-67 21 -139 21q-186 0 -318 -132q-133 -132 -133 -318t133 -318q132 -132 318 -132q73 0 137 21q8 2 9 2q7 0 15 -6q11 -8 11 -21q0 -22 -18 -26
q-75 -24 -154 -24zM252 1104l240 241q3 3 8 3h79q5 0 8 -3l240 -241q5 -6 2 -13t-11 -7h-27q-5 0 -8 3l-236 214q-7 7 -15 0l-236 -214q-3 -3 -8 -3h-27q-8 0 -11 7t2 13z" />
    <glyph glyph-name="Cdotaccent" unicode="&#x10a;" horiz-adv-x="1152" 
d="M824 0q-300 0 -512 212t-212 512q0 299 212 511t512 212q131 0 251 -45q17 -6 17 -25q0 -17 -11 -25q-8 -5 -15 -5q-5 0 -11 2q-113 42 -231 42q-276 0 -472 -196q-196 -195 -196 -471t196 -472q196 -195 472 -195q121 0 232 41q8 2 10 2q7 0 15 -5q11 -8 11 -22
q0 -21 -18 -29q-121 -44 -250 -44zM797 1652q-19 0 -32 13t-13 31t13 31t32 13q18 0 30 -13q13 -13 13 -31t-13 -31t-30 -13z" />
    <glyph glyph-name="cdotaccent" unicode="&#x10b;" horiz-adv-x="849" 
d="M607 0q-209 0 -358 149t-149 358t149 358t358 149q75 0 153 -24q19 -6 19 -25v-6q0 -14 -11 -22q-7 -6 -14 -6q-2 0 -8 2q-67 21 -139 21q-186 0 -318 -132q-133 -132 -133 -318t133 -318q132 -132 318 -132q73 0 137 21q8 2 9 2q7 0 15 -6q11 -8 11 -21q0 -22 -18 -26
q-75 -24 -154 -24zM610 1219q-19 0 -32 13t-13 31t13 31t32 13q18 0 30 -13q13 -13 13 -31t-13 -31t-30 -13z" />
    <glyph glyph-name="Ccaron" unicode="&#x10c;" horiz-adv-x="1152" 
d="M824 0q-300 0 -512 212t-212 512q0 299 212 511t512 212q131 0 251 -45q17 -6 17 -25q0 -17 -11 -25q-8 -5 -15 -5q-5 0 -11 2q-113 42 -231 42q-276 0 -472 -196q-196 -195 -196 -471t196 -472q196 -195 472 -195q121 0 232 41q8 2 10 2q7 0 15 -5q11 -8 11 -22
q0 -21 -18 -29q-121 -44 -250 -44zM509 1761l240 -241q3 -4 8 -4h79q5 0 8 4l240 241q5 5 2 12t-11 7h-27q-5 0 -8 -3l-236 -213q-8 -8 -15 0l-236 213q-3 3 -8 3h-27q-8 0 -11 -7t2 -12z" />
    <glyph glyph-name="ccaron" unicode="&#x10d;" horiz-adv-x="849" 
d="M607 0q-209 0 -358 149t-149 358t149 358t358 149q75 0 153 -24q19 -6 19 -25v-6q0 -14 -11 -22q-7 -6 -14 -6q-2 0 -8 2q-67 21 -139 21q-186 0 -318 -132q-133 -132 -133 -318t133 -318q132 -132 318 -132q73 0 137 21q8 2 9 2q7 0 15 -6q11 -8 11 -21q0 -22 -18 -26
q-75 -24 -154 -24zM302 1328l240 -241q3 -4 8 -4h79q5 0 8 4l240 241q5 5 2 12t-11 7h-27q-5 0 -8 -3l-236 -213q-7 -7 -15 0l-236 213q-3 3 -8 3h-27q-8 0 -11 -7t2 -12z" />
    <glyph glyph-name="Dcaron" unicode="&#x10e;" horiz-adv-x="1251" 
d="M456 0h-159q-81 0 -139 58t-58 139v1053q0 82 58 140q59 57 139 57h159q300 0 512 -212q213 -211 213 -511t-213 -512q-212 -212 -512 -212zM456 1391h-159q-58 0 -99 -41q-42 -42 -42 -100v-1053q0 -59 42 -99q41 -41 99 -41h159q276 0 472 195q195 196 195 472
t-195 471q-196 196 -472 196zM286 1761l240 -241q3 -4 8 -4h79q5 0 8 4l240 241q5 5 2 12t-11 7h-27q-5 0 -8 -3l-236 -213q-7 -8 -15 0l-236 213q-3 3 -8 3h-27q-8 0 -11 -7t2 -12z" />
    <glyph glyph-name="dcaron" unicode="&#x10f;" horiz-adv-x="1284" 
d="M577 0q209 0 357 148q149 149 150 356v916q0 27 -28 27t-28 -27v-681q-57 96 -115 147q-146 128 -336 128q-209 0 -358 -149t-149 -358t149 -358t358 -149zM577 954q186 0 318 -132q133 -132 133 -318t-133 -318q-132 -132 -318 -132t-318 132q-133 132 -133 318t133 318
q132 132 318 132zM1247 1160h-34q25 61 20 139v0q-15 0 -26 14t-11 32v56q0 20 10 33t26 13h1q17 0 27 -13t10 -33v-126q-8 -88 -23 -115z" />
    <glyph glyph-name="Dcroat" unicode="&#x110;" horiz-adv-x="1373" 
d="M815 695h-536v-498q0 -58 41 -99t99 -41h159q276 0 472 195q195 196 195 472t-195 471q-196 196 -472 196h-159q-58 0 -99 -41q-41 -43 -41 -100v-498h536q26 0 26 -27v-2q0 -28 -26 -28zM38 752h184v498q0 82 58 140q58 57 139 57h159q300 0 512 -212q213 -211 213 -511
t-213 -512q-212 -212 -512 -212h-159q-81 0 -139 58t-58 139v498h-184q-28 0 -28 28q0 29 28 29z" />
    <glyph glyph-name="dcroat" unicode="&#x111;" horiz-adv-x="1274" 
d="M895 822q133 -132 133 -318t-133 -318q-132 -132 -318 -132t-318 132q-133 132 -133 318t133 318q132 132 318 132t318 -132zM1084 1173h153q27 0 27 27v3q0 26 -27 26h-153v191q0 27 -28 27t-28 -27v-191h-444q-27 0 -27 -29q0 -27 27 -27h444v-434q-57 96 -115 147
q-146 128 -336 128q-209 0 -358 -149t-149 -358t149 -358t358 -149t357 148q149 149 150 356v669z" />
    <glyph glyph-name="Emacron" unicode="&#x112;" horiz-adv-x="733" 
d="M657 0h-272q-117 0 -202 83q-83 83 -83 201v879q0 116 83 201q85 83 202 83h272q26 0 26 -27q0 -29 -26 -29h-272q-94 0 -161 -67q-66 -68 -66 -161v-412h497q28 0 28 -26q0 -30 -28 -30h-497v-411q0 -94 66 -161q68 -66 161 -66h272q26 0 26 -28q0 -29 -26 -29z
M708 1637v-2q0 -7 -9 -16t-23 -9h-409q-13 0 -22 9t-9 16v2q0 9 9 18t22 9h409q14 0 23 -9t9 -18z" />
    <glyph glyph-name="emacron" unicode="&#x113;" horiz-adv-x="1150" 
d="M587 0q-209 0 -358 149t-149 358t149 358t358 149q149 0 273 -81q126 -80 187 -215q5 -11 2 -20q-4 -12 -13 -16q-212 -95 -390 -175q-66 -30 -150.5 -68t-142 -64t-95.5 -43q-5 -2 -17.5 -8t-18.5 -9q-9 -4 -22 -9.5t-15 -6.5q17 -38 47 -73q136 -172 355 -172
q143 0 260 84q117 82 165 218q6 19 28 19q13 0 21 -11q9 -12 4 -26q-52 -150 -185 -245q-132 -93 -293 -93zM587 954q-186 0 -318 -132q-133 -132 -133 -318q0 -37 4 -65q6 -44 23 -89l411 186q150 67 411 185q-25 40 -54 73q-136 160 -344 160zM809 1204v-2q0 -7 -9 -16
t-23 -9h-409q-13 0 -22 9t-9 16v2q0 9 9 18t22 9h409q14 0 23 -9t9 -18z" />
    <glyph glyph-name="Ebreve" unicode="&#x114;" horiz-adv-x="733" 
d="M657 0h-272q-117 0 -202 83q-83 83 -83 201v879q0 116 83 201q85 83 202 83h272q26 0 26 -27q0 -29 -26 -29h-272q-94 0 -161 -67q-66 -68 -66 -161v-412h497q28 0 28 -26q0 -30 -28 -30h-497v-411q0 -94 66 -161q68 -66 161 -66h272q26 0 26 -28q0 -29 -26 -29z
M441 1567q-87 0 -157 42q-84 51 -117 148q-3 7 2 15q6 8 15 8h20q11 0 16 -11q27 -67 88 -107q59 -40 135 -40t135 40q59 39 86 107q5 11 16 11h20q10 0 14 -7q5 -8 2 -16q-28 -87 -104 -138q-74 -52 -171 -52z" />
    <glyph glyph-name="ebreve" unicode="&#x115;" horiz-adv-x="1150" 
d="M587 0q-209 0 -358 149t-149 358t149 358t358 149q149 0 273 -81q126 -80 187 -215q5 -11 2 -20q-4 -12 -13 -16q-212 -95 -390 -175q-66 -30 -150.5 -68t-142 -64t-95.5 -43q-5 -2 -17.5 -8t-18.5 -9q-9 -4 -22 -9.5t-15 -6.5q17 -38 47 -73q136 -172 355 -172
q143 0 260 84q117 82 165 218q6 19 28 19q13 0 21 -11q9 -12 4 -26q-52 -150 -185 -245q-132 -93 -293 -93zM587 954q-186 0 -318 -132q-133 -132 -133 -318q0 -37 4 -65q6 -44 23 -89l411 186q150 67 411 185q-25 40 -54 73q-136 160 -344 160zM573 1134q-87 0 -157 42
q-84 51 -117 148q-3 7 2 15q6 8 15 8h20q11 0 16 -11q27 -67 88 -107q59 -40 135 -40t135 40q59 39 86 107q5 11 16 11h20q10 0 14 -7q5 -8 2 -16q-28 -87 -104 -138q-74 -52 -171 -52z" />
    <glyph glyph-name="Edotaccent" unicode="&#x116;" horiz-adv-x="733" 
d="M657 0h-272q-117 0 -202 83q-83 83 -83 201v879q0 116 83 201q85 83 202 83h272q26 0 26 -27q0 -29 -26 -29h-272q-94 0 -161 -67q-66 -68 -66 -161v-412h497q28 0 28 -26q0 -30 -28 -30h-497v-411q0 -94 66 -161q68 -66 161 -66h272q26 0 26 -28q0 -29 -26 -29z
M392 1652q-19 0 -32 13t-13 31t13 31t32 13q18 0 30 -13q13 -13 13 -31t-13 -31t-30 -13z" />
    <glyph glyph-name="edotaccent" unicode="&#x117;" horiz-adv-x="1150" 
d="M587 0q-209 0 -358 149t-149 358t149 358t358 149q149 0 273 -81q126 -80 187 -215q5 -11 2 -20q-4 -12 -13 -16q-212 -95 -390 -175q-66 -30 -150.5 -68t-142 -64t-95.5 -43q-5 -2 -17.5 -8t-18.5 -9q-9 -4 -22 -9.5t-15 -6.5q17 -38 47 -73q136 -172 355 -172
q143 0 260 84q117 82 165 218q6 19 28 19q13 0 21 -11q9 -12 4 -26q-52 -150 -185 -245q-132 -93 -293 -93zM587 954q-186 0 -318 -132q-133 -132 -133 -318q0 -37 4 -65q6 -44 23 -89l411 186q150 67 411 185q-25 40 -54 73q-136 160 -344 160zM574 1219q-19 0 -32 13
t-13 31t13 31t32 13q18 0 30 -13q13 -13 13 -31t-13 -31t-30 -13z" />
    <glyph glyph-name="Eogonek" unicode="&#x118;" horiz-adv-x="733" 
d="M657 0h-272q-117 0 -202 83q-83 83 -83 201v879q0 116 83 201q85 83 202 83h272q26 0 26 -27q0 -29 -26 -29h-272q-94 0 -161 -67q-66 -68 -66 -161v-412h497q28 0 28 -26q0 -30 -28 -30h-497v-411q0 -94 66 -161q68 -66 161 -66h272q26 0 26 -28q0 -29 -26 -29z
M422 -337q69 -103 228 -28q12 6 22 -1q11 -8 11 -20v-10q0 -13 -10 -19q-53 -35 -140 -35q-81 0 -135 48q-56 50 -56 135q0 74 61 172q22 35 44 64q6 8 10 13.5t7 10t4 5.5l2 2h53q-33 -47 -74 -123q-76 -138 -27 -214z" />
    <glyph glyph-name="eogonek" unicode="&#x119;" horiz-adv-x="1150" 
d="M587 0q-209 0 -358 149t-149 358t149 358t358 149q149 0 273 -81q126 -80 187 -215q5 -11 2 -20q-4 -12 -13 -16q-212 -95 -390 -175q-66 -30 -150.5 -68t-142 -64t-95.5 -43q-5 -2 -17.5 -8t-18.5 -9q-9 -4 -22 -9.5t-15 -6.5q17 -38 47 -73q136 -172 355 -172
q143 0 260 84q117 82 165 218q6 19 28 19q13 0 21 -11q9 -12 4 -26q-52 -150 -185 -245q-132 -93 -293 -93zM587 954q-186 0 -318 -132q-133 -132 -133 -318q0 -37 4 -65q6 -44 23 -89l411 186q150 67 411 185q-25 40 -54 73q-136 160 -344 160zM806 -157q69 -103 228 -28
q12 6 22 -1q11 -8 11 -20v-10q0 -13 -10 -19q-53 -35 -140 -35q-81 0 -135 48q-56 50 -56 135q0 74 61 172q22 35 44 64q6 8 10 13.5t7 10t4 5.5l2 2h53q-33 -47 -74 -123q-76 -138 -27 -214z" />
    <glyph glyph-name="Ecaron" unicode="&#x11a;" horiz-adv-x="733" 
d="M657 0h-272q-117 0 -202 83q-83 83 -83 201v879q0 116 83 201q85 83 202 83h272q26 0 26 -27q0 -29 -26 -29h-272q-94 0 -161 -67q-66 -68 -66 -161v-412h497q28 0 28 -26q0 -30 -28 -30h-497v-411q0 -94 66 -161q68 -66 161 -66h272q26 0 26 -28q0 -29 -26 -29z
M104 1761l240 -241q3 -4 8 -4h79q5 0 8 4l240 241q5 5 2 12t-11 7h-27q-5 0 -8 -3l-236 -213q-7 -8 -15 0l-236 213q-3 3 -8 3h-27q-8 0 -11 -7t2 -12z" />
    <glyph glyph-name="ecaron" unicode="&#x11b;" horiz-adv-x="1150" 
d="M587 0q-209 0 -358 149t-149 358t149 358t358 149q149 0 273 -81q126 -80 187 -215q5 -11 2 -20q-4 -12 -13 -16q-212 -95 -390 -175q-66 -30 -150.5 -68t-142 -64t-95.5 -43q-5 -2 -17.5 -8t-18.5 -9q-9 -4 -22 -9.5t-15 -6.5q17 -38 47 -73q136 -172 355 -172
q143 0 260 84q117 82 165 218q6 19 28 19q13 0 21 -11q9 -12 4 -26q-52 -150 -185 -245q-132 -93 -293 -93zM587 954q-186 0 -318 -132q-133 -132 -133 -318q0 -37 4 -65q6 -44 23 -89l411 186q150 67 411 185q-25 40 -54 73q-136 160 -344 160zM286 1328l240 -241
q3 -4 8 -4h79q5 0 8 4l240 241q5 5 2 12t-11 7h-27q-5 0 -8 -3l-236 -213q-7 -7 -15 0l-236 213q-3 3 -8 3h-27q-8 0 -11 -7t2 -12z" />
    <glyph glyph-name="Gcircumflex" unicode="&#x11c;" horiz-adv-x="1587" 
d="M794 0q-300 0 -512 212t-212 512q0 299 212 511t512 212q317 0 533 -233q7 -9 6 -21q-2 -13 -7 -18l-6 -3q-8 -6 -16 -6q-11 0 -20 9q-198 216 -490 216q-276 0 -472 -196q-196 -195 -196 -471t196 -472q196 -195 472 -195q247 0 432 157t226 401l13 80h-487
q-27 0 -27 28t27 28h513q26 0 26 -26q0 -299 -212 -513q-212 -212 -511 -212zM506 1537l240 241q3 3 8 3h79q5 0 8 -3l240 -241q5 -6 2 -13t-11 -7h-27q-5 0 -8 3l-236 214q-7 8 -15 0l-236 -214q-3 -3 -8 -3h-27q-8 0 -11 7t2 13z" />
    <glyph glyph-name="gcircumflex" unicode="&#x11d;" horiz-adv-x="1184" 
d="M577 -435q-301 0 -449 231q-8 11 -3 25q4 10 17 15q8 3 12 3q13 0 24 -14q130 -202 399 -202q166 0 305 128q146 137 146 321v199q-46 -85 -115 -145q-145 -127 -336 -127q-209 0 -358 149t-149 358q0 210 149 359q148 148 358 148q209 0 357 -148q148 -149 150 -357
v-436q0 -207 -166 -361q-157 -146 -341 -146zM577 956q-186 0 -318 -132q-133 -132 -133 -318t133 -318q132 -132 318 -132t318 132q133 132 133 318v7l-2 7q-4 180 -137 308q-131 128 -312 128zM289 1104l240 241q3 3 8 3h79q5 0 8 -3l240 -241q5 -6 2 -13t-11 -7h-27
q-5 0 -8 3l-236 214q-8 7 -15 0l-236 -214q-3 -3 -8 -3h-27q-8 0 -11 7t2 13z" />
    <glyph glyph-name="Gbreve" unicode="&#x11e;" horiz-adv-x="1587" 
d="M794 0q-300 0 -512 212t-212 512q0 299 212 511t512 212q317 0 533 -233q7 -9 6 -21q-2 -13 -7 -18l-6 -3q-8 -6 -16 -6q-11 0 -20 9q-198 216 -490 216q-276 0 -472 -196q-196 -195 -196 -471t196 -472q196 -195 472 -195q247 0 432 157t226 401l13 80h-487
q-27 0 -27 28t27 28h513q26 0 26 -26q0 -299 -212 -513q-212 -212 -511 -212zM793 1567q-87 0 -157 42q-84 51 -117 148q-3 7 2 15q6 8 15 8h20q11 0 16 -11q27 -67 88 -107q59 -40 135 -40t135 40q59 39 86 107q5 11 16 11h20q10 0 14 -7q5 -8 2 -16q-28 -87 -104 -138
q-74 -52 -171 -52z" />
    <glyph glyph-name="gbreve" unicode="&#x11f;" horiz-adv-x="1184" 
d="M577 -435q-301 0 -449 231q-8 11 -3 25q4 10 17 15q8 3 12 3q13 0 24 -14q130 -202 399 -202q166 0 305 128q146 137 146 321v199q-46 -85 -115 -145q-145 -127 -336 -127q-209 0 -358 149t-149 358q0 210 149 359q148 148 358 148q209 0 357 -148q148 -149 150 -357
v-436q0 -207 -166 -361q-157 -146 -341 -146zM577 956q-186 0 -318 -132q-133 -132 -133 -318t133 -318q132 -132 318 -132t318 132q133 132 133 318v7l-2 7q-4 180 -137 308q-131 128 -312 128zM577 1134q-87 0 -157 42q-84 51 -117 148q-3 7 2 15q6 8 15 8h20q11 0 16 -11
q27 -67 88 -107q59 -40 135 -40t135 40q59 39 86 107q5 11 16 11h20q10 0 14 -7q5 -8 2 -16q-28 -87 -104 -138q-74 -52 -171 -52z" />
    <glyph glyph-name="Gdotaccent" unicode="&#x120;" horiz-adv-x="1587" 
d="M794 0q-300 0 -512 212t-212 512q0 299 212 511t512 212q317 0 533 -233q7 -9 6 -21q-2 -13 -7 -18l-6 -3q-8 -6 -16 -6q-11 0 -20 9q-198 216 -490 216q-276 0 -472 -196q-196 -195 -196 -471t196 -472q196 -195 472 -195q247 0 432 157t226 401l13 80h-487
q-27 0 -27 28t27 28h513q26 0 26 -26q0 -299 -212 -513q-212 -212 -511 -212zM795 1652q-19 0 -32 13t-13 31t13 31t32 13q18 0 30 -13q13 -13 13 -31t-13 -31t-30 -13z" />
    <glyph glyph-name="gdotaccent" unicode="&#x121;" horiz-adv-x="1184" 
d="M577 -435q-301 0 -449 231q-8 11 -3 25q4 10 17 15q8 3 12 3q13 0 24 -14q130 -202 399 -202q166 0 305 128q146 137 146 321v199q-46 -85 -115 -145q-145 -127 -336 -127q-209 0 -358 149t-149 358q0 210 149 359q148 148 358 148q209 0 357 -148q148 -149 150 -357
v-436q0 -207 -166 -361q-157 -146 -341 -146zM577 956q-186 0 -318 -132q-133 -132 -133 -318t133 -318q132 -132 318 -132t318 132q133 132 133 318v7l-2 7q-4 180 -137 308q-131 128 -312 128zM578 1219q-19 0 -32 13t-13 31t13 31t32 13q18 0 30 -13q13 -13 13 -31
t-13 -31t-30 -13z" />
    <glyph glyph-name="uni0122" unicode="&#x122;" horiz-adv-x="1587" 
d="M794 0q-300 0 -512 212t-212 512q0 299 212 511t512 212q317 0 533 -233q7 -9 6 -21q-2 -13 -7 -18l-6 -3q-8 -6 -16 -6q-11 0 -20 9q-198 216 -490 216q-276 0 -472 -196q-196 -195 -196 -471t196 -472q196 -195 472 -195q247 0 432 157t226 401l13 80h-487
q-27 0 -27 28t27 28h513q26 0 26 -26q0 -299 -212 -513q-212 -212 -511 -212zM818 -378h-34q25 61 20 139v0q-15 0 -26 14t-11 32v56q0 20 10 33t26 13h1q17 0 27 -13t10 -33v-126q-8 -88 -23 -115z" />
    <glyph glyph-name="uni0123" unicode="&#x123;" horiz-adv-x="1184" 
d="M577 -435q-301 0 -449 231q-8 11 -3 25q4 10 17 15q8 3 12 3q13 0 24 -14q130 -202 399 -202q166 0 305 128q146 137 146 321v199q-46 -85 -115 -145q-145 -127 -336 -127q-209 0 -358 149t-149 358q0 210 149 359q148 148 358 148q209 0 357 -148q148 -149 150 -357
v-436q0 -207 -166 -361q-157 -146 -341 -146zM577 956q-186 0 -318 -132q-133 -132 -133 -318t133 -318q132 -132 318 -132t318 132q133 132 133 318v7l-2 7q-4 180 -137 308q-131 128 -312 128zM571 1402h34q-25 -61 -20 -139v0q15 0 26 -14t11 -32v-56q0 -20 -10 -33
t-26 -13h-1q-17 0 -27 13t-10 33v126q8 88 23 115z" />
    <glyph glyph-name="Hcircumflex" unicode="&#x124;" horiz-adv-x="1140" 
d="M992 0h-2q-27 0 -27 27v668h-787v-668q0 -27 -27 -27q-29 0 -29 27v1393q0 27 27 27q29 0 29 -27v-669h787v669q0 27 27 27q30 0 30 -27v-1393q0 -27 -28 -27zM282 1537l240 241q3 3 8 3h79q5 0 8 -3l240 -241q5 -6 2 -13t-11 -7h-27q-5 0 -8 3l-236 214q-7 8 -15 0
l-236 -214q-3 -3 -8 -3h-27q-8 0 -11 7t2 13z" />
    <glyph glyph-name="hcircumflex" unicode="&#x125;" horiz-adv-x="1029" 
d="M902 0h-3q-26 0 -26 27v577q0 145 -104 249q-103 103 -249 103q-147 0 -250 -103q-104 -104 -104 -249v-577q0 -27 -26 -27q-30 0 -30 27v1393q0 27 28 27t28 -27v-613q48 81 111 127q109 80 243 80q169 0 289 -120t120 -290v-577q0 -27 -27 -27zM244 1510l240 241
q3 3 8 3h79q5 0 8 -3l240 -241q5 -6 2 -13t-11 -7h-27q-5 0 -8 3l-236 214q-7 7 -15 0l-236 -214q-3 -3 -8 -3h-27q-8 0 -11 7t2 13z" />
    <glyph glyph-name="Hbar" unicode="&#x126;" horiz-adv-x="1227" 
d="M1191 1191h-131v-1164q0 -27 -28 -27h-2q-27 0 -27 27v668h-787v-668q0 -27 -27 -27q-29 0 -29 27v1164h-122q-28 0 -28 27q0 29 28 29h122v173q0 27 27 27q29 0 29 -27v-173h787v173q0 27 27 27q30 0 30 -27v-173h131q26 0 26 -26v-3q0 -27 -26 -27zM1003 1191h-787
v-440h787v440z" />
    <glyph glyph-name="hbar" unicode="&#x127;" horiz-adv-x="1089" 
d="M600 1183h-374v-376q48 81 111 127q109 80 243 80q169 0 289 -120t120 -290v-577q0 -27 -27 -27h-3q-26 0 -26 27v577q0 145 -104 249q-103 103 -249 103q-147 0 -250 -103q-104 -104 -104 -249v-577q0 -27 -26 -27q-30 0 -30 27v1156h-132q-28 0 -28 27q0 29 28 29h132
v181q0 27 28 27t28 -27v-181h374q26 0 26 -26v-3q0 -27 -26 -27z" />
    <glyph glyph-name="Itilde" unicode="&#x128;" horiz-adv-x="336" 
d="M170 0h-2q-28 0 -28 27v1393q0 27 28 27t28 -27v-1393q0 -27 -26 -27zM-148 1578q36 115 171 115q54 0 151 -41q99 -41 151 -41q89 0 108 73q5 19 22 17h9q10 0 18 -9q7 -9 4 -20q-33 -116 -158 -116q-62 0 -157 42q-94 41 -145 41q-92 0 -119 -76q-6 -15 -22 -15h-12
q-11 0 -18 10q-8 9 -3 20z" />
    <glyph glyph-name="itilde" unicode="&#x129;" horiz-adv-x="316" 
d="M160 0h-3q-27 0 -27 27v959q0 28 27 28q29 0 29 -28v-959q0 -27 -26 -27zM-158 1145q36 115 171 115q54 0 151 -41q99 -41 151 -41q89 0 108 73q5 19 22 17h9q10 0 18 -9q7 -9 4 -20q-33 -116 -158 -116q-62 0 -157 42q-94 41 -145 41q-92 0 -119 -76q-6 -15 -22 -15h-12
q-11 0 -18 10q-8 9 -3 20z" />
    <glyph glyph-name="Imacron" unicode="&#x12a;" horiz-adv-x="336" 
d="M170 0h-2q-28 0 -28 27v1393q0 27 28 27t28 -27v-1393q0 -27 -26 -27zM404 1637v-2q0 -7 -9 -16t-23 -9h-409q-13 0 -22 9t-9 16v2q0 9 9 18t22 9h409q14 0 23 -9t9 -18z" />
    <glyph glyph-name="imacron" unicode="&#x12b;" horiz-adv-x="316" 
d="M160 0h-3q-27 0 -27 27v959q0 28 27 28q29 0 29 -28v-959q0 -27 -26 -27zM394 1204v-2q0 -7 -9 -16t-23 -9h-409q-13 0 -22 9t-9 16v2q0 9 9 18t22 9h409q14 0 23 -9t9 -18z" />
    <glyph glyph-name="Ibreve" unicode="&#x12c;" horiz-adv-x="336" 
d="M170 0h-2q-28 0 -28 27v1393q0 27 28 27t28 -27v-1393q0 -27 -26 -27zM168 1567q-86 0 -157 42q-84 51 -117 148q-3 7 2 15q6 8 15 8h20q11 0 16 -11q27 -67 88 -107q59 -40 135 -40t135 40q59 39 86 107q5 11 16 11h20q10 0 14 -7q5 -8 2 -16q-28 -87 -104 -138
q-74 -52 -171 -52z" />
    <glyph glyph-name="ibreve" unicode="&#x12d;" horiz-adv-x="316" 
d="M160 0h-3q-27 0 -27 27v959q0 28 27 28q29 0 29 -28v-959q0 -27 -26 -27zM158 1134q-86 0 -157 42q-84 51 -117 148q-3 7 2 15q6 8 15 8h20q11 0 16 -11q27 -67 88 -107q59 -40 135 -40t135 40q59 39 86 107q5 11 16 11h20q10 0 14 -7q5 -8 2 -16q-28 -87 -104 -138
q-74 -52 -171 -52z" />
    <glyph glyph-name="Iogonek" unicode="&#x12e;" horiz-adv-x="336" 
d="M170 0h-2q-28 0 -28 27v1393q0 27 28 27t28 -27v-1393q0 -27 -26 -27zM95 -318q69 -103 228 -28q12 6 22 -1q11 -8 11 -20v-10q0 -13 -10 -19q-53 -35 -140 -35q-81 0 -135 48q-56 50 -56 135q0 74 61 172q22 35 44 64q6 8 10 13.5t7 10t5 6.5l1 1h53q-33 -47 -74 -123
q-76 -138 -27 -214z" />
    <glyph glyph-name="iogonek" unicode="&#x12f;" horiz-adv-x="316" 
d="M160 0h-3q-27 0 -27 27v959q0 28 27 28q29 0 29 -28v-959q0 -27 -26 -27zM160 1359q-19 0 -32 13t-13 31t13 31t32 13q18 0 30 -13q13 -13 13 -31t-13 -31t-30 -13zM84 -319q69 -103 228 -28q12 6 22 -1q11 -8 11 -20v-10q0 -13 -10 -19q-53 -35 -140 -35q-81 0 -135 48
q-56 50 -56 135q0 74 61 172q22 35 44 64q6 8 10 13.5t7 10t4 5.5l2 2h53q-33 -47 -74 -123q-76 -138 -27 -214z" />
    <glyph glyph-name="Idotaccent" unicode="&#x130;" horiz-adv-x="336" 
d="M170 0h-2q-28 0 -28 27v1393q0 27 28 27t28 -27v-1393q0 -27 -26 -27zM169 1652q-19 0 -32 13t-13 31t13 31t32 13q18 0 30 -13q13 -13 13 -31t-13 -31t-30 -13z" />
    <glyph glyph-name="dotlessi" unicode="&#x131;" horiz-adv-x="316" 
d="M160 0h-3q-27 0 -27 27v959q0 28 27 28q29 0 29 -28v-959q0 -27 -26 -27z" />
    <glyph glyph-name="IJ" unicode="&#x132;" horiz-adv-x="973" 
d="M170 0h-2q-28 0 -28 27v1393q0 27 28 27t28 -27v-1393q0 -27 -26 -27zM568 0h-194q-28 0 -28 27q0 30 28 30h194q94 0 162 66q67 67 67 161v1136q0 27 27 27q29 0 29 -27v-1136q0 -118 -83 -201q-85 -83 -202 -83z" />
    <glyph glyph-name="ij" unicode="&#x133;" horiz-adv-x="687" 
d="M178 0h-3q-27 0 -27 27v959q0 28 27 28q29 0 29 -28v-959q0 -27 -26 -27zM178 1359q-19 0 -32 13t-13 31t13 31t32 13q18 0 30 -13q13 -13 13 -31t-13 -31t-30 -13zM203 -435h-61q-27 0 -27 28q0 30 27 30h61q128 0 217 89q88 88 90 218v1056q0 27 27 27q30 0 30 -27
v-1056q-1 -152 -107 -259q-106 -106 -257 -106zM540 1358q-19 0 -32 13t-13 31t13 31t32 13q18 0 30 -13q13 -13 13 -31t-13 -31t-30 -13z" />
    <glyph glyph-name="Jcircumflex" unicode="&#x134;" horiz-adv-x="592" 
d="M46 0h-194q-28 0 -28 27q0 30 28 30h194q95 0 162 67q67 66 67 160v1136q0 28 27 28q29 0 29 -28v-1136q0 -117 -83 -200q-84 -84 -202 -84zM10 1537l239 241q5 3 8 3h80q5 0 8 -3l239 -241q6 -6 3 -13t-11 -7h-27q-5 0 -8 3l-236 214q-8 8 -16 0l-235 -214q-4 -3 -8 -3
h-28q-7 0 -10 7t2 13z" />
    <glyph glyph-name="jcircumflex" unicode="&#x135;" horiz-adv-x="718" 
d="M137 1104l239 241q5 3 8 3h80q5 0 8 -3l239 -241q6 -6 3 -13t-11 -7h-28q-4 0 -7 3l-236 214q-8 8 -16 0l-236 -214q-3 -3 -7 -3h-28q-8 0 -11 7t3 13zM89 -435h-61q-27 0 -27 28q0 30 27 30h61q128 0 217 89q88 88 90 218v1056q0 27 27 27q30 0 30 -27v-1056
q-1 -152 -107 -259q-106 -106 -257 -106z" />
    <glyph glyph-name="uni0136" unicode="&#x136;" horiz-adv-x="1010" 
d="M914 0h-2q-28 0 -28 27v270q-2 186 -133 316q-133 131 -318 131h-257v-717q0 -27 -26 -27q-30 0 -30 27v1393q0 27 28 27t28 -27v-616h211q185 0 318 131q131 130 133 316v169q0 27 27 27q29 0 29 -27v-169q0 -253 -204 -405q-39 -30 -111 -61q83 -31 117 -54
q116 -69 180 -184t64 -250v-270q0 -27 -26 -27zM545 -317h-34q25 61 20 139v0q-15 0 -26 14t-11 32v56q0 20 10 33t26 13h1q17 0 27 -13t10 -33v-126q-8 -88 -23 -115z" />
    <glyph glyph-name="uni0137" unicode="&#x137;" horiz-adv-x="911" 
d="M835 0h-4q-26 0 -26 27v54q-2 186 -133 316q-133 131 -318 131h-188v-501q0 -27 -26 -27q-30 0 -30 27v1393q0 27 28 27t28 -27v-832h142q174 0 301 115q128 116 147 286q3 25 27 25q15 0 22 -9q9 -11 8 -22q-22 -219 -202 -355q-48 -37 -105 -62q55 -19 111 -52
q116 -69 180 -184t64 -249v-54q0 -27 -26 -27zM497 -317h-34q25 61 20 139v0q-15 0 -26 14t-11 32v56q0 20 10 33t26 13h1q17 0 27 -13t10 -33v-126q-8 -88 -23 -115z" />
    <glyph glyph-name="kgreenlandic" unicode="&#x138;" horiz-adv-x="911" 
d="M835 0h-4q-26 0 -26 27v54q-2 186 -133 316q-133 131 -318 131h-188v-501q0 -27 -26 -27q-30 0 -30 27v960q0 27 28 27t28 -27v-399h142q174 0 301 115q128 116 147 286q3 25 27 25q15 0 22 -9q9 -11 8 -22q-22 -219 -202 -355q-48 -37 -105 -62q55 -19 111 -52
q116 -69 180 -184t64 -249v-54q0 -27 -26 -27z" />
    <glyph glyph-name="Lacute" unicode="&#x139;" horiz-adv-x="749" 
d="M712 0h-307q-117 0 -202 83q-83 83 -83 201v1136q0 27 28 27t28 -27v-1136q0 -94 67 -161q67 -66 162 -66h307q27 0 27 -28q0 -29 -27 -29zM342 1611h66l196 220h-89z" />
    <glyph glyph-name="lacute" unicode="&#x13a;" horiz-adv-x="336" 
d="M196 1420v-1393q0 -27 -26 -27q-30 0 -30 27v1393q0 27 28 27t28 -27zM37 1684h66l196 220h-89z" />
    <glyph glyph-name="uni013B" unicode="&#x13b;" horiz-adv-x="749" 
d="M712 0h-307q-117 0 -202 83q-83 83 -83 201v1136q0 27 28 27t28 -27v-1136q0 -94 67 -161q67 -66 162 -66h307q27 0 27 -28q0 -29 -27 -29zM515 -378h-34q25 61 20 139v0q-15 0 -26 14t-11 32v56q0 20 10 33t26 13h1q17 0 27 -13t10 -33v-126q-8 -88 -23 -115z" />
    <glyph glyph-name="uni013C" unicode="&#x13c;" horiz-adv-x="336" 
d="M196 1420v-1393q0 -27 -26 -27q-30 0 -30 27v1393q0 27 28 27t28 -27zM181 -354h-34q25 61 20 139v0q-15 0 -26 14t-11 32v56q0 20 10 33t26 13h1q17 0 27 -13t10 -33v-126q-8 -88 -23 -115z" />
    <glyph glyph-name="Lcaron" unicode="&#x13d;" horiz-adv-x="749" 
d="M712 0h-307q-117 0 -202 83q-83 83 -83 201v1136q0 27 28 27t28 -27v-1136q0 -94 67 -161q67 -66 162 -66h307q27 0 27 -28q0 -29 -27 -29zM500 -333h-34q25 61 20 139v0q-15 0 -26 14t-11 32v56q0 20 10 33t26 13h1q17 0 27 -13t10 -33v-126q-8 -88 -23 -115z" />
    <glyph glyph-name="lcaron" unicode="&#x13e;" horiz-adv-x="396" 
d="M196 1420v-1393q0 -27 -26 -27q-30 0 -30 27v1393q0 27 28 27t28 -27zM184 -375h-34q25 61 20 139v0q-15 0 -26 14t-11 32v56q0 20 10 33t26 13h1q17 0 27 -13t10 -33v-126q-8 -88 -23 -115z" />
    <glyph glyph-name="Ldot" unicode="&#x13f;" horiz-adv-x="749" 
d="M712 0h-307q-117 0 -202 83q-83 83 -83 201v1136q0 27 28 27t28 -27v-1136q0 -94 67 -161q67 -66 162 -66h307q27 0 27 -28q0 -29 -27 -29zM660 674q-20 0 -36 14q-14 16 -14 35q0 21 14 35q15 15 36 15q20 0 34 -15q15 -14 15 -35q0 -20 -15 -35q-14 -14 -34 -14z" />
    <glyph glyph-name="ldot" unicode="&#x140;" horiz-adv-x="435" 
d="M196 1420v-1393q0 -27 -26 -27q-30 0 -30 27v1393q0 27 28 27t28 -27zM373 674q-20 0 -36 14q-14 16 -14 35q0 21 14 35q15 15 36 15t34 -15q15 -14 15 -35q0 -20 -15 -35q-14 -14 -34 -14z" />
    <glyph glyph-name="Lslash" unicode="&#x141;" horiz-adv-x="833" 
d="M796 0h-307q-117 0 -202 83q-83 83 -83 201v1136q0 27 28 27t28 -27v-1136q0 -94 67 -161q67 -66 162 -66h307q27 0 27 -28q0 -29 -27 -29zM617 890l-607 -280v59l607 280v-59z" />
    <glyph glyph-name="lslash" unicode="&#x142;" horiz-adv-x="627" 
d="M342 1420v-1393q0 -27 -27 -27q-30 0 -30 27v1393q0 27 28 27q29 0 29 -27zM617 890l-607 -280v59l607 280v-59z" />
    <glyph glyph-name="Nacute" unicode="&#x143;" horiz-adv-x="1111" 
d="M973 0h-2q-28 0 -28 27v974q0 161 -114 276q-114 114 -274 114q-161 0 -275 -114q-114 -115 -114 -276v-974q0 -27 -27 -27q-29 0 -29 27v974q0 186 130 316t315 130t315 -130q131 -131 131 -316v-974q0 -27 -28 -27zM468 1611h66l196 220h-89z" />
    <glyph glyph-name="nacute" unicode="&#x144;" 
d="M893 0h-4q-26 0 -26 27v577q0 145 -104 249q-103 103 -249 103q-147 0 -250 -103q-104 -104 -104 -249v-577q0 -27 -26 -27q-30 0 -30 27v577q0 170 120 290q122 120 290 120q169 0 289 -120t120 -290v-577q0 -27 -26 -27zM422 1178h66l196 220h-89z" />
    <glyph glyph-name="uni0145" unicode="&#x145;" horiz-adv-x="1111" 
d="M973 0h-2q-28 0 -28 27v974q0 161 -114 276q-114 114 -274 114q-161 0 -275 -114q-114 -115 -114 -276v-974q0 -27 -27 -27q-29 0 -29 27v974q0 186 130 316t315 130t315 -130q131 -131 131 -316v-974q0 -27 -28 -27zM575 -307h-34q25 61 20 139v0q-15 0 -26 14t-11 32
v56q0 20 10 33t26 13h1q17 0 27 -13t10 -33v-126q-8 -88 -23 -115z" />
    <glyph glyph-name="uni0146" unicode="&#x146;" horiz-adv-x="1021" 
d="M893 0h-4q-26 0 -26 27v577q0 145 -104 249q-103 103 -249 103q-147 0 -250 -103q-104 -104 -104 -249v-577q0 -27 -26 -27q-30 0 -30 27v577q0 170 120 290q122 120 290 120q169 0 289 -120t120 -290v-577q0 -27 -26 -27zM539 -321h-34q25 61 20 139v0q-15 0 -26 14
t-11 32v56q0 20 10 33t26 13h1q17 0 27 -13t10 -33v-126q-8 -88 -23 -115z" />
    <glyph glyph-name="Ncaron" unicode="&#x147;" horiz-adv-x="1111" 
d="M973 0h-2q-28 0 -28 27v974q0 161 -114 276q-114 114 -274 114q-161 0 -275 -114q-114 -115 -114 -276v-974q0 -27 -27 -27q-29 0 -29 27v974q0 186 130 316t315 130t315 -130q131 -131 131 -316v-974q0 -27 -28 -27zM268 1761l240 -241q3 -4 8 -4h79q5 0 8 4l240 241
q5 5 2 12t-11 7h-27q-5 0 -8 -3l-236 -213q-7 -8 -15 0l-236 213q-3 3 -8 3h-27q-8 0 -11 -7t2 -12z" />
    <glyph glyph-name="ncaron" unicode="&#x148;" 
d="M893 0h-4q-26 0 -26 27v577q0 145 -104 249q-103 103 -249 103q-147 0 -250 -103q-104 -104 -104 -249v-577q0 -27 -26 -27q-30 0 -30 27v577q0 170 120 290q122 120 290 120q169 0 289 -120t120 -290v-577q0 -27 -26 -27zM222 1328l240 -241q3 -4 8 -4h79q5 0 8 4
l240 241q5 5 2 12t-11 7h-27q-5 0 -8 -3l-236 -213q-7 -7 -15 0l-236 213q-3 3 -8 3h-27q-8 0 -11 -7t2 -12z" />
    <glyph glyph-name="napostrophe" unicode="&#x149;" horiz-adv-x="1000" 
d="M883 0h-4q-26 0 -26 27v577q0 145 -104 249q-103 103 -249 103q-147 0 -250 -103q-104 -104 -104 -249v-577q0 -27 -26 -27q-30 0 -30 27v577q0 170 120 290q122 120 290 120q169 0 289 -120t120 -290v-577q0 -27 -26 -27zM76 902h-34q25 61 20 139v0q-15 0 -26 14
t-11 32v56q0 20 10 33t26 13h1q17 0 27 -13t10 -33v-126q-8 -88 -23 -115z" />
    <glyph glyph-name="Eng" unicode="&#x14a;" horiz-adv-x="1111" 
d="M973 0h-2q-28 0 -28 27v974q0 161 -114 276q-114 114 -274 114q-161 0 -275 -114q-114 -115 -114 -276v-974q0 -27 -27 -27q-29 0 -29 27v974q0 186 130 316t315 130t315 -130q131 -131 131 -316v-974q0 -27 -28 -27zM865 -219l71 241q3 8 11 8h46q6 0 9 -4q4 -4 2 -11
l-81 -240q-2 -8 -11 -8h-36q-6 0 -9 4q-4 4 -2 10z" />
    <glyph glyph-name="eng" unicode="&#x14b;" 
d="M893 0h-4q-26 0 -26 27v577q0 145 -104 249q-103 103 -249 103q-147 0 -250 -103q-104 -104 -104 -249v-577q0 -27 -26 -27q-30 0 -30 27v577q0 170 120 290q122 120 290 120q169 0 289 -120t120 -290v-577q0 -27 -26 -27zM785 -215l71 241q3 8 11 8h46q6 0 9 -4
q4 -4 2 -11l-81 -240q-2 -8 -11 -8h-36q-6 0 -9 4q-4 4 -2 10z" />
    <glyph glyph-name="Omacron" unicode="&#x14c;" horiz-adv-x="1587" 
d="M794 0q-300 0 -512 212t-212 512q0 299 212 511t512 212q299 0 511 -212t212 -511q0 -300 -212 -512t-511 -212zM794 1391q-276 0 -472 -196q-196 -195 -196 -471t196 -472q196 -195 472 -195q274 0 471 195q196 196 196 472t-196 471q-196 196 -471 196zM1030 1637v-2
q0 -7 -9 -16t-23 -9h-409q-13 0 -22 9t-9 16v2q0 9 9 18t22 9h409q14 0 23 -9t9 -18z" />
    <glyph glyph-name="omacron" unicode="&#x14d;" horiz-adv-x="1154" 
d="M577 0q-209 0 -358 149t-149 358t149 358t358 149t358 -149t149 -358t-149 -358t-358 -149zM577 954q-186 0 -318 -132q-133 -132 -133 -318t133 -318q132 -132 318 -132t318 132q133 132 133 318t-133 318q-132 132 -318 132zM813 1204v-2q0 -7 -9 -16t-23 -9h-409
q-13 0 -22 9t-9 16v2q0 9 9 18t22 9h409q14 0 23 -9t9 -18z" />
    <glyph glyph-name="Obreve" unicode="&#x14e;" horiz-adv-x="1587" 
d="M794 0q-300 0 -512 212t-212 512q0 299 212 511t512 212q299 0 511 -212t212 -511q0 -300 -212 -512t-511 -212zM794 1391q-276 0 -472 -196q-196 -195 -196 -471t196 -472q196 -195 472 -195q274 0 471 195q196 196 196 472t-196 471q-196 196 -471 196zM793 1567
q-87 0 -157 42q-84 51 -117 148q-3 7 2 15q6 8 15 8h20q11 0 16 -11q27 -67 88 -107q59 -40 135 -40t135 40q59 39 86 107q5 11 16 11h20q10 0 14 -7q5 -8 2 -16q-28 -87 -104 -138q-74 -52 -171 -52z" />
    <glyph glyph-name="obreve" unicode="&#x14f;" horiz-adv-x="1154" 
d="M577 0q-209 0 -358 149t-149 358t149 358t358 149t358 -149t149 -358t-149 -358t-358 -149zM577 954q-186 0 -318 -132q-133 -132 -133 -318t133 -318q132 -132 318 -132t318 132q133 132 133 318t-133 318q-132 132 -318 132zM577 1134q-87 0 -157 42q-84 51 -117 148
q-3 7 2 15q6 8 15 8h20q11 0 16 -11q27 -67 88 -107q59 -40 135 -40t135 40q59 39 86 107q5 11 16 11h20q10 0 14 -7q5 -8 2 -16q-28 -87 -104 -138q-74 -52 -171 -52z" />
    <glyph glyph-name="Ohungarumlaut" unicode="&#x150;" horiz-adv-x="1587" 
d="M794 0q-300 0 -512 212t-212 512q0 299 212 511t512 212q299 0 511 -212t212 -511q0 -300 -212 -512t-511 -212zM794 1391q-276 0 -472 -196q-196 -195 -196 -471t196 -472q196 -195 472 -195q274 0 471 195q196 196 196 472t-196 471q-196 196 -471 196zM499 1611h66
l196 220h-89zM827 1611h66l196 220h-89z" />
    <glyph glyph-name="ohungarumlaut" unicode="&#x151;" horiz-adv-x="1154" 
d="M577 0q-209 0 -358 149t-149 358t149 358t358 149t358 -149t149 -358t-149 -358t-358 -149zM577 954q-186 0 -318 -132q-133 -132 -133 -318t133 -318q132 -132 318 -132t318 132q133 132 133 318t-133 318q-132 132 -318 132zM282 1178h66l196 220h-89zM610 1178h66
l196 220h-89z" />
    <glyph glyph-name="OE" unicode="&#x152;" horiz-adv-x="2114" 
d="M322 1195q-196 -195 -196 -471t196 -472q196 -195 472 -195q274 0 471 195q196 196 196 472t-196 471q-196 196 -471 196q-276 0 -472 -196zM1463 284v160q-52 -126 -158 -232q-212 -212 -511 -212q-300 0 -512 212t-212 512q0 299 212 511t512 212q299 0 511 -212
q106 -106 158 -231v159q0 119 84 201q83 84 201 84h272q26 0 26 -28q0 -29 -26 -29h-272q-94 0 -160 -67q-67 -66 -67 -161v-411h498q27 0 27 -27q0 -30 -27 -30h-498v-411q0 -94 67 -160q66 -67 160 -67h272q26 0 26 -28t-26 -28h-272q-118 0 -201 83q-84 82 -84 200z" />
    <glyph glyph-name="oe" unicode="&#x153;" horiz-adv-x="2081" 
d="M1084 529v-22q0 -17 -1 -25q2 -28 4 -43q6 -44 23 -89q136 62 411 186q150 67 411 185q-25 40 -54 73q-136 160 -344 160q-186 0 -318 -132q-124 -123 -132 -293zM1028 482q-1 8 -1 25v22q-8 170 -132 293q-132 132 -318 132t-318 -132q-133 -132 -133 -318t133 -318
q132 -132 318 -132t318 132q126 126 133 296zM1056 335q-38 -104 -121 -186q-149 -149 -358 -149t-358 149t-149 358t149 358t358 149t358 -149q83 -82 121 -186q36 103 120 186q149 149 358 149q148 0 273 -81q126 -80 187 -215q5 -11 2 -20q-4 -12 -13 -16
q-40 -18 -169.5 -76t-220.5 -99q-66 -30 -150.5 -68t-142 -64t-95.5 -43q-5 -2 -17.5 -8t-18.5 -9q-9 -4 -22 -9.5t-15 -6.5q17 -38 47 -73q136 -172 355 -172q143 0 260 84q117 82 165 218q6 19 28 19q13 0 21 -11q9 -12 4 -26q-52 -150 -185 -245q-132 -93 -293 -93
q-209 0 -358 149q-84 83 -120 186z" />
    <glyph glyph-name="Racute" unicode="&#x154;" horiz-adv-x="1037" 
d="M185 744h343q134 0 228 94q96 96 96 229q0 134 -96 230q-94 94 -228 94h-107q-105 0 -169 -64q-52 -49 -62 -115q-5 -22 -5 -50v-418zM852 27v338q0 133 -96 228q-86 87 -208 95h-363v-661q0 -12 -7 -19q-8 -8 -19 -8h-2q-11 0 -19 8t-8 19v1143q0 114 80 196
q83 81 197 81h121q157 0 268 -111t111 -269q0 -157 -111 -268q-47 -47 -121 -83q71 -36 122 -83q110 -110 110 -268v-338q0 -11 -8 -19t-19 -8h-2q-10 0 -18 8t-8 19zM431 1611h66l196 220h-89z" />
    <glyph glyph-name="racute" unicode="&#x155;" horiz-adv-x="574" 
d="M129 0h-3q-26 0 -26 27v622q2 154 107 259q105 106 257 106h61q27 0 27 -28q0 -30 -27 -30h-61q-129 0 -217 -88q-90 -90 -91 -219v-622q0 -27 -27 -27zM238 1178h66l196 220h-89z" />
    <glyph glyph-name="uni0156" unicode="&#x156;" horiz-adv-x="1037" 
d="M185 744h343q134 0 228 94q96 96 96 229q0 134 -96 230q-94 94 -228 94h-107q-105 0 -169 -64q-52 -49 -62 -115q-5 -22 -5 -50v-418zM852 27v338q0 133 -96 228q-86 87 -208 95h-363v-661q0 -12 -7 -19q-8 -8 -19 -8h-2q-11 0 -19 8t-8 19v1143q0 114 80 196
q83 81 197 81h121q157 0 268 -111t111 -269q0 -157 -111 -268q-47 -47 -121 -83q71 -36 122 -83q110 -110 110 -268v-338q0 -11 -8 -19t-19 -8h-2q-10 0 -18 8t-8 19zM554 -315h-34q25 61 20 139v0q-15 0 -26 14t-11 32v56q0 20 10 33t26 13h1q17 0 27 -13t10 -33v-126
q-8 -88 -23 -115z" />
    <glyph glyph-name="uni0157" unicode="&#x157;" horiz-adv-x="574" 
d="M129 0h-3q-26 0 -26 27v622q2 154 107 259q105 106 257 106h61q27 0 27 -28q0 -30 -27 -30h-61q-129 0 -217 -88q-90 -90 -91 -219v-622q0 -27 -27 -27zM349 -317h-34q25 61 20 139v0q-15 0 -26 14t-11 32v56q0 20 10 33t26 13h1q17 0 27 -13t10 -33v-126
q-8 -88 -23 -115z" />
    <glyph glyph-name="Rcaron" unicode="&#x158;" horiz-adv-x="1037" 
d="M185 744h343q134 0 228 94q96 96 96 229q0 134 -96 230q-94 94 -228 94h-107q-105 0 -169 -64q-52 -49 -62 -115q-5 -22 -5 -50v-418zM852 27v338q0 133 -96 228q-86 87 -208 95h-363v-661q0 -12 -7 -19q-8 -8 -19 -8h-2q-11 0 -19 8t-8 19v1143q0 114 80 196
q83 81 197 81h121q157 0 268 -111t111 -269q0 -157 -111 -268q-47 -47 -121 -83q71 -36 122 -83q110 -110 110 -268v-338q0 -11 -8 -19t-19 -8h-2q-10 0 -18 8t-8 19zM231 1761l240 -241q3 -4 8 -4h79q5 0 8 4l240 241q5 5 2 12t-11 7h-27q-5 0 -8 -3l-236 -213q-8 -8 -15 0
l-236 213q-3 3 -8 3h-27q-8 0 -11 -7t2 -12z" />
    <glyph glyph-name="rcaron" unicode="&#x159;" horiz-adv-x="574" 
d="M129 0h-3q-26 0 -26 27v622q2 154 107 259q105 106 257 106h61q27 0 27 -28q0 -30 -27 -30h-61q-129 0 -217 -88q-90 -90 -91 -219v-622q0 -27 -27 -27zM38 1328l240 -241q3 -4 8 -4h79q5 0 8 4l240 241q5 5 2 12t-11 7h-27q-5 0 -8 -3l-236 -213q-7 -7 -15 0l-236 213
q-3 3 -8 3h-27q-8 0 -11 -7t2 -12z" />
    <glyph glyph-name="Sacute" unicode="&#x15a;" horiz-adv-x="947" 
d="M499 0h-403q-26 0 -26 28v6q0 26 26 26h403q131 0 224 94q94 93 94 224q0 154 -114 235q-69 49 -252 104q-179 55 -251 109q-114 87 -114 249q0 157 111 268q112 110 268 110h284q27 0 27 -26v-6q0 -28 -27 -28h-284q-132 0 -225 -93q-94 -93 -94 -225q0 -143 114 -217
q61 -40 251 -97q177 -52 251 -113q115 -94 115 -270q0 -156 -111 -267t-267 -111zM386 1611h66l196 220h-89z" />
    <glyph glyph-name="sacute" unicode="&#x15b;" horiz-adv-x="710" 
d="M372 0h-274q-28 0 -28 27q0 30 28 30h274q88 0 149 61q62 62 62 149q0 103 -71 147q-33 21 -154 53q-136 37 -197 88q-79 67 -79 191q0 111 78 189q78 79 189 79h195q27 0 27 -28q0 -30 -27 -30h-195q-87 0 -148 -61q-60 -61 -60 -149q0 -108 84 -164q48 -32 168 -65
q135 -35 181 -75q66 -56 66 -175q0 -110 -78 -188q-79 -79 -190 -79zM268 1178h66l196 220h-89z" />
    <glyph glyph-name="Scircumflex" unicode="&#x15c;" horiz-adv-x="947" 
d="M499 0h-403q-26 0 -26 28v6q0 26 26 26h403q131 0 224 94q94 93 94 224q0 154 -114 235q-69 49 -252 104q-179 55 -251 109q-114 87 -114 249q0 157 111 268q112 110 268 110h284q27 0 27 -26v-6q0 -28 -27 -28h-284q-132 0 -225 -93q-94 -93 -94 -225q0 -143 114 -217
q61 -40 251 -97q177 -52 251 -113q115 -94 115 -270q0 -156 -111 -267t-267 -111zM186 1537l240 241q3 3 8 3h79q5 0 8 -3l240 -241q5 -6 2 -13t-11 -7h-27q-5 0 -8 3l-236 214q-7 8 -15 0l-236 -214q-3 -3 -8 -3h-27q-8 0 -11 7t2 13z" />
    <glyph glyph-name="scircumflex" unicode="&#x15d;" horiz-adv-x="710" 
d="M372 0h-274q-28 0 -28 27q0 30 28 30h274q88 0 149 61q62 62 62 149q0 103 -71 147q-33 21 -154 53q-136 37 -197 88q-79 67 -79 191q0 111 78 189q78 79 189 79h195q27 0 27 -28q0 -30 -27 -30h-195q-87 0 -148 -61q-60 -61 -60 -149q0 -108 84 -164q48 -32 168 -65
q135 -35 181 -75q66 -56 66 -175q0 -110 -78 -188q-79 -79 -190 -79zM68 1104l240 241q3 3 8 3h79q5 0 8 -3l240 -241q5 -6 2 -13t-11 -7h-27q-5 0 -8 3l-236 214q-7 7 -15 0l-236 -214q-3 -3 -8 -3h-27q-8 0 -11 7t2 13z" />
    <glyph glyph-name="Scedilla" unicode="&#x15e;" horiz-adv-x="947" 
d="M499 0h-403q-26 0 -26 28v6q0 26 26 26h403q131 0 224 94q94 93 94 224q0 154 -114 235q-69 49 -252 104q-179 55 -251 109q-114 87 -114 249q0 157 111 268q112 110 268 110h284q27 0 27 -26v-6q0 -28 -27 -28h-284q-132 0 -225 -93q-94 -93 -94 -225q0 -143 114 -217
q61 -40 251 -97q177 -52 251 -113q115 -94 115 -270q0 -156 -111 -267t-267 -111zM418 -406h-100q-8 0 -15 7q-5 5 -3 14v4q1 19 18 19h58q117 0 170 36q52 37 52 91q0 36 -21 63q-25 28 -69 42q-17 5 -52 10q-20 3 -17 21l18 102h57l-16 -84q148 -25 150 -159
q0 -81 -77 -128q-65 -38 -153 -38z" />
    <glyph glyph-name="scedilla" unicode="&#x15f;" horiz-adv-x="710" 
d="M372 0h-274q-28 0 -28 27q0 30 28 30h274q88 0 149 61q62 62 62 149q0 103 -71 147q-33 21 -154 53q-136 37 -197 88q-79 67 -79 191q0 111 78 189q78 79 189 79h195q27 0 27 -28q0 -30 -27 -30h-195q-87 0 -148 -61q-60 -61 -60 -149q0 -108 84 -164q48 -32 168 -65
q135 -35 181 -75q66 -56 66 -175q0 -110 -78 -188q-79 -79 -190 -79zM299 -406h-100q-8 0 -15 7q-5 5 -3 14v4q1 19 18 19h58q117 0 170 36q52 37 52 91q0 36 -21 63q-26 28 -69 42q-17 5 -52 10q-20 3 -17 21l18 102h57l-16 -84q149 -25 150 -159q0 -81 -77 -128
q-65 -38 -153 -38z" />
    <glyph glyph-name="Scaron" unicode="&#x160;" horiz-adv-x="947" 
d="M499 0h-403q-26 0 -26 28v6q0 26 26 26h403q131 0 224 94q94 93 94 224q0 154 -114 235q-69 49 -252 104q-179 55 -251 109q-114 87 -114 249q0 157 111 268q112 110 268 110h284q27 0 27 -26v-6q0 -28 -27 -28h-284q-132 0 -225 -93q-94 -93 -94 -225q0 -143 114 -217
q61 -40 251 -97q177 -52 251 -113q115 -94 115 -270q0 -156 -111 -267t-267 -111zM186 1761l240 -241q3 -4 8 -4h79q5 0 8 4l240 241q5 5 2 12t-11 7h-27q-5 0 -8 -3l-236 -213q-7 -8 -15 0l-236 213q-3 3 -8 3h-27q-8 0 -11 -7t2 -12z" />
    <glyph glyph-name="scaron" unicode="&#x161;" horiz-adv-x="710" 
d="M372 0h-274q-28 0 -28 27q0 30 28 30h274q88 0 149 61q62 62 62 149q0 103 -71 147q-33 21 -154 53q-136 37 -197 88q-79 67 -79 191q0 111 78 189q78 79 189 79h195q27 0 27 -28q0 -30 -27 -30h-195q-87 0 -148 -61q-60 -61 -60 -149q0 -108 84 -164q48 -32 168 -65
q135 -35 181 -75q66 -56 66 -175q0 -110 -78 -188q-79 -79 -190 -79zM68 1328l240 -241q3 -4 8 -4h79q5 0 8 4l240 241q5 5 2 12t-11 7h-27q-5 0 -8 -3l-236 -213q-7 -7 -15 0l-236 213q-3 3 -8 3h-27q-8 0 -11 -7t2 -12z" />
    <glyph glyph-name="uni0162" unicode="&#x162;" horiz-adv-x="846" 
d="M425 0h-4q-26 0 -26 27v1364h-359q-26 0 -26 26q0 30 26 30h774q26 0 26 -27q0 -29 -26 -29h-359v-1364q0 -27 -26 -27zM367 -406h-100q-8 0 -15 7q-5 5 -3 14v4q1 19 18 19h58q117 0 170 36q52 37 52 91q0 36 -21 63q-26 28 -69 42q-17 5 -52 10q-20 3 -17 21l18 102h57
l-16 -84q149 -25 150 -159q0 -81 -77 -128q-65 -38 -153 -38z" />
    <glyph glyph-name="uni0163" unicode="&#x163;" horiz-adv-x="498" 
d="M436 0h-84q-96 0 -164 68t-68 163v1189q0 27 28 27t28 -27v-406h260q27 0 27 -28q0 -30 -27 -30h-260v-725q0 -72 52 -123q51 -51 124 -51h84q27 0 27 -28q0 -29 -27 -29zM236 -406h-100q-8 0 -15 7q-5 5 -3 14v4q1 19 18 19h58q118 0 170 36q52 37 52 91q0 36 -21 63
q-25 28 -69 42q-17 5 -52 10q-20 3 -17 21l18 102h57l-16 -84q148 -25 150 -159q0 -81 -77 -128q-65 -38 -153 -38z" />
    <glyph glyph-name="Tcaron" unicode="&#x164;" horiz-adv-x="846" 
d="M425 0h-4q-26 0 -26 27v1364h-359q-26 0 -26 26q0 30 26 30h774q26 0 26 -27q0 -29 -26 -29h-359v-1364q0 -27 -26 -27zM136 1761l240 -241q3 -4 8 -4h79q5 0 8 4l240 241q5 5 2 12t-11 7h-27q-5 0 -8 -3l-236 -213q-7 -8 -15 0l-236 213q-3 3 -8 3h-27q-8 0 -11 -7
t2 -12z" />
    <glyph glyph-name="tcaron" unicode="&#x165;" horiz-adv-x="571" 
d="M436 0h-84q-96 0 -164 68t-68 163v1189q0 27 28 27t28 -27v-406h260q27 0 27 -28q0 -30 -27 -30h-260v-725q0 -72 52 -123q51 -51 124 -51h84q27 0 27 -28q0 -29 -27 -29zM482 1160h-34q25 61 20 139v0q-15 0 -26 14t-11 32v56q0 20 10 33t26 13h1q17 0 27 -13t10 -33
v-126q-8 -88 -23 -115z" />
    <glyph glyph-name="Tbar" unicode="&#x166;" horiz-adv-x="846" 
d="M770 695h-319v-668q0 -27 -26 -27h-4q-26 0 -26 27v668h-318q-28 0 -28 28q0 29 28 29h318v639h-359q-26 0 -26 26q0 30 26 30h774q26 0 26 -27q0 -29 -26 -29h-359v-639h319q27 0 27 -27v-2q0 -28 -27 -28z" />
    <glyph glyph-name="tbar" unicode="&#x167;" horiz-adv-x="473" 
d="M423 550h-247v-319q0 -72 52 -123q51 -51 124 -51h84q27 0 27 -28q0 -29 -27 -29h-84q-96 0 -164 68t-68 163v1189q0 27 28 27t28 -27v-406h260q27 0 27 -28q0 -30 -27 -30h-260v-349h247q26 0 26 -27v-2q0 -28 -26 -28z" />
    <glyph glyph-name="Utilde" unicode="&#x168;" horiz-adv-x="1131" 
d="M566 0q-184 0 -315 131t-131 314v975q0 27 28 27t28 -27v-975q0 -161 115 -275q115 -113 275 -113q159 0 274 113q114 114 114 275v975q0 27 28 27q29 0 29 -27v-975q0 -183 -131 -314t-314 -131zM249 1578q36 115 171 115q54 0 151 -41q99 -41 151 -41q89 0 108 73
q5 19 22 17h9q11 0 18 -9t4 -20q-33 -116 -158 -116q-62 0 -157 42q-94 41 -145 41q-92 0 -119 -76q-6 -15 -22 -15h-12q-11 0 -18 10q-8 9 -3 20z" />
    <glyph glyph-name="utilde" unicode="&#x169;" 
d="M510 0q-168 0 -290 120q-120 120 -120 289v577q0 28 28 28t28 -28v-577q0 -145 104 -249q103 -103 250 -103q146 0 249 103q104 104 104 249v577q0 28 26 28q30 0 30 -28v-577q0 -169 -120 -289t-289 -120zM193 1145q36 115 171 115q54 0 151 -41q99 -41 151 -41
q89 0 108 73q5 19 22 17h9q11 0 18 -9t4 -20q-33 -116 -158 -116q-63 0 -157 42q-94 41 -145 41q-92 0 -119 -76q-6 -15 -22 -15h-12q-11 0 -18 10q-8 9 -3 20z" />
    <glyph glyph-name="Umacron" unicode="&#x16a;" horiz-adv-x="1131" 
d="M566 0q-184 0 -315 131t-131 314v975q0 27 28 27t28 -27v-975q0 -161 115 -275q115 -113 275 -113q159 0 274 113q114 114 114 275v975q0 27 28 27q29 0 29 -27v-975q0 -183 -131 -314t-314 -131zM801 1637v-2q0 -7 -9 -16t-23 -9h-409q-13 0 -22 9t-9 16v2q0 9 9 18
t22 9h409q14 0 23 -9t9 -18z" />
    <glyph glyph-name="umacron" unicode="&#x16b;" 
d="M510 0q-168 0 -290 120q-120 120 -120 289v577q0 28 28 28t28 -28v-577q0 -145 104 -249q103 -103 250 -103q146 0 249 103q104 104 104 249v577q0 28 26 28q30 0 30 -28v-577q0 -169 -120 -289t-289 -120zM746 1204v-2q0 -7 -9 -16t-23 -9h-409q-13 0 -22 9t-9 16v2
q0 9 9 18t22 9h409q14 0 23 -9t9 -18z" />
    <glyph glyph-name="Ubreve" unicode="&#x16c;" horiz-adv-x="1131" 
d="M566 0q-184 0 -315 131t-131 314v975q0 27 28 27t28 -27v-975q0 -161 115 -275q115 -113 275 -113q159 0 274 113q114 114 114 275v975q0 27 28 27q29 0 29 -27v-975q0 -183 -131 -314t-314 -131zM565 1567q-87 0 -157 42q-84 51 -117 148q-3 7 2 15q6 8 15 8h20
q11 0 16 -11q27 -67 88 -107q59 -40 135 -40t135 40q59 39 86 107q5 11 16 11h20q10 0 14 -7q5 -8 2 -16q-28 -87 -104 -138q-74 -52 -171 -52z" />
    <glyph glyph-name="ubreve" unicode="&#x16d;" 
d="M510 0q-168 0 -290 120q-120 120 -120 289v577q0 28 28 28t28 -28v-577q0 -145 104 -249q103 -103 250 -103q146 0 249 103q104 104 104 249v577q0 28 26 28q30 0 30 -28v-577q0 -169 -120 -289t-289 -120zM509 1134q-87 0 -157 42q-84 51 -117 148q-3 7 2 15q6 8 15 8
h20q11 0 16 -11q27 -67 88 -107q59 -40 135 -40t135 40q59 39 86 107q5 11 16 11h20q10 0 14 -7q5 -8 2 -16q-28 -87 -104 -138q-74 -52 -171 -52z" />
    <glyph glyph-name="Uring" unicode="&#x16e;" horiz-adv-x="1131" 
d="M566 0q-184 0 -315 131t-131 314v975q0 27 28 27t28 -27v-975q0 -161 115 -275q115 -113 275 -113q159 0 274 113q114 114 114 275v975q0 27 28 27q29 0 29 -27v-975q0 -183 -131 -314t-314 -131zM578 1448h-27q-81 0 -136 57q-57 57 -57 137t57 137q56 57 136 57h27
q80 0 137 -57t57 -137t-57 -137t-137 -57zM572 1778h-15q-56 0 -96 -40t-40 -96q0 -57 40 -96q40 -40 96 -40h15q57 0 97 40q39 39 39 96q0 56 -39 96q-40 40 -97 40z" />
    <glyph glyph-name="uring" unicode="&#x16f;" 
d="M510 0q-168 0 -290 120q-120 120 -120 289v577q0 28 28 28t28 -28v-577q0 -145 104 -249q103 -103 250 -103q146 0 249 103q104 104 104 249v577q0 28 26 28q30 0 30 -28v-577q0 -169 -120 -289t-289 -120zM523 1015h-27q-80 0 -136 57q-57 57 -57 137t57 137
q56 57 136 57h27q80 0 137 -57t57 -137t-57 -137t-137 -57zM517 1345h-15q-56 0 -96 -40t-40 -96q0 -57 40 -96q40 -40 96 -40h15q57 0 97 40q39 39 39 96q0 55 -39 96q-40 40 -97 40z" />
    <glyph glyph-name="Uhungarumlaut" unicode="&#x170;" horiz-adv-x="1131" 
d="M566 0q-184 0 -315 131t-131 314v975q0 27 28 27t28 -27v-975q0 -161 115 -275q115 -113 275 -113q159 0 274 113q114 114 114 275v975q0 27 28 27q29 0 29 -27v-975q0 -183 -131 -314t-314 -131zM270 1611h66l196 220h-89zM598 1611h66l196 220h-89z" />
    <glyph glyph-name="uhungarumlaut" unicode="&#x171;" 
d="M510 0q-168 0 -290 120q-120 120 -120 289v577q0 28 28 28t28 -28v-577q0 -145 104 -249q103 -103 250 -103q146 0 249 103q104 104 104 249v577q0 28 26 28q30 0 30 -28v-577q0 -169 -120 -289t-289 -120zM215 1178h66l196 220h-89zM543 1178h66l196 220h-89z" />
    <glyph glyph-name="Uogonek" unicode="&#x172;" horiz-adv-x="1131" 
d="M566 0q-184 0 -315 131t-131 314v975q0 27 28 27t28 -27v-975q0 -161 115 -275q115 -113 275 -113q159 0 274 113q114 114 114 275v975q0 27 28 27q29 0 29 -27v-975q0 -183 -131 -314t-314 -131zM780 -204q69 -103 228 -28q12 6 22 -1q11 -8 11 -20v-10q0 -13 -10 -19
q-53 -35 -140 -35q-81 0 -135 48q-56 50 -56 135q0 74 61 172q22 35 44 64q6 8 10 13.5t7 10t4 6.5l2 1h53q-33 -47 -74 -123q-76 -138 -27 -214z" />
    <glyph glyph-name="uogonek" unicode="&#x173;" 
d="M510 0q-168 0 -290 120q-120 120 -120 289v577q0 28 28 28t28 -28v-577q0 -145 104 -249q103 -103 250 -103q146 0 249 103q104 104 104 249v577q0 28 26 28q30 0 30 -28v-577q0 -169 -120 -289t-289 -120zM712 -201q69 -103 228 -28q12 6 22 -1q11 -8 11 -20v-10
q0 -13 -10 -19q-53 -35 -140 -35q-81 0 -135 48q-56 50 -56 135q0 74 61 172q22 35 44 64q6 8 10 13.5t7 10t4 5.5l2 2h53q-33 -47 -74 -123q-76 -138 -27 -214z" />
    <glyph glyph-name="Wcircumflex" unicode="&#x174;" horiz-adv-x="1810" 
d="M1284 0q-202 0 -323 159q-37 53 -55 96q-16 -40 -55 -95q-123 -160 -324 -160q-167 0 -288 119q-119 121 -119 288v1013q0 27 26 27q30 0 30 -27v-1013q0 -145 103 -248q103 -102 248 -102t247 102q103 103 103 248v1013q0 27 26 27q30 0 30 -27v-1013q0 -145 103 -248
q104 -102 248 -102q145 0 247 102q103 103 103 248v1013q0 27 28 27t28 -27v-1013q0 -167 -119 -288q-119 -119 -287 -119zM618 1537l240 241q3 3 8 3h79q5 0 8 -3l240 -241q5 -6 2 -13t-11 -7h-27q-5 0 -8 3l-236 214q-7 8 -15 0l-236 -214q-3 -3 -8 -3h-27q-8 0 -11 7
t2 13z" />
    <glyph glyph-name="wcircumflex" unicode="&#x175;" horiz-adv-x="1772" 
d="M1264 0q-202 0 -323 159q-31 39 -55 78q-29 -45 -55 -77q-123 -160 -324 -160q-167 0 -288 119q-119 121 -119 288v579q0 28 28 28t28 -28v-579q0 -145 103 -248q103 -102 248 -102t247 102q103 103 103 248v579q0 28 28 28t28 -28v-579q0 -145 103 -248
q103 -102 248 -102t247 102q103 103 103 248v579q0 28 28 28q30 0 30 -28v-579q0 -168 -120 -288q-121 -119 -288 -119zM598 1104l240 241q3 3 8 3h79q5 0 8 -3l240 -241q5 -6 2 -13t-11 -7h-27q-5 0 -8 3l-236 214q-7 7 -15 0l-236 -214q-3 -3 -8 -3h-27q-8 0 -11 7t2 13z
" />
    <glyph glyph-name="Ycircumflex" unicode="&#x176;" horiz-adv-x="1091" 
d="M517 27v476l-56 11q-157 30 -259 153q-102 125 -102 284v469q0 27 28 27q30 0 30 -27v-469q0 -160 113 -275q114 -114 275 -114q160 0 274 114t114 275v469q0 27 28 27q29 0 29 -27v-469q0 -161 -102 -284t-259 -153l-56 -11v-476q0 -27 -27 -27q-30 0 -30 27zM258 1537
l240 241q3 3 8 3h79q5 0 8 -3l240 -241q5 -6 2 -13t-11 -7h-27q-5 0 -8 3l-236 214q-7 8 -15 0l-236 -214q-3 -3 -8 -3h-27q-8 0 -11 7t2 13z" />
    <glyph glyph-name="ycircumflex" unicode="&#x177;" 
d="M509 -436q-128 0 -231 61q-106 62 -158 166q-6 11 -2 21q5 12 14 17l4 1l3 1q3 1 9 1q15 0 23 -14q48 -90 140 -143t198 -53q142 0 248 104q105 105 105 248v252q-46 -79 -110 -125q-110 -80 -243 -80q-169 0 -289 120t-120 290v554q0 27 27 27q29 0 29 -27v-554
q0 -146 104 -250q103 -103 249 -103t249 103q104 104 104 248v556q0 27 27 27q30 0 30 -27v-1011q0 -164 -123 -287t-287 -123zM222 1104l240 241q3 3 8 3h79q5 0 8 -3l240 -241q5 -6 2 -13t-11 -7h-27q-5 0 -8 3l-236 214q-7 7 -15 0l-236 -214q-3 -3 -8 -3h-27q-8 0 -11 7
t2 13z" />
    <glyph glyph-name="Ydieresis" unicode="&#x178;" horiz-adv-x="1091" 
d="M517 27v476l-56 11q-157 30 -259 153q-102 125 -102 284v469q0 27 28 27q30 0 30 -27v-469q0 -160 113 -275q114 -114 275 -114q160 0 274 114t114 275v469q0 27 28 27q29 0 29 -27v-469q0 -161 -102 -284t-259 -153l-56 -11v-476q0 -27 -27 -27q-30 0 -30 27zM372 1652
q-19 0 -32 13t-13 31t13 31t32 13q18 0 30 -13q13 -13 13 -31t-13 -31t-30 -13zM720 1652q-18 0 -31 12q-13 13 -13 31q0 19 12 32q13 13 32 13q18 0 31 -13t13 -32q0 -17 -13 -30t-31 -13z" />
    <glyph glyph-name="Zacute" unicode="&#x179;" horiz-adv-x="968" 
d="M891 0h-731q-48 6 -79 42q-31 35 -31 84q0 27 14 57l766 1099q24 35 5 72t-61 37h-650q-28 0 -28 26q0 30 28 30h653q51 -2 86 -38q36 -36 36 -87q0 -38 -20 -70l-759 -1087q-24 -34 -5 -71t62 -37h714q27 0 27 -28q0 -29 -27 -29zM396 1611h66l196 220h-89z" />
    <glyph glyph-name="zacute" unicode="&#x17a;" horiz-adv-x="930" 
d="M406 487q77 81 180.5 190t132.5 139q89 89 79 118q-6 18 -22 22q-8 2 -35 2h-610q-27 0 -27 26q0 30 27 30h634q66 0 90 -57q25 -58 -20 -103q-154 -161 -296.5 -311t-224.5 -236t-104 -109q-89 -89 -79 -118q6 -18 22 -22q8 -2 36 -2h116v1h539q26 0 26 -28
q0 -29 -26 -29h-539h-141q-65 0 -89 57q-25 58 20 103q72 76 175.5 184.5t135.5 142.5zM381 1178h66l196 220h-89z" />
    <glyph glyph-name="Zdotaccent" unicode="&#x17b;" horiz-adv-x="968" 
d="M891 0h-731q-48 6 -79 42q-31 35 -31 84q0 27 14 57l766 1099q24 35 5 72t-61 37h-650q-28 0 -28 26q0 30 28 30h653q51 -2 86 -38q36 -36 36 -87q0 -38 -20 -70l-759 -1087q-24 -34 -5 -71t62 -37h714q27 0 27 -28q0 -29 -27 -29zM485 1652q-19 0 -32 13t-13 31t13 31
t32 13q18 0 30 -13q13 -13 13 -31t-13 -31t-30 -13z" />
    <glyph glyph-name="zdotaccent" unicode="&#x17c;" horiz-adv-x="930" 
d="M406 487q77 81 180.5 190t132.5 139q89 89 79 118q-6 18 -22 22q-8 2 -35 2h-610q-27 0 -27 26q0 30 27 30h634q66 0 90 -57q25 -58 -20 -103q-154 -161 -296.5 -311t-224.5 -236t-104 -109q-89 -89 -79 -118q6 -18 22 -22q8 -2 36 -2h116v1h539q26 0 26 -28
q0 -29 -26 -29h-539h-141q-65 0 -89 57q-25 58 20 103q72 76 175.5 184.5t135.5 142.5zM469 1219q-19 0 -32 13t-13 31t13 31t32 13q18 0 30 -13q13 -13 13 -31t-13 -31t-30 -13z" />
    <glyph glyph-name="Zcaron" unicode="&#x17d;" horiz-adv-x="968" 
d="M891 0h-731q-48 6 -79 42q-31 35 -31 84q0 27 14 57l766 1099q24 35 5 72t-61 37h-650q-28 0 -28 26q0 30 28 30h653q51 -2 86 -38q36 -36 36 -87q0 -38 -20 -70l-759 -1087q-24 -34 -5 -71t62 -37h714q27 0 27 -28q0 -29 -27 -29zM196 1761l240 -241q3 -4 8 -4h79
q5 0 8 4l240 241q5 5 2 12t-11 7h-27q-5 0 -8 -3l-236 -213q-7 -8 -15 0l-236 213q-3 3 -8 3h-27q-8 0 -11 -7t2 -12z" />
    <glyph glyph-name="zcaron" unicode="&#x17e;" horiz-adv-x="930" 
d="M406 487q77 81 180.5 190t132.5 139q89 89 79 118q-6 18 -22 22q-8 2 -35 2h-610q-27 0 -27 26q0 30 27 30h634q66 0 90 -57q25 -58 -20 -103q-154 -161 -296.5 -311t-224.5 -236t-104 -109q-89 -89 -79 -118q6 -18 22 -22q8 -2 36 -2h116v1h539q26 0 26 -28
q0 -29 -26 -29h-539h-141q-65 0 -89 57q-25 58 20 103q72 76 175.5 184.5t135.5 142.5zM180 1328l240 -241q3 -4 8 -4h79q5 0 8 4l240 241q5 5 2 12t-11 7h-27q-5 0 -8 -3l-236 -213q-7 -7 -15 0l-236 213q-3 3 -8 3h-27q-8 0 -11 -7t2 -12z" />
    <glyph glyph-name="longs" unicode="&#x17f;" horiz-adv-x="582" 
d="M129 0h-2q-27 0 -27 27v1056q2 154 107 259q107 105 257 105h61q27 0 27 -27q0 -29 -27 -29h-61q-128 0 -217 -89q-90 -90 -91 -218v-1057q0 -27 -27 -27z" />
  </font>
</defs>
</svg>
