<?xml version="1.0" standalone="no"?>
<!DOCTYPE svg PUBLIC "-//W3C//DTD SVG 1.1//EN" "http://www.w3.org/Graphics/SVG/1.1/DTD/svg11.dtd" >
<svg xmlns="http://www.w3.org/2000/svg" xmlns:xlink="http://www.w3.org/1999/xlink" version="1.1">
<metadata>
Created by FontForge 20170731 at Sun Jun 26 23:12:21 2022
 By Aleksey,,,
Typeface (c) Ridz Studio. 2022. All Rights Reserved
</metadata>
<defs>
<font id="StudioRoundSansBoldItalic" horiz-adv-x="1255" >
  <font-face 
    font-family="Studio Round Sans"
    font-weight="500"
    font-style="italic"
    font-stretch="normal"
    units-per-em="2048"
    panose-1="0 0 0 0 0 0 0 0 0 0"
    ascent="1638"
    descent="-410"
    x-height="1152"
    cap-height="1562"
    bbox="-274.632 -605 2547.63 2073"
    underline-thickness="50"
    underline-position="-150"
    unicode-range="U+0020-017F"
  />
<missing-glyph horiz-adv-x="457" 
d="M20 675h417v-675h-417v675zM68 48h320v579h-320v-579z" />
    <glyph glyph-name=".notdef" horiz-adv-x="457" 
d="M20 675h417v-675h-417v675zM68 48h320v579h-320v-579z" />
    <glyph glyph-name=".null" horiz-adv-x="0" 
 />
    <glyph glyph-name="nonmarkingreturn" horiz-adv-x="682" 
 />
    <glyph glyph-name="space" unicode=" " horiz-adv-x="611" 
 />
    <glyph glyph-name="exclam" unicode="!" horiz-adv-x="480" 
d="M668 1441l-126 -593l-131 -454h-175l61 454l126 593q10 49 55 86q44 35 92 35h3q49 0 78 -35q28 -35 17 -86zM240 0q-58 0 -90 41q-33 41 -20 99q12 57 62 98t107 41t90 -41q33 -40 21 -98q-14 -58 -63 -99q-50 -41 -107 -41z" />
    <glyph glyph-name="quotedbl" unicode="&#x22;" horiz-adv-x="661" 
d="M602 1442l-27 -124l-106 -332h-173l34 332l27 124q11 50 54 86q44 35 92 35h3q49 0 78 -35q29 -36 18 -86zM918 1442l-27 -124l-106 -332h-173l34 332l27 124q11 50 54 86q44 35 92 35h3q49 0 78 -35q29 -36 18 -86z" />
    <glyph glyph-name="numbersign" unicode="#" horiz-adv-x="1412" 
d="M266 660h207l97 233h-175q-45 0 -71 33q-25 32 -16 78l1 2q9 45 48 78q41 33 85 33h220l103 246q18 44 63 70q32 18 64 18q7 0 25 -2l2 -1q37 -8 57 -45q12 -30 5 -61q-1 -8 -7 -24l-83 -201h226l103 246q18 44 63 70q31 18 63 18q8 0 24 -2l3 -1q40 -7 58 -45
q12 -30 5 -61q-1 -8 -7 -24l-83 -201h178q46 0 70 -33q26 -34 17 -78l-1 -2q-9 -45 -49 -78q-37 -33 -84 -33h-223l-97 -233h190q47 0 71 -33q26 -34 17 -78l-1 -3q-9 -45 -49 -77q-37 -33 -85 -33h-235l-111 -265q-16 -44 -62 -70q-32 -18 -63 -18q-8 0 -24 2l-3 1
q-39 7 -58 46q-14 28 -6 60q1 11 8 24l90 220h-226l-111 -265q-16 -44 -62 -70q-31 -18 -65 -18q-7 0 -25 2l-2 1q-38 8 -56 46q-13 28 -6 60q1 11 8 24l90 220h-162q-47 0 -72 33t-16 77l1 3q9 45 48 78q40 33 86 33zM1025 893h-226l-97 -233h226z" />
    <glyph glyph-name="dollar" unicode="$" horiz-adv-x="1041" 
d="M780 615l-75 -350q17 7 64 60t61 119q29 137 -50 171zM592 950l74 348q-16 -8 -63 -60q-46 -52 -60 -118q-29 -136 49 -170zM528 -148l395 1860q11 4 27 4q64 0 46 -82l-15 -71q91 -22 166 -109q73 -87 81 -207q1 -15 -2 -32q-8 -35 -37 -66q-43 -45 -99 -45h-21
q-83 0 -92 79q-8 95 -52 116l-91 -427q136 -38 196 -110q90 -106 45 -318q-35 -163 -163 -288q-123 -123 -263 -155l-15 -71q-16 -82 -81 -82q-16 0 -25 4zM846 1711l-395 -1858q-15 -5 -29 -5q-63 0 -47 82l15 72q-93 24 -164 109q-73 87 -81 206q-2 17 3 34q7 34 36 64
q44 45 100 45h21q84 0 91 -79q7 -92 51 -115l91 428q-136 36 -195 109q-90 107 -45 317q34 160 162 288q125 124 262 155l15 71q18 82 82 82q15 0 27 -5z" />
    <glyph glyph-name="percent" unicode="%" horiz-adv-x="1511" 
d="M1280 1562h213l-930 -1562h-213zM1208 436q-48 0 -89 -34q-39 -32 -50 -81l-4 -20q-10 -47 16 -81q27 -34 74 -34q48 0 88 34q41 34 51 81l4 20q10 46 -17 81q-25 34 -73 34zM1247 622q122 0 191 -87q68 -87 42 -209l-6 -30q-26 -122 -132 -209q-105 -87 -227 -87
q-121 0 -191 87q-68 87 -42 209l6 30q26 122 132 209t227 87zM688 1376q-47 0 -88 -33q-40 -35 -51 -81l-4 -21q-10 -46 17 -81q25 -34 73 -34t89 34q39 32 50 81l4 21q10 45 -16 81q-27 33 -74 33zM728 1562q122 0 191 -87q67 -87 42 -208l-6 -31q-26 -122 -132 -209
q-105 -87 -227 -87t-191 87q-68 87 -42 209l6 31q25 121 132 208q105 87 227 87z" />
    <glyph glyph-name="ampersand" unicode="&#x26;" horiz-adv-x="1341" 
d="M972 493l40 189h-304q-91 0 -168 -64q-78 -66 -97 -155q-19 -90 31 -155q51 -63 141 -63h85q90 0 167 63q79 65 104 185h1zM1286 913h113q47 0 71 -33q26 -34 16 -78v-3q-11 -46 -50 -78q-40 -32 -85 -32h-113l-84 -395q-6 -30 10 -49q17 -20 46 -20h43q47 0 72 -33
t15 -78v-3q-11 -46 -49 -78q-41 -33 -86 -33h-23q-165 0 -214 106q-133 -106 -320 -106h-85q-192 0 -298 136q-107 138 -67 327q50 230 226 345q-107 108 -63 314q39 183 196 311q156 129 338 129h150q151 0 269 -109l-186 -201q-64 66 -135 66h-150q-80 0 -150 -58
t-89 -148q-19 -91 26 -149q45 -56 126 -56h304l50 235l244 89z" />
    <glyph glyph-name="quotesingle" unicode="'" horiz-adv-x="445" 
d="M652 1442l-27 -124l-106 -332h-173l34 332l27 124q11 50 54 86q44 35 92 35h3q49 0 78 -35q29 -36 18 -86z" />
    <glyph glyph-name="parenleft" unicode="(" horiz-adv-x="707" 
d="M436 -408q-174 40 -261 188q-90 148 -49 341l193 908q41 192 194 341q149 148 341 188q15 4 32 4q40 0 67 -28q40 -35 26 -95l-2 -8q-9 -45 -43 -77q-33 -33 -78 -42q-106 -22 -193 -103t-110 -186l-190 -896q-23 -103 30 -186q52 -81 150 -103q41 -9 60 -42
q20 -34 10 -77l-2 -9q-12 -57 -66 -95q-40 -26 -79 -26q-15 0 -30 3z" />
    <glyph glyph-name="parenright" unicode=")" horiz-adv-x="707" 
d="M96 -408q-15 -4 -32 -4q-39 0 -66 27q-38 38 -26 95l2 9q11 45 44 77q33 33 78 42q105 22 192 103t110 186l190 896q22 103 -30 186q-52 81 -149 103q-41 9 -60 42q-20 34 -11 77l2 8q14 61 66 95q38 28 79 28q16 0 29 -4q173 -40 262 -188q91 -147 50 -341l-193 -908
q-41 -193 -195 -341q-151 -148 -342 -188z" />
    <glyph glyph-name="asterisk" unicode="*" horiz-adv-x="977" 
d="M783 1394h2q47 0 72 -33q25 -32 16 -78l-28 -130l132 39q19 6 39 6q23 0 45 -11q36 -22 41 -64v-2q2 -20 -1 -36q-6 -24 -23 -49q-29 -41 -76 -56l-132 -41l54 -105q14 -30 7 -63q-1 -6 -5 -18q-16 -47 -57 -72l-3 -2q-35 -22 -72 -22q-11 0 -16 1q-46 7 -64 45l-54 105
l-99 -105q-35 -37 -81 -45q-5 -1 -15 -1q-38 0 -69 25l-1 2q-27 22 -24 69l3 18q8 36 34 64l99 104l-116 41q-40 15 -52 55q-8 26 -2 51q3 18 13 35l2 2q22 42 68 64q29 12 53 12q15 0 33 -5l115 -41l28 130q9 45 49 78q41 33 85 33z" />
    <glyph glyph-name="plus" unicode="+" horiz-adv-x="1152" 
d="M951 1187l-60 -283h281q50 0 78 -36q29 -36 18 -86v-2q-10 -50 -54 -85q-44 -36 -94 -36h-281l-60 -281q-11 -50 -54 -86t-94 -36h-2q-51 0 -77 36q-29 36 -18 86l60 281h-283q-51 0 -77 36q-28 34 -18 85v2q11 50 54 86q42 36 93 36h283l60 283q10 50 54 85q42 36 93 36
h2q49 0 78 -36q28 -34 18 -85z" />
    <glyph glyph-name="comma" unicode="," horiz-adv-x="441" 
d="M220 241h119q36 0 50 -32q8 -18 4 -35q-3 -16 -13 -30l-190 -287q-27 -41 -71 -41h-66q-34 0 -49 27q-10 19 -6 40q1 4 7 19l139 287q22 52 76 52z" />
    <glyph glyph-name="hyphen" unicode="-" horiz-adv-x="872" 
d="M988 782v-2q-10 -50 -54 -85q-44 -36 -94 -36h-529q-51 0 -77 36q-28 34 -18 85v2q11 50 54 86q42 36 93 36h529q50 0 78 -36q29 -36 18 -86z" />
    <glyph glyph-name="period" unicode="." horiz-adv-x="480" 
d="M240 0q-58 0 -90 41q-33 41 -20 99q12 57 62 98t107 41t90 -41q33 -40 21 -98q-14 -58 -63 -99q-50 -41 -107 -41z" />
    <glyph glyph-name="slash" unicode="/" horiz-adv-x="695" 
d="M795 1562h232l-793 -1562h-234z" />
    <glyph glyph-name="zero" unicode="0" horiz-adv-x="1275" 
d="M969 1563q222 0 347 -158q124 -157 77 -379l-104 -488q-46 -222 -238 -380q-193 -158 -414 -158q-220 0 -345 158t-78 380l104 488q47 221 239 379q191 158 412 158zM916 1313q-121 0 -225 -86q-103 -85 -129 -207l-101 -476q-26 -123 41 -207q68 -86 188 -86t226 86
q105 86 130 207l101 476q25 122 -42 207q-68 86 -189 86z" />
    <glyph glyph-name="one" unicode="1" horiz-adv-x="689" 
d="M845 1441l-280 -1320q-11 -50 -53 -85q-44 -36 -94 -36h-2q-50 0 -78 36q-28 34 -17 85l254 1197h-164q-48 0 -77 35q-29 36 -18 86v2q10 49 55 86q44 35 92 35h287q50 0 79 -35q27 -36 16 -86z" />
    <glyph glyph-name="two" unicode="2" horiz-adv-x="1224" 
d="M603 1562h402q183 0 285 -129q101 -130 62 -311q-34 -159 -189 -290q-90 -77 -309 -196q-207 -114 -296 -184q-133 -109 -154 -207h651q51 0 77 -36q29 -36 18 -86v-2q-10 -50 -54 -85q-42 -36 -93 -36h-782q-49 0 -77 36q-28 34 -18 85l20 94q39 184 197 333
q109 102 318 219q260 148 299 175q129 92 147 180q18 81 -27 138q-46 58 -127 58h-402q-49 0 -78 35q-29 36 -18 86v2q10 49 55 86q44 35 93 35z" />
    <glyph glyph-name="three" unicode="3" horiz-adv-x="1035" 
d="M523 1562h280q181 0 285 -129q101 -130 62 -311q-44 -206 -195 -314q127 -116 78 -345q-41 -191 -205 -327t-357 -136h-280q-49 0 -77 36q-28 34 -18 85v2q11 50 54 86q44 36 93 36h280q91 0 168 63q77 65 96 155q19 91 -30 155t-141 64h-236q-50 0 -78 36q-28 34 -17 85
v2q11 50 53 86q44 35 94 35l236 1q80 0 150 56q70 58 86 139q18 81 -27 138q-46 58 -126 58h-280q-48 0 -77 35q-29 36 -18 86v2q10 49 55 86q44 35 92 35z" />
    <glyph glyph-name="four" unicode="4" horiz-adv-x="1253" 
d="M200 539l736 961q47 62 119 62h150q49 0 78 -35q28 -35 17 -86l-192 -906h115q49 0 78 -36q27 -37 17 -86l-1 -2q-11 -52 -53 -85q-44 -36 -93 -36h-115l-36 -169q-10 -50 -54 -85q-44 -36 -93 -36h-3q-48 0 -77 36q-28 34 -18 85l36 169h-558q-49 0 -78 36
q-28 34 -18 85l15 70q8 34 28 58zM476 535h387l148 699z" />
    <glyph glyph-name="five" unicode="5" horiz-adv-x="1174" 
d="M785 682h-399q-48 0 -77 36q-28 34 -18 85l135 638q10 49 55 86q44 35 92 35h610q49 0 78 -35q28 -35 17 -86v-2q-11 -50 -54 -86q-44 -35 -93 -35h-486l-83 -392h275q193 0 299 -135q106 -136 66 -328q-41 -191 -205 -327t-357 -136h-399q-49 0 -77 36q-28 34 -18 85v2
q11 50 54 86q44 36 93 36h399q92 0 168 63q77 65 96 155q19 91 -30 155t-141 64z" />
    <glyph glyph-name="six" unicode="6" horiz-adv-x="1258" 
d="M839 682h-349l-47 -219q-19 -90 31 -155q51 -63 141 -63h131q92 0 168 63q77 65 96 155q19 91 -30 155t-141 64zM694 0h-131q-192 0 -298 136q-107 138 -67 327l136 636q41 192 205 327q164 136 356 136h305q50 0 79 -35q28 -35 17 -86v-2q-11 -50 -54 -86
q-44 -35 -94 -35h-305q-91 0 -167 -64q-78 -64 -97 -155l-37 -173h349q193 0 299 -135q106 -136 66 -328q-41 -191 -205 -327t-357 -136z" />
    <glyph glyph-name="seven" unicode="7" horiz-adv-x="960" 
d="M1235 1437l-680 -1320q-11 -47 -52 -81q-43 -36 -94 -36h-2q-51 0 -77 36q-29 35 -17 89l613 1193h-515q-48 0 -77 35q-29 36 -18 86v2q10 49 55 86q44 35 92 35h678q50 0 79 -35q27 -36 15 -90z" />
    <glyph glyph-name="eight" unicode="8" horiz-adv-x="1276" 
d="M895 1562h150q182 0 284 -129t63 -311q-44 -206 -195 -314q126 -116 77 -345q-41 -191 -205 -327q-163 -136 -356 -136h-150q-192 0 -298 136q-107 138 -67 327q50 230 226 345q-107 108 -63 314q39 183 196 311q156 129 338 129zM615 245h150q91 0 167 63q78 64 97 155
t-31 155q-49 64 -140 64h-150q-91 0 -168 -64q-78 -66 -97 -155q-19 -90 31 -155q51 -63 141 -63zM760 927h150q80 0 150 56q70 58 86 139q18 81 -27 138q-46 58 -126 58h-150q-80 0 -150 -58q-69 -57 -87 -138q-17 -83 28 -139t126 -56z" />
    <glyph glyph-name="nine" unicode="9" horiz-adv-x="1258" 
d="M750 880h350l47 219q19 90 -31 155q-51 64 -142 64h-131q-91 0 -167 -64q-78 -64 -97 -155t31 -155q49 -64 140 -64zM895 1562h131q193 0 299 -136q107 -136 67 -327l-136 -636q-41 -191 -205 -327t-357 -136h-392q-50 0 -78 36q-28 34 -17 85v2q11 50 53 86q44 36 94 36
h392q92 0 168 63q77 65 96 155l38 173h-350q-192 0 -298 136t-66 327q41 192 205 327q164 136 356 136z" />
    <glyph glyph-name="colon" unicode=":" horiz-adv-x="480" 
d="M240 0q-58 0 -90 41q-33 41 -20 99q12 57 62 98t107 41t90 -41q33 -40 21 -98q-14 -58 -63 -99q-50 -41 -107 -41zM426 873q-58 0 -91 41q-32 41 -20 99q12 57 62 98t108 41q57 0 89 -41q34 -40 21 -98q-12 -59 -63 -99q-50 -41 -106 -41z" />
    <glyph glyph-name="semicolon" unicode=";" horiz-adv-x="480" 
d="M220 241h119q36 0 50 -32q8 -18 4 -35q-3 -16 -13 -30l-190 -287q-27 -41 -71 -41h-66q-34 0 -49 27q-10 19 -6 40q1 4 7 19l139 287q22 52 76 52zM426 873q-58 0 -91 41q-32 41 -20 99q12 57 62 98t108 41q57 0 89 -41q34 -40 21 -98q-12 -59 -63 -99q-50 -41 -106 -41z
" />
    <glyph glyph-name="less" unicode="&#x3c;" horiz-adv-x="1190" 
d="M1076 243l-846 359q-49 20 -36 78l38 181q12 57 70 79l998 358q17 7 34 7q24 0 42 -15q32 -26 22 -70l-14 -67q-12 -56 -70 -78l-838 -304l709 -305q50 -20 36 -78l-14 -67q-9 -45 -52 -70q-24 -15 -48 -15q-17 0 -31 7z" />
    <glyph glyph-name="equal" unicode="=" horiz-adv-x="1152" 
d="M1220 557v-2q-10 -50 -54 -85q-44 -36 -94 -36h-809q-51 0 -77 36q-28 34 -18 85v2q10 49 55 86q40 36 92 36h809q50 0 79 -36q28 -35 17 -86zM1313 992l-1 -2q-10 -50 -54 -85q-44 -36 -93 -36h-809q-51 0 -78 36q-28 34 -18 85l1 2q11 50 54 86q42 36 93 36h809
q49 0 78 -36t18 -86z" />
    <glyph glyph-name="greater" unicode="&#x3e;" horiz-adv-x="1190" 
d="M1215 602l-998 -359q-18 -7 -35 -7q-24 0 -42 15q-31 25 -22 70l14 67q14 59 70 78l840 305l-711 304q-48 23 -36 78l14 67q10 45 52 70q24 15 48 15q17 0 32 -7l846 -358q48 -22 36 -79l-38 -181q-14 -59 -70 -78z" />
    <glyph glyph-name="question" unicode="?" horiz-adv-x="1110" 
d="M872 1546q198 0 307 -139t67 -337q-34 -167 -169 -299q-130 -128 -287 -163l-27 -130q-11 -48 -53 -83q-43 -35 -91 -35h-3q-48 0 -77 35q-27 36 -17 85l50 235q11 50 53 84q40 35 90 36h5q98 0 181 68q84 69 104 167q21 98 -33 167q-54 68 -152 68q-78 0 -151 -47
q-71 -47 -109 -119q-21 -40 -56 -61q-37 -23 -76 -23h-3q-60 0 -86 48q-16 31 -9 69q5 21 14 37q76 148 221 242q149 95 307 95zM540 -1q-58 0 -90 41q-33 41 -20 99q12 58 61 98q50 41 108 41q57 0 89 -41q34 -40 22 -98q-13 -59 -63 -99q-50 -41 -107 -41z" />
    <glyph glyph-name="at" unicode="@" horiz-adv-x="2205" 
d="M1516 -289q-267 -119 -500 -119h-2q-416 0 -645 294q-233 290 -144 702q88 412 442 701q355 295 773 295q417 0 646 -295q232 -289 144 -701q-52 -250 -225 -441q-170 -189 -337 -197h-17q-100 0 -153 65q-73 85 -22 322l4 20l49 223q33 154 -47 241q-50 53 -136 69
q-32 7 -68 7q-51 0 -111 -17q-219 -63 -270 -300q-41 -197 110 -283q61 -36 140 -36q6 0 20 2q86 6 205 75l51 -221q-150 -77 -283 -88q-14 -1 -42 -1q-138 0 -251 64q-125 72 -176 200q-52 130 -19 288q56 258 261 409q190 142 417 142q226 0 356 -141q143 -154 88 -410
l-49 -225l-5 -24q-28 -133 -13 -148q50 3 135 109q109 133 143 296q67 316 -110 542q-174 221 -485 221t-583 -224q-269 -221 -337 -539q-68 -319 110 -543q175 -220 484 -220h2q182 0 401 103z" />
    <glyph glyph-name="A" unicode="A" 
d="M1367 1045l-196 -924q-10 -50 -54 -85q-43 -36 -93 -36h-3q-48 0 -77 36q-28 34 -18 85l95 446h-545l-95 -446q-10 -50 -54 -85q-43 -36 -93 -36h-3q-49 0 -77 36q-28 34 -18 85l196 924q47 215 230 366q184 151 397 151q214 0 334 -151q120 -152 74 -366zM527 811h545
l50 234q24 113 -38 193q-63 80 -177 80q-112 0 -210 -80q-96 -79 -120 -193z" />
    <glyph glyph-name="B" unicode="B" horiz-adv-x="1164" 
d="M627 1280l-75 -354l275 1q81 0 151 56q70 58 86 139q18 81 -27 138q-46 58 -127 58h-238q-15 0 -29 -11q-13 -10 -16 -27zM170 282l212 998q26 118 126 200t216 82h238q183 0 285 -129q101 -130 62 -311q-44 -206 -195 -314q128 -116 78 -345q-41 -191 -205 -327
t-357 -136h-238q-116 0 -181 83q-67 83 -41 199zM444 245h238q92 0 168 63q77 65 96 155q19 91 -30 155t-141 64h-275l-85 -400q-3 -17 4 -27q9 -10 25 -10z" />
    <glyph glyph-name="C" unicode="C" horiz-adv-x="1202" 
d="M1188 1562q99 0 189 -24q87 -24 67 -117l-1 -3q-12 -58 -68 -96q-37 -25 -75 -25q-17 0 -32 4q-66 17 -132 17q-222 0 -412 -157q-192 -159 -238 -380q-46 -223 76 -380q124 -156 346 -156q70 0 138 16q16 4 34 4q39 0 65 -25q40 -36 28 -96l-1 -2q-19 -94 -117 -118
q-101 -24 -199 -24q-323 0 -503 229q-181 229 -112 552t346 552t601 229z" />
    <glyph glyph-name="D" unicode="D" horiz-adv-x="1384" 
d="M627 1280l-212 -998q-3 -17 4 -27q9 -10 25 -10h151q223 0 413 156q192 159 238 380q46 223 -76 380q-124 157 -347 157h-151q-15 0 -29 -11q-13 -10 -16 -27zM724 1562h151q323 0 503 -229q181 -229 112 -552t-346 -552t-601 -229h-151q-116 0 -181 83q-67 83 -41 199
l212 998q26 118 126 200t216 82z" />
    <glyph glyph-name="E" unicode="E" horiz-adv-x="1008" 
d="M609 1197l-62 -294h477q48 0 77 -35q29 -36 18 -86v-2q-11 -50 -54 -86q-44 -35 -93 -35h-477l-62 -294q-11 -51 17 -85q27 -35 77 -35h357q48 0 77 -36t18 -86v-2q-10 -50 -54 -85q-43 -36 -93 -36h-357q-151 0 -235 107q-85 106 -52 258l176 832q33 151 162 258
q131 107 281 107h357q48 0 77 -36q28 -34 18 -85v-2q-11 -50 -54 -86t-93 -36h-357q-49 0 -93 -35q-42 -35 -53 -85z" />
    <glyph glyph-name="F" unicode="F" horiz-adv-x="933" 
d="M609 1197l-62 -294h417q48 0 77 -35q29 -36 18 -86v-2q-10 -50 -54 -85q-43 -36 -93 -36h-417l-114 -538q-10 -50 -54 -85q-43 -36 -93 -36h-3q-49 0 -77 36q-28 34 -18 85l228 1076q33 151 162 258q131 107 281 107h307q49 0 78 -35q28 -35 17 -86v-2q-11 -50 -54 -86
q-44 -35 -93 -35h-307q-49 0 -92 -35q-43 -34 -54 -86z" />
    <glyph glyph-name="G" unicode="G" horiz-adv-x="1723" 
d="M1193 1562q343 0 521 -252q26 -37 16 -82q-2 -8 -4 -13q-18 -56 -67 -84l-2 -2q-37 -24 -75 -24q-9 0 -14 1q-44 4 -69 39q-122 173 -358 173q-222 0 -412 -157q-192 -159 -238 -380q-46 -223 76 -380q125 -156 346 -156q199 0 376 129q178 128 236 285h-499
q-50 0 -78 36q-28 34 -17 85v2q11 50 53 86q44 35 94 35h635q49 0 78 -35q29 -36 18 -86v-1q-69 -323 -346 -552q-278 -229 -602 -229q-323 0 -503 229q-181 229 -112 552t346 552t601 229z" />
    <glyph glyph-name="H" unicode="H" horiz-adv-x="1264" 
d="M563 1562h3q49 0 78 -35q28 -35 17 -86l-114 -538h554l114 538q10 49 55 86q44 35 92 35h3q49 0 78 -35q28 -35 17 -86l-280 -1320q-10 -50 -54 -85q-44 -36 -93 -36h-3q-48 0 -77 36q-28 34 -18 85l114 538h-554l-114 -538q-10 -50 -54 -85q-43 -36 -93 -36h-3
q-49 0 -77 36q-28 34 -18 85l280 1320q10 49 55 86q44 35 92 35z" />
    <glyph glyph-name="I" unicode="I" horiz-adv-x="525" 
d="M593 1562h3q49 0 78 -35q28 -35 17 -86l-280 -1320q-10 -50 -54 -85q-43 -36 -93 -36h-3q-48 0 -77 36q-28 34 -18 85l280 1320q10 49 55 86q44 35 92 35z" />
    <glyph glyph-name="J" unicode="J" horiz-adv-x="801" 
d="M515 365l228 1076q11 50 54 86q44 35 93 35h2q50 0 79 -35q27 -36 16 -86l-228 -1076q-33 -151 -162 -258q-131 -107 -281 -107h-185q-49 0 -77 36q-28 34 -18 85v2q11 50 54 86q44 36 93 36h185q50 0 94 35q42 35 53 85z" />
    <glyph glyph-name="K" unicode="K" horiz-adv-x="1158" 
d="M563 1562h3q49 0 78 -35q28 -35 17 -86l-103 -488h104q138 0 253 96q119 98 147 233l34 159q10 49 55 86q43 35 92 35h3q49 0 78 -35q28 -35 17 -86l-34 -159q-61 -290 -288 -435q77 -54 124 -183q48 -133 15 -287l-54 -256q-11 -50 -53 -85q-43 -36 -94 -36h-2
q-49 0 -78 36q-28 34 -17 85l54 256q28 136 -48 233q-76 96 -214 96h-147l-124 -585q-10 -50 -54 -85q-43 -36 -93 -36h-3q-49 0 -77 36q-28 34 -18 85l280 1320q10 49 55 86q44 35 92 35z" />
    <glyph glyph-name="L" unicode="L" horiz-adv-x="908" 
d="M671 1441l-228 -1076q-11 -51 17 -85q27 -35 77 -35h291q50 0 78 -36q29 -36 18 -86v-2q-10 -50 -54 -85q-44 -36 -94 -36h-291q-151 0 -235 107q-85 106 -52 258l228 1076q10 49 55 86q44 35 92 35h3q49 0 78 -35q28 -35 17 -86z" />
    <glyph glyph-name="M" unicode="M" horiz-adv-x="1899" 
d="M585 1081l-204 -960q-10 -50 -54 -85q-43 -36 -93 -36h-3q-49 0 -77 36q-28 34 -18 85l204 960q42 199 213 340t370 141q238 0 325 -158q155 158 392 158q199 0 310 -141t69 -340l-204 -960q-11 -50 -53 -85q-44 -36 -94 -36h-2q-52 0 -77 36q-28 34 -18 85l204 960
q21 99 -34 168q-54 69 -153 69q-98 0 -182 -69q-83 -70 -104 -168l-204 -960q-10 -50 -54 -85q-42 -36 -93 -36h-2q-49 0 -78 36q-28 34 -18 85l204 960q21 99 -34 168q-54 69 -152 69t-182 -69q-83 -70 -104 -168z" />
    <glyph glyph-name="N" unicode="N" 
d="M1367 1045l-196 -924q-10 -50 -54 -85q-43 -36 -93 -36h-3q-48 0 -77 36q-28 34 -18 85l196 924q24 113 -38 193q-63 80 -177 80q-112 0 -210 -80q-96 -79 -120 -193l-196 -924q-10 -50 -54 -85q-43 -36 -93 -36h-3q-49 0 -77 36q-28 34 -18 85l196 924q47 215 230 366
q184 151 397 151q214 0 334 -151q120 -152 74 -366z" />
    <glyph glyph-name="O" unicode="O" horiz-adv-x="1723" 
d="M1193 1562q323 0 504 -229t112 -552t-346 -552q-278 -229 -602 -229q-323 0 -503 229q-181 229 -112 552t346 552t601 229zM1141 1318q-222 0 -412 -157q-192 -159 -238 -380q-46 -223 76 -380q125 -156 346 -156q223 0 413 156q192 159 238 380q46 223 -76 380
q-124 157 -347 157z" />
    <glyph glyph-name="P" unicode="P" horiz-adv-x="1242" 
d="M574 1031l-61 -286h286q119 0 221 84q100 82 126 202q25 118 -40 203q-66 84 -185 84t-221 -84q-100 -84 -126 -203zM747 500h-286l-80 -379q-10 -50 -54 -85q-43 -36 -93 -36h-3q-49 0 -77 36q-28 34 -18 85l193 910q46 219 236 376q190 155 408 155q220 0 342 -155
q123 -155 76 -376q-47 -220 -236 -375q-187 -156 -408 -156z" />
    <glyph glyph-name="Q" unicode="Q" horiz-adv-x="1723" 
d="M1193 1562q323 0 504 -229t112 -552q-63 -297 -309 -519q-241 -220 -514 -253l-33 -157q-10 -49 -55 -86q-44 -35 -93 -35h-2q-49 0 -78 35q-28 35 -17 86l33 157q-259 33 -407 253q-151 221 -88 519q69 323 346 552t601 229zM986 591h2q50 0 78 -36t18 -85l-45 -213
q160 25 322 175q161 152 203 349q46 223 -76 380q-124 157 -347 157q-222 0 -412 -157q-192 -159 -238 -380q-42 -200 55 -348q96 -150 248 -176l45 213q10 49 54 85q42 36 93 36z" />
    <glyph glyph-name="R" unicode="R" horiz-adv-x="1190" 
d="M525 806h276q105 0 197 74q92 75 114 181t-37 182q-59 74 -165 74h-115q-74 0 -126 -41q-40 -32 -58 -78q-6 -14 -10 -35zM912 121l39 185q22 106 -36 181q-54 70 -147 74h-295l-93 -440q-11 -50 -53 -85q-44 -36 -94 -36h-2q-51 0 -77 36q-28 34 -18 85l223 1051
q35 162 173 275q139 115 300 115h130q206 0 322 -147t72 -354q-43 -205 -223 -353l-28 -24l19 -25q115 -145 71 -353l-39 -185q-10 -50 -54 -85q-44 -36 -93 -36h-2q-49 0 -77 36q-28 34 -18 85z" />
    <glyph glyph-name="S" unicode="S" horiz-adv-x="1096" 
d="M1090 1320h-279q-85 0 -159 -60q-73 -59 -91 -146q-23 -102 60 -155q36 -22 224 -81q160 -51 223 -123q96 -106 55 -301q-41 -188 -203 -321q-160 -133 -348 -133h-381q-49 0 -77 36t-18 85l1 6q10 49 54 85q43 36 93 36h391q85 0 158 60q72 59 92 146q21 100 -60 156
q-42 27 -224 88q-158 55 -222 127q-95 107 -56 289q41 188 201 321t349 133h269q50 0 79 -36q28 -35 17 -85l-2 -6q-11 -50 -53 -85q-43 -36 -93 -36z" />
    <glyph glyph-name="T" unicode="T" horiz-adv-x="1054" 
d="M1320 1441v-2q-11 -50 -54 -86q-44 -35 -93 -35h-244l-254 -1197q-11 -50 -53 -85q-44 -36 -94 -36h-2q-50 0 -78 36q-28 34 -17 85l254 1197h-244q-48 0 -77 35q-29 36 -18 86v2q10 49 55 86q44 35 92 35h732q49 0 78 -35q28 -35 17 -86z" />
    <glyph glyph-name="U" unicode="U" 
d="M1451 1441l-196 -924q-46 -214 -230 -365q-185 -152 -398 -152t-333 152t-74 365l196 924q10 49 55 86q44 35 92 35h3q49 0 78 -35q28 -35 17 -86l-196 -924q-24 -113 38 -193q63 -79 176 -79q114 0 211 79q96 79 120 193l196 924q10 49 55 86q44 35 92 35h3q49 0 78 -35
q28 -35 17 -86z" />
    <glyph glyph-name="V" unicode="V" horiz-adv-x="1216" 
d="M579 1480l105 -1127l584 1127q45 82 131 82h7q62 0 88 -50q17 -34 10 -69q-4 -18 -17 -42l-683 -1284q-70 -117 -196 -117q-124 0 -146 117l-136 1284q-4 20 1 43q7 35 37 68q48 50 110 50h7q88 0 98 -82z" />
    <glyph glyph-name="W" unicode="W" horiz-adv-x="1899" 
d="M661 1441l-204 -960q-21 -98 34 -167q54 -69 152 -69t182 69q83 69 104 167l204 960q10 49 55 86q44 35 93 35h2q49 0 78 -35q28 -35 17 -86l-204 -960q-21 -98 34 -167q54 -69 152 -69q99 0 183 69q83 69 104 167l204 960q10 49 55 86q43 35 92 35h2q50 0 79 -35
q27 -36 16 -86l-204 -960q-42 -199 -213 -340t-370 -141q-238 0 -324 158q-155 -158 -393 -158q-199 0 -310 141t-69 340l204 960q10 49 55 86q44 35 92 35h3q49 0 78 -35q28 -35 17 -86z" />
    <glyph glyph-name="X" unicode="X" horiz-adv-x="1235" 
d="M1225 424l-64 -303q-10 -50 -54 -85q-43 -36 -93 -36h-3q-49 0 -77 36q-28 34 -18 85l64 303q24 113 -38 193q-63 80 -177 80q-112 0 -210 -80q-96 -79 -120 -193l-64 -303q-10 -50 -54 -85q-43 -36 -93 -36h-3q-49 0 -77 36q-28 34 -18 85l64 303q55 264 265 395
q-153 130 -97 395l48 227q10 49 55 86q44 35 92 35h3q49 0 78 -35q28 -35 17 -86l-48 -227q-24 -113 38 -193q63 -80 176 -80t211 80q96 79 120 193l48 227q10 49 55 86q44 35 92 35h3q49 0 78 -35q28 -35 17 -86l-48 -227q-55 -264 -265 -395q153 -130 97 -395z" />
    <glyph glyph-name="Y" unicode="Y" horiz-adv-x="1235" 
d="M1441 1441l-94 -444q-41 -189 -191 -332q-148 -140 -311 -172l-79 -372q-10 -50 -54 -85q-44 -36 -93 -36h-3q-48 0 -77 36q-28 34 -18 85l79 372q-151 32 -239 172q-89 145 -49 332l94 444q10 49 55 86q44 35 92 35h3q49 0 78 -35q28 -35 17 -86l-94 -444
q-24 -114 38 -194q63 -79 176 -79q114 0 211 79q96 79 120 194l94 444q10 49 55 86q44 35 92 35h3q49 0 78 -35q28 -35 17 -86z" />
    <glyph glyph-name="Z" unicode="Z" horiz-adv-x="1093" 
d="M390 1439v2q11 50 54 86q44 35 93 35h619q89 -2 135 -64q49 -62 31 -150q-13 -64 -61 -119l-896 -984h619q52 0 77 -36q29 -36 18 -86v-2q-10 -50 -54 -85q-42 -36 -93 -36h-697q-80 7 -124 70q-43 61 -25 145q10 54 49 105l909 998h-559q-49 0 -78 35q-28 35 -17 86z
" />
    <glyph glyph-name="bracketleft" unicode="[" horiz-adv-x="711" 
d="M13 -411l419 1973h511l-41 -191h-266l-338 -1590h266l-40 -192h-511z" />
    <glyph glyph-name="backslash" unicode="\" horiz-adv-x="695" 
d="M332 1562h233l130 -1562h-233z" />
    <glyph glyph-name="bracketright" unicode="]" horiz-adv-x="711" 
d="M943 1562l-419 -1973h-511l40 192h266l338 1590h-266l41 191h511z" />
    <glyph glyph-name="asciicircum" unicode="^" horiz-adv-x="1369" 
d="M454 940l391 567q33 55 94 55h154q60 0 70 -55l150 -567q5 -18 0 -35q-5 -25 -27 -48q-33 -39 -80 -39h-72q-60 0 -70 55l-104 425l-285 -425q-33 -55 -93 -55h-72q-48 0 -65 39q-11 24 -5 49q3 15 14 34z" />
    <glyph glyph-name="underscore" unicode="_" horiz-adv-x="1007" 
d="M1017 -246h-1027v245h1027v-245z" />
    <glyph glyph-name="grave" unicode="`" horiz-adv-x="681" 
d="M553 1269l-201 251q-13 18 -9 40q3 17 16 34q27 39 69 39h155q36 0 48 -28l122 -250q11 -20 6 -41q-3 -13 -14 -31q-27 -37 -69 -37h-76q-27 0 -47 23z" />
    <glyph glyph-name="a" unicode="a" horiz-adv-x="1352" 
d="M921 1152q238 0 371 -169t82 -407l-96 -455q-10 -50 -54 -85q-44 -36 -93 -36h-3q-48 0 -77 36q-28 34 -18 85q-139 -121 -357 -121q-238 0 -371 169q-133 168 -83 407q51 238 256 407t443 169zM869 907q-138 0 -256 -97q-116 -98 -146 -234q-29 -138 46 -235
q77 -96 215 -96t254 96q119 98 147 235q30 136 -47 234q-76 97 -213 97z" />
    <glyph glyph-name="b" unicode="b" horiz-adv-x="1322" 
d="M868 905q-139 0 -255 -97q-118 -98 -146 -235q-29 -137 46 -234q76 -97 214 -97q137 0 255 97t147 234q29 139 -47 235q-76 97 -214 97zM553 1562h3q49 0 78 -35q28 -35 17 -86l-82 -389q133 100 352 100q238 0 371 -169t82 -407q-49 -237 -255 -407q-205 -169 -443 -169
t-370 168q-134 166 -84 405l184 868q10 49 55 86q44 35 92 35z" />
    <glyph glyph-name="c" unicode="c" horiz-adv-x="975" 
d="M891 1152q90 0 168 -27q80 -27 60 -116l-1 -5q-13 -61 -69 -97q-39 -24 -75 -24q-18 0 -38 6q-45 16 -98 16q-139 0 -255 -97q-118 -98 -146 -235q-29 -137 46 -234q76 -97 214 -97q54 0 105 16q20 6 39 6q37 0 66 -24q41 -37 28 -98q-19 -88 -109 -116q-92 -26 -180 -26
q-238 0 -371 169q-133 168 -83 407q51 238 256 407t443 169z" />
    <glyph glyph-name="d" unicode="d" horiz-adv-x="1322" 
d="M838 905q-139 0 -255 -97q-118 -98 -146 -235q-29 -137 46 -234q76 -97 214 -97q137 0 255 97t147 234q29 139 -47 235q-76 97 -214 97zM1430 1562h3q49 0 78 -35q28 -35 17 -86l-184 -868q-53 -239 -256 -405q-205 -168 -442 -168q-238 0 -371 169q-133 168 -83 407
q51 238 256 407t443 169q217 0 310 -100l82 389q10 49 55 86q44 35 92 35z" />
    <glyph glyph-name="e" unicode="e" horiz-adv-x="1277" 
d="M838 905q-139 0 -255 -97q-118 -98 -146 -235l-2 -7l613 251q-55 88 -210 88zM1342 816q7 -23 2 -51q-4 -20 -17 -42q-28 -47 -79 -68q-361 -149 -403 -166q-110 -45 -364 -151q55 -96 216 -96q107 0 208 63q97 61 153 160q46 82 133 82q63 0 88 -52q17 -32 9 -67
q-5 -23 -17 -43q-96 -171 -266 -276q-172 -109 -359 -109q-238 0 -371 169q-133 168 -83 407q51 238 256 407t443 169q173 0 294 -94q121 -91 157 -242z" />
    <glyph glyph-name="f" unicode="f" horiz-adv-x="759" 
d="M873 1562h57q50 0 79 -35q27 -36 16 -86v-2q-11 -50 -53 -86q-44 -35 -94 -35h-57q-82 0 -151 -57q-68 -57 -80 -110h253q49 0 78 -36q28 -34 17 -85v-2q-11 -50 -54 -86q-44 -36 -93 -36h-253l-167 -785q-10 -50 -54 -85q-43 -36 -93 -36h-3q-49 0 -77 36q-28 34 -18 85
l212 1001q40 183 196 311q156 129 339 129z" />
    <glyph glyph-name="g" unicode="g" horiz-adv-x="1322" 
d="M344 -15q67 -151 267 -151q125 0 247 98q126 100 154 233q-148 -165 -366 -165q-238 0 -371 169q-133 168 -83 407q51 238 256 407t443 169q237 0 370 -168q134 -167 84 -406l-88 -413q-49 -233 -268 -408q-210 -168 -430 -168q-338 0 -450 262q-13 31 -6 64q5 21 15 40
q31 57 91 76l3 1q27 9 50 9q56 0 82 -56zM1099 576l2 6q26 136 -50 230q-77 95 -212 95q-138 0 -256 -97q-116 -98 -146 -234q-29 -138 46 -235q77 -96 215 -96t254 96q119 98 147 235z" />
    <glyph glyph-name="h" unicode="h" horiz-adv-x="1167" 
d="M553 1562h3q49 0 78 -35q28 -35 17 -86l-74 -348q92 59 252 59q199 0 311 -142q111 -142 69 -342l-116 -547q-10 -50 -54 -85q-42 -36 -93 -36h-2q-50 0 -78 36q-28 34 -18 85l116 547q21 99 -33 169q-55 70 -154 70q-100 0 -185 -70q-84 -71 -105 -169l-116 -547
q-10 -50 -54 -85q-43 -36 -93 -36h-3q-49 0 -77 36q-28 34 -18 85l280 1320q10 49 55 86q44 35 92 35z" />
    <glyph glyph-name="i" unicode="i" horiz-adv-x="520" 
d="M504 1152h2q52 0 77 -36q29 -36 18 -86l-193 -909q-10 -50 -54 -85q-42 -36 -93 -36h-2q-49 0 -78 36q-28 34 -18 85l193 909q11 50 54 86q44 36 94 36zM532 1282q-58 0 -90 41t-20 99q12 57 62 98t108 41q57 0 89 -41q34 -40 21 -98q-12 -58 -63 -99q-50 -41 -107 -41z
" />
    <glyph glyph-name="j" unicode="j" horiz-adv-x="529" 
d="M-118 -411h-58q-50 0 -78 36t-18 85l1 3q10 49 54 85q43 36 93 36h58q81 0 150 57t87 139l213 1000q11 50 53 86q43 36 94 36h2q49 0 78 -36q28 -35 17 -86l-213 -1000q-41 -184 -195 -312q-154 -129 -338 -129zM559 1284q-58 0 -90 41q-33 41 -20 99q12 57 62 98t107 41
t90 -41q33 -40 21 -98q-13 -58 -63 -99t-107 -41z" />
    <glyph glyph-name="k" unicode="k" horiz-adv-x="1073" 
d="M553 1562h3q49 0 78 -35q28 -35 17 -86l-147 -693h38q129 0 241 85q110 85 151 210q17 48 56 77q41 32 88 32h3q53 0 80 -40q25 -34 15 -81q-2 -8 -4 -13q-77 -251 -272 -376q78 -55 124 -183q48 -132 16 -287l-11 -51q-10 -50 -54 -85q-43 -36 -93 -36h-3q-49 0 -77 36
q-28 34 -18 85l11 51q27 136 -48 233q-76 96 -214 96h-82l-80 -380q-10 -50 -54 -85q-43 -36 -93 -36h-3q-49 0 -77 36q-28 34 -18 85l280 1320q10 49 55 86q44 35 92 35z" />
    <glyph glyph-name="l" unicode="l" horiz-adv-x="525" 
d="M593 1562h3q49 0 78 -35q28 -35 17 -86l-280 -1320q-10 -50 -54 -85q-43 -36 -93 -36h-3q-48 0 -77 36q-28 34 -18 85l280 1320q10 49 55 86q44 35 92 35z" />
    <glyph glyph-name="m" unicode="m" horiz-adv-x="1879" 
d="M488 671l-117 -550q-10 -50 -54 -85q-43 -36 -93 -36h-3q-49 0 -77 36q-28 34 -18 85l117 550q42 197 213 340q171 141 370 141q238 0 325 -158q155 158 392 158q199 0 310 -141q111 -142 69 -340l-117 -550q-11 -50 -53 -85q-44 -36 -94 -36h-2q-52 0 -77 36
q-28 34 -18 85l117 550q20 98 -34 167t-153 69q-98 0 -182 -69t-104 -167l-117 -550q-10 -50 -54 -85q-42 -36 -93 -36h-2q-49 0 -78 36q-28 34 -18 85l117 550q20 98 -34 167t-152 69t-182 -69t-104 -167z" />
    <glyph glyph-name="n" unicode="n" horiz-adv-x="1167" 
d="M487 668l-116 -547q-10 -50 -54 -85q-43 -36 -93 -36h-3q-49 0 -77 36q-28 34 -18 85l116 547q42 199 215 342q172 142 372 142q199 0 311 -142q111 -142 69 -342l-116 -547q-10 -50 -54 -85q-42 -36 -93 -36h-2q-50 0 -78 36q-28 34 -18 85l116 547q21 99 -33 169
q-55 70 -154 70q-100 0 -185 -70q-84 -71 -105 -169z" />
    <glyph glyph-name="o" unicode="o" horiz-adv-x="1292" 
d="M838 905q-139 0 -255 -97q-118 -98 -146 -235q-29 -137 46 -234q76 -97 214 -97q137 0 255 97t147 234q29 139 -47 235q-76 97 -214 97zM891 1152q238 0 371 -169t82 -407q-49 -237 -255 -407q-205 -169 -443 -169t-371 169q-133 168 -83 407q51 238 256 407t443 169z
" />
    <glyph glyph-name="p" unicode="p" horiz-adv-x="1322" 
d="M729 247q138 0 254 97q119 98 147 234q29 139 -47 235q-77 96 -214 96q-138 0 -255 -96q-118 -98 -146 -235q-29 -137 46 -234q76 -97 215 -97zM137 -411h-3q-50 0 -78 36t-18 85l185 868q53 240 256 406q204 168 442 168t371 -169t82 -407q-49 -237 -255 -407
q-205 -169 -443 -169q-219 0 -310 100l-83 -390q-10 -49 -54 -85q-43 -36 -92 -36z" />
    <glyph glyph-name="q" unicode="q" horiz-adv-x="1322" 
d="M699 247q138 0 254 97q119 98 147 234q29 139 -47 235t-214 96t-255 -96q-118 -98 -146 -235q-29 -137 46 -234q76 -97 215 -97zM1014 -411h-3q-49 0 -78 36q-28 36 -18 85l83 390q-134 -100 -352 -100q-238 0 -371 169q-133 168 -83 407q51 238 256 407t443 169
q237 0 370 -168q133 -169 84 -406l-185 -868q-10 -49 -54 -85t-92 -36z" />
    <glyph glyph-name="r" unicode="r" horiz-adv-x="729" 
d="M786 1152h57q49 0 78 -36q28 -35 17 -86v-2q-11 -51 -54 -85q-44 -36 -93 -36h-57q-82 0 -151 -57q-68 -57 -87 -139l-125 -590q-10 -50 -54 -85q-43 -36 -93 -36h-3q-49 0 -77 36q-28 34 -18 85l125 590q41 183 195 312q158 129 340 129z" />
    <glyph glyph-name="s" unicode="s" horiz-adv-x="851" 
d="M797 907h-194q-43 0 -81 -30q-36 -32 -45 -74q-13 -60 39 -90q18 -11 156 -50q112 -34 158 -89q66 -80 35 -225q-30 -144 -154 -247q-125 -102 -269 -102h-261q-49 0 -77 36q-28 34 -18 85v2q11 50 54 86q44 36 93 36h271q44 0 80 30q37 29 46 74q12 55 -39 83
q-9 5 -158 50q-110 34 -157 92q-66 80 -34 229q30 144 154 246q124 103 269 103h184q49 0 78 -36t18 -86v-2q-10 -49 -55 -85q-44 -36 -93 -36z" />
    <glyph glyph-name="t" unicode="t" horiz-adv-x="656" 
d="M553 1562h3q49 0 78 -35q28 -35 17 -86l-61 -289h150q48 0 77 -36t18 -86v-2q-10 -49 -55 -85q-44 -36 -92 -36h-150l-126 -593q-6 -29 9 -49q17 -20 46 -20h80q49 0 77 -36q29 -36 18 -86v-2q-10 -50 -54 -85q-44 -36 -93 -36h-80q-129 0 -203 92q-74 93 -45 222
l239 1127q10 49 55 86q44 35 92 35z" />
    <glyph glyph-name="u" unicode="u" horiz-adv-x="1167" 
d="M564 1030l-116 -547q-21 -99 33 -169q55 -69 155 -69q98 0 184 69q84 71 105 169l116 547q11 50 54 86t94 36h2q51 0 77 -36q29 -36 18 -86l-116 -547q-43 -199 -215 -341t-371 -142q-200 0 -312 142t-69 341l116 547q11 50 54 86t93 36h3q49 0 77 -36q29 -36 18 -86z
" />
    <glyph glyph-name="v" unicode="v" horiz-adv-x="1147" 
d="M644 339l474 739q48 74 128 74h2q65 0 89 -55q15 -30 7 -65q-4 -23 -21 -49l-555 -867q-71 -116 -195 -116q-126 0 -146 116l-188 867q-4 25 0 48q8 36 35 66q48 55 113 55h3q80 0 95 -74q124 -580 139 -644q-1 -3 20 -95z" />
    <glyph glyph-name="w" unicode="w" horiz-adv-x="1879" 
d="M564 1030l-117 -549q-21 -98 34 -167q54 -69 152 -69t182 69q83 69 104 167l117 549q11 50 54 86q44 36 94 36h2q52 0 77 -36q29 -36 18 -86l-117 -549q-21 -98 34 -167q54 -69 152 -69q99 0 183 69q83 69 104 167l117 549q11 50 54 86q42 36 93 36h2q49 0 78 -36
q28 -35 17 -86l-117 -549q-42 -199 -213 -340t-370 -141q-238 0 -324 158q-155 -158 -393 -158q-199 0 -310 141t-69 340l117 549q11 50 54 86t93 36h3q49 0 77 -36q29 -36 18 -86z" />
    <glyph glyph-name="x" unicode="x" horiz-adv-x="1137" 
d="M549 1030l-19 -88q-21 -99 33 -169q55 -70 155 -70q99 0 184 70q84 71 105 169l19 88q11 50 54 86q44 36 94 36h2q52 0 77 -36q28 -36 18 -85l-19 -89q-51 -239 -237 -361q135 -122 84 -361l-21 -99q-10 -50 -54 -85q-42 -36 -93 -36h-2q-49 0 -78 36q-28 34 -18 85
l21 99q21 99 -33 169q-55 69 -155 69t-184 -69q-84 -71 -105 -169l-21 -99q-10 -50 -54 -85q-44 -36 -93 -36h-3q-48 0 -77 36q-28 34 -18 85l21 99q51 239 236 361q-134 122 -83 361l19 88q11 50 54 86q44 36 93 36h3q48 0 77 -36t18 -86z" />
    <glyph glyph-name="y" unicode="y" horiz-adv-x="1167" 
d="M564 1030l-112 -525q-21 -99 33 -169q55 -70 156 -70q99 0 182 70q85 70 106 169l112 525q11 50 54 86t94 36h2q51 0 77 -36q29 -36 18 -86l-203 -957q-43 -198 -222 -342q-175 -142 -364 -142q-149 0 -258 74q-104 72 -141 193q-8 28 -2 54q5 23 20 46q32 52 84 69l5 2
q21 7 44 7q21 0 42 -8q37 -16 49 -57q19 -58 76 -97q58 -38 133 -38q96 0 181 70q87 72 108 169l1 8q-92 -59 -250 -59q-200 0 -312 142q-112 141 -70 341l112 525q11 50 54 86t93 36h3q49 0 77 -36q29 -36 18 -86z" />
    <glyph glyph-name="z" unicode="z" horiz-adv-x="1082" 
d="M448 248l506 -1q50 0 77 -35q29 -36 18 -86l-1 -2q-11 -50 -54 -86q-43 -35 -92 -35h-653q-118 0 -142 111q-9 40 -1 79q13 66 83 124q168 143 365 312q54 46 169.5 145t157.5 136h-462q-51 0 -78 36t-17 85l1 3q11 50 53 85q43 36 94 36h604q121 0 145 -111q9 -40 1 -79
q-14 -68 -83 -124q-498 -427 -691 -593z" />
    <glyph glyph-name="braceleft" unicode="{" horiz-adv-x="737" 
d="M283 692q30 9 57 26q49 35 74 92q32 74 64 219q37 178 53 233q27 86 67 145q38 56 87 91q50 35 115 53q36 9 119 11q41 0 65 -29q22 -29 14 -71l-4 -20q-9 -38 -41 -67q-34 -29 -73 -32q-64 -5 -88 -26q-31 -28 -73 -211q-57 -248 -67 -272q-82 -220 -177 -261
q85 -39 60 -303q-7 -75 -35 -207q-29 -137 -34 -169q-5 -56 14 -75q14 -14 71 -19q37 -2 60 -30q21 -28 12 -69l-4 -19q-9 -42 -45 -71q-35 -29 -76 -29q-92 2 -134 18q-65 25 -100 83t-32 144q4 75 44 262l4 17q32 157 31 226q-1 58 -35 93q-18 18 -44 26q-81 27 -61 116
l1 9q20 91 111 116z" />
    <glyph glyph-name="bar" unicode="|" horiz-adv-x="645" 
d="M112 -416l420 1978h241l-420 -1978h-241z" />
    <glyph glyph-name="braceright" unicode="}" horiz-adv-x="737" 
d="M748 692q81 -25 61 -116l-1 -9q-20 -89 -110 -116q-30 -7 -57 -26q-47 -33 -72 -93q-36 -81 -70 -243q-39 -184 -68 -262q-31 -85 -91 -144q-59 -58 -137 -83q-49 -16 -142 -18q-41 0 -64 29q-24 28 -15 71l4 19q9 41 42 69q34 28 72 30q59 5 81 19q27 19 45 75
q4 12 37 169q26 123 53 207q89 264 191 303q-77 41 -68 261q1 20 50 272q35 182 15 211q-13 21 -76 26q-39 3 -59 32q-21 28 -12 67l4 20q8 41 45 71q35 29 76 29q81 -2 115 -11q59 -18 91 -53q34 -34 49 -91q14 -57 5 -145q-6 -44 -45 -233q-30 -145 -29 -219q2 -58 35 -92
q19 -17 45 -26z" />
    <glyph glyph-name="asciitilde" unicode="~" horiz-adv-x="1055" 
d="M225 764q115 100 268 108q9 1 25 1q49 0 105 -14q41 -11 108 -36q79 -30 95 -35q44 -12 78 -12h13q58 3 130 48q28 16 55 16q20 0 40 -9q20 -13 28 -39q7 -17 5 -49q-2 -12 -3 -17q-6 -22 -11 -33q-13 -28 -35 -45q-61 -48 -125 -73q-62 -24 -138 -29q-8 -1 -24 -1
q-60 0 -115 16q-33 9 -121 46q-86 36 -149 36h-12q-64 -3 -132 -45q-23 -15 -49 -18h-4q-22 0 -40 9q-21 11 -30 36q-9 21 -5 46q0 8 2 22q3 11 9 26q12 28 32 45z" />
    <glyph glyph-name="exclamdown" unicode="&#xa1;" horiz-adv-x="480" 
d="M-16 -349l126 593l131 454h175l-61 -454l-126 -593q-11 -50 -54 -86q-44 -35 -93 -35h-3q-48 0 -77 35q-29 36 -18 86zM412 1092q58 0 90 -41q33 -41 20 -99q-12 -58 -61 -98q-50 -41 -108 -41q-57 0 -89 41q-34 40 -22 98q14 58 63 99q50 41 107 41z" />
    <glyph glyph-name="cent" unicode="&#xa2;" horiz-adv-x="1132" 
d="M474 306l296 634q-104 -6 -205 -105q-110 -118 -140 -257q-29 -134 39 -256q3 -4 6 -10zM941 864l-304 -648h10q163 0 312 200l222 -52q-108 -188 -247 -286q-164 -104 -354 -104q-38 0 -54 2l-180 -384h-207l212 452q-51 34 -103 108q-129 182 -77 426q52 248 247 426
q193 178 419 178q40 0 46 -1l166 354h206l-192 -409q30 -16 65 -47q100 -99 129 -291l-256 -44q-25 75 -60 120z" />
    <glyph glyph-name="sterling" unicode="&#xa3;" horiz-adv-x="1221" 
d="M1106 1158q-5 69 -52 114q-49 46 -123 46q-92 0 -168 -64q-78 -64 -97 -155l-57 -268h288q49 0 78 -36q27 -36 17 -85l-1 -3q-11 -50 -53 -85q-44 -36 -93 -36h-288l-73 -341h567q49 0 78 -36t18 -86v-2q-10 -50 -54 -85q-43 -36 -94 -36h-691q-48 0 -77 36
q-28 34 -18 85l99 465h1q-36 0 -57 26q-20 27 -13 63l15 67q8 38 39 63q32 26 68 26h-1l57 268q41 192 205 327q164 136 357 136q157 0 262 -96q103 -94 112 -244q1 -16 -2 -34q-9 -37 -41 -71q-46 -48 -107 -48h-3q-92 0 -98 89z" />
    <glyph glyph-name="currency" unicode="&#xa4;" horiz-adv-x="1235" 
d="M842 1058q-110 0 -205 -78q-95 -79 -119 -189q-24 -112 38 -190q61 -78 172 -78t206 78q94 78 118 190q24 111 -37 189q-62 78 -173 78zM419 1043l-126 159l203 167l125 -158q114 69 269 69q154 0 240 -69l192 158l131 -165l-193 -159q48 -100 15 -254
q-33 -155 -123 -255l125 -159l-202 -165l-124 158q-115 -69 -269 -69q-155 0 -239 69l-192 -158l-132 165l193 159q-49 100 -16 255q33 153 123 252z" />
    <glyph glyph-name="yen" unicode="&#xa5;" horiz-adv-x="1215" 
d="M1067 226h-302l-48 -226h-237l48 226h-284l39 183h284l24 113h-284l41 193h256l-268 910h253l199 -736l537 736h245l-672 -910h273l-41 -193h-302l-24 -113h302z" />
    <glyph glyph-name="brokenbar" unicode="&#xa6;" horiz-adv-x="543" 
d="M303 719l192 904h243l-192 -904h-243zM52 -463l192 904h243l-192 -904h-243z" />
    <glyph glyph-name="section" unicode="&#xa7;" horiz-adv-x="1136" 
d="M961 250q58 -31 97 -109q23 -48 26 -102q3 -49 -9 -105l-4 -21q-33 -134 -147 -241q-99 -94 -242 -139q-99 -32 -187 -32h-16q-426 12 -420 448l235 39q1 -188 118 -252q42 -22 106 -26q9 -1 25 -1q113 0 207 74q47 37 72 88q15 32 19 53q9 43 -6 77q-23 53 -100 90
q-63 28 -150 55q-219 68 -290 146q-92 102 -54 278q46 214 226 329l21 14q0 1 -1 1q-2 0 -9 -4q-8 5 -43 41q-92 102 -54 278q46 214 226 329q98 63 227 86q48 7 102 7h23q191 -6 285 -98q98 -95 89 -314l-240 -35q2 164 -94 216q-40 22 -103 22q-91 0 -168 -49
q-81 -53 -102 -136l-1 -6q-9 -42 -4 -78q5 -33 25 -58q32 -42 87 -62q38 -14 161 -50q241 -76 304 -203q23 -48 26 -102q3 -50 -9 -105l-4 -21q-33 -134 -147 -241q-69 -65 -103 -81zM670 369h17q111 0 203 73q47 37 72 88q15 32 19 53q9 43 -6 77q-23 53 -100 90
q-27 13 -70 29q-20 4 -50 4q-91 0 -167 -49q-81 -53 -102 -136l-1 -6q-9 -42 -4 -78q5 -33 25 -58q33 -43 83 -60q35 -12 81 -27z" />
    <glyph glyph-name="dieresis" unicode="&#xa8;" horiz-adv-x="843" 
d="M491 1183q-58 0 -90 41t-20 99q12 57 62 98t108 41q57 0 89 -41q34 -40 21 -98q-12 -59 -63 -99q-50 -41 -107 -41zM854 1183q-58 0 -90 41t-20 99q12 57 62 98t108 41q57 0 89 -41q34 -40 21 -98q-12 -59 -63 -99q-50 -41 -107 -41z" />
    <glyph glyph-name="copyright" unicode="&#xa9;" horiz-adv-x="1837" 
d="M1321 966l-136 -27q-19 90 -75 144q-71 70 -179 70q-118 0 -201 -86q-83 -85 -83 -206v-178q0 -120 83 -205q82 -87 201 -87q103 0 176 68q72 67 85 180l139 -14q-22 -165 -134 -268q-113 -105 -266 -105q-180 0 -306 129q-123 127 -123 308v166q0 181 123 309
q126 129 306 129q155 0 267 -106q93 -86 123 -221zM916 1563q202 0 396 -104q192 -103 301 -298q108 -193 108 -404q0 -209 -106 -400q-106 -192 -298 -299q-191 -106 -401 -106t-400 106q-194 107 -299 299q-107 193 -107 400q0 211 109 404q109 195 301 298
q194 104 396 104zM916 1430q-170 0 -330 -87t-252 -249q-91 -161 -91 -337q0 -174 90 -333q89 -160 249 -249q160 -90 334 -90t334 90q160 89 249 249t89 333q0 175 -90 337q-92 162 -252 249t-330 87z" />
    <glyph glyph-name="ordfeminine" unicode="&#xaa;" horiz-adv-x="981" 
d="M822 1562q161 0 253 -104q94 -104 62 -254l-58 -273q-7 -34 -41 -60q-32 -24 -67 -24h-2q-35 0 -58 24q-22 25 -14 60q-81 -84 -227 -84q-160 0 -252 104q-94 104 -62 253t170 254q136 104 296 104zM786 1391q-87 0 -161 -56q-70 -54 -87 -131q-16 -76 31 -131
q49 -55 137 -55t161 55q71 53 88 131q16 76 -32 131q-50 56 -137 56z" />
    <glyph glyph-name="guillemotleft" unicode="&#xab;" horiz-adv-x="1132" 
d="M230 814l454 337h318l-545 -401l374 -401h-318l-310 338q-22 25 -15 63q9 38 42 64zM624 814l454 337h318l-545 -401l374 -401h-318l-310 338q-22 25 -15 63q9 38 42 64z" />
    <glyph glyph-name="logicalnot" unicode="&#xac;" horiz-adv-x="1107" 
d="M278 695l38 181h847l-112 -526h-192l74 345h-655z" />
    <glyph glyph-name="registered" unicode="&#xae;" horiz-adv-x="1811" 
d="M906 1563q202 0 396 -104q192 -103 301 -298q108 -193 108 -404q0 -209 -106 -400q-106 -192 -298 -299q-191 -106 -401 -106t-400 106q-194 107 -299 299q-107 193 -107 400q0 211 109 404q109 195 301 298q194 104 396 104zM906 1430q-170 0 -330 -87t-252 -249
q-91 -161 -91 -337q0 -174 90 -333q89 -160 249 -249q160 -90 334 -90t334 90q160 89 249 249t89 333q0 175 -90 337q-92 162 -252 249t-330 87zM615 211v1026l383 -1q112 -2 192 -81q79 -79 79 -192q0 -128 -98 -211q-64 -64 -202 -64h2l308 -477h-136l-308 477h-93v-477
h-127zM742 807h256q64 2 108 47q44 46 44 109q0 62 -44 108q-46 46 -108 47h-256v-311z" />
    <glyph glyph-name="macron" unicode="&#xaf;" horiz-adv-x="952" 
d="M1124 1423v-2q-10 -50 -54 -85q-44 -36 -94 -36h-529q-51 0 -77 36q-28 34 -18 85v2q10 49 55 86q41 36 92 36h529q50 0 79 -36q28 -35 17 -86z" />
    <glyph glyph-name="degree" unicode="&#xb0;" horiz-adv-x="902" 
d="M573 1242q-11 -55 19 -93q32 -39 83 -39h22q55 0 101 39q49 39 59 93q11 53 -19 92q-30 38 -85 38h-22q-52 0 -99 -38q-48 -39 -59 -92zM364 1242q28 136 148 234q119 98 257 98h34q137 0 215 -98q76 -98 48 -234q-28 -138 -148 -236q-121 -98 -257 -98h-34
q-138 0 -215 98t-48 236z" />
    <glyph glyph-name="plusminus" unicode="&#xb1;" horiz-adv-x="1152" 
d="M990 1367l-61 -283h281q50 0 79 -36q28 -35 17 -86v-2q-10 -50 -54 -85q-44 -36 -94 -36h-281l-59 -281q-10 -49 -55 -86q-43 -36 -93 -36h-2q-51 0 -78 36q-28 35 -17 86l59 281h-283q-51 0 -77 36q-28 34 -18 85v2q10 49 55 86q41 36 92 36h283l61 283q10 50 54 85
q41 36 92 36h2q51 0 79 -36q28 -34 18 -85zM1147 213v-2q-10 -50 -54 -85q-43 -36 -94 -36h-809q-52 0 -77 36q-28 34 -18 85v2q10 49 55 86q40 36 92 36h809q51 0 79 -36q28 -35 17 -86z" />
    <glyph glyph-name="uni00B2" unicode="&#xb2;" horiz-adv-x="819" 
d="M520 1562h261q136 0 209 -85q77 -89 51 -211q-22 -108 -134 -196q-63 -50 -207 -123q-134 -67 -183 -105q-73 -55 -76 -70h386q49 0 76 -32q27 -31 18 -73l-1 -2q-9 -45 -49 -73q-40 -31 -89 -31h-508q-49 0 -74 31q-28 28 -19 73l12 57q26 123 138 220q72 63 214 138
q165 87 188 102q69 46 76 84q8 37 -14 61q-22 25 -59 25h-261q-48 0 -75 30q-28 31 -19 74l1 1q9 43 49 74t89 31z" />
    <glyph glyph-name="uni00B3" unicode="&#xb3;" horiz-adv-x="715" 
d="M487 1562h182q135 0 211 -87q75 -87 49 -209q-28 -137 -104 -187q68 -56 35 -208q-27 -129 -148 -221q-116 -89 -256 -89h-182q-49 0 -74 31q-28 28 -19 73l1 2q9 42 51 75q37 30 86 30h182q44 0 81 28q36 28 45 71q9 42 -15 71q-25 28 -69 28h-153q-48 0 -74 30
q-28 31 -19 75l1 1q9 41 47 73q40 31 90 31l153 1q38 0 69 24q32 26 39 61q8 37 -14 61q-21 25 -58 25h-182q-45 0 -74 29q-28 31 -19 75l1 1q9 43 49 74q41 31 88 31z" />
    <glyph glyph-name="acute" unicode="&#xb4;" horiz-adv-x="681" 
d="M956 1520l-306 -251q-31 -23 -57 -23h-77q-42 0 -53 38q-5 16 -2 30q4 20 23 40l229 251q25 28 61 28h154q42 0 53 -39q6 -18 3 -33q-4 -20 -28 -41z" />
    <glyph glyph-name="mu" unicode="&#xb5;" horiz-adv-x="1187" 
d="M367 56l-74 -346q-10 -50 -54 -85q-44 -36 -92 -36h-3q-50 0 -78 36q-28 34 -18 85l281 1320q11 50 54 86q44 35 93 35h3q49 0 77 -36q29 -36 18 -86l-117 -547q-21 -99 34 -169q55 -69 155 -69q98 0 184 69q83 71 104 169l117 548q11 50 54 86q44 35 93 35h3
q48 0 77 -35q29 -36 18 -86l-217 -1020q-10 -50 -54 -85q-43 -36 -93 -36h-3q-49 0 -77 36q-28 34 -18 85l10 46q-50 -57 -250 -57q-202 0 -227 57z" />
    <glyph glyph-name="paragraph" unicode="&#xb6;" horiz-adv-x="1128" 
d="M1417 1623l-44 -209h-87l-301 -1414h-209l301 1414h-62l-301 -1414h-219l150 707q-164 25 -250 155q-84 129 -48 299q34 167 175 297q152 149 347 165h548z" />
    <glyph glyph-name="periodcentered" unicode="&#xb7;" horiz-adv-x="447" 
d="M363 658q-52 0 -80 36t-18 87t54 87t96 36q50 0 78 -36q30 -34 19 -87q-10 -52 -55 -87q-44 -36 -94 -36z" />
    <glyph glyph-name="cedilla" unicode="&#xb8;" horiz-adv-x="700" 
d="M213 -130l55 140h206l-46 -114q64 -8 108 -60q42 -51 28 -117q-20 -94 -120 -161q-98 -65 -258 -65h-95q-41 0 -60 30q-19 24 -11 61l1 8l3 8q11 36 43 59q30 24 67 24q20 -1 51 -1q89 0 126 22q21 13 22 25q2 9 -2 14q-4 7 -25 15q-14 5 -34 6q-39 4 -56 36
q-13 25 -7 55q1 2 2 7t2 8z" />
    <glyph glyph-name="uni00B9" unicode="&#xb9;" horiz-adv-x="497" 
d="M767 1457l-169 -792q-9 -42 -51 -75q-40 -29 -86 -29h-2q-47 0 -73 29q-29 33 -20 75l146 687h-70q-45 0 -74 29q-28 31 -19 75l1 1q9 43 49 74q41 31 88 31h187q47 0 75 -31q27 -31 18 -74z" />
    <glyph glyph-name="guillemotright" unicode="&#xbb;" horiz-adv-x="1142" 
d="M543 1151l310 -337q23 -26 14 -64q-7 -37 -41 -63l-454 -338h-318l544 401l-373 401h318zM947 1151l310 -337q23 -26 14 -64q-7 -37 -41 -63l-454 -338h-318l544 401l-373 401h318z" />
    <glyph glyph-name="onequarter" unicode="&#xbc;" horiz-adv-x="1780" 
d="M767 1457l-169 -792q-9 -42 -51 -75q-40 -29 -86 -29h-2q-47 0 -73 29q-29 33 -20 75l146 687h-70q-45 0 -74 29q-28 31 -19 75l1 1q9 43 49 74q41 31 88 31h187q47 0 75 -31q27 -31 18 -74zM1256 1632h182l-892 -1756h-184zM1005 370l468 576q45 55 114 55h97
q47 0 75 -31t18 -74l-108 -511h38q47 0 76 -32q25 -30 17 -73l-1 -2q-9 -42 -51 -75q-40 -29 -86 -29h-38l-15 -70q-9 -44 -50 -74t-88 -30h-1q-48 0 -76 30q-27 30 -18 74l15 70h-326q-49 0 -74 31q-28 28 -19 73l9 42q6 28 24 50zM1282 385h154l54 257z" />
    <glyph glyph-name="onehalf" unicode="&#xbd;" horiz-adv-x="1692" 
d="M767 1457l-169 -792q-9 -42 -51 -75q-40 -29 -86 -29h-2q-47 0 -73 29q-29 33 -20 75l146 687h-70q-45 0 -74 29q-28 31 -19 75l1 1q9 43 49 74q41 31 88 31h187q47 0 75 -31q27 -31 18 -74zM1256 1632h182l-892 -1756h-184zM1274 1001h261q136 0 209 -85q77 -89 51 -211
q-22 -108 -134 -196q-63 -49 -207 -123q-134 -68 -183 -105q-73 -55 -76 -70h386q49 0 76 -32q25 -31 18 -73l-1 -2q-9 -45 -49 -73q-40 -31 -89 -31h-508q-49 0 -74 31q-28 28 -19 73l12 57q26 123 138 220q73 65 213 138q162 85 189 102q69 46 76 84q8 37 -14 61
q-22 25 -59 25h-261q-48 0 -75 30q-28 31 -19 74v1q10 43 50 74t89 31z" />
    <glyph glyph-name="threequarters" unicode="&#xbe;" horiz-adv-x="1998" 
d="M487 1562h182q135 0 211 -87q75 -87 49 -209q-28 -137 -104 -187q68 -56 35 -208q-27 -129 -148 -221q-116 -89 -256 -89h-182q-49 0 -74 31q-28 28 -19 73l1 2q9 42 51 75q37 30 86 30h182q44 0 81 28q36 28 45 71q9 42 -15 71q-25 28 -69 28h-153q-48 0 -74 30
q-28 31 -19 75l1 1q9 41 47 73q40 31 90 31l153 1q38 0 69 24q32 26 39 61q8 37 -14 61q-21 25 -58 25h-182q-45 0 -74 29q-28 31 -19 75l1 1q9 43 49 74q41 31 88 31zM1474 1632h182l-892 -1756h-184zM1223 370l468 576q45 55 114 55h97q47 0 75 -31t18 -74l-108 -511h38
q47 0 76 -32q25 -30 17 -73l-1 -2q-9 -42 -51 -75q-40 -29 -86 -29h-38l-15 -70q-9 -44 -50 -74t-88 -30h-1q-48 0 -76 30q-27 30 -18 74l15 70h-326q-49 0 -74 31q-28 28 -19 73l9 42q6 28 24 50zM1500 385h154l54 257z" />
    <glyph glyph-name="questiondown" unicode="&#xbf;" horiz-adv-x="1110" 
d="M393 -455q-198 0 -307 139t-68 337q36 168 170 299q130 129 287 163l27 130q11 48 53 83q43 35 91 35h3q48 0 77 -35q27 -36 17 -85l-50 -235q-11 -50 -53 -84q-40 -34 -91 -36h-5q-97 0 -180 -68q-84 -69 -105 -167q-20 -98 34 -167q54 -68 152 -68q78 0 151 47
q71 47 109 119q21 40 56 61q37 23 76 23h3q60 0 85 -48q18 -31 10 -69q-5 -21 -14 -37q-76 -147 -222 -242q-148 -95 -306 -95zM725 1092q58 0 90 -41q33 -41 20 -99q-12 -58 -61 -98q-50 -41 -108 -41q-57 0 -89 41q-34 40 -22 98q13 58 63 99t107 41z" />
    <glyph glyph-name="Agrave" unicode="&#xc0;" 
d="M1367 1045l-196 -924q-10 -50 -54 -85q-43 -36 -93 -36h-3q-48 0 -77 36q-28 34 -18 85l95 446h-545l-95 -446q-10 -50 -54 -85q-43 -36 -93 -36h-3q-49 0 -77 36q-28 34 -18 85l196 924q47 215 230 366q184 151 397 151q214 0 334 -151q120 -152 74 -366zM527 811h545
l50 234q24 113 -38 193q-63 80 -177 80q-112 0 -210 -80q-96 -79 -120 -193zM954 1679l-201 251q-13 18 -9 40q3 17 16 34q27 39 69 39h155q36 0 48 -28l122 -250q11 -20 6 -41q-3 -13 -14 -31q-27 -37 -69 -37h-76q-27 0 -47 23z" />
    <glyph glyph-name="Aacute" unicode="&#xc1;" 
d="M1367 1045l-196 -924q-10 -50 -54 -85q-43 -36 -93 -36h-3q-48 0 -77 36q-28 34 -18 85l95 446h-545l-95 -446q-10 -50 -54 -85q-43 -36 -93 -36h-3q-49 0 -77 36q-28 34 -18 85l196 924q47 215 230 366q184 151 397 151q214 0 334 -151q120 -152 74 -366zM527 811h545
l50 234q24 113 -38 193q-63 80 -177 80q-112 0 -210 -80q-96 -79 -120 -193zM1322 1930l-306 -251q-31 -23 -57 -23h-77q-42 0 -53 38q-5 16 -2 30q4 20 23 40l229 251q25 28 61 28h154q42 0 53 -39q6 -18 3 -33q-4 -20 -28 -41z" />
    <glyph glyph-name="Acircumflex" unicode="&#xc2;" 
d="M1367 1045l-196 -924q-10 -50 -54 -85q-43 -36 -93 -36h-3q-48 0 -77 36q-28 34 -18 85l95 446h-545l-95 -446q-10 -50 -54 -85q-43 -36 -93 -36h-3q-49 0 -77 36q-28 34 -18 85l196 924q47 215 230 366q184 151 397 151q214 0 334 -151q120 -152 74 -366zM527 811h545
l50 234q24 113 -38 193q-63 80 -177 80q-112 0 -210 -80q-96 -79 -120 -193zM1147 1655l-132 165l-203 -165q-28 -24 -56 -24h-77q-42 0 -53 38q-6 17 -2 32q4 20 24 40l250 251q28 26 60 26h197q33 0 47 -27l145 -250q11 -19 7 -41q-3 -13 -14 -31q-26 -38 -69 -38h-77
q-28 0 -47 24z" />
    <glyph glyph-name="Atilde" unicode="&#xc3;" 
d="M1367 1045l-196 -924q-10 -50 -54 -85q-43 -36 -93 -36h-3q-48 0 -77 36q-28 34 -18 85l95 446h-545l-95 -446q-10 -50 -54 -85q-43 -36 -93 -36h-3q-49 0 -77 36q-28 34 -18 85l196 924q47 215 230 366q184 151 397 151q214 0 334 -151q120 -152 74 -366zM527 811h545
l50 234q24 113 -38 193q-63 80 -177 80q-112 0 -210 -80q-96 -79 -120 -193zM612 1715q35 91 109 143q79 56 177 56q82 0 180 -52q32 -17 71 -17h8q40 1 61 24q48 54 85 54h41q35 0 50 -25q13 -21 9 -46q0 -2 -1.5 -6t-2.5 -7q-76 -202 -276 -202q-82 0 -177 56
q-40 23 -84 23q-40 -1 -56 -29q-38 -52 -94 -56h-44q-33 0 -51 25q-15 21 -9 47q2 8 4 12z" />
    <glyph glyph-name="Adieresis" unicode="&#xc4;" 
d="M1367 1045l-196 -924q-10 -50 -54 -85q-43 -36 -93 -36h-3q-48 0 -77 36q-28 34 -18 85l95 446h-545l-95 -446q-10 -50 -54 -85q-43 -36 -93 -36h-3q-49 0 -77 36q-28 34 -18 85l196 924q47 215 230 366q184 151 397 151q214 0 334 -151q120 -152 74 -366zM527 811h545
l50 234q24 113 -38 193q-63 80 -177 80q-112 0 -210 -80q-96 -79 -120 -193zM785 1593q-58 0 -91 41q-32 41 -20 99q12 57 62 98t108 41q57 0 89 -41q34 -40 21 -98q-12 -59 -63 -99q-50 -41 -106 -41zM1148 1593q-58 0 -91 41q-32 41 -20 99q12 57 62 98t108 41
q57 0 89 -41q34 -40 21 -98q-12 -59 -63 -99q-50 -41 -106 -41z" />
    <glyph glyph-name="Aring" unicode="&#xc5;" 
d="M1367 1045l-196 -924q-10 -50 -54 -85q-43 -36 -93 -36h-3q-48 0 -77 36q-28 34 -18 85l95 446h-545l-95 -446q-10 -50 -54 -85q-43 -36 -93 -36h-3q-49 0 -77 36q-28 34 -18 85l196 924q47 215 230 366q184 151 397 151q214 0 334 -151q120 -152 74 -366zM527 811h545
l50 234q24 113 -38 193q-63 80 -177 80q-112 0 -210 -80q-96 -79 -120 -193zM945 1823q-5 -26 10 -45t40 -19h13q27 0 49 19q24 21 28 45q6 25 -9 45q-14 18 -41 18h-13q-26 0 -48 -18q-23 -20 -29 -45zM761 1823q23 100 108 170q86 71 186 71h24q99 0 156 -71
q56 -72 34 -170q-21 -100 -107 -171q-88 -71 -186 -71h-24q-100 0 -156 71t-35 171z" />
    <glyph glyph-name="AE" unicode="&#xc6;" horiz-adv-x="1819" 
d="M527 811h545l50 234q24 113 -38 193q-63 80 -177 80q-112 0 -210 -80q-96 -79 -120 -193zM979 365l19 90q0 4 2 16l21 96h-545l-95 -446q-10 -50 -54 -85q-43 -36 -93 -36h-3q-49 0 -77 36q-28 34 -18 85l196 924q47 215 230 366q184 151 397 151t323 -137q0 1 35 30
q131 107 281 107h356q50 0 78 -36t18 -85v-3q-10 -49 -54 -85t-94 -36h-356q-50 0 -94 -35q-42 -35 -53 -85l-62 -294h477q50 0 78 -36t18 -85v-3q-10 -49 -54 -85t-94 -36h-477l-62 -293q-11 -52 16 -86q29 -35 79 -35h356q49 0 78 -35q29 -36 18 -86v-2q-10 -49 -55 -86
q-44 -35 -93 -35h-356q-151 0 -235 107q-85 106 -52 258z" />
    <glyph glyph-name="Ccedilla" unicode="&#xc7;" horiz-adv-x="1202" 
d="M1188 1562q99 0 189 -24q87 -24 67 -117l-1 -3q-12 -58 -68 -96q-37 -25 -75 -25q-17 0 -32 4q-66 17 -132 17q-222 0 -412 -157q-192 -159 -238 -380q-46 -223 76 -380q124 -156 346 -156q70 0 138 16q16 4 34 4q39 0 65 -25q40 -36 28 -96l-1 -2q-19 -94 -117 -118
q-101 -24 -199 -24q-323 0 -503 229q-181 229 -112 552t346 552t601 229zM734 -105l54 140h206l-46 -114q66 -7 108 -60q43 -50 29 -117q-19 -93 -121 -161q-97 -65 -257 -65h-95q-40 0 -61 30q-19 24 -11 61l2 8l2 8q10 34 43 59q30 24 67 24q21 -1 52 -1q90 0 125 22
q20 12 23 25q1 7 -2 14q-6 7 -26 15q-12 5 -34 6q-40 4 -55 36q-14 26 -8 55q1 5 5 15z" />
    <glyph glyph-name="Egrave" unicode="&#xc8;" horiz-adv-x="1008" 
d="M609 1197l-62 -294h477q48 0 77 -35q29 -36 18 -86v-2q-11 -50 -54 -86q-44 -35 -93 -35h-477l-62 -294q-11 -51 17 -85q27 -35 77 -35h357q48 0 77 -36t18 -86v-2q-10 -50 -54 -85q-43 -36 -93 -36h-357q-151 0 -235 107q-85 106 -52 258l176 832q33 151 162 258
q131 107 281 107h357q48 0 77 -36q28 -34 18 -85v-2q-11 -50 -54 -86t-93 -36h-357q-49 0 -93 -35q-42 -35 -53 -85zM858 1679l-201 251q-13 18 -9 40q3 17 16 34q27 39 69 39h155q36 0 48 -28l122 -250q11 -20 6 -41q-3 -13 -14 -31q-27 -37 -69 -37h-76q-27 0 -47 23z" />
    <glyph glyph-name="Eacute" unicode="&#xc9;" horiz-adv-x="1008" 
d="M609 1197l-62 -294h477q48 0 77 -35q29 -36 18 -86v-2q-11 -50 -54 -86q-44 -35 -93 -35h-477l-62 -294q-11 -51 17 -85q27 -35 77 -35h357q48 0 77 -36t18 -86v-2q-10 -50 -54 -85q-43 -36 -93 -36h-357q-151 0 -235 107q-85 106 -52 258l176 832q33 151 162 258
q131 107 281 107h357q48 0 77 -36q28 -34 18 -85v-2q-11 -50 -54 -86t-93 -36h-357q-49 0 -93 -35q-42 -35 -53 -85zM1226 1930l-306 -251q-31 -23 -57 -23h-77q-42 0 -53 38q-5 16 -2 30q4 20 23 40l229 251q25 28 61 28h154q42 0 53 -39q6 -18 3 -33q-4 -20 -28 -41z" />
    <glyph glyph-name="Ecircumflex" unicode="&#xca;" horiz-adv-x="1008" 
d="M609 1197l-62 -294h477q48 0 77 -35q29 -36 18 -86v-2q-11 -50 -54 -86q-44 -35 -93 -35h-477l-62 -294q-11 -51 17 -85q27 -35 77 -35h357q48 0 77 -36t18 -86v-2q-10 -50 -54 -85q-43 -36 -93 -36h-357q-151 0 -235 107q-85 106 -52 258l176 832q33 151 162 258
q131 107 281 107h357q48 0 77 -36q28 -34 18 -85v-2q-11 -50 -54 -86t-93 -36h-357q-49 0 -93 -35q-42 -35 -53 -85zM1101 1655l-132 165l-203 -165q-29 -24 -56 -24h-77q-42 0 -53 38q-6 17 -2 32q4 20 24 40l250 251q28 26 60 26h197q33 0 47 -27l145 -250q11 -19 7 -41
q-3 -13 -14 -31q-26 -38 -69 -38h-77q-28 0 -47 24z" />
    <glyph glyph-name="Edieresis" unicode="&#xcb;" horiz-adv-x="1008" 
d="M609 1197l-62 -294h477q48 0 77 -35q29 -36 18 -86v-2q-11 -50 -54 -86q-44 -35 -93 -35h-477l-62 -294q-11 -51 17 -85q27 -35 77 -35h357q48 0 77 -36t18 -86v-2q-10 -50 -54 -85q-43 -36 -93 -36h-357q-151 0 -235 107q-85 106 -52 258l176 832q33 151 162 258
q131 107 281 107h357q48 0 77 -36q28 -34 18 -85v-2q-11 -50 -54 -86t-93 -36h-357q-49 0 -93 -35q-42 -35 -53 -85zM729 1593q-58 0 -91 41q-32 41 -20 99q12 57 62 98t108 41q57 0 89 -41q34 -40 21 -98q-12 -59 -63 -99q-50 -41 -106 -41zM1092 1593q-58 0 -91 41
q-32 41 -20 99q12 57 62 98t108 41q57 0 89 -41q34 -40 21 -98q-12 -59 -63 -99q-50 -41 -106 -41z" />
    <glyph glyph-name="Igrave" unicode="&#xcc;" horiz-adv-x="563" 
d="M593 1562h3q49 0 78 -35q28 -35 17 -86l-280 -1320q-10 -50 -54 -85q-43 -36 -93 -36h-3q-48 0 -77 36q-28 34 -18 85l280 1320q10 49 55 86q44 35 92 35zM579 1679l-201 251q-13 18 -9 40q3 17 16 34q27 39 69 39h155q36 0 48 -28l122 -250q11 -20 6 -41q-3 -13 -14 -31
q-27 -37 -69 -37h-76q-27 0 -47 23z" />
    <glyph glyph-name="Iacute" unicode="&#xcd;" horiz-adv-x="534" 
d="M593 1562h3q49 0 78 -35q28 -35 17 -86l-280 -1320q-10 -50 -54 -85q-43 -36 -93 -36h-3q-48 0 -77 36q-28 34 -18 85l280 1320q10 49 55 86q44 35 92 35zM967 1930l-306 -251q-31 -23 -57 -23h-77q-42 0 -53 38q-5 16 -2 30q4 20 23 40l229 251q25 28 61 28h154
q43 0 53 -39q6 -18 3 -33q-4 -20 -28 -41z" />
    <glyph glyph-name="Icircumflex" unicode="&#xce;" horiz-adv-x="544" 
d="M593 1562h3q49 0 78 -35q28 -35 17 -86l-280 -1320q-10 -50 -54 -85q-43 -36 -93 -36h-3q-48 0 -77 36q-28 34 -18 85l280 1320q10 49 55 86q44 35 92 35zM782 1655l-132 165l-203 -165q-28 -24 -56 -24h-77q-42 0 -53 38q-6 17 -2 32q4 20 24 40l250 251q28 26 60 26
h197q34 0 47 -27l145 -250q11 -19 7 -41q-3 -13 -14 -31q-26 -38 -69 -38h-77q-27 0 -47 24z" />
    <glyph glyph-name="Idieresis" unicode="&#xcf;" horiz-adv-x="569" 
d="M593 1562h3q49 0 78 -35q28 -35 17 -86l-280 -1320q-10 -50 -54 -85q-43 -36 -93 -36h-3q-48 0 -77 36q-28 34 -18 85l280 1320q10 49 55 86q44 35 92 35zM420 1593q-58 0 -91 41q-32 41 -20 99q12 57 62 98t108 41q57 0 89 -41q34 -40 21 -98q-12 -59 -63 -99
q-50 -41 -106 -41zM783 1593q-58 0 -91 41q-32 41 -20 99q12 57 62 98t108 41q57 0 89 -41q34 -40 21 -98q-12 -59 -63 -99q-50 -41 -106 -41z" />
    <glyph glyph-name="Eth" unicode="&#xd0;" horiz-adv-x="1414" 
d="M202 904h120l80 376q26 118 126 200t216 82h151q323 0 503 -229q181 -229 112 -552t-346 -552t-601 -229h-151q-116 0 -181 83q-67 83 -41 199l80 377h-120zM647 1280l-80 -376h305l-52 -245h-305l-80 -377q-3 -17 4 -27q9 -10 25 -10h151q223 0 413 156q192 159 238 380
q46 223 -76 380q-124 157 -347 157h-151q-15 0 -29 -11q-13 -10 -16 -27z" />
    <glyph glyph-name="Ntilde" unicode="&#xd1;" 
d="M1367 1045l-196 -924q-10 -50 -54 -85q-43 -36 -93 -36h-3q-48 0 -77 36q-28 34 -18 85l196 924q24 113 -38 193q-63 80 -177 80q-112 0 -210 -80q-96 -79 -120 -193l-196 -924q-10 -50 -54 -85q-43 -36 -93 -36h-3q-49 0 -77 36q-28 34 -18 85l196 924q47 215 230 366
q184 151 397 151q214 0 334 -151q120 -152 74 -366zM612 1715q35 91 109 143q79 56 177 56q82 0 180 -52q32 -17 71 -17h8q40 1 61 24q48 54 85 54h41q35 0 50 -25q13 -21 9 -46q0 -2 -1.5 -6t-2.5 -7q-76 -202 -276 -202q-82 0 -177 56q-40 23 -84 23q-40 -1 -56 -29
q-38 -52 -94 -56h-44q-33 0 -51 25q-15 21 -9 47q2 8 4 12z" />
    <glyph glyph-name="Ograve" unicode="&#xd2;" horiz-adv-x="1723" 
d="M1193 1562q323 0 504 -229t112 -552t-346 -552q-278 -229 -602 -229q-323 0 -503 229q-181 229 -112 552t346 552t601 229zM1141 1318q-222 0 -412 -157q-192 -159 -238 -380q-46 -223 76 -380q125 -156 346 -156q223 0 413 156q192 159 238 380q46 223 -76 380
q-124 157 -347 157zM1188 1679l-201 251q-13 18 -9 40q3 17 16 34q27 39 69 39h155q36 0 48 -28l122 -250q11 -20 6 -41q-3 -13 -14 -31q-27 -37 -69 -37h-76q-27 0 -47 23z" />
    <glyph glyph-name="Oacute" unicode="&#xd3;" horiz-adv-x="1723" 
d="M1193 1562q323 0 504 -229t112 -552t-346 -552q-278 -229 -602 -229q-323 0 -503 229q-181 229 -112 552t346 552t601 229zM1141 1318q-222 0 -412 -157q-192 -159 -238 -380q-46 -223 76 -380q125 -156 346 -156q223 0 413 156q192 159 238 380q46 223 -76 380
q-124 157 -347 157zM1556 1930l-306 -251q-31 -23 -57 -23h-77q-42 0 -53 38q-5 16 -2 30q4 20 23 40l229 251q25 28 61 28h154q42 0 53 -39q6 -18 3 -33q-4 -20 -28 -41z" />
    <glyph glyph-name="Ocircumflex" unicode="&#xd4;" horiz-adv-x="1723" 
d="M1193 1562q323 0 504 -229t112 -552t-346 -552q-278 -229 -602 -229q-323 0 -503 229q-181 229 -112 552t346 552t601 229zM1141 1318q-222 0 -412 -157q-192 -159 -238 -380q-46 -223 76 -380q125 -156 346 -156q223 0 413 156q192 159 238 380q46 223 -76 380
q-124 157 -347 157zM1381 1655l-132 165l-203 -165q-28 -24 -56 -24h-77q-42 0 -53 38q-6 17 -2 32q4 20 24 40l250 251q28 26 60 26h197q33 0 47 -27l145 -250q11 -19 7 -41q-3 -13 -14 -31q-26 -38 -69 -38h-77q-28 0 -47 24z" />
    <glyph glyph-name="Otilde" unicode="&#xd5;" horiz-adv-x="1723" 
d="M1193 1562q323 0 504 -229t112 -552t-346 -552q-278 -229 -602 -229q-323 0 -503 229q-181 229 -112 552t346 552t601 229zM1141 1318q-222 0 -412 -157q-192 -159 -238 -380q-46 -223 76 -380q125 -156 346 -156q223 0 413 156q192 159 238 380q46 223 -76 380
q-124 157 -347 157zM846 1715q35 91 109 143q79 56 177 56q82 0 180 -52q32 -17 71 -17h8q40 1 61 24q48 54 85 54h41q35 0 50 -25q13 -21 9 -46q0 -2 -1.5 -6t-2.5 -7q-76 -202 -276 -202q-82 0 -177 56q-40 23 -84 23q-40 -1 -56 -29q-38 -52 -94 -56h-44q-33 0 -51 25
q-15 21 -9 47q2 8 4 12z" />
    <glyph glyph-name="Odieresis" unicode="&#xd6;" horiz-adv-x="1723" 
d="M1193 1562q323 0 504 -229t112 -552t-346 -552q-278 -229 -602 -229q-323 0 -503 229q-181 229 -112 552t346 552t601 229zM1141 1318q-222 0 -412 -157q-192 -159 -238 -380q-46 -223 76 -380q125 -156 346 -156q223 0 413 156q192 159 238 380q46 223 -76 380
q-124 157 -347 157zM1019 1593q-58 0 -91 41q-32 41 -20 99q12 57 62 98t108 41q57 0 89 -41q34 -40 21 -98q-12 -59 -63 -99q-50 -41 -106 -41zM1382 1593q-58 0 -91 41q-32 41 -20 99q12 57 62 98t108 41q57 0 89 -41q34 -40 21 -98q-12 -59 -63 -99q-50 -41 -106 -41z
" />
    <glyph glyph-name="multiply" unicode="&#xd7;" horiz-adv-x="917" 
d="M506 1155l156 -200l241 199q43 36 94 36t82 -39v-2q25 -33 15 -82q-11 -50 -53 -86l-242 -199l157 -199q27 -37 17 -86q-10 -48 -58 -90l-3 -1q-40 -32 -89 -32t-78 36l-157 199l-241 -200q-44 -35 -92 -35h-6q-47 0 -74 35l-1 1q-29 36 -18 86l1 3q11 50 53 83l242 200
l-157 200q-29 35 -18 83l2 6q11 48 52 82l1 1q43 36 94 36h3q48 0 77 -35z" />
    <glyph glyph-name="Oslash" unicode="&#xd8;" horiz-adv-x="1723" 
d="M623 341l634 966q-38 11 -116 11q-222 0 -412 -157q-192 -159 -238 -380q-46 -223 76 -380q39 -48 56 -60zM1434 1219l-631 -964q31 -10 110 -10q223 0 413 156q192 159 238 380q46 223 -76 380q-38 46 -54 58zM1745 1692l-162 -247q55 -38 114 -112q181 -229 112 -552
t-346 -552q-278 -229 -602 -229q-127 0 -206 27l-160 -244h-237l217 331q-55 36 -117 115q-181 229 -112 552t346 552t601 229q131 0 212 -28l104 158h236z" />
    <glyph glyph-name="Ugrave" unicode="&#xd9;" 
d="M1451 1441l-196 -924q-46 -214 -230 -365q-185 -152 -398 -152t-333 152t-74 365l196 924q10 49 55 86q44 35 92 35h3q49 0 78 -35q28 -35 17 -86l-196 -924q-24 -113 38 -193q63 -79 176 -79q114 0 211 79q96 79 120 193l196 924q10 49 55 86q44 35 92 35h3q49 0 78 -35
q28 -35 17 -86zM954 1679l-201 251q-13 18 -9 40q3 17 16 34q27 39 69 39h155q36 0 48 -28l122 -250q11 -20 6 -41q-3 -13 -14 -31q-27 -37 -69 -37h-76q-27 0 -47 23z" />
    <glyph glyph-name="Uacute" unicode="&#xda;" 
d="M1451 1441l-196 -924q-46 -214 -230 -365q-185 -152 -398 -152t-333 152t-74 365l196 924q10 49 55 86q44 35 92 35h3q49 0 78 -35q28 -35 17 -86l-196 -924q-24 -113 38 -193q63 -79 176 -79q114 0 211 79q96 79 120 193l196 924q10 49 55 86q44 35 92 35h3q49 0 78 -35
q28 -35 17 -86zM1322 1930l-306 -251q-31 -23 -57 -23h-77q-42 0 -53 38q-5 16 -2 30q4 20 23 40l229 251q25 28 61 28h154q42 0 53 -39q6 -18 3 -33q-4 -20 -28 -41z" />
    <glyph glyph-name="Ucircumflex" unicode="&#xdb;" 
d="M1451 1441l-196 -924q-46 -214 -230 -365q-185 -152 -398 -152t-333 152t-74 365l196 924q10 49 55 86q44 35 92 35h3q49 0 78 -35q28 -35 17 -86l-196 -924q-24 -113 38 -193q63 -79 176 -79q114 0 211 79q96 79 120 193l196 924q10 49 55 86q44 35 92 35h3q49 0 78 -35
q28 -35 17 -86zM1147 1655l-132 165l-203 -165q-28 -24 -56 -24h-77q-42 0 -53 38q-6 17 -2 32q4 20 24 40l250 251q28 26 60 26h197q33 0 47 -27l145 -250q11 -19 7 -41q-3 -13 -14 -31q-26 -38 -69 -38h-77q-28 0 -47 24z" />
    <glyph glyph-name="Udieresis" unicode="&#xdc;" 
d="M1451 1441l-196 -924q-46 -214 -230 -365q-185 -152 -398 -152t-333 152t-74 365l196 924q10 49 55 86q44 35 92 35h3q49 0 78 -35q28 -35 17 -86l-196 -924q-24 -113 38 -193q63 -79 176 -79q114 0 211 79q96 79 120 193l196 924q10 49 55 86q44 35 92 35h3q49 0 78 -35
q28 -35 17 -86zM785 1593q-58 0 -91 41q-32 41 -20 99q12 57 62 98t108 41q57 0 89 -41q34 -40 21 -98q-12 -59 -63 -99q-50 -41 -106 -41zM1148 1593q-58 0 -91 41q-32 41 -20 99q12 57 62 98t108 41q57 0 89 -41q34 -40 21 -98q-12 -59 -63 -99q-50 -41 -106 -41z" />
    <glyph glyph-name="Yacute" unicode="&#xdd;" horiz-adv-x="1235" 
d="M1441 1441l-94 -444q-41 -189 -191 -332q-148 -140 -311 -172l-79 -372q-10 -50 -54 -85q-44 -36 -93 -36h-3q-48 0 -77 36q-28 34 -18 85l79 372q-151 32 -239 172q-89 145 -49 332l94 444q10 49 55 86q44 35 92 35h3q49 0 78 -35q28 -35 17 -86l-94 -444
q-24 -114 38 -194q63 -79 176 -79q114 0 211 79q96 79 120 194l94 444q10 49 55 86q44 35 92 35h3q49 0 78 -35q28 -35 17 -86zM1312 1930l-306 -251q-31 -23 -57 -23h-77q-42 0 -53 38q-5 16 -2 30q4 20 23 40l229 251q25 28 61 28h154q42 0 53 -39q6 -18 3 -33
q-4 -20 -28 -41z" />
    <glyph glyph-name="Thorn" unicode="&#xde;" horiz-adv-x="1280" 
d="M784 298h-336l-37 -177q-10 -50 -54 -85q-43 -36 -93 -36h-3q-48 0 -77 36q-28 34 -18 85l280 1320q10 49 55 86q44 35 92 35h3q49 0 78 -35q28 -35 17 -86l-37 -176h336q200 0 312 -142t69 -341q-42 -200 -214 -342t-373 -142zM938 1020h-336l-102 -477h336q98 0 184 69
q85 70 106 170q21 99 -34 169q-56 69 -154 69z" />
    <glyph glyph-name="germandbls" unicode="&#xdf;" horiz-adv-x="1184" 
d="M617 1280l-246 -1159q-10 -50 -54 -85q-43 -36 -93 -36h-3q-49 0 -77 36q-28 34 -18 85l246 1159q26 118 126 200t216 82h238q183 0 285 -129q101 -130 62 -311q-44 -206 -195 -314q128 -116 78 -345q-41 -191 -205 -327t-357 -136h-61q-49 0 -78 36q-28 34 -17 85v2
q11 50 53 86q43 36 94 36h61q92 0 168 63q77 65 96 155q19 91 -30 155t-141 64h-57q-50 0 -78 36q-28 34 -17 85v2q11 50 53 86q44 35 94 35l57 1q81 0 151 56q70 58 86 139q18 81 -27 138q-46 58 -127 58h-238q-15 0 -29 -11q-13 -10 -16 -27z" />
    <glyph glyph-name="agrave" unicode="&#xe0;" horiz-adv-x="1352" 
d="M921 1152q238 0 371 -169t82 -407l-96 -455q-10 -50 -54 -85q-44 -36 -93 -36h-3q-48 0 -77 36q-28 34 -18 85q-139 -121 -357 -121q-238 0 -371 169q-133 168 -83 407q51 238 256 407t443 169zM869 907q-138 0 -256 -97q-116 -98 -146 -234q-29 -138 46 -235
q77 -96 215 -96t254 96q119 98 147 235q30 136 -47 234q-76 97 -213 97zM915 1269l-201 251q-13 18 -9 40q3 17 16 34q27 39 69 39h155q36 0 48 -28l122 -250q11 -20 6 -41q-3 -13 -14 -31q-27 -37 -69 -37h-76q-27 0 -47 23z" />
    <glyph glyph-name="aacute" unicode="&#xe1;" horiz-adv-x="1352" 
d="M921 1152q238 0 371 -169t82 -407l-96 -455q-10 -50 -54 -85q-44 -36 -93 -36h-3q-48 0 -77 36q-28 34 -18 85q-139 -121 -357 -121q-238 0 -371 169q-133 168 -83 407q51 238 256 407t443 169zM869 907q-138 0 -256 -97q-116 -98 -146 -234q-29 -138 46 -235
q77 -96 215 -96t254 96q119 98 147 235q30 136 -47 234q-76 97 -213 97zM1283 1520l-306 -251q-31 -23 -57 -23h-77q-42 0 -53 38q-5 16 -2 30q4 20 23 40l229 251q25 28 61 28h154q43 0 53 -39q6 -18 3 -33q-4 -20 -28 -41z" />
    <glyph glyph-name="acircumflex" unicode="&#xe2;" horiz-adv-x="1352" 
d="M921 1152q238 0 371 -169t82 -407l-96 -455q-10 -50 -54 -85q-44 -36 -93 -36h-3q-48 0 -77 36q-28 34 -18 85q-139 -121 -357 -121q-238 0 -371 169q-133 168 -83 407q51 238 256 407t443 169zM869 907q-138 0 -256 -97q-116 -98 -146 -234q-29 -138 46 -235
q77 -96 215 -96t254 96q119 98 147 235q30 136 -47 234q-76 97 -213 97zM1108 1245l-132 165l-203 -165q-29 -24 -56 -24h-77q-42 0 -53 38q-6 17 -3 32q4 19 25 40l250 251q28 26 60 26h197q34 0 47 -27l145 -250q11 -19 7 -41q-3 -13 -14 -31q-26 -38 -69 -38h-77
q-27 0 -47 24z" />
    <glyph glyph-name="atilde" unicode="&#xe3;" horiz-adv-x="1352" 
d="M921 1152q238 0 371 -169t82 -407l-96 -455q-10 -50 -54 -85q-44 -36 -93 -36h-3q-48 0 -77 36q-28 34 -18 85q-139 -121 -357 -121q-238 0 -371 169q-133 168 -83 407q51 238 256 407t443 169zM869 907q-138 0 -256 -97q-116 -98 -146 -234q-29 -138 46 -235
q77 -96 215 -96t254 96q119 98 147 235q30 136 -47 234q-76 97 -213 97zM572 1305q35 90 110 143q79 56 177 56q82 0 180 -52q32 -17 71 -17h8q40 1 61 24q48 54 85 54h41q35 0 50 -25q13 -21 9 -46q0 -2 -1.5 -6t-2.5 -7q-76 -202 -276 -202q-82 0 -177 56q-40 23 -84 23
q-41 -2 -57 -29q-36 -52 -93 -56h-44q-33 0 -51 25q-15 21 -9 47z" />
    <glyph glyph-name="adieresis" unicode="&#xe4;" horiz-adv-x="1352" 
d="M921 1152q238 0 371 -169t82 -407l-96 -455q-10 -50 -54 -85q-44 -36 -93 -36h-3q-48 0 -77 36q-28 34 -18 85q-139 -121 -357 -121q-238 0 -371 169q-133 168 -83 407q51 238 256 407t443 169zM869 907q-138 0 -256 -97q-116 -98 -146 -234q-29 -138 46 -235
q77 -96 215 -96t254 96q119 98 147 235q30 136 -47 234q-76 97 -213 97zM745 1183q-58 0 -90 41t-20 99q12 57 62 98t108 41q57 0 89 -41q34 -40 21 -98q-12 -59 -63 -99q-50 -41 -107 -41zM1108 1183q-58 0 -90 41t-20 99q12 57 62 98t108 41q57 0 89 -41q34 -40 21 -98
q-12 -59 -63 -99q-50 -41 -107 -41z" />
    <glyph glyph-name="aring" unicode="&#xe5;" horiz-adv-x="1352" 
d="M921 1152q238 0 371 -169t82 -407l-96 -455q-10 -50 -54 -85q-44 -36 -93 -36h-3q-48 0 -77 36q-28 34 -18 85q-139 -121 -357 -121q-238 0 -371 169q-133 168 -83 407q51 238 256 407t443 169zM869 907q-138 0 -256 -97q-116 -98 -146 -234q-29 -138 46 -235
q77 -96 215 -96t254 96q119 98 147 235q30 136 -47 234q-76 97 -213 97zM906 1413q-5 -26 10 -45t40 -19h13q27 0 49 19q24 21 28 45q6 25 -9 45q-14 18 -41 18h-13q-25 0 -48 -18q-23 -20 -29 -45zM722 1413q21 99 107 170q88 71 187 71h24q99 0 155 -71t35 -170
q-21 -100 -107 -171q-88 -71 -186 -71h-24q-100 0 -156 71t-35 171z" />
    <glyph glyph-name="ae" unicode="&#xe6;" horiz-adv-x="2245" 
d="M1375 573l-2 -8l613 252q-55 88 -210 88q-139 0 -255 -97q-118 -98 -146 -235zM613 810q-116 -98 -146 -234q-29 -138 46 -235q77 -96 215 -96t254 96q119 98 147 235q30 136 -47 234q-76 97 -213 97q-138 0 -256 -97zM1273 100l5 21q-10 -50 -54 -85q-44 -36 -93 -36h-3
q-48 0 -77 36q-28 34 -18 85l-5 -21q-134 -100 -352 -100q-238 0 -371 169q-133 168 -83 407q51 238 256 407t443 169t371 -169q33 -43 37 -49q13 13 57 49q205 169 443 169q173 0 294 -94q121 -91 157 -242q7 -23 2 -51q-4 -20 -17 -42q-28 -47 -79 -68
q-361 -149 -403 -166q-110 -45 -364 -151q55 -96 216 -96q107 0 208 63q97 61 153 160q46 82 133 82q63 0 88 -52q17 -32 9 -67q-5 -23 -17 -43q-96 -171 -266 -276q-172 -109 -359 -109q-220 0 -311 100z" />
    <glyph glyph-name="ccedilla" unicode="&#xe7;" horiz-adv-x="975" 
d="M891 1152q90 0 168 -27q80 -27 60 -116l-1 -5q-13 -61 -69 -97q-39 -24 -75 -24q-18 0 -38 6q-45 16 -98 16q-139 0 -255 -97q-118 -98 -146 -235q-29 -137 46 -234q76 -97 214 -97q54 0 105 16q20 6 39 6q37 0 66 -24q41 -37 28 -98q-19 -88 -109 -116q-92 -26 -180 -26
q-238 0 -371 169q-133 168 -83 407q51 238 256 407t443 169zM510 -121l55 140h206l-46 -114q65 -7 108 -60q42 -51 28 -117q-20 -94 -120 -161q-98 -65 -258 -65h-95q-40 0 -60 30q-19 25 -12 61l2 8l3 8q11 35 42 59t68 24q20 -1 51 -1q89 0 126 22q21 13 22 25q2 9 -2 14
q-4 7 -26 15q-12 5 -33 6q-39 4 -56 36q-13 25 -7 55q0 3 1.5 8t2.5 7z" />
    <glyph glyph-name="egrave" unicode="&#xe8;" horiz-adv-x="1277" 
d="M838 905q-139 0 -255 -97q-118 -98 -146 -235l-2 -7l613 251q-55 88 -210 88zM1342 816q7 -23 2 -51q-4 -20 -17 -42q-28 -47 -79 -68q-361 -149 -403 -166q-110 -45 -364 -151q55 -96 216 -96q107 0 208 63q97 61 153 160q46 82 133 82q63 0 88 -52q17 -32 9 -67
q-5 -23 -17 -43q-96 -171 -266 -276q-172 -109 -359 -109q-238 0 -371 169q-133 168 -83 407q51 238 256 407t443 169q173 0 294 -94q121 -91 157 -242zM873 1269l-201 251q-13 18 -9 40q3 17 16 34q27 39 69 39h155q36 0 48 -28l122 -250q11 -20 6 -41q-3 -13 -14 -31
q-27 -37 -69 -37h-76q-27 0 -47 23z" />
    <glyph glyph-name="eacute" unicode="&#xe9;" horiz-adv-x="1277" 
d="M838 905q-139 0 -255 -97q-118 -98 -146 -235l-2 -7l613 251q-55 88 -210 88zM1342 816q7 -23 2 -51q-4 -20 -17 -42q-28 -47 -79 -68q-361 -149 -403 -166q-110 -45 -364 -151q55 -96 216 -96q107 0 208 63q97 61 153 160q46 82 133 82q63 0 88 -52q17 -32 9 -67
q-5 -23 -17 -43q-96 -171 -266 -276q-172 -109 -359 -109q-238 0 -371 169q-133 168 -83 407q51 238 256 407t443 169q173 0 294 -94q121 -91 157 -242zM1241 1520l-306 -251q-31 -23 -57 -23h-77q-42 0 -53 38q-5 16 -2 30q4 20 23 40l229 251q25 28 61 28h154q43 0 53 -39
q6 -18 3 -33q-4 -20 -28 -41z" />
    <glyph glyph-name="ecircumflex" unicode="&#xea;" horiz-adv-x="1277" 
d="M838 905q-139 0 -255 -97q-118 -98 -146 -235l-2 -7l613 251q-55 88 -210 88zM1342 816q7 -23 2 -51q-4 -20 -17 -42q-28 -47 -79 -68q-361 -149 -403 -166q-110 -45 -364 -151q55 -96 216 -96q107 0 208 63q97 61 153 160q46 82 133 82q63 0 88 -52q17 -32 9 -67
q-5 -23 -17 -43q-96 -171 -266 -276q-172 -109 -359 -109q-238 0 -371 169q-133 168 -83 407q51 238 256 407t443 169q173 0 294 -94q121 -91 157 -242zM1065 1245l-132 165l-203 -165q-28 -24 -56 -24h-77q-42 0 -53 38q-6 17 -3 32q4 19 25 40l250 251q28 26 60 26h197
q33 0 47 -27l145 -250q11 -19 7 -41q-3 -13 -14 -31q-26 -38 -69 -38h-77q-28 0 -47 24z" />
    <glyph glyph-name="edieresis" unicode="&#xeb;" horiz-adv-x="1277" 
d="M838 905q-139 0 -255 -97q-118 -98 -146 -235l-2 -7l613 251q-55 88 -210 88zM1342 816q7 -23 2 -51q-4 -20 -17 -42q-28 -47 -79 -68q-361 -149 -403 -166q-110 -45 -364 -151q55 -96 216 -96q107 0 208 63q97 61 153 160q46 82 133 82q63 0 88 -52q17 -32 9 -67
q-5 -23 -17 -43q-96 -171 -266 -276q-172 -109 -359 -109q-238 0 -371 169q-133 168 -83 407q51 238 256 407t443 169q173 0 294 -94q121 -91 157 -242zM703 1183q-58 0 -90 41t-20 99q12 57 62 98t108 41q57 0 89 -41q34 -40 21 -98q-12 -59 -63 -99q-50 -41 -107 -41z
M1066 1183q-58 0 -90 41t-20 99q12 57 62 98t108 41q57 0 89 -41q34 -40 21 -98q-12 -59 -63 -99q-50 -41 -107 -41z" />
    <glyph glyph-name="igrave" unicode="&#xec;" horiz-adv-x="496" 
d="M504 1152h2q52 0 77 -36q29 -36 18 -86l-193 -909q-10 -50 -54 -85q-42 -36 -93 -36h-2q-49 0 -78 36q-28 34 -18 85l193 909q11 50 54 86q44 36 94 36zM489 1269l-201 251q-13 18 -9 40q3 17 16 34q27 39 69 39h155q36 0 48 -28l122 -250q11 -20 6 -41q-3 -13 -14 -31
q-27 -37 -69 -37h-76q-27 0 -47 23z" />
    <glyph glyph-name="iacute" unicode="&#xed;" horiz-adv-x="525" 
d="M504 1152h2q52 0 77 -36q29 -36 18 -86l-193 -909q-10 -50 -54 -85q-42 -36 -93 -36h-2q-49 0 -78 36q-28 34 -18 85l193 909q11 50 54 86q44 36 94 36zM877 1520l-306 -251q-31 -23 -57 -23h-77q-42 0 -53 38q-5 16 -2 30q4 20 23 40l229 251q25 28 61 28h154
q43 0 53 -39q6 -18 3 -33q-4 -20 -28 -41z" />
    <glyph glyph-name="icircumflex" unicode="&#xee;" horiz-adv-x="531" 
d="M504 1152h2q52 0 77 -36q29 -36 18 -86l-193 -909q-10 -50 -54 -85q-42 -36 -93 -36h-2q-49 0 -78 36q-28 34 -18 85l193 909q11 50 54 86q44 36 94 36zM692 1245l-132 165l-203 -165q-29 -24 -56 -24h-77q-42 0 -53 38q-6 17 -3 32q4 19 25 40l250 251q28 26 60 26h197
q34 0 47 -27l145 -250q11 -19 7 -41q-3 -13 -14 -31q-26 -38 -69 -38h-77q-27 0 -47 24z" />
    <glyph glyph-name="idieresis" unicode="&#xef;" horiz-adv-x="512" 
d="M504 1152h2q52 0 77 -36q29 -36 18 -86l-193 -909q-10 -50 -54 -85q-42 -36 -93 -36h-2q-49 0 -78 36q-28 34 -18 85l193 909q11 50 54 86q44 36 94 36zM329 1183q-58 0 -90 41t-20 99q12 57 62 98t108 41q57 0 89 -41q34 -40 21 -98q-12 -59 -63 -99q-50 -41 -107 -41z
M692 1183q-58 0 -90 41t-20 99q12 57 62 98t108 41q57 0 89 -41q34 -40 21 -98q-12 -59 -63 -99q-50 -41 -107 -41z" />
    <glyph glyph-name="eth" unicode="&#xf0;" horiz-adv-x="1352" 
d="M868 905q-139 0 -255 -97q-118 -98 -146 -235q-29 -137 46 -234q76 -97 214 -97q137 0 255 97t147 234q29 139 -47 235q-76 97 -214 97zM1110 1609l7 -5q26 -23 20 -51q-5 -22 -27 -44l-63 -66q264 -211 326 -528q32 -159 11 -278q-3 -34 -10 -61q-49 -237 -255 -407
q-205 -169 -443 -169t-371 169q-133 168 -83 407q51 238 256 407t443 169q69 0 70 4q0 1 -4 2q-8 15 -113 106l-84 -87q-29 -32 -57 -32q-21 0 -41 18l-7 5q-26 23 -20 51q4 20 28 45l72 75q-1 0 -5 2.5t-13.5 7.5t-17.5 9q-25 13 -27 44q-1 7 1 19q5 19 19 36l56 64
q28 34 60 34q16 0 30 -7q58 -30 65 -34l78 81q30 32 59 32q20 0 40 -18z" />
    <glyph glyph-name="ntilde" unicode="&#xf1;" horiz-adv-x="1167" 
d="M487 668l-116 -547q-10 -50 -54 -85q-43 -36 -93 -36h-3q-49 0 -77 36q-28 34 -18 85l116 547q42 199 215 342q172 142 372 142q199 0 311 -142q111 -142 69 -342l-116 -547q-10 -50 -54 -85q-42 -36 -93 -36h-2q-50 0 -78 36q-28 34 -18 85l116 547q21 99 -33 169
q-55 70 -154 70q-100 0 -185 -70q-84 -71 -105 -169zM480 1305q35 90 110 143q79 56 177 56q82 0 180 -52q32 -17 71 -17h8q40 1 61 24q48 54 85 54h41q35 0 50 -25q13 -21 9 -46q0 -2 -1.5 -6t-2.5 -7q-76 -202 -276 -202q-82 0 -177 56q-40 23 -84 23q-41 -2 -57 -29
q-36 -52 -93 -56h-44q-33 0 -51 25q-15 21 -9 47z" />
    <glyph glyph-name="ograve" unicode="&#xf2;" horiz-adv-x="1292" 
d="M838 905q-139 0 -255 -97q-118 -98 -146 -235q-29 -137 46 -234q76 -97 214 -97q137 0 255 97t147 234q29 139 -47 235q-76 97 -214 97zM891 1152q238 0 371 -169t82 -407q-49 -237 -255 -407q-205 -169 -443 -169t-371 169q-133 168 -83 407q51 238 256 407t443 169z
M885 1269l-201 251q-13 18 -9 40q3 17 16 34q27 39 69 39h155q36 0 48 -28l122 -250q11 -20 6 -41q-3 -13 -14 -31q-27 -37 -69 -37h-76q-27 0 -47 23z" />
    <glyph glyph-name="oacute" unicode="&#xf3;" horiz-adv-x="1292" 
d="M838 905q-139 0 -255 -97q-118 -98 -146 -235q-29 -137 46 -234q76 -97 214 -97q137 0 255 97t147 234q29 139 -47 235q-76 97 -214 97zM891 1152q238 0 371 -169t82 -407q-49 -237 -255 -407q-205 -169 -443 -169t-371 169q-133 168 -83 407q51 238 256 407t443 169z
M1253 1520l-306 -251q-31 -23 -57 -23h-77q-42 0 -53 38q-5 16 -2 30q4 20 23 40l229 251q25 28 61 28h154q43 0 53 -39q6 -18 3 -33q-4 -20 -28 -41z" />
    <glyph glyph-name="ocircumflex" unicode="&#xf4;" horiz-adv-x="1292" 
d="M838 905q-139 0 -255 -97q-118 -98 -146 -235q-29 -137 46 -234q76 -97 214 -97q137 0 255 97t147 234q29 139 -47 235q-76 97 -214 97zM891 1152q238 0 371 -169t82 -407q-49 -237 -255 -407q-205 -169 -443 -169t-371 169q-133 168 -83 407q51 238 256 407t443 169z
M1078 1245l-132 165l-203 -165q-29 -24 -56 -24h-77q-42 0 -53 38q-6 17 -3 32q4 19 25 40l250 251q28 26 60 26h197q34 0 47 -27l145 -250q11 -19 7 -41q-3 -13 -14 -31q-26 -38 -69 -38h-77q-27 0 -47 24z" />
    <glyph glyph-name="otilde" unicode="&#xf5;" horiz-adv-x="1292" 
d="M838 905q-139 0 -255 -97q-118 -98 -146 -235q-29 -137 46 -234q76 -97 214 -97q137 0 255 97t147 234q29 139 -47 235q-76 97 -214 97zM891 1152q238 0 371 -169t82 -407q-49 -237 -255 -407q-205 -169 -443 -169t-371 169q-133 168 -83 407q51 238 256 407t443 169z
M542 1305q35 90 110 143q79 56 177 56q82 0 180 -52q32 -17 71 -17h8q40 1 61 24q48 54 85 54h41q35 0 50 -25q13 -21 9 -46q0 -2 -1.5 -6t-2.5 -7q-76 -202 -276 -202q-82 0 -177 56q-40 23 -84 23q-41 -2 -57 -29q-36 -52 -93 -56h-44q-33 0 -51 25q-15 21 -9 47z" />
    <glyph glyph-name="odieresis" unicode="&#xf6;" horiz-adv-x="1292" 
d="M838 905q-139 0 -255 -97q-118 -98 -146 -235q-29 -137 46 -234q76 -97 214 -97q137 0 255 97t147 234q29 139 -47 235q-76 97 -214 97zM891 1152q238 0 371 -169t82 -407q-49 -237 -255 -407q-205 -169 -443 -169t-371 169q-133 168 -83 407q51 238 256 407t443 169z
M715 1183q-58 0 -90 41t-20 99q12 57 62 98t108 41q57 0 89 -41q34 -40 21 -98q-12 -59 -63 -99q-50 -41 -107 -41zM1078 1183q-58 0 -90 41t-20 99q12 57 62 98t108 41q57 0 89 -41q34 -40 21 -98q-12 -59 -63 -99q-50 -41 -107 -41z" />
    <glyph glyph-name="divide" unicode="&#xf7;" horiz-adv-x="952" 
d="M1068 782v-2q-10 -50 -54 -85q-43 -36 -94 -36h-609q-51 0 -77 36q-28 34 -18 85v2q11 50 54 86q42 36 93 36h609q50 0 78 -36q29 -36 18 -86zM541 306q-58 0 -90 41q-33 41 -20 99q12 57 62 98t107 41t90 -41q33 -40 21 -98q-13 -58 -63 -99t-107 -41zM684 979
q-58 0 -90 41t-20 99q12 57 62 98t107 41t90 -41q33 -40 21 -98q-14 -59 -63 -99q-50 -41 -107 -41z" />
    <glyph glyph-name="oslash" unicode="&#xf8;" horiz-adv-x="1292" 
d="M490 332l384 573h-36q-139 0 -255 -97q-118 -98 -146 -235q-29 -137 46 -234zM1049 812l-383 -571q3 1 31 1q137 0 255 97t147 234q28 138 -48 235q-2 2 -2 4zM127 -210l210 313q-27 20 -62 66q-133 168 -83 407q51 238 256 407t443 169q89 0 137 -16l145 216h236
l-205 -306q26 -22 58 -63q133 -169 82 -407q-49 -237 -255 -407q-205 -169 -443 -169q-83 0 -131 14l-151 -224h-237z" />
    <glyph glyph-name="ugrave" unicode="&#xf9;" horiz-adv-x="1167" 
d="M564 1030l-116 -547q-21 -99 33 -169q55 -69 155 -69q98 0 184 69q84 71 105 169l116 547q11 50 54 86t94 36h2q51 0 77 -36q29 -36 18 -86l-116 -547q-43 -199 -215 -341t-371 -142q-200 0 -312 142t-69 341l116 547q11 50 54 86t93 36h3q49 0 77 -36q29 -36 18 -86z
M823 1269l-201 251q-13 18 -9 40q3 17 16 34q27 39 69 39h155q36 0 48 -28l122 -250q11 -20 6 -41q-3 -13 -14 -31q-27 -37 -69 -37h-76q-27 0 -47 23z" />
    <glyph glyph-name="uacute" unicode="&#xfa;" horiz-adv-x="1167" 
d="M564 1030l-116 -547q-21 -99 33 -169q55 -69 155 -69q98 0 184 69q84 71 105 169l116 547q11 50 54 86t94 36h2q51 0 77 -36q29 -36 18 -86l-116 -547q-43 -199 -215 -341t-371 -142q-200 0 -312 142t-69 341l116 547q11 50 54 86t93 36h3q49 0 77 -36q29 -36 18 -86z
M1191 1520l-306 -251q-31 -23 -57 -23h-77q-42 0 -53 38q-5 16 -2 30q4 20 23 40l229 251q25 28 61 28h154q43 0 53 -39q6 -18 3 -33q-4 -20 -28 -41z" />
    <glyph glyph-name="ucircumflex" unicode="&#xfb;" horiz-adv-x="1167" 
d="M564 1030l-116 -547q-21 -99 33 -169q55 -69 155 -69q98 0 184 69q84 71 105 169l116 547q11 50 54 86t94 36h2q51 0 77 -36q29 -36 18 -86l-116 -547q-43 -199 -215 -341t-371 -142q-200 0 -312 142t-69 341l116 547q11 50 54 86t93 36h3q49 0 77 -36q29 -36 18 -86z
M1016 1245l-132 165l-203 -165q-29 -24 -56 -24h-77q-42 0 -53 38q-6 17 -3 32q4 19 25 40l250 251q28 26 60 26h197q34 0 47 -27l145 -250q11 -19 7 -41q-3 -13 -14 -31q-26 -38 -69 -38h-77q-27 0 -47 24z" />
    <glyph glyph-name="udieresis" unicode="&#xfc;" horiz-adv-x="1167" 
d="M564 1030l-116 -547q-21 -99 33 -169q55 -69 155 -69q98 0 184 69q84 71 105 169l116 547q11 50 54 86t94 36h2q51 0 77 -36q29 -36 18 -86l-116 -547q-43 -199 -215 -341t-371 -142q-200 0 -312 142t-69 341l116 547q11 50 54 86t93 36h3q49 0 77 -36q29 -36 18 -86z
M653 1183q-58 0 -90 41t-20 99q12 57 62 98t108 41q57 0 89 -41q34 -40 21 -98q-12 -59 -63 -99q-50 -41 -107 -41zM1016 1183q-58 0 -90 41t-20 99q12 57 62 98t108 41q57 0 89 -41q34 -40 21 -98q-12 -59 -63 -99q-50 -41 -107 -41z" />
    <glyph glyph-name="yacute" unicode="&#xfd;" horiz-adv-x="1167" 
d="M564 1030l-112 -525q-21 -99 33 -169q55 -70 156 -70q99 0 182 70q85 70 106 169l112 525q11 50 54 86t94 36h2q51 0 77 -36q29 -36 18 -86l-203 -957q-43 -198 -222 -342q-175 -142 -364 -142q-149 0 -258 74q-104 72 -141 193q-8 28 -2 54q5 23 20 46q32 52 84 69l5 2
q21 7 44 7q21 0 42 -8q37 -16 49 -57q19 -58 76 -97q58 -38 133 -38q96 0 181 70q87 72 108 169l1 8q-92 -59 -250 -59q-200 0 -312 142q-112 141 -70 341l112 525q11 50 54 86t93 36h3q49 0 77 -36q29 -36 18 -86zM1191 1520l-306 -251q-31 -23 -57 -23h-77q-42 0 -53 38
q-5 16 -2 30q4 20 23 40l229 251q25 28 61 28h154q43 0 53 -39q6 -18 3 -33q-4 -20 -28 -41z" />
    <glyph glyph-name="thorn" unicode="&#xfe;" horiz-adv-x="1322" 
d="M651 1441l-82 -388q132 99 352 99q238 0 371 -169t82 -407q-49 -237 -255 -407q-205 -169 -443 -169q-219 0 -310 100l-83 -390q-10 -49 -54 -85q-43 -36 -92 -36h-3q-50 0 -78 36t-18 85l368 1731q10 49 55 86q44 35 92 35h3q49 0 78 -35q28 -35 17 -86zM468 578
q-29 -137 46 -234q76 -97 215 -97q138 0 254 97q119 98 147 234q29 139 -47 235q-77 96 -214 96q-138 0 -255 -96q-118 -98 -146 -235z" />
    <glyph glyph-name="ydieresis" unicode="&#xff;" horiz-adv-x="1167" 
d="M564 1030l-112 -525q-21 -99 33 -169q55 -70 156 -70q99 0 182 70q85 70 106 169l112 525q11 50 54 86t94 36h2q51 0 77 -36q29 -36 18 -86l-203 -957q-43 -198 -222 -342q-175 -142 -364 -142q-149 0 -258 74q-104 72 -141 193q-8 28 -2 54q5 23 20 46q32 52 84 69l5 2
q21 7 44 7q21 0 42 -8q37 -16 49 -57q19 -58 76 -97q58 -38 133 -38q96 0 181 70q87 72 108 169l1 8q-92 -59 -250 -59q-200 0 -312 142q-112 141 -70 341l112 525q11 50 54 86t93 36h3q49 0 77 -36q29 -36 18 -86zM653 1183q-58 0 -90 41t-20 99q12 57 62 98t108 41
q57 0 89 -41q34 -40 21 -98q-12 -59 -63 -99q-50 -41 -107 -41zM1016 1183q-58 0 -90 41t-20 99q12 57 62 98t108 41q57 0 89 -41q34 -40 21 -98q-12 -59 -63 -99q-50 -41 -107 -41z" />
    <glyph glyph-name="Amacron" unicode="&#x100;" 
d="M1367 1045l-196 -924q-10 -50 -54 -85q-43 -36 -93 -36h-3q-48 0 -77 36q-28 34 -18 85l95 446h-545l-95 -446q-10 -50 -54 -85q-43 -36 -93 -36h-3q-49 0 -77 36q-28 34 -18 85l196 924q47 215 230 366q184 151 397 151q214 0 334 -151q120 -152 74 -366zM527 811h545
l50 234q24 113 -38 193q-63 80 -177 80q-112 0 -210 -80q-96 -79 -120 -193zM1284 1786l-1 -2q-10 -50 -54 -85q-43 -36 -94 -36h-309q-52 0 -77 36q-28 34 -18 85l1 2q11 50 54 86q42 36 93 36h309q50 0 78 -36q29 -36 18 -86z" />
    <glyph glyph-name="amacron" unicode="&#x101;" horiz-adv-x="1352" 
d="M921 1152q238 0 371 -169t82 -407l-96 -455q-10 -50 -54 -85q-44 -36 -93 -36h-3q-48 0 -77 36q-28 34 -18 85q-139 -121 -357 -121q-238 0 -371 169q-133 168 -83 407q51 238 256 407t443 169zM869 907q-138 0 -256 -97q-116 -98 -146 -234q-29 -138 46 -235
q77 -96 215 -96t254 96q119 98 147 235q30 136 -47 234q-76 97 -213 97zM1244 1376v-2q-10 -50 -54 -85q-44 -36 -94 -36h-309q-51 0 -77 36q-28 34 -18 85v2q10 49 55 86q41 36 92 36h309q50 0 79 -36q28 -35 17 -86z" />
    <glyph glyph-name="Abreve" unicode="&#x102;" 
d="M1367 1045l-196 -924q-10 -50 -54 -85q-43 -36 -93 -36h-3q-48 0 -77 36q-28 34 -18 85l95 446h-545l-95 -446q-10 -50 -54 -85q-43 -36 -93 -36h-3q-49 0 -77 36q-28 34 -18 85l196 924q47 215 230 366q184 151 397 151q214 0 334 -151q120 -152 74 -366zM527 811h545
l50 234q24 113 -38 193q-63 80 -177 80q-112 0 -210 -80q-96 -79 -120 -193zM1301 2000h21q47 0 66 -37q13 -25 7 -54q-3 -15 -12 -30q-66 -118 -182 -186q-109 -62 -226 -62t-199 62q-89 68 -104 186q-1 14 2 31q6 28 28 53q36 37 83 37h21q61 0 73 -57q19 -106 139 -106h2
q120 0 184 105q34 58 97 58z" />
    <glyph glyph-name="abreve" unicode="&#x103;" horiz-adv-x="1352" 
d="M921 1152q238 0 371 -169t82 -407l-96 -455q-10 -50 -54 -85q-44 -36 -93 -36h-3q-48 0 -77 36q-28 34 -18 85q-139 -121 -357 -121q-238 0 -371 169q-133 168 -83 407q51 238 256 407t443 169zM869 907q-138 0 -256 -97q-116 -98 -146 -234q-29 -138 46 -235
q77 -96 215 -96t254 96q119 98 147 235q30 136 -47 234q-76 97 -213 97zM1262 1590h21q47 0 66 -37q13 -25 7 -54q-4 -15 -12 -30q-66 -118 -182 -186q-109 -62 -226 -62t-199 62q-89 68 -104 186q-1 14 2 31q6 28 28 53q36 37 83 37h21q61 0 73 -57q19 -106 139 -106h2
q119 0 184 105q34 58 97 58z" />
    <glyph glyph-name="Aogonek" unicode="&#x104;" 
d="M1367 1045l-196 -924q-10 -50 -54 -85q-43 -36 -93 -36h-3q-48 0 -77 36q-28 34 -18 85l95 446h-545l-95 -446q-10 -50 -54 -85q-43 -36 -93 -36h-3q-49 0 -77 36q-28 34 -18 85l196 924q47 215 230 366q184 151 397 151q214 0 334 -151q120 -152 74 -366zM527 811h545
l50 234q24 113 -38 193q-63 80 -177 80q-112 0 -210 -80q-96 -79 -120 -193zM1110 -178l-41 -194q-74 -56 -184 -56q-90 0 -137 53q-51 57 -31 150q17 77 99 179q48 59 104 104h223q-109 -88 -151 -136q-52 -58 -60 -96q-3 -16 1 -27q11 -29 46 -29q6 0 20 2q30 6 111 50z
" />
    <glyph glyph-name="aogonek" unicode="&#x105;" horiz-adv-x="1352" 
d="M921 1152q238 0 371 -169t82 -407l-96 -455q-10 -50 -54 -85q-44 -36 -93 -36h-3q-48 0 -77 36q-28 34 -18 85q-139 -121 -357 -121q-238 0 -371 169q-133 168 -83 407q51 238 256 407t443 169zM869 907q-138 0 -256 -97q-116 -98 -146 -234q-29 -138 46 -235
q77 -96 215 -96t254 96q119 98 147 235q30 136 -47 234q-76 97 -213 97zM1222 -176l-42 -194q-74 -56 -184 -56q-89 0 -136 53q-51 57 -31 150q17 77 99 179q47 59 104 104h223q-114 -92 -151 -136q-54 -60 -61 -96q-3 -14 2 -27q11 -29 46 -29q5 0 19 2q32 6 112 50z" />
    <glyph glyph-name="Cacute" unicode="&#x106;" horiz-adv-x="1202" 
d="M1188 1562q99 0 189 -24q87 -24 67 -117l-1 -3q-12 -58 -68 -96q-37 -25 -75 -25q-17 0 -32 4q-66 17 -132 17q-222 0 -412 -157q-192 -159 -238 -380q-46 -223 76 -380q124 -156 346 -156q70 0 138 16q16 4 34 4q39 0 65 -25q40 -36 28 -96l-1 -2q-19 -94 -117 -118
q-101 -24 -199 -24q-323 0 -503 229q-181 229 -112 552t346 552t601 229zM1498 1930l-306 -251q-31 -23 -57 -23h-77q-42 0 -53 38q-5 16 -2 30q4 20 23 40l229 251q25 28 61 28h154q42 0 53 -39q6 -18 3 -33q-4 -20 -28 -41z" />
    <glyph glyph-name="cacute" unicode="&#x107;" horiz-adv-x="975" 
d="M891 1152q90 0 168 -27q80 -27 60 -116l-1 -5q-13 -61 -69 -97q-39 -24 -75 -24q-18 0 -38 6q-45 16 -98 16q-139 0 -255 -97q-118 -98 -146 -235q-29 -137 46 -234q76 -97 214 -97q54 0 105 16q20 6 39 6q37 0 66 -24q41 -37 28 -98q-19 -88 -109 -116q-92 -26 -180 -26
q-238 0 -371 169q-133 168 -83 407q51 238 256 407t443 169zM1235 1520l-306 -251q-31 -23 -57 -23h-77q-42 0 -53 38q-5 16 -2 30q4 20 23 40l229 251q25 28 61 28h154q43 0 53 -39q6 -18 3 -33q-4 -20 -28 -41z" />
    <glyph glyph-name="Ccircumflex" unicode="&#x108;" horiz-adv-x="1202" 
d="M1188 1562q99 0 189 -24q87 -24 67 -117l-1 -3q-12 -58 -68 -96q-37 -25 -75 -25q-17 0 -32 4q-66 17 -132 17q-222 0 -412 -157q-192 -159 -238 -380q-46 -223 76 -380q124 -156 346 -156q70 0 138 16q16 4 34 4q39 0 65 -25q40 -36 28 -96l-1 -2q-19 -94 -117 -118
q-101 -24 -199 -24q-323 0 -503 229q-181 229 -112 552t346 552t601 229zM1323 1655l-132 165l-203 -165q-28 -24 -56 -24h-77q-42 0 -53 38q-6 17 -2 32q4 20 24 40l250 251q28 26 60 26h197q33 0 47 -27l145 -250q11 -19 7 -41q-3 -13 -14 -31q-26 -38 -69 -38h-77
q-28 0 -47 24z" />
    <glyph glyph-name="ccircumflex" unicode="&#x109;" horiz-adv-x="975" 
d="M891 1152q90 0 168 -27q80 -27 60 -116l-1 -5q-13 -61 -69 -97q-39 -24 -75 -24q-18 0 -38 6q-45 16 -98 16q-139 0 -255 -97q-118 -98 -146 -235q-29 -137 46 -234q76 -97 214 -97q54 0 105 16q20 6 39 6q37 0 66 -24q41 -37 28 -98q-19 -88 -109 -116q-92 -26 -180 -26
q-238 0 -371 169q-133 168 -83 407q51 238 256 407t443 169zM1027 1245l-132 165l-203 -165q-28 -24 -56 -24h-77q-42 0 -53 38q-6 17 -3 32q4 19 25 40l250 251q28 26 60 26h197q33 0 47 -27l145 -250q11 -19 7 -41q-3 -13 -14 -31q-26 -38 -69 -38h-77q-28 0 -47 24z" />
    <glyph glyph-name="Cdotaccent" unicode="&#x10a;" horiz-adv-x="1202" 
d="M1188 1562q99 0 189 -24q87 -24 67 -117l-1 -3q-12 -58 -68 -96q-37 -25 -75 -25q-17 0 -32 4q-66 17 -132 17q-222 0 -412 -157q-192 -159 -238 -380q-46 -223 76 -380q124 -156 346 -156q70 0 138 16q16 4 34 4q39 0 65 -25q40 -36 28 -96l-1 -2q-19 -94 -117 -118
q-101 -24 -199 -24q-323 0 -503 229q-181 229 -112 552t346 552t601 229zM1220 1663q-58 0 -90 41t-20 99q12 57 62 98t108 41q57 0 89 -41q34 -40 21 -98q-12 -59 -63 -99q-50 -41 -107 -41z" />
    <glyph glyph-name="cdotaccent" unicode="&#x10b;" horiz-adv-x="975" 
d="M891 1152q90 0 168 -27q80 -27 60 -116l-1 -5q-13 -61 -69 -97q-39 -24 -75 -24q-18 0 -38 6q-45 16 -98 16q-139 0 -255 -97q-118 -98 -146 -235q-29 -137 46 -234q76 -97 214 -97q54 0 105 16q20 6 39 6q37 0 66 -24q41 -37 28 -98q-19 -88 -109 -116q-92 -26 -180 -26
q-238 0 -371 169q-133 168 -83 407q51 238 256 407t443 169zM917 1253q-58 0 -90 41t-20 99q12 57 62 98t108 41q57 0 89 -41q33 -40 21 -98q-12 -59 -63 -99q-50 -41 -107 -41z" />
    <glyph glyph-name="Ccaron" unicode="&#x10c;" horiz-adv-x="1202" 
d="M1188 1562q99 0 189 -24q87 -24 67 -117l-1 -3q-12 -58 -68 -96q-37 -25 -75 -25q-17 0 -32 4q-66 17 -132 17q-222 0 -412 -157q-192 -159 -238 -380q-46 -223 76 -380q124 -156 346 -156q70 0 138 16q16 4 34 4q39 0 65 -25q40 -36 28 -96l-1 -2q-19 -94 -117 -118
q-101 -24 -199 -24q-323 0 -503 229q-181 229 -112 552t346 552t601 229zM1095 2003l133 -165q18 15 88 72q49 39 114 94q31 23 57 23h77q42 0 53 -38q4 -15 1 -31q-4 -22 -25 -41l-250 -251q-25 -25 -59 -25h-197q-32 0 -48 25l-144 251q-11 21 -7 41q3 13 14 31
q29 38 70 38h77q28 0 46 -24z" />
    <glyph glyph-name="ccaron" unicode="&#x10d;" horiz-adv-x="975" 
d="M891 1152q90 0 168 -27q80 -27 60 -116l-1 -5q-13 -61 -69 -97q-39 -24 -75 -24q-18 0 -38 6q-45 16 -98 16q-139 0 -255 -97q-118 -98 -146 -235q-29 -137 46 -234q76 -97 214 -97q54 0 105 16q20 6 39 6q37 0 66 -24q41 -37 28 -98q-19 -88 -109 -116q-92 -26 -180 -26
q-238 0 -371 169q-133 168 -83 407q51 238 256 407t443 169zM822 1593l133 -165q18 15 88 72q49 39 114 94q31 23 57 23h77q42 0 53 -38q4 -15 1 -31q-4 -20 -25 -41l-250 -251q-25 -25 -59 -25h-197q-32 0 -48 25l-144 251q-11 19 -7 41q3 13 14 31q29 38 70 38h77
q28 0 46 -24z" />
    <glyph glyph-name="Dcaron" unicode="&#x10e;" horiz-adv-x="1384" 
d="M627 1280l-212 -998q-3 -17 4 -27q9 -10 25 -10h151q223 0 413 156q192 159 238 380q46 223 -76 380q-124 157 -347 157h-151q-15 0 -29 -11q-13 -10 -16 -27zM724 1562h151q323 0 503 -229q181 -229 112 -552t-346 -552t-601 -229h-151q-116 0 -181 83q-67 83 -41 199
l212 998q26 118 126 200t216 82zM911 2003l133 -165q18 15 88 72q49 39 114 94q31 23 57 23h77q42 0 53 -38q4 -15 1 -31q-4 -22 -25 -41l-250 -251q-25 -25 -59 -25h-197q-32 0 -48 25l-144 251q-11 21 -7 41q3 13 14 31q29 38 70 38h77q28 0 46 -24z" />
    <glyph glyph-name="dcaron" unicode="&#x10f;" horiz-adv-x="1574" 
d="M838 905q-139 0 -255 -97q-118 -98 -146 -235q-29 -137 46 -234q76 -97 214 -97q137 0 255 97t147 234q29 139 -47 235q-76 97 -214 97zM1430 1562h3q49 0 78 -35q28 -35 17 -86l-184 -868q-53 -239 -256 -405q-205 -168 -442 -168q-238 0 -371 169q-133 168 -83 407
q51 238 256 407t443 169q217 0 310 -100l82 389q10 49 55 86q44 35 92 35zM1633 1254q-25 0 -52 36q-28 36 -18 85l14 66q10 49 55 86q44 35 92 35h12q50 0 79 -35q28 -35 17 -86l-33 -157q-28 -136 -103 -220q-40 -45 -93 -67l-78 71q88 86 104 164q1 4 2 11.5t2 10.5z" />
    <glyph glyph-name="Dcroat" unicode="&#x110;" horiz-adv-x="1414" 
d="M202 904h120l80 376q26 118 126 200t216 82h151q323 0 503 -229q181 -229 112 -552t-346 -552t-601 -229h-151q-116 0 -181 83q-67 83 -41 199l80 377h-120zM647 1280l-80 -376h305l-52 -245h-305l-80 -377q-3 -17 4 -27q9 -10 25 -10h151q223 0 413 156q192 159 238 380
q46 223 -76 380q-124 157 -347 157h-151q-15 0 -29 -11q-13 -10 -16 -27z" />
    <glyph glyph-name="dcroat" unicode="&#x111;" horiz-adv-x="1346" 
d="M838 905q-139 0 -255 -97q-118 -98 -146 -235q-29 -137 46 -234q76 -97 214 -97q137 0 255 97t147 234q29 139 -47 235q-76 97 -214 97zM1430 1562h3q49 0 78 -35q28 -35 17 -86l-184 -868q-53 -239 -256 -405q-205 -168 -442 -168q-238 0 -371 169q-133 168 -83 407
q51 238 256 407t443 169q217 0 310 -100l82 389q10 49 55 86q44 35 92 35zM1589 1242h-572l36 168h572z" />
    <glyph glyph-name="Emacron" unicode="&#x112;" horiz-adv-x="1008" 
d="M609 1197l-62 -294h477q48 0 77 -35q29 -36 18 -86v-2q-11 -50 -54 -86q-44 -35 -93 -35h-477l-62 -294q-11 -51 17 -85q27 -35 77 -35h357q48 0 77 -36t18 -86v-2q-10 -50 -54 -85q-43 -36 -93 -36h-357q-151 0 -235 107q-85 106 -52 258l176 832q33 151 162 258
q131 107 281 107h357q48 0 77 -36q28 -34 18 -85v-2q-11 -50 -54 -86t-93 -36h-357q-49 0 -93 -35q-42 -35 -53 -85zM1272 1786l-1 -2q-10 -50 -54 -85q-43 -36 -94 -36h-309q-52 0 -77 36q-28 34 -18 85l1 2q11 50 54 86q42 36 93 36h309q50 0 78 -36q29 -36 18 -86z" />
    <glyph glyph-name="emacron" unicode="&#x113;" horiz-adv-x="1277" 
d="M838 905q-139 0 -255 -97q-118 -98 -146 -235l-2 -7l613 251q-55 88 -210 88zM1342 816q7 -23 2 -51q-4 -20 -17 -42q-28 -47 -79 -68q-361 -149 -403 -166q-110 -45 -364 -151q55 -96 216 -96q107 0 208 63q97 61 153 160q46 82 133 82q63 0 88 -52q17 -32 9 -67
q-5 -23 -17 -43q-96 -171 -266 -276q-172 -109 -359 -109q-238 0 -371 169q-133 168 -83 407q51 238 256 407t443 169q173 0 294 -94q121 -91 157 -242zM1201 1376v-2q-10 -50 -54 -85q-43 -36 -94 -36h-309q-52 0 -77 36q-28 34 -18 85v2q10 49 55 86q40 36 92 36h309
q51 0 79 -36q28 -35 17 -86z" />
    <glyph glyph-name="Ebreve" unicode="&#x114;" horiz-adv-x="1008" 
d="M609 1197l-62 -294h477q48 0 77 -35q29 -36 18 -86v-2q-11 -50 -54 -86q-44 -35 -93 -35h-477l-62 -294q-11 -51 17 -85q27 -35 77 -35h357q48 0 77 -36t18 -86v-2q-10 -50 -54 -85q-43 -36 -93 -36h-357q-151 0 -235 107q-85 106 -52 258l176 832q33 151 162 258
q131 107 281 107h357q48 0 77 -36q28 -34 18 -85v-2q-11 -50 -54 -86t-93 -36h-357q-49 0 -93 -35q-42 -35 -53 -85zM1258 2000h21q47 0 66 -37q13 -25 7 -54q-3 -15 -12 -30q-66 -118 -182 -186q-109 -62 -226 -62t-199 62q-89 68 -104 186q-1 14 2 31q6 28 28 53
q36 37 83 37h21q61 0 73 -57q19 -106 139 -106h2q119 0 184 105q34 58 97 58z" />
    <glyph glyph-name="ebreve" unicode="&#x115;" horiz-adv-x="1277" 
d="M838 905q-139 0 -255 -97q-118 -98 -146 -235l-2 -7l613 251q-55 88 -210 88zM1342 816q7 -23 2 -51q-4 -20 -17 -42q-28 -47 -79 -68q-361 -149 -403 -166q-110 -45 -364 -151q55 -96 216 -96q107 0 208 63q97 61 153 160q46 82 133 82q63 0 88 -52q17 -32 9 -67
q-5 -23 -17 -43q-96 -171 -266 -276q-172 -109 -359 -109q-238 0 -371 169q-133 168 -83 407q51 238 256 407t443 169q173 0 294 -94q121 -91 157 -242zM1219 1590h21q47 0 66 -37q13 -25 7 -54q-5 -15 -12 -30q-66 -118 -182 -186q-109 -62 -226 -62t-199 62
q-89 68 -104 186q-1 14 2 31q6 28 28 53q36 37 83 37h21q61 0 73 -57q19 -106 139 -106h2q120 0 184 105q34 58 97 58z" />
    <glyph glyph-name="Edotaccent" unicode="&#x116;" horiz-adv-x="1008" 
d="M609 1197l-62 -294h477q48 0 77 -35q29 -36 18 -86v-2q-11 -50 -54 -86q-44 -35 -93 -35h-477l-62 -294q-11 -51 17 -85q27 -35 77 -35h357q48 0 77 -36t18 -86v-2q-10 -50 -54 -85q-43 -36 -93 -36h-357q-151 0 -235 107q-85 106 -52 258l176 832q33 151 162 258
q131 107 281 107h357q48 0 77 -36q28 -34 18 -85v-2q-11 -50 -54 -86t-93 -36h-357q-49 0 -93 -35q-42 -35 -53 -85zM885 1663q-58 0 -90 41t-20 99q12 57 62 98t108 41q57 0 89 -41q34 -40 21 -98q-12 -59 -63 -99q-50 -41 -107 -41z" />
    <glyph glyph-name="edotaccent" unicode="&#x117;" horiz-adv-x="1277" 
d="M838 905q-139 0 -255 -97q-118 -98 -146 -235l-2 -7l613 251q-55 88 -210 88zM1342 816q7 -23 2 -51q-4 -20 -17 -42q-28 -47 -79 -68q-361 -149 -403 -166q-110 -45 -364 -151q55 -96 216 -96q107 0 208 63q97 61 153 160q46 82 133 82q63 0 88 -52q17 -32 9 -67
q-5 -23 -17 -43q-96 -171 -266 -276q-172 -109 -359 -109q-238 0 -371 169q-133 168 -83 407q51 238 256 407t443 169q173 0 294 -94q121 -91 157 -242zM899 1253q-58 0 -90 41t-20 99q12 57 62 98t108 41q57 0 89 -41q33 -40 21 -98q-12 -59 -63 -99q-50 -41 -107 -41z" />
    <glyph glyph-name="Eogonek" unicode="&#x118;" horiz-adv-x="1008" 
d="M609 1197l-62 -294h477q48 0 77 -35q29 -36 18 -86v-2q-11 -50 -54 -86q-44 -35 -93 -35h-477l-62 -294q-11 -51 17 -85q27 -35 77 -35h357q48 0 77 -36t18 -86v-2q-10 -50 -54 -85q-43 -36 -93 -36h-357q-151 0 -235 107q-85 106 -52 258l176 832q33 151 162 258
q131 107 281 107h357q48 0 77 -36q28 -34 18 -85v-2q-11 -50 -54 -86t-93 -36h-357q-49 0 -93 -35q-42 -35 -53 -85zM846 -213l-42 -194q-73 -56 -183 -56q-90 0 -137 53q-51 57 -31 150q17 77 99 179q47 59 104 104h223q-114 -92 -151 -136q-52 -59 -60 -96q-4 -14 1 -27
q11 -29 46 -29q5 0 19 2q32 6 112 50z" />
    <glyph glyph-name="eogonek" unicode="&#x119;" horiz-adv-x="1277" 
d="M838 905q-139 0 -255 -97q-118 -98 -146 -235q-3 -15 -4 -15v6l615 253q-55 88 -210 88zM1342 816q7 -23 2 -51q-4 -20 -17 -42q-28 -47 -79 -68q-361 -149 -403 -166q-110 -45 -364 -151q55 -96 216 -96q107 0 208 63q97 61 153 160q46 82 133 82q63 0 88 -52
q17 -32 9 -67q-5 -23 -17 -43q-96 -171 -266 -276q-172 -109 -359 -109q-238 0 -371 169q-133 168 -83 407q51 238 256 407t443 169q173 0 294 -94q121 -91 157 -242zM1133 -6l-42 -194q-73 -56 -183 -56q-90 0 -137 53q-51 57 -31 150q17 77 99 179q28 33 57 62h9
q65 0 102 42h159q-114 -92 -151 -136q-53 -58 -60 -96q-4 -14 1 -27q11 -29 46 -29q5 0 19 2q32 6 112 50z" />
    <glyph glyph-name="Ecaron" unicode="&#x11a;" horiz-adv-x="1008" 
d="M609 1197l-62 -294h477q48 0 77 -35q29 -36 18 -86v-2q-11 -50 -54 -86q-44 -35 -93 -35h-477l-62 -294q-11 -51 17 -85q27 -35 77 -35h357q48 0 77 -36t18 -86v-2q-10 -50 -54 -85q-43 -36 -93 -36h-357q-151 0 -235 107q-85 106 -52 258l176 832q33 151 162 258
q131 107 281 107h357q48 0 77 -36q28 -34 18 -85v-2q-11 -50 -54 -86t-93 -36h-357q-49 0 -93 -35q-42 -35 -53 -85zM841 2003l133 -165q18 15 88 72q49 39 114 94q31 23 57 23h77q42 0 53 -38q4 -15 1 -31q-4 -22 -25 -41l-250 -251q-25 -25 -59 -25h-197q-32 0 -48 25
l-144 251q-11 21 -7 41q3 13 14 31q29 38 70 38h77q28 0 46 -24z" />
    <glyph glyph-name="ecaron" unicode="&#x11b;" horiz-adv-x="1277" 
d="M838 905q-139 0 -255 -97q-118 -98 -146 -235l-2 -7l613 251q-55 88 -210 88zM1342 816q7 -23 2 -51q-4 -20 -17 -42q-28 -47 -79 -68q-361 -149 -403 -166q-110 -45 -364 -151q55 -96 216 -96q107 0 208 63q97 61 153 160q46 82 133 82q63 0 88 -52q17 -32 9 -67
q-5 -23 -17 -43q-96 -171 -266 -276q-172 -109 -359 -109q-238 0 -371 169q-133 168 -83 407q51 238 256 407t443 169q173 0 294 -94q121 -91 157 -242zM805 1593l133 -165q18 15 88 72q49 39 114 94q31 23 57 23h77q42 0 53 -38q4 -15 1 -31q-4 -20 -25 -41l-250 -251
q-25 -25 -59 -25h-197q-32 0 -48 25l-144 251q-11 19 -7 41q3 13 14 31q29 38 70 38h77q28 0 46 -24z" />
    <glyph glyph-name="Gcircumflex" unicode="&#x11c;" horiz-adv-x="1723" 
d="M1193 1562q343 0 521 -252q26 -37 16 -82q-2 -8 -4 -13q-18 -56 -67 -84l-2 -2q-37 -24 -75 -24q-9 0 -14 1q-44 4 -69 39q-122 173 -358 173q-222 0 -412 -157q-192 -159 -238 -380q-46 -223 76 -380q125 -156 346 -156q199 0 376 129q178 128 236 285h-499
q-50 0 -78 36q-28 34 -17 85v2q11 50 53 86q44 35 94 35h635q49 0 78 -35q29 -36 18 -86v-1q-69 -323 -346 -552q-278 -229 -602 -229q-323 0 -503 229q-181 229 -112 552t346 552t601 229zM1381 1655l-132 165l-203 -165q-28 -24 -56 -24h-77q-42 0 -53 38q-6 17 -2 32
q4 20 24 40l250 251q28 26 60 26h197q33 0 47 -27l145 -250q11 -19 7 -41q-3 -13 -14 -31q-26 -38 -69 -38h-77q-28 0 -47 24z" />
    <glyph glyph-name="gcircumflex" unicode="&#x11d;" horiz-adv-x="1322" 
d="M344 -15q67 -151 267 -151q125 0 247 98q126 100 154 233q-148 -165 -366 -165q-238 0 -371 169q-133 168 -83 407q51 238 256 407t443 169q237 0 370 -168q134 -167 84 -406l-88 -413q-49 -233 -268 -408q-210 -168 -430 -168q-338 0 -450 262q-13 31 -6 64q5 21 15 40
q31 57 91 76l3 1q27 9 50 9q56 0 82 -56zM1099 576l2 6q26 136 -50 230q-77 95 -212 95q-138 0 -256 -97q-116 -98 -146 -234q-29 -138 46 -235q77 -96 215 -96t254 96q119 98 147 235zM1078 1245l-132 165l-203 -165q-29 -24 -56 -24h-77q-42 0 -53 38q-6 17 -3 32
q4 19 25 40l250 251q28 26 60 26h197q34 0 47 -27l145 -250q11 -19 7 -41q-3 -13 -14 -31q-26 -38 -69 -38h-77q-27 0 -47 24z" />
    <glyph glyph-name="Gbreve" unicode="&#x11e;" horiz-adv-x="1723" 
d="M1193 1562q343 0 521 -252q26 -37 16 -82q-2 -8 -4 -13q-18 -56 -67 -84l-2 -2q-37 -24 -75 -24q-9 0 -14 1q-44 4 -69 39q-122 173 -358 173q-222 0 -412 -157q-192 -159 -238 -380q-46 -223 76 -380q125 -156 346 -156q199 0 376 129q178 128 236 285h-499
q-50 0 -78 36q-28 34 -17 85v2q11 50 53 86q44 35 94 35h635q49 0 78 -35q29 -36 18 -86v-1q-69 -323 -346 -552q-278 -229 -602 -229q-323 0 -503 229q-181 229 -112 552t346 552t601 229zM1535 2000h21q47 0 66 -37q13 -25 7 -54q-3 -15 -12 -30q-66 -118 -182 -186
q-109 -62 -226 -62t-199 62q-89 68 -104 186q-1 14 2 31q6 28 28 53q36 37 83 37h21q61 0 73 -57q19 -106 139 -106h2q119 0 184 105q34 58 97 58z" />
    <glyph glyph-name="gbreve" unicode="&#x11f;" horiz-adv-x="1322" 
d="M344 -15q67 -151 267 -151q125 0 247 98q126 100 154 233q-148 -165 -366 -165q-238 0 -371 169q-133 168 -83 407q51 238 256 407t443 169q237 0 370 -168q134 -167 84 -406l-88 -413q-49 -233 -268 -408q-210 -168 -430 -168q-338 0 -450 262q-13 31 -6 64q5 21 15 40
q31 57 91 76l3 1q27 9 50 9q56 0 82 -56zM1099 576l2 6q26 136 -50 230q-77 95 -212 95q-138 0 -256 -97q-116 -98 -146 -234q-29 -138 46 -235q77 -96 215 -96t254 96q119 98 147 235zM1232 1590h21q47 0 66 -37q13 -25 7 -54q-4 -15 -12 -30q-66 -118 -182 -186
q-109 -62 -226 -62t-199 62q-89 68 -104 186q-1 14 2 31q6 28 28 53q36 37 83 37h21q61 0 73 -57q19 -106 139 -106h2q119 0 184 105q34 58 97 58z" />
    <glyph glyph-name="Gdotaccent" unicode="&#x120;" horiz-adv-x="1723" 
d="M1193 1562q343 0 521 -252q26 -37 16 -82q-2 -8 -4 -13q-18 -56 -67 -84l-2 -2q-37 -24 -75 -24q-9 0 -14 1q-44 4 -69 39q-122 173 -358 173q-222 0 -412 -157q-192 -159 -238 -380q-46 -223 76 -380q125 -156 346 -156q199 0 376 129q178 128 236 285h-499
q-50 0 -78 36q-28 34 -17 85v2q11 50 53 86q44 35 94 35h635q49 0 78 -35q29 -36 18 -86v-1q-69 -323 -346 -552q-278 -229 -602 -229q-323 0 -503 229q-181 229 -112 552t346 552t601 229zM1215 1663q-58 0 -90 41t-20 99q12 57 62 98t108 41q57 0 89 -41q34 -40 21 -98
q-12 -59 -63 -99q-50 -41 -107 -41z" />
    <glyph glyph-name="gdotaccent" unicode="&#x121;" horiz-adv-x="1322" 
d="M344 -15q67 -151 267 -151q125 0 247 98q126 100 154 233q-148 -165 -366 -165q-238 0 -371 169q-133 168 -83 407q51 238 256 407t443 169q237 0 370 -168q134 -167 84 -406l-88 -413q-49 -233 -268 -408q-210 -168 -430 -168q-338 0 -450 262q-13 31 -6 64q5 21 15 40
q31 57 91 76l3 1q27 9 50 9q56 0 82 -56zM1099 576l2 6q26 136 -50 230q-77 95 -212 95q-138 0 -256 -97q-116 -98 -146 -234q-29 -138 46 -235q77 -96 215 -96t254 96q119 98 147 235zM912 1253q-58 0 -90 41t-20 99q12 57 62 98t108 41q57 0 89 -41q33 -40 21 -98
q-12 -59 -63 -99q-50 -41 -107 -41z" />
    <glyph glyph-name="uni0122" unicode="&#x122;" horiz-adv-x="1723" 
d="M1193 1562q343 0 521 -252q26 -37 16 -82q-2 -8 -4 -13q-18 -56 -67 -84l-2 -2q-37 -24 -75 -24q-9 0 -14 1q-44 4 -69 39q-122 173 -358 173q-222 0 -412 -157q-192 -159 -238 -380q-46 -223 76 -380q125 -156 346 -156q199 0 376 129q178 128 236 285h-499
q-50 0 -78 36q-28 34 -17 85v2q11 50 53 86q44 35 94 35h635q49 0 78 -35q29 -36 18 -86v-1q-69 -323 -346 -552q-278 -229 -602 -229q-323 0 -503 229q-181 229 -112 552t346 552t601 229zM801 -348q-25 0 -51 36q-28 36 -18 85l14 66q11 50 54 86q44 35 92 35h12
q50 0 79 -35q29 -36 18 -86l-34 -157q-28 -137 -102 -220q-42 -45 -94 -67l-78 71q88 85 104 164q2 6 4 22z" />
    <glyph glyph-name="uni0123" unicode="&#x123;" horiz-adv-x="1322" 
d="M344 -15q67 -151 267 -151q125 0 247 98q126 100 154 233q-148 -165 -366 -165q-238 0 -371 169q-133 168 -83 407q51 238 256 407t443 169q237 0 370 -168q134 -167 84 -406l-88 -413q-49 -233 -268 -408q-210 -168 -430 -168q-338 0 -450 262q-13 31 -6 64q5 21 15 40
q31 57 91 76l3 1q27 9 50 9q56 0 82 -56zM1099 576l2 6q26 136 -50 230q-77 95 -212 95q-138 0 -256 -97q-116 -98 -146 -234q-29 -138 46 -235q77 -96 215 -96t254 96q119 98 147 235zM1004 1517q25 0 52 -36q28 -36 18 -85l-14 -66q-10 -49 -55 -86q-44 -35 -92 -35h-12
q-50 0 -79 35q-28 35 -17 86l33 157q28 136 103 220q40 45 93 67l78 -71q-88 -86 -104 -164q0 -4 -2 -11t-2 -11z" />
    <glyph glyph-name="Hcircumflex" unicode="&#x124;" horiz-adv-x="1264" 
d="M563 1562h3q49 0 78 -35q28 -35 17 -86l-114 -538h554l114 538q10 49 55 86q44 35 92 35h3q49 0 78 -35q28 -35 17 -86l-280 -1320q-10 -50 -54 -85q-44 -36 -93 -36h-3q-48 0 -77 36q-28 34 -18 85l114 538h-554l-114 -538q-10 -50 -54 -85q-43 -36 -93 -36h-3
q-49 0 -77 36q-28 34 -18 85l280 1320q10 49 55 86q44 35 92 35zM1151 1655l-132 165l-203 -165q-28 -24 -56 -24h-77q-42 0 -53 38q-6 17 -2 32q4 20 24 40l250 251q28 26 60 26h197q33 0 47 -27l145 -250q11 -19 7 -41q-3 -13 -14 -31q-26 -38 -69 -38h-77q-28 0 -47 24z
" />
    <glyph glyph-name="hcircumflex" unicode="&#x125;" horiz-adv-x="1167" 
d="M553 1562h3q49 0 78 -35q28 -35 17 -86l-74 -348q92 59 252 59q199 0 311 -142q111 -142 69 -342l-116 -547q-10 -50 -54 -85q-42 -36 -93 -36h-2q-50 0 -78 36q-28 34 -18 85l116 547q21 99 -33 169q-55 70 -154 70q-100 0 -185 -70q-84 -71 -105 -169l-116 -547
q-10 -50 -54 -85q-43 -36 -93 -36h-3q-49 0 -77 36q-28 34 -18 85l280 1320q10 49 55 86q44 35 92 35zM1108 1621l-132 165l-203 -165q-30 -24 -57 -24h-77q-43 0 -52 38q-6 17 -3 32q4 19 25 40l250 251q28 26 60 26h197q34 0 47 -27l145 -250q11 -19 7 -41q-3 -13 -14 -31
q-27 -38 -70 -38h-77q-28 0 -46 24z" />
    <glyph glyph-name="Hbar" unicode="&#x126;" horiz-adv-x="1341" 
d="M603 1562h3q49 0 78 -35q28 -35 17 -86l-114 -538h554l114 538q10 49 55 86q44 35 92 35h3q49 0 78 -35q28 -35 17 -86l-280 -1320q-10 -50 -54 -85q-44 -36 -93 -36h-3q-48 0 -77 36q-28 34 -18 85l114 538h-554l-114 -538q-10 -50 -54 -85q-43 -36 -93 -36h-3
q-49 0 -77 36q-28 34 -18 85l280 1320q10 49 55 86q44 35 92 35zM1573 1140h-1321l42 197h1321z" />
    <glyph glyph-name="hbar" unicode="&#x127;" horiz-adv-x="1207" 
d="M593 1562h3q49 0 78 -35q28 -35 17 -86l-74 -348q92 59 252 59q199 0 311 -142q111 -142 69 -342l-116 -547q-10 -50 -54 -85q-42 -36 -93 -36h-2q-50 0 -78 36q-28 34 -18 85l116 547q21 99 -33 169q-55 70 -154 70q-100 0 -185 -70q-84 -71 -105 -169l-116 -547
q-10 -50 -54 -85q-43 -36 -93 -36h-3q-48 0 -77 36q-28 34 -18 85l280 1320q10 49 55 86q44 35 92 35zM1003 1200h-738l42 199h738z" />
    <glyph glyph-name="Itilde" unicode="&#x128;" horiz-adv-x="595" 
d="M593 1562h3q49 0 78 -35q28 -35 17 -86l-280 -1320q-10 -50 -54 -85q-43 -36 -93 -36h-3q-48 0 -77 36q-28 34 -18 85l280 1320q10 49 55 86q44 35 92 35zM247 1715q35 91 109 143q79 56 177 56q82 0 180 -52q32 -17 71 -17h8q40 1 61 24q48 54 85 54h41q35 0 50 -25
q13 -21 9 -46q0 -2 -1.5 -6t-2.5 -7q-76 -202 -276 -202q-82 0 -177 56q-40 23 -84 23q-40 -1 -56 -29q-38 -52 -94 -56h-44q-33 0 -51 25q-15 21 -9 47q2 8 4 12z" />
    <glyph glyph-name="itilde" unicode="&#x129;" horiz-adv-x="512" 
d="M504 1152h2q52 0 77 -36q29 -36 18 -86l-193 -909q-10 -50 -54 -85q-42 -36 -93 -36h-2q-49 0 -78 36q-28 34 -18 85l193 909q11 50 54 86q44 36 94 36zM156 1305q35 90 110 143q79 56 177 56q82 0 180 -52q32 -17 71 -17h8q40 1 61 24q48 54 85 54h41q35 0 50 -25
q13 -21 9 -46q0 -2 -1.5 -6t-2.5 -7q-76 -202 -276 -202q-82 0 -177 56q-40 23 -84 23q-41 -2 -57 -29q-36 -52 -93 -56h-44q-33 0 -51 25q-15 21 -9 47z" />
    <glyph glyph-name="Imacron" unicode="&#x12a;" horiz-adv-x="563" 
d="M593 1562h3q49 0 78 -35q28 -35 17 -86l-280 -1320q-10 -50 -54 -85q-43 -36 -93 -36h-3q-48 0 -77 36q-28 34 -18 85l280 1320q10 49 55 86q44 35 92 35zM919 1786l-1 -2q-10 -50 -54 -85q-44 -36 -94 -36h-309q-51 0 -77 36q-28 34 -18 85l1 2q11 50 54 86q42 36 93 36
h309q49 0 78 -36t18 -86z" />
    <glyph glyph-name="imacron" unicode="&#x12b;" horiz-adv-x="496" 
d="M504 1152h2q52 0 77 -36q29 -36 18 -86l-193 -909q-10 -50 -54 -85q-42 -36 -93 -36h-2q-49 0 -78 36q-28 34 -18 85l193 909q11 50 54 86q44 36 94 36zM828 1376v-2q-10 -50 -54 -85q-44 -36 -94 -36h-309q-51 0 -77 36q-28 34 -18 85v2q10 49 55 86q40 36 92 36h309
q50 0 79 -36q28 -35 17 -86z" />
    <glyph glyph-name="Ibreve" unicode="&#x12c;" horiz-adv-x="579" 
d="M593 1562h3q49 0 78 -35q28 -35 17 -86l-280 -1320q-10 -50 -54 -85q-43 -36 -93 -36h-3q-48 0 -77 36q-28 34 -18 85l280 1320q10 49 55 86q44 35 92 35zM935 2000h21q47 0 66 -37q13 -25 7 -54q-3 -15 -12 -30q-66 -118 -182 -186q-109 -62 -226 -62t-199 62
q-89 68 -104 186q-1 14 2 31q6 28 28 53q36 37 83 37h21q61 0 73 -57q19 -106 139 -106h2q120 0 184 105q34 58 97 58z" />
    <glyph glyph-name="ibreve" unicode="&#x12d;" horiz-adv-x="493" 
d="M504 1152h2q52 0 77 -36q29 -36 18 -86l-193 -909q-10 -50 -54 -85q-42 -36 -93 -36h-2q-49 0 -78 36q-28 34 -18 85l193 909q11 50 54 86q44 36 94 36zM845 1590h21q47 0 66 -37q13 -25 7 -54q-5 -15 -12 -30q-66 -118 -182 -186q-109 -62 -226 -62t-199 62
q-89 68 -104 186q-1 14 2 31q6 28 28 53q36 37 83 37h21q61 0 73 -57q19 -106 139 -106h2q120 0 184 105q34 58 97 58z" />
    <glyph glyph-name="Iogonek" unicode="&#x12e;" horiz-adv-x="579" 
d="M593 1562h3q49 0 78 -35q28 -35 17 -86l-280 -1320q-10 -50 -54 -85q-43 -36 -93 -36h-3q-48 0 -77 36q-28 34 -18 85l280 1320q10 49 55 86q44 35 92 35zM340 -213l-42 -194q-73 -56 -183 -56q-90 0 -137 53q-51 57 -31 150q17 77 99 179q47 59 104 104h223
q-114 -92 -151 -136q-52 -59 -60 -96q-4 -14 1 -27q11 -29 46 -29q5 0 19 2q32 6 112 50z" />
    <glyph glyph-name="iogonek" unicode="&#x12f;" horiz-adv-x="506" 
d="M504 1152h2q52 0 77 -36q29 -36 18 -86l-193 -909q-10 -50 -54 -85q-42 -36 -93 -36h-2q-49 0 -78 36q-28 34 -18 85l193 909q11 50 54 86q44 36 94 36zM532 1282q-58 0 -90 41t-20 99q12 57 62 98t108 41q57 0 89 -41q34 -40 21 -98q-12 -58 -63 -99q-50 -41 -107 -41z
M355 -213l-42 -194q-73 -56 -183 -56q-90 0 -137 53q-51 57 -31 150q17 77 99 179q47 59 104 104h223q-114 -92 -151 -136q-53 -59 -60 -96q-4 -14 1 -27q11 -29 46 -29q5 0 19 2q32 6 112 50z" />
    <glyph glyph-name="Idotaccent" unicode="&#x130;" horiz-adv-x="585" 
d="M593 1562h3q49 0 78 -35q28 -35 17 -86l-280 -1320q-10 -50 -54 -85q-43 -36 -93 -36h-3q-48 0 -77 36q-28 34 -18 85l280 1320q10 49 55 86q44 35 92 35zM616 1663q-58 0 -90 41t-20 99q12 57 62 98t108 41q57 0 89 -41q34 -40 21 -98q-12 -59 -63 -99q-50 -41 -107 -41
z" />
    <glyph glyph-name="dotlessi" unicode="&#x131;" horiz-adv-x="520" 
d="M504 1152h2q52 0 77 -36q29 -36 18 -86l-193 -909q-10 -50 -54 -85q-42 -36 -93 -36h-2q-49 0 -78 36q-28 34 -18 85l193 909q11 50 54 86q44 36 94 36z" />
    <glyph glyph-name="IJ" unicode="&#x132;" horiz-adv-x="1266" 
d="M593 1562h3q49 0 78 -35q28 -35 17 -86l-280 -1320q-10 -50 -54 -85q-43 -36 -93 -36h-3q-48 0 -77 36q-28 34 -18 85l280 1320q10 49 55 86q44 35 92 35zM980 365l228 1076q11 50 54 86q44 35 93 35h2q50 0 79 -35q27 -36 16 -86l-228 -1076q-33 -151 -162 -258
q-131 -107 -281 -107h-185q-48 0 -77 36q-28 34 -18 85v2q11 50 54 86t93 36h185q50 0 94 35q42 35 53 85z" />
    <glyph glyph-name="ij" unicode="&#x133;" horiz-adv-x="989" 
d="M504 1152h2q52 0 77 -36q29 -36 18 -86l-193 -909q-10 -50 -54 -85q-42 -36 -93 -36h-2q-49 0 -78 36q-28 34 -18 85l193 909q11 50 54 86q44 36 94 36zM532 1282q-58 0 -90 41t-20 99q12 57 62 98t108 41q57 0 89 -41q34 -40 21 -98q-12 -58 -63 -99q-50 -41 -107 -41z
M342 -411h-58q-50 0 -78 36t-18 85l1 3q10 49 54 85q43 36 93 36h58q81 0 150 57t87 139l213 1000q11 50 53 86q43 36 94 36h2q49 0 78 -36q28 -35 17 -86l-213 -1000q-41 -184 -195 -312q-154 -129 -338 -129zM1019 1284q-58 0 -90 41q-33 41 -20 99q12 57 62 98t107 41
t90 -41q33 -40 21 -98q-13 -58 -63 -99t-107 -41z" />
    <glyph glyph-name="Jcircumflex" unicode="&#x134;" horiz-adv-x="756" 
d="M345 365l228 1076q11 50 54 86q44 35 93 35h2q50 0 79 -35q27 -36 16 -86l-228 -1076q-33 -151 -162 -258q-131 -107 -281 -107h-185q-49 0 -77 36q-28 34 -18 85v2q11 50 54 86q44 36 93 36h185q50 0 94 35q42 35 53 85zM880 1585l-133 165l-203 -165q-29 -24 -56 -24
h-77q-42 0 -53 38q-5 17 -2 31q4 20 25 41l250 251q28 26 59 26h197q35 0 48 -27l144 -250q11 -19 7 -41q-3 -13 -14 -31q-26 -38 -69 -38h-77q-26 0 -46 24z" />
    <glyph glyph-name="jcircumflex" unicode="&#x135;" horiz-adv-x="743" 
d="M789 1175l-133 165l-203 -165q-29 -24 -56 -24h-77q-42 0 -53 38q-5 17 -2 31q4 20 25 41l249 251q29 26 60 26h197q34 0 48 -27l144 -250q11 -19 7 -41q-3 -13 -14 -31q-26 -38 -69 -38h-77q-27 0 -46 24zM-16 -411h-58q-50 0 -78 36t-18 85l1 3q10 49 54 85
q43 36 93 36h58q81 0 150 57t87 139l213 1000q11 50 53 86q43 36 94 36h2q49 0 78 -36q28 -35 17 -86l-213 -1000q-41 -184 -195 -312q-154 -129 -338 -129z" />
    <glyph glyph-name="uni0136" unicode="&#x136;" horiz-adv-x="1158" 
d="M563 1562h3q49 0 78 -35q28 -35 17 -86l-103 -488h104q138 0 253 96q119 98 147 233l34 159q10 49 55 86q43 35 92 35h3q49 0 78 -35q28 -35 17 -86l-34 -159q-61 -290 -288 -435q77 -54 124 -183q48 -133 15 -287l-54 -256q-11 -50 -53 -85q-43 -36 -94 -36h-2
q-49 0 -78 36q-28 34 -17 85l54 256q28 136 -48 233q-76 96 -214 96h-147l-124 -585q-10 -50 -54 -85q-43 -36 -93 -36h-3q-49 0 -77 36q-28 34 -18 85l280 1320q10 49 55 86q44 35 92 35zM497 -208q-27 0 -54 36q-28 35 -17 85l5 26q11 50 54 86q44 35 93 35h12
q49 0 78 -35q29 -36 18 -86l-25 -117q-16 -77 -90 -160q-40 -45 -93 -67l-78 71q90 88 97 120v6z" />
    <glyph glyph-name="uni0137" unicode="&#x137;" horiz-adv-x="1073" 
d="M553 1562h3q49 0 78 -35q28 -35 17 -86l-147 -693h38q129 0 241 85q110 85 151 210q17 48 56 77q41 32 88 32h3q53 0 80 -40q25 -34 15 -81q-2 -8 -4 -13q-77 -251 -272 -376q78 -55 124 -183q48 -132 16 -287l-11 -51q-10 -50 -54 -85q-43 -36 -93 -36h-3q-49 0 -77 36
q-28 34 -18 85l11 51q27 136 -48 233q-76 96 -214 96h-82l-80 -380q-10 -50 -54 -85q-43 -36 -93 -36h-3q-49 0 -77 36q-28 34 -18 85l280 1320q10 49 55 86q44 35 92 35zM477 -208q-27 0 -54 36q-28 35 -17 85l5 26q11 50 54 86q44 35 93 35h12q49 0 78 -35q29 -36 18 -86
l-25 -117q-16 -77 -90 -160q-40 -45 -93 -67l-78 71q90 88 97 120v6z" />
    <glyph glyph-name="kgreenlandic" unicode="&#x138;" horiz-adv-x="1073" 
d="M466 1151h3q48 0 77 -35q29 -36 18 -86l-60 -282h38q129 0 241 85q110 85 151 210q17 48 56 77q41 32 88 32h3q53 0 80 -40q25 -34 15 -81q-2 -8 -4 -13q-77 -251 -272 -376q78 -55 124 -183q48 -132 16 -287l-11 -51q-10 -50 -54 -85q-43 -36 -93 -36h-3q-49 0 -77 36
q-28 34 -18 85l11 51q27 136 -48 233q-76 96 -214 96h-82l-80 -380q-10 -50 -54 -85q-43 -36 -93 -36h-3q-49 0 -77 36q-28 34 -18 85l193 909q11 50 54 86q44 35 93 35z" />
    <glyph glyph-name="Lacute" unicode="&#x139;" horiz-adv-x="908" 
d="M671 1441l-228 -1076q-11 -51 17 -85q27 -35 77 -35h291q50 0 78 -36q29 -36 18 -86v-2q-10 -50 -54 -85q-44 -36 -94 -36h-291q-151 0 -235 107q-85 106 -52 258l228 1076q10 49 55 86q44 35 92 35h3q49 0 78 -35q28 -35 17 -86zM1203 1930l-306 -251q-31 -23 -57 -23
h-77q-42 0 -53 38q-5 16 -2 30q4 20 23 40l229 251q25 28 61 28h154q43 0 53 -39q6 -18 3 -33q-4 -20 -28 -41z" />
    <glyph glyph-name="lacute" unicode="&#x13a;" horiz-adv-x="622" 
d="M597 1562h3q49 0 78 -35q28 -35 17 -86l-239 -1127q-6 -29 9 -49q17 -20 46 -20h36q49 0 78 -36q28 -35 17 -86v-2q-11 -50 -53 -85q-43 -36 -94 -36h-36q-129 0 -203 92q-74 93 -45 222l239 1127q10 49 55 86q44 35 92 35zM1047 1923l-307 -251q-29 -23 -56 -23h-77
q-42 0 -53 38q-5 16 -2 30q5 21 22 40l230 251q25 28 61 28h154q43 0 52 -39q7 -18 3 -33q-4 -21 -27 -41z" />
    <glyph glyph-name="uni013B" unicode="&#x13b;" horiz-adv-x="908" 
d="M671 1441l-228 -1076q-11 -51 17 -85q27 -35 77 -35h291q50 0 78 -36q29 -36 18 -86v-2q-10 -50 -54 -85q-44 -36 -94 -36h-291q-151 0 -235 107q-85 106 -52 258l228 1076q10 49 55 86q44 35 92 35h3q49 0 78 -35q28 -35 17 -86zM497 -309q-27 0 -53 36q-28 36 -18 85
l6 26q11 50 54 86q44 35 92 35h12q50 0 79 -35q29 -36 18 -86l-25 -117q-16 -77 -90 -160q-42 -45 -94 -67l-77 71q89 87 96 120q1 3 0 6z" />
    <glyph glyph-name="uni013C" unicode="&#x13c;" horiz-adv-x="622" 
d="M593 1562h3q49 0 78 -35q28 -35 17 -86l-239 -1127q-6 -29 9 -49q17 -20 46 -20h36q49 0 78 -36q28 -35 17 -86v-2q-11 -50 -53 -85q-43 -36 -94 -36h-36q-129 0 -203 92q-74 93 -45 222l239 1127q10 49 55 86q44 35 92 35zM311 -327q-27 0 -53 36q-28 36 -18 85l6 26
q11 50 54 86q44 35 92 35h12q50 0 79 -35q29 -36 18 -86l-25 -117q-16 -77 -90 -160q-40 -45 -93 -67l-78 71q89 87 96 120q1 3 0 6z" />
    <glyph glyph-name="Lcaron" unicode="&#x13d;" horiz-adv-x="908" 
d="M671 1441l-228 -1076q-11 -51 17 -85q27 -35 77 -35h291q50 0 78 -36q29 -36 18 -86v-2q-10 -50 -54 -85q-44 -36 -94 -36h-291q-151 0 -235 107q-85 106 -52 258l228 1076q10 49 55 86q44 35 92 35h3q49 0 78 -35q28 -35 17 -86zM982 1284q-28 0 -53 36q-28 36 -18 85
l5 26q11 50 54 86q44 35 93 35h12q49 0 78 -35q29 -36 18 -86l-25 -117q-16 -77 -90 -160q-40 -45 -93 -67l-78 71q89 86 97 120v6z" />
    <glyph glyph-name="lcaron" unicode="&#x13e;" horiz-adv-x="769" 
d="M593 1562h3q49 0 78 -35q28 -35 17 -86l-239 -1127q-6 -29 9 -49q17 -20 46 -20h36q49 0 78 -36q28 -35 17 -86v-2q-11 -50 -53 -85q-43 -36 -94 -36h-36q-129 0 -203 92q-74 93 -45 222l239 1127q10 49 55 86q44 35 92 35zM850 1284q-28 0 -53 36q-28 36 -18 85l5 26
q11 50 54 86q44 35 93 35h12q49 0 78 -35q29 -36 18 -86l-25 -117q-16 -77 -90 -160q-40 -45 -93 -67l-78 71q89 86 97 120v6z" />
    <glyph glyph-name="Ldot" unicode="&#x13f;" horiz-adv-x="908" 
d="M671 1441l-228 -1076q-11 -51 17 -85q27 -35 77 -35h291q50 0 78 -36q29 -36 18 -86v-2q-10 -50 -54 -85q-44 -36 -94 -36h-291q-151 0 -235 107q-85 106 -52 258l228 1076q10 49 55 86q44 35 92 35h3q49 0 78 -35q28 -35 17 -86zM859 658q-51 0 -80 36t-18 87t54 87
t96 36q49 0 78 -36q30 -34 19 -87q-10 -52 -55 -87q-43 -36 -94 -36z" />
    <glyph glyph-name="ldot" unicode="&#x140;" horiz-adv-x="809" 
d="M593 1562h3q49 0 78 -35q28 -35 17 -86l-280 -1320q-10 -50 -54 -85q-43 -36 -93 -36h-3q-48 0 -77 36q-28 34 -18 85l280 1320q10 49 55 86q44 35 92 35zM816 658q-52 0 -80 36t-18 87t54 87t96 36q50 0 78 -36q30 -34 19 -87q-10 -52 -55 -87q-44 -36 -94 -36z" />
    <glyph glyph-name="Lslash" unicode="&#x141;" horiz-adv-x="1008" 
d="M771 1441l-228 -1076q-11 -51 17 -85q27 -35 77 -35h291q50 0 78 -36q29 -36 18 -86v-2q-10 -50 -54 -85q-44 -36 -94 -36h-291q-151 0 -235 107q-85 106 -52 258l228 1076q10 49 55 86q44 35 92 35h3q49 0 78 -35q28 -35 17 -86zM908 849l-798 -336l45 211l798 336z" />
    <glyph glyph-name="lslash" unicode="&#x142;" horiz-adv-x="729" 
d="M693 1562h3q49 0 78 -35q28 -35 17 -86l-239 -1127q-6 -29 9 -49q17 -20 46 -20h36q49 0 78 -36q28 -35 17 -86v-2q-11 -50 -53 -85q-43 -36 -94 -36h-36q-129 0 -203 92q-74 93 -45 222l239 1127q10 49 55 86q44 35 92 35zM908 849l-798 -336l45 211l798 336z" />
    <glyph glyph-name="Nacute" unicode="&#x143;" 
d="M1367 1045l-196 -924q-10 -50 -54 -85q-43 -36 -93 -36h-3q-48 0 -77 36q-28 34 -18 85l196 924q24 113 -38 193q-63 80 -177 80q-112 0 -210 -80q-96 -79 -120 -193l-196 -924q-10 -50 -54 -85q-43 -36 -93 -36h-3q-49 0 -77 36q-28 34 -18 85l196 924q47 215 230 366
q184 151 397 151q214 0 334 -151q120 -152 74 -366zM1322 1930l-306 -251q-31 -23 -57 -23h-77q-42 0 -53 38q-5 16 -2 30q4 20 23 40l229 251q25 28 61 28h154q42 0 53 -39q6 -18 3 -33q-4 -20 -28 -41z" />
    <glyph glyph-name="nacute" unicode="&#x144;" horiz-adv-x="1167" 
d="M487 668l-116 -547q-10 -50 -54 -85q-43 -36 -93 -36h-3q-49 0 -77 36q-28 34 -18 85l116 547q42 199 215 342q172 142 372 142q199 0 311 -142q111 -142 69 -342l-116 -547q-10 -50 -54 -85q-42 -36 -93 -36h-2q-50 0 -78 36q-28 34 -18 85l116 547q21 99 -33 169
q-55 70 -154 70q-100 0 -185 -70q-84 -71 -105 -169zM1191 1520l-306 -251q-31 -23 -57 -23h-77q-42 0 -53 38q-5 16 -2 30q4 20 23 40l229 251q25 28 61 28h154q43 0 53 -39q6 -18 3 -33q-4 -20 -28 -41z" />
    <glyph glyph-name="uni0145" unicode="&#x145;" 
d="M1367 1045l-196 -924q-10 -50 -54 -85q-43 -36 -93 -36h-3q-48 0 -77 36q-28 34 -18 85l196 924q24 113 -38 193q-63 80 -177 80q-112 0 -210 -80q-96 -79 -120 -193l-196 -924q-10 -50 -54 -85q-43 -36 -93 -36h-3q-49 0 -77 36q-28 34 -18 85l196 924q47 215 230 366
q184 151 397 151q214 0 334 -151q120 -152 74 -366zM558 -248q-28 0 -53 36q-28 36 -18 85l6 26q11 50 54 86q44 35 92 35h12q50 0 79 -35q29 -36 18 -86l-25 -117q-16 -77 -90 -160q-42 -45 -94 -67l-77 71q88 87 96 120q2 3 0 6z" />
    <glyph glyph-name="uni0146" unicode="&#x146;" horiz-adv-x="1167" 
d="M487 668l-116 -547q-10 -50 -54 -85q-43 -36 -93 -36h-3q-49 0 -77 36q-28 34 -18 85l116 547q42 199 215 342q172 142 372 142q199 0 311 -142q111 -142 69 -342l-116 -547q-10 -50 -54 -85q-42 -36 -93 -36h-2q-50 0 -78 36q-28 34 -18 85l116 547q21 99 -33 169
q-55 70 -154 70q-100 0 -185 -70q-84 -71 -105 -169zM518 -248q-28 0 -53 36q-28 36 -18 85l6 26q11 50 54 86q44 35 92 35h12q50 0 79 -35q29 -36 18 -86l-25 -117q-16 -77 -90 -160q-42 -45 -94 -67l-77 71q88 87 96 120q2 3 0 6z" />
    <glyph glyph-name="Ncaron" unicode="&#x147;" 
d="M1367 1045l-196 -924q-10 -50 -54 -85q-43 -36 -93 -36h-3q-48 0 -77 36q-28 34 -18 85l196 924q24 113 -38 193q-63 80 -177 80q-112 0 -210 -80q-96 -79 -120 -193l-196 -924q-10 -50 -54 -85q-43 -36 -93 -36h-3q-49 0 -77 36q-28 34 -18 85l196 924q47 215 230 366
q184 151 397 151q214 0 334 -151q120 -152 74 -366zM886 2003l133 -165q18 15 88 72q49 39 114 94q31 23 57 23h77q42 0 53 -38q4 -15 1 -31q-4 -22 -25 -41l-250 -251q-25 -25 -59 -25h-197q-32 0 -48 25l-144 251q-11 21 -7 41q3 13 14 31q29 38 70 38h77q28 0 46 -24z
" />
    <glyph glyph-name="ncaron" unicode="&#x148;" horiz-adv-x="1167" 
d="M487 668l-116 -547q-10 -50 -54 -85q-43 -36 -93 -36h-3q-49 0 -77 36q-28 34 -18 85l116 547q42 199 215 342q172 142 372 142q199 0 311 -142q111 -142 69 -342l-116 -547q-10 -50 -54 -85q-42 -36 -93 -36h-2q-50 0 -78 36q-28 34 -18 85l116 547q21 99 -33 169
q-55 70 -154 70q-100 0 -185 -70q-84 -71 -105 -169zM755 1593l133 -165q18 15 88 72q49 39 114 94q31 23 57 23h77q42 0 53 -38q4 -15 1 -31q-4 -20 -25 -41l-250 -251q-25 -25 -59 -25h-197q-32 0 -48 25l-144 251q-11 19 -7 41q3 13 14 31q29 38 70 38h77q28 0 46 -24z
" />
    <glyph glyph-name="napostrophe" unicode="&#x149;" horiz-adv-x="1208" 
d="M528 668l-116 -547q-10 -50 -54 -85q-44 -36 -93 -36h-3q-48 0 -77 36q-28 34 -18 85l116 547q42 199 215 342q172 142 372 142q199 0 311 -142q111 -142 69 -342l-116 -547q-10 -50 -54 -85q-42 -36 -93 -36h-2q-49 0 -78 36q-28 34 -18 85l116 547q21 99 -33 169
q-55 70 -154 70q-100 0 -185 -70q-84 -71 -105 -169zM343 1108q-27 0 -54 36q-28 36 -18 85l6 26q11 50 54 86q44 35 92 35h12q50 0 79 -35q29 -36 18 -86l-25 -117q-16 -77 -90 -160q-40 -45 -93 -67l-78 71q88 87 96 120q1 2 1 6z" />
    <glyph glyph-name="Eng" unicode="&#x14a;" 
d="M1367 1045l-196 -924q-10 -50 -54 -85q-43 -36 -93 -36h-3q-48 0 -77 36q-28 34 -18 85l196 924q24 113 -38 193q-63 80 -177 80q-112 0 -210 -80q-96 -79 -120 -193l-196 -924q-10 -50 -54 -85q-43 -36 -93 -36h-3q-49 0 -77 36q-28 34 -18 85l196 924q47 215 230 366
q184 151 397 151q214 0 334 -151q120 -152 74 -366zM995 167h119q36 0 51 -32q8 -17 3 -35q-3 -16 -13 -30l-190 -287q-27 -41 -71 -41h-66q-34 0 -49 27q-10 19 -6 40q1 4 7 19l139 287q22 52 76 52z" />
    <glyph glyph-name="eng" unicode="&#x14b;" horiz-adv-x="1167" 
d="M487 668l-116 -547q-10 -50 -54 -85q-43 -36 -93 -36h-3q-49 0 -77 36q-28 34 -18 85l116 547q42 199 215 342q172 142 372 142q199 0 311 -142q111 -142 69 -342l-116 -547q-10 -50 -54 -85q-42 -36 -93 -36h-2q-50 0 -78 36q-28 34 -18 85l116 547q21 99 -33 169
q-55 70 -154 70q-100 0 -185 -70q-84 -71 -105 -169zM918 164h119q36 0 50 -32q7 -16 4 -35q-5 -17 -14 -30l-190 -287q-26 -41 -70 -41h-66q-33 0 -50 27q-10 18 -5 40q1 4 7 19l139 287q22 52 76 52z" />
    <glyph glyph-name="Omacron" unicode="&#x14c;" horiz-adv-x="1723" 
d="M1193 1562q323 0 504 -229t112 -552t-346 -552q-278 -229 -602 -229q-323 0 -503 229q-181 229 -112 552t346 552t601 229zM1141 1318q-222 0 -412 -157q-192 -159 -238 -380q-46 -223 76 -380q125 -156 346 -156q223 0 413 156q192 159 238 380q46 223 -76 380
q-124 157 -347 157zM1518 1786l-1 -2q-10 -50 -54 -85q-43 -36 -94 -36h-309q-52 0 -77 36q-28 34 -18 85l1 2q11 50 54 86q42 36 93 36h309q50 0 78 -36q29 -36 18 -86z" />
    <glyph glyph-name="omacron" unicode="&#x14d;" horiz-adv-x="1292" 
d="M838 905q-139 0 -255 -97q-118 -98 -146 -235q-29 -137 46 -234q76 -97 214 -97q137 0 255 97t147 234q29 139 -47 235q-76 97 -214 97zM891 1152q238 0 371 -169t82 -407q-49 -237 -255 -407q-205 -169 -443 -169t-371 169q-133 168 -83 407q51 238 256 407t443 169z
M1214 1376v-2q-10 -50 -54 -85q-44 -36 -94 -36h-309q-51 0 -77 36q-28 34 -18 85v2q10 49 55 86q41 36 92 36h309q50 0 79 -36q28 -35 17 -86z" />
    <glyph glyph-name="Obreve" unicode="&#x14e;" horiz-adv-x="1723" 
d="M1193 1562q323 0 504 -229t112 -552t-346 -552q-278 -229 -602 -229q-323 0 -503 229q-181 229 -112 552t346 552t601 229zM1141 1318q-222 0 -412 -157q-192 -159 -238 -380q-46 -223 76 -380q125 -156 346 -156q223 0 413 156q192 159 238 380q46 223 -76 380
q-124 157 -347 157zM1535 2000h21q47 0 66 -37q13 -25 7 -54q-3 -15 -12 -30q-66 -118 -182 -186q-109 -62 -226 -62t-199 62q-89 68 -104 186q-1 14 2 31q6 28 28 53q36 37 83 37h21q61 0 73 -57q19 -106 139 -106h2q119 0 184 105q34 58 97 58z" />
    <glyph glyph-name="obreve" unicode="&#x14f;" horiz-adv-x="1292" 
d="M838 905q-139 0 -255 -97q-118 -98 -146 -235q-29 -137 46 -234q76 -97 214 -97q137 0 255 97t147 234q29 139 -47 235q-76 97 -214 97zM891 1152q238 0 371 -169t82 -407q-49 -237 -255 -407q-205 -169 -443 -169t-371 169q-133 168 -83 407q51 238 256 407t443 169z
M1232 1590h21q47 0 66 -37q13 -25 7 -54q-4 -15 -12 -30q-66 -118 -182 -186q-109 -62 -226 -62t-199 62q-89 68 -104 186q-1 14 2 31q6 28 28 53q36 37 83 37h21q61 0 73 -57q19 -106 139 -106h2q119 0 184 105q34 58 97 58z" />
    <glyph glyph-name="Ohungarumlaut" unicode="&#x150;" horiz-adv-x="1723" 
d="M1193 1562q323 0 504 -229t112 -552t-346 -552q-278 -229 -602 -229q-323 0 -503 229q-181 229 -112 552t346 552t601 229zM1141 1318q-222 0 -412 -157q-192 -159 -238 -380q-46 -223 76 -380q125 -156 346 -156q223 0 413 156q192 159 238 380q46 223 -76 380
q-124 157 -347 157zM1421 1960l-307 -251q-31 -23 -57 -23h-77q-42 0 -53 38q-4 14 -1 30q5 21 22 40l230 251q25 28 61 28h154q43 0 52 -39q7 -18 3 -33q-4 -21 -27 -41zM1829 1960l-307 -251q-31 -23 -57 -23h-77q-42 0 -53 38q-4 14 -1 30q5 21 22 40l230 251
q25 28 61 28h154q43 0 52 -39q7 -18 3 -33q-4 -21 -27 -41z" />
    <glyph glyph-name="ohungarumlaut" unicode="&#x151;" horiz-adv-x="1292" 
d="M838 905q-139 0 -255 -97q-118 -98 -146 -235q-29 -137 46 -234q76 -97 214 -97q137 0 255 97t147 234q29 139 -47 235q-76 97 -214 97zM891 1152q238 0 371 -169t82 -407q-49 -237 -255 -407q-205 -169 -443 -169t-371 169q-133 168 -83 407q51 238 256 407t443 169z
M1117 1550l-306 -251q-31 -23 -57 -23h-77q-42 0 -53 38q-5 17 -1 30q5 21 22 40l230 251q24 28 60 28h154q43 0 53 -39q6 -18 3 -33q-4 -22 -28 -41zM1525 1550l-306 -251q-31 -23 -57 -23h-77q-42 0 -53 38q-5 17 -1 30q5 21 22 40l230 251q24 28 60 28h154q43 0 53 -39
q6 -18 3 -33q-4 -22 -28 -41z" />
    <glyph glyph-name="OE" unicode="&#x152;" horiz-adv-x="2277" 
d="M1551 731l22 100q25 189 -85 330q-124 157 -347 157q-222 0 -412 -157q-192 -159 -238 -380q-46 -223 76 -380q125 -156 346 -156q223 0 413 156q170 139 225 330zM1464 227q13 10 13 12q0 1 -1 1l-13 -11q-278 -229 -602 -229q-323 0 -503 229q-181 229 -112 552
t346 552t601 229q323 0 504 -229l9 -11q1 0 1 1q0 2 -7 12q16 41 112 120q131 107 281 107h357q48 0 77 -36q28 -34 18 -85v-2q-11 -50 -54 -86t-93 -36h-357q-49 0 -93 -35q-42 -35 -53 -85l-62 -294h477q48 0 77 -35q29 -36 18 -86v-2q-11 -50 -54 -86q-44 -35 -93 -35
h-477l-62 -294q-11 -51 17 -85q27 -35 77 -35h357q48 0 77 -36t18 -86v-2q-10 -50 -54 -85q-43 -36 -93 -36h-357q-151 0 -235 107q-63 79 -62 120z" />
    <glyph glyph-name="oe" unicode="&#x153;" horiz-adv-x="2156" 
d="M1052 808q-76 97 -214 97q-139 0 -255 -97q-118 -98 -146 -235q-29 -137 46 -234q76 -97 214 -97q137 0 255 97t147 234q29 139 -47 235zM1956 817q-55 88 -210 88q-139 0 -255 -97q-118 -98 -146 -235l-2 -8zM1146 218q-13 -13 -57 -49q-205 -169 -443 -169t-371 169
q-133 168 -83 407q51 238 256 407t443 169t371 -169q33 -43 37 -49q13 13 57 49q205 169 443 169q173 0 294 -94q121 -91 157 -242q7 -23 2 -51q-4 -20 -17 -42q-28 -47 -79 -68q-361 -149 -403 -166q-110 -45 -364 -151q55 -96 216 -96q107 0 208 63q97 61 153 160
q46 82 133 82q63 0 88 -52q17 -32 9 -67q-5 -23 -17 -43q-96 -171 -266 -276q-172 -109 -359 -109q-238 0 -371 169q-33 43 -37 49z" />
    <glyph glyph-name="Racute" unicode="&#x154;" horiz-adv-x="1190" 
d="M525 806h276q105 0 197 74q92 75 114 181t-37 182q-59 74 -165 74h-115q-74 0 -126 -41q-40 -32 -58 -78q-6 -14 -10 -35zM912 121l39 185q22 106 -36 181q-54 70 -147 74h-295l-93 -440q-11 -50 -53 -85q-44 -36 -94 -36h-2q-51 0 -77 36q-28 34 -18 85l223 1051
q35 162 173 275q139 115 300 115h130q206 0 322 -147t72 -354q-43 -205 -223 -353l-28 -24l19 -25q115 -145 71 -353l-39 -185q-10 -50 -54 -85q-44 -36 -93 -36h-2q-49 0 -77 36q-28 34 -18 85zM1314 1930l-306 -251q-31 -23 -57 -23h-77q-42 0 -53 38q-5 16 -2 30
q4 20 23 40l229 251q25 28 61 28h154q42 0 53 -39q6 -18 3 -33q-4 -20 -28 -41z" />
    <glyph glyph-name="racute" unicode="&#x155;" horiz-adv-x="729" 
d="M786 1152h57q49 0 78 -36q28 -35 17 -86v-2q-11 -51 -54 -85q-44 -36 -93 -36h-57q-82 0 -151 -57q-68 -57 -87 -139l-125 -590q-10 -50 -54 -85q-43 -36 -93 -36h-3q-49 0 -77 36q-28 34 -18 85l125 590q41 183 195 312q158 129 340 129zM1017 1520l-306 -251
q-31 -23 -57 -23h-77q-42 0 -53 38q-5 16 -2 30q4 20 23 40l229 251q25 28 61 28h154q43 0 53 -39q6 -18 3 -33q-4 -20 -28 -41z" />
    <glyph glyph-name="uni0156" unicode="&#x156;" horiz-adv-x="1190" 
d="M525 806h276q105 0 197 74q92 75 114 181t-37 182q-59 74 -165 74h-115q-74 0 -126 -41q-40 -32 -58 -78q-6 -14 -10 -35zM912 121l39 185q22 106 -36 181q-54 70 -147 74h-295l-93 -440q-11 -50 -53 -85q-44 -36 -94 -36h-2q-51 0 -77 36q-28 34 -18 85l223 1051
q35 162 173 275q139 115 300 115h130q206 0 322 -147t72 -354q-43 -205 -223 -353l-28 -24l19 -25q115 -145 71 -353l-39 -185q-10 -50 -54 -85q-44 -36 -93 -36h-2q-49 0 -77 36q-28 34 -18 85zM528 -248q-28 0 -53 36q-28 36 -18 85l6 26q11 50 54 86q44 35 92 35h12
q50 0 79 -35q29 -36 18 -86l-25 -117q-16 -77 -90 -160q-42 -45 -94 -67l-77 71q88 87 96 120q2 3 0 6z" />
    <glyph glyph-name="uni0157" unicode="&#x157;" horiz-adv-x="729" 
d="M786 1152h57q49 0 78 -36q28 -35 17 -86v-2q-11 -51 -54 -85q-44 -36 -93 -36h-57q-82 0 -151 -57q-68 -57 -87 -139l-125 -590q-10 -50 -54 -85q-43 -36 -93 -36h-3q-49 0 -77 36q-28 34 -18 85l125 590q41 183 195 312q158 129 340 129zM146 -315q-28 0 -53 36
q-28 36 -18 85l5 26q10 49 55 86q44 35 92 35h12q50 0 79 -35q28 -35 17 -86l-25 -117q-16 -77 -90 -160q-40 -45 -93 -67l-78 71q89 86 97 120v6z" />
    <glyph glyph-name="Rcaron" unicode="&#x158;" horiz-adv-x="1190" 
d="M525 806h276q105 0 197 74q92 75 114 181t-37 182q-59 74 -165 74h-115q-74 0 -126 -41q-40 -32 -58 -78q-6 -14 -10 -35zM912 121l39 185q22 106 -36 181q-54 70 -147 74h-295l-93 -440q-11 -50 -53 -85q-44 -36 -94 -36h-2q-51 0 -77 36q-28 34 -18 85l223 1051
q35 162 173 275q139 115 300 115h130q206 0 322 -147t72 -354q-43 -205 -223 -353l-28 -24l19 -25q115 -145 71 -353l-39 -185q-10 -50 -54 -85q-44 -36 -93 -36h-2q-49 0 -77 36q-28 34 -18 85zM878 2003l133 -165q18 15 88 72q49 39 114 94q31 23 57 23h77q42 0 53 -38
q4 -15 1 -31q-4 -22 -25 -41l-250 -251q-25 -25 -59 -25h-197q-32 0 -48 25l-144 251q-11 21 -7 41q3 13 14 31q29 38 70 38h77q28 0 46 -24z" />
    <glyph glyph-name="rcaron" unicode="&#x159;" horiz-adv-x="729" 
d="M847 1152h57q50 0 78 -36q28 -35 17 -86v-2q-11 -51 -54 -85q-43 -36 -93 -36h-57q-82 0 -151 -57q-68 -57 -87 -139l-125 -590q-10 -50 -54 -85q-44 -36 -93 -36h-3q-48 0 -77 36q-28 34 -18 85l125 590q40 183 195 312q157 129 340 129zM642 1593l133 -165q18 15 88 72
q49 39 114 94q31 23 57 23h77q42 0 53 -38q4 -15 1 -31q-4 -20 -25 -41l-250 -251q-25 -25 -59 -25h-197q-32 0 -48 25l-144 251q-11 19 -7 41q3 13 14 31q29 38 70 38h77q28 0 46 -24z" />
    <glyph glyph-name="Sacute" unicode="&#x15a;" horiz-adv-x="1096" 
d="M1090 1320h-279q-85 0 -159 -60q-73 -59 -91 -146q-23 -102 60 -155q36 -22 224 -81q160 -51 223 -123q96 -106 55 -301q-41 -188 -203 -321q-160 -133 -348 -133h-381q-49 0 -77 36t-18 85l1 6q10 49 54 85q43 36 93 36h391q85 0 158 60q72 59 92 146q21 100 -60 156
q-42 27 -224 88q-158 55 -222 127q-95 107 -56 289q41 188 201 321t349 133h269q50 0 79 -36q28 -35 17 -85l-2 -6q-11 -50 -53 -85q-43 -36 -93 -36zM1242 1930l-306 -251q-31 -23 -57 -23h-77q-42 0 -53 38q-5 16 -2 30q4 20 23 40l229 251q25 28 61 28h154q42 0 53 -39
q6 -18 3 -33q-4 -20 -28 -41z" />
    <glyph glyph-name="sacute" unicode="&#x15b;" horiz-adv-x="851" 
d="M797 907h-194q-43 0 -81 -30q-36 -32 -45 -74q-13 -60 39 -90q18 -11 156 -50q112 -34 158 -89q66 -80 35 -225q-30 -144 -154 -247q-125 -102 -269 -102h-261q-49 0 -77 36q-28 34 -18 85v2q11 50 54 86q44 36 93 36h271q44 0 80 30q37 29 46 74q12 55 -39 83
q-9 5 -158 50q-110 34 -157 92q-66 80 -34 229q30 144 154 246q124 103 269 103h184q49 0 78 -36t18 -86v-2q-10 -49 -55 -85q-44 -36 -93 -36zM1033 1520l-306 -251q-31 -23 -57 -23h-77q-42 0 -53 38q-5 16 -2 30q4 20 23 40l229 251q25 28 61 28h154q43 0 53 -39
q6 -18 3 -33q-4 -20 -28 -41z" />
    <glyph glyph-name="Scircumflex" unicode="&#x15c;" horiz-adv-x="1096" 
d="M1090 1320h-279q-85 0 -159 -60q-73 -59 -91 -146q-23 -102 60 -155q36 -22 224 -81q160 -51 223 -123q96 -106 55 -301q-41 -188 -203 -321q-160 -133 -348 -133h-381q-49 0 -77 36t-18 85l1 6q10 49 54 85q43 36 93 36h391q85 0 158 60q72 59 92 146q21 100 -60 156
q-42 27 -224 88q-158 55 -222 127q-95 107 -56 289q41 188 201 321t349 133h269q50 0 79 -36q28 -35 17 -85l-2 -6q-11 -50 -53 -85q-43 -36 -93 -36zM1067 1655l-132 165l-203 -165q-28 -24 -56 -24h-77q-42 0 -53 38q-6 17 -2 32q4 20 24 40l250 251q28 26 60 26h197
q33 0 47 -27l145 -250q11 -19 7 -41q-3 -13 -14 -31q-26 -38 -69 -38h-77q-28 0 -47 24z" />
    <glyph glyph-name="scircumflex" unicode="&#x15d;" horiz-adv-x="850" 
d="M802 907h-194q-44 0 -81 -30q-36 -32 -45 -74q-14 -60 39 -90q18 -11 156 -50q112 -34 158 -89q66 -80 35 -225q-30 -144 -154 -247q-125 -102 -269 -102h-261q-48 0 -77 36q-28 34 -18 85v2q11 50 54 86t93 36h271q44 0 80 30q37 29 46 74q12 55 -39 83q-9 5 -158 50
q-110 34 -157 92q-66 80 -34 229q30 144 154 246q124 103 269 103h184q50 0 78 -36q29 -36 18 -86v-2q-10 -49 -55 -85q-43 -36 -93 -36zM863 1245l-132 165l-203 -165q-29 -24 -56 -24h-77q-42 0 -53 38q-6 17 -3 32q4 19 25 40l250 251q28 26 60 26h197q33 0 47 -27
l145 -250q11 -19 7 -41q-3 -13 -14 -31q-26 -38 -69 -38h-77q-28 0 -47 24z" />
    <glyph glyph-name="Scedilla" unicode="&#x15e;" horiz-adv-x="1096" 
d="M1090 1320h-279q-85 0 -159 -60q-73 -59 -91 -146q-23 -102 60 -155q36 -22 224 -81q160 -51 223 -123q96 -106 55 -301q-41 -188 -203 -321q-160 -133 -348 -133h-381q-49 0 -77 36t-18 85l1 6q10 49 54 85q43 36 93 36h391q85 0 158 60q72 59 92 146q21 100 -60 156
q-42 27 -224 88q-158 55 -222 127q-95 107 -56 289q41 188 201 321t349 133h269q50 0 79 -36q28 -35 17 -85l-2 -6q-11 -50 -53 -85q-43 -36 -93 -36zM371 -130l55 140h206l-46 -114q64 -8 108 -60q42 -51 28 -117q-20 -94 -120 -161q-98 -65 -258 -65h-95q-41 0 -60 30
q-19 24 -11 61l1 8l3 8q11 36 43 59q30 24 67 24q20 -1 51 -1q89 0 126 22q21 13 22 25q2 9 -2 14q-4 7 -25 15q-14 5 -34 6q-39 4 -56 36q-13 25 -7 55q1 2 2.5 7t1.5 8z" />
    <glyph glyph-name="scedilla" unicode="&#x15f;" horiz-adv-x="851" 
d="M797 907h-194q-43 0 -81 -30q-36 -32 -45 -74q-13 -60 39 -90q18 -11 156 -50q112 -34 158 -89q66 -80 35 -225q-30 -144 -154 -247q-125 -102 -269 -102h-261q-49 0 -77 36q-28 34 -18 85v2q11 50 54 86q44 36 93 36h271q44 0 80 30q37 29 46 74q12 55 -39 83
q-9 5 -158 50q-110 34 -157 92q-66 80 -34 229q30 144 154 246q124 103 269 103h184q49 0 78 -36t18 -86v-2q-10 -49 -55 -85q-44 -36 -93 -36zM248 -130l55 140h206l-46 -114q65 -8 108 -60q42 -51 28 -117q-20 -94 -120 -161q-98 -65 -258 -65h-95q-40 0 -60 30
q-19 24 -11 61l1 8l3 8q11 36 43 59q30 24 67 24q20 -1 51 -1q89 0 126 22q21 13 22 25q2 9 -2 14q-4 7 -25 15q-14 5 -34 6q-39 4 -56 36q-13 25 -7 55q1 2 2.5 7t1.5 8z" />
    <glyph glyph-name="Scaron" unicode="&#x160;" horiz-adv-x="1096" 
d="M1090 1320h-279q-85 0 -159 -60q-73 -59 -91 -146q-23 -102 60 -155q36 -22 224 -81q160 -51 223 -123q96 -106 55 -301q-41 -188 -203 -321q-160 -133 -348 -133h-381q-49 0 -77 36t-18 85l1 6q10 49 54 85q43 36 93 36h391q85 0 158 60q72 59 92 146q21 100 -60 156
q-42 27 -224 88q-158 55 -222 127q-95 107 -56 289q41 188 201 321t349 133h269q50 0 79 -36q28 -35 17 -85l-2 -6q-11 -50 -53 -85q-43 -36 -93 -36zM806 2003l133 -165q18 15 88 72q49 39 114 94q31 23 57 23h77q42 0 53 -38q4 -15 1 -31q-4 -22 -25 -41l-250 -251
q-25 -25 -59 -25h-197q-32 0 -48 25l-144 251q-11 21 -7 41q3 13 14 31q29 38 70 38h77q28 0 46 -24z" />
    <glyph glyph-name="scaron" unicode="&#x161;" horiz-adv-x="851" 
d="M802 907h-194q-44 0 -81 -30q-36 -32 -45 -74q-14 -60 39 -90q18 -11 156 -50q112 -34 158 -89q66 -80 35 -225q-30 -144 -154 -247q-125 -102 -269 -102h-261q-48 0 -77 36q-28 34 -18 85v2q11 50 54 86t93 36h271q44 0 80 30q37 29 46 74q12 55 -39 83q-9 5 -158 50
q-110 34 -157 92q-66 80 -34 229q30 144 154 246q124 103 269 103h184q50 0 78 -36q29 -36 18 -86v-2q-10 -49 -55 -85q-43 -36 -93 -36zM602 1593l133 -165q18 15 88 72q49 39 114 94q31 23 57 23h77q42 0 53 -38q4 -15 1 -31q-4 -20 -25 -41l-250 -251q-25 -25 -59 -25
h-197q-32 0 -48 25l-144 251q-11 19 -7 41q3 13 14 31q29 38 70 38h77q28 0 46 -24z" />
    <glyph glyph-name="uni0162" unicode="&#x162;" horiz-adv-x="1054" 
d="M399 -46l38 98q-15 30 -6 69l254 1197h-244q-48 0 -77 35q-29 36 -18 86v2q10 49 55 86q44 35 92 35h732q49 0 78 -35q28 -35 17 -86v-2q-11 -50 -54 -86q-44 -35 -93 -35h-244l-254 -1197q-8 -34 -28 -60l-33 -81q64 -8 108 -60q42 -51 28 -117q-20 -94 -120 -161
q-98 -65 -258 -65h-95q-40 0 -61 30q-18 26 -11 61l2 8l3 8q11 35 42 59q30 24 67 24q21 -1 52 -1q89 0 126 22q19 12 22 25q2 9 -2 14q-4 7 -26 15q-12 4 -33 6q-39 4 -56 36q-13 25 -7 55q0 2 1.5 7t2.5 8z" />
    <glyph glyph-name="uni0163" unicode="&#x163;" horiz-adv-x="656" 
d="M243 -92l47 120q-41 21 -76 64q-74 93 -45 222l239 1127q10 49 55 86q44 35 92 35h3q49 0 78 -35q28 -35 17 -86l-61 -289h150q48 0 77 -36t18 -86v-2q-10 -49 -55 -85q-43 -36 -92 -36h-150l-126 -593q-6 -29 9 -49q17 -20 46 -20h80q49 0 77 -36q29 -36 18 -86v-2
q-10 -50 -54 -85q-44 -36 -93 -36h-12l-27 -66q64 -8 108 -60q42 -51 28 -117q-20 -94 -120 -161q-98 -65 -258 -65h-95q-41 0 -60 30q-19 24 -11 61l1 8l3 8q11 36 43 59q30 24 67 24q20 -1 51 -1q89 0 126 22q21 13 22 25q2 9 -2 14q-4 7 -25 15q-14 5 -34 6q-40 4 -55 36
q-14 26 -8 55q1 2 2 7t2 8z" />
    <glyph glyph-name="Tcaron" unicode="&#x164;" horiz-adv-x="1054" 
d="M1320 1441v-2q-11 -50 -54 -86q-44 -35 -93 -35h-244l-254 -1197q-11 -50 -53 -85q-44 -36 -94 -36h-2q-50 0 -78 36q-28 34 -17 85l254 1197h-244q-48 0 -77 35q-29 36 -18 86v2q10 49 55 86q44 35 92 35h732q49 0 78 -35q28 -35 17 -86zM785 2003l133 -165q18 15 88 72
q49 39 114 94q31 23 57 23h77q42 0 53 -38q4 -15 1 -31q-4 -22 -25 -41l-250 -251q-25 -25 -59 -25h-197q-32 0 -48 25l-144 251q-11 21 -7 41q3 13 14 31q29 38 70 38h77q28 0 46 -24z" />
    <glyph glyph-name="tcaron" unicode="&#x165;" horiz-adv-x="730" 
d="M553 1562h3q49 0 78 -35q28 -35 17 -86l-61 -289h150q48 0 77 -36t18 -86v-2q-10 -49 -55 -85q-44 -36 -92 -36h-150l-126 -593q-6 -29 9 -49q17 -20 46 -20h80q49 0 77 -36q29 -36 18 -86v-2q-10 -50 -54 -85q-44 -36 -93 -36h-80q-129 0 -203 92q-74 93 -45 222
l239 1127q10 49 55 86q44 35 92 35zM829 1341q-28 0 -53 36q-28 36 -18 85l5 26q10 49 55 86q44 35 92 35h12q50 0 79 -35q28 -35 17 -86l-25 -117q-16 -77 -90 -160q-40 -45 -93 -67l-78 71q89 86 97 120v6z" />
    <glyph glyph-name="Tbar" unicode="&#x166;" horiz-adv-x="1004" 
d="M281 904h291l88 414h-244q-48 0 -77 35q-29 36 -18 86v2q10 49 55 86q44 35 92 35h732q49 0 78 -35q28 -35 17 -86v-2q-11 -50 -54 -86q-44 -35 -93 -35h-244l-88 -414h292l-41 -195h-292l-125 -588q-11 -50 -53 -85q-43 -36 -94 -36h-2q-49 0 -78 36q-28 34 -17 85
l125 588h-291z" />
    <glyph glyph-name="tbar" unicode="&#x167;" horiz-adv-x="656" 
d="M730 560h-256l-52 -246q-6 -29 9 -49q17 -20 46 -20h80q49 0 77 -36q29 -36 18 -86v-2q-10 -50 -54 -85q-44 -36 -93 -36h-80q-129 0 -203 92q-74 93 -45 222l239 1127q10 49 55 86q44 35 92 35h3q49 0 78 -35q28 -35 17 -86l-61 -289h150q48 0 77 -36t18 -86v-2
q-10 -49 -55 -85q-44 -36 -92 -36h-150l-33 -152h256z" />
    <glyph glyph-name="Utilde" unicode="&#x168;" 
d="M1451 1441l-196 -924q-46 -214 -230 -365q-185 -152 -398 -152t-333 152t-74 365l196 924q10 49 55 86q44 35 92 35h3q49 0 78 -35q28 -35 17 -86l-196 -924q-24 -113 38 -193q63 -79 176 -79q114 0 211 79q96 79 120 193l196 924q10 49 55 86q44 35 92 35h3q49 0 78 -35
q28 -35 17 -86zM612 1715q35 91 109 143q79 56 177 56q82 0 180 -52q32 -17 71 -17h8q40 1 61 24q48 54 85 54h41q35 0 50 -25q13 -21 9 -46q0 -2 -1.5 -6t-2.5 -7q-76 -202 -276 -202q-82 0 -177 56q-40 23 -84 23q-40 -1 -56 -29q-38 -52 -94 -56h-44q-33 0 -51 25
q-15 21 -9 47q2 8 4 12z" />
    <glyph glyph-name="utilde" unicode="&#x169;" horiz-adv-x="1167" 
d="M564 1030l-116 -547q-21 -99 33 -169q55 -69 155 -69q98 0 184 69q84 71 105 169l116 547q11 50 54 86t94 36h2q51 0 77 -36q29 -36 18 -86l-116 -547q-43 -199 -215 -341t-371 -142q-200 0 -312 142t-69 341l116 547q11 50 54 86t93 36h3q49 0 77 -36q29 -36 18 -86z
M480 1305q35 90 110 143q79 56 177 56q82 0 180 -52q32 -17 71 -17h8q40 1 61 24q48 54 85 54h41q35 0 50 -25q13 -21 9 -46q0 -2 -1.5 -6t-2.5 -7q-76 -202 -276 -202q-82 0 -177 56q-40 23 -84 23q-41 -2 -57 -29q-36 -52 -93 -56h-44q-33 0 -51 25q-15 21 -9 47z" />
    <glyph glyph-name="Umacron" unicode="&#x16a;" 
d="M1451 1441l-196 -924q-46 -214 -230 -365q-185 -152 -398 -152t-333 152t-74 365l196 924q10 49 55 86q44 35 92 35h3q49 0 78 -35q28 -35 17 -86l-196 -924q-24 -113 38 -193q63 -79 176 -79q114 0 211 79q96 79 120 193l196 924q10 49 55 86q44 35 92 35h3q49 0 78 -35
q28 -35 17 -86zM1284 1786l-1 -2q-10 -50 -54 -85q-43 -36 -94 -36h-309q-52 0 -77 36q-28 34 -18 85l1 2q11 50 54 86q42 36 93 36h309q50 0 78 -36q29 -36 18 -86z" />
    <glyph glyph-name="umacron" unicode="&#x16b;" horiz-adv-x="1167" 
d="M564 1030l-116 -547q-21 -99 33 -169q55 -69 155 -69q98 0 184 69q84 71 105 169l116 547q11 50 54 86t94 36h2q51 0 77 -36q29 -36 18 -86l-116 -547q-43 -199 -215 -341t-371 -142q-200 0 -312 142t-69 341l116 547q11 50 54 86t93 36h3q49 0 77 -36q29 -36 18 -86z
M1152 1376v-2q-10 -50 -54 -85q-44 -36 -94 -36h-309q-51 0 -77 36q-28 34 -18 85v2q10 49 55 86q41 36 92 36h309q50 0 79 -36q28 -35 17 -86z" />
    <glyph glyph-name="Ubreve" unicode="&#x16c;" 
d="M1451 1441l-196 -924q-46 -214 -230 -365q-185 -152 -398 -152t-333 152t-74 365l196 924q10 49 55 86q44 35 92 35h3q49 0 78 -35q28 -35 17 -86l-196 -924q-24 -113 38 -193q63 -79 176 -79q114 0 211 79q96 79 120 193l196 924q10 49 55 86q44 35 92 35h3q49 0 78 -35
q28 -35 17 -86zM1301 2000h21q47 0 66 -37q13 -25 7 -54q-3 -15 -12 -30q-66 -118 -182 -186q-109 -62 -226 -62t-199 62q-89 68 -104 186q-1 14 2 31q6 28 28 53q36 37 83 37h21q61 0 73 -57q19 -106 139 -106h2q120 0 184 105q34 58 97 58z" />
    <glyph glyph-name="ubreve" unicode="&#x16d;" horiz-adv-x="1167" 
d="M564 1030l-116 -547q-21 -99 33 -169q55 -69 155 -69q98 0 184 69q84 71 105 169l116 547q11 50 54 86t94 36h2q51 0 77 -36q29 -36 18 -86l-116 -547q-43 -199 -215 -341t-371 -142q-200 0 -312 142t-69 341l116 547q11 50 54 86t93 36h3q49 0 77 -36q29 -36 18 -86z
M1170 1590h21q47 0 66 -37q13 -25 7 -54q-4 -15 -12 -30q-66 -118 -182 -186q-109 -62 -226 -62t-199 62q-89 68 -104 186q-1 14 2 31q6 28 28 53q36 37 83 37h21q61 0 73 -57q19 -106 139 -106h2q119 0 184 105q34 58 97 58z" />
    <glyph glyph-name="Uring" unicode="&#x16e;" 
d="M1451 1441l-196 -924q-46 -214 -230 -365q-185 -152 -398 -152t-333 152t-74 365l196 924q10 49 55 86q44 35 92 35h3q49 0 78 -35q28 -35 17 -86l-196 -924q-24 -113 38 -193q63 -79 176 -79q114 0 211 79q96 79 120 193l196 924q10 49 55 86q44 35 92 35h3q49 0 78 -35
q28 -35 17 -86zM945 1823q-5 -26 10 -45t40 -19h13q27 0 49 19q24 21 28 45q6 25 -9 45q-14 18 -41 18h-13q-26 0 -48 -18q-23 -20 -29 -45zM761 1823q23 100 108 170q86 71 186 71h24q99 0 156 -71q56 -72 34 -170q-21 -100 -107 -171q-88 -71 -186 -71h-24q-100 0 -156 71
t-35 171z" />
    <glyph glyph-name="uring" unicode="&#x16f;" horiz-adv-x="1167" 
d="M564 1030l-116 -547q-21 -99 33 -169q55 -69 155 -69q98 0 184 69q84 71 105 169l116 547q11 50 54 86t94 36h2q51 0 77 -36q29 -36 18 -86l-116 -547q-43 -199 -215 -341t-371 -142q-200 0 -312 142t-69 341l116 547q11 50 54 86t93 36h3q49 0 77 -36q29 -36 18 -86z
M814 1413q-5 -26 10 -45t40 -19h13q27 0 49 19q24 21 28 45q6 25 -9 45q-13 18 -41 18h-13q-25 0 -48 -18q-23 -20 -29 -45zM630 1413q21 99 107 170q88 71 187 71h24q99 0 155 -71t35 -170q-21 -100 -107 -171q-88 -71 -186 -71h-24q-100 0 -156 71t-35 171z" />
    <glyph glyph-name="Uhungarumlaut" unicode="&#x170;" 
d="M1451 1441l-196 -924q-46 -214 -230 -365q-185 -152 -398 -152t-333 152t-74 365l196 924q10 49 55 86q44 35 92 35h3q49 0 78 -35q28 -35 17 -86l-196 -924q-24 -113 38 -193q63 -79 176 -79q114 0 211 79q96 79 120 193l196 924q10 49 55 86q44 35 92 35h3q49 0 78 -35
q28 -35 17 -86zM1187 1960l-307 -251q-31 -23 -57 -23h-77q-42 0 -53 38q-4 14 -1 30q5 21 22 40l230 251q25 28 61 28h154q43 0 52 -39q7 -18 3 -33q-4 -21 -27 -41zM1595 1960l-307 -251q-31 -23 -57 -23h-77q-42 0 -53 38q-4 14 -1 30q5 21 22 40l230 251q25 28 61 28
h154q43 0 52 -39q7 -18 3 -33q-4 -21 -27 -41z" />
    <glyph glyph-name="uhungarumlaut" unicode="&#x171;" horiz-adv-x="1167" 
d="M564 1030l-116 -547q-21 -99 33 -169q55 -69 155 -69q98 0 184 69q84 71 105 169l116 547q11 50 54 86t94 36h2q51 0 77 -36q29 -36 18 -86l-116 -547q-43 -199 -215 -341t-371 -142q-200 0 -312 142t-69 341l116 547q11 50 54 86t93 36h3q49 0 77 -36q29 -36 18 -86z
M1055 1550l-306 -251q-31 -23 -57 -23h-77q-42 0 -53 38q-5 17 -1 30q5 21 22 40l230 251q24 28 60 28h154q43 0 53 -39q6 -18 3 -33q-4 -22 -28 -41zM1463 1550l-306 -251q-31 -23 -57 -23h-77q-42 0 -53 38q-5 17 -1 30q5 21 22 40l230 251q24 28 60 28h154q43 0 53 -39
q6 -18 3 -33q-4 -22 -28 -41z" />
    <glyph glyph-name="Uogonek" unicode="&#x172;" 
d="M685 3q-28 -3 -58 -3q-213 0 -333 152t-74 365l196 924q10 49 55 86q44 35 92 35h3q49 0 78 -35q28 -35 17 -86l-196 -924q-24 -113 38 -193q63 -79 176 -79q114 0 211 79q96 79 120 193l196 924q10 49 55 86q44 35 92 35h3q49 0 78 -35q28 -35 17 -86l-196 -924
q-41 -191 -190 -330h4q-114 -92 -151 -136q-54 -60 -61 -96q-3 -14 2 -27q11 -29 46 -29q5 0 19 2q32 6 112 50l-42 -194q-74 -56 -184 -56q-89 0 -136 53q-51 57 -31 150q9 45 42 99z" />
    <glyph glyph-name="uogonek" unicode="&#x173;" horiz-adv-x="1167" 
d="M627 2q-28 -2 -43 -2q-200 0 -312 142t-69 341l116 547q11 50 54 86t93 36h3q49 0 77 -36q29 -36 18 -86l-116 -547q-21 -99 33 -169q55 -69 155 -69q98 0 184 69q84 71 105 169l116 547q11 50 54 86t94 36h2q51 0 77 -36q29 -36 18 -86l-116 -547q-36 -167 -163 -294h6
q-114 -92 -151 -136q-52 -59 -60 -96q-3 -16 1 -27q11 -29 46 -29q5 0 19 2q31 6 112 50l-41 -194q-74 -56 -184 -56q-90 0 -137 53q-51 57 -31 150q9 45 40 96z" />
    <glyph glyph-name="Wcircumflex" unicode="&#x174;" horiz-adv-x="1899" 
d="M661 1441l-204 -960q-21 -98 34 -167q54 -69 152 -69t182 69q83 69 104 167l204 960q10 49 55 86q44 35 93 35h2q49 0 78 -35q28 -35 17 -86l-204 -960q-21 -98 34 -167q54 -69 152 -69q99 0 183 69q83 69 104 167l204 960q10 49 55 86q43 35 92 35h2q50 0 79 -35
q27 -36 16 -86l-204 -960q-42 -199 -213 -340t-370 -141q-238 0 -324 158q-155 -158 -393 -158q-199 0 -310 141t-69 340l204 960q10 49 55 86q44 35 92 35h3q49 0 78 -35q28 -35 17 -86zM1469 1655l-132 165l-203 -165q-28 -24 -56 -24h-77q-42 0 -53 38q-6 17 -2 32
q4 20 24 40l250 251q28 26 60 26h197q33 0 47 -27l145 -250q11 -19 7 -41q-3 -13 -14 -31q-26 -38 -69 -38h-77q-28 0 -47 24z" />
    <glyph glyph-name="wcircumflex" unicode="&#x175;" horiz-adv-x="1879" 
d="M564 1030l-117 -549q-21 -98 34 -167q54 -69 152 -69t182 69q83 69 104 167l117 549q11 50 54 86q44 36 94 36h2q52 0 77 -36q29 -36 18 -86l-117 -549q-21 -98 34 -167q54 -69 152 -69q99 0 183 69q83 69 104 167l117 549q11 50 54 86q42 36 93 36h2q49 0 78 -36
q28 -35 17 -86l-117 -549q-42 -199 -213 -340t-370 -141q-238 0 -324 158q-155 -158 -393 -158q-199 0 -310 141t-69 340l117 549q11 50 54 86t93 36h3q49 0 77 -36q29 -36 18 -86zM1372 1245l-132 165l-203 -165q-29 -24 -56 -24h-77q-42 0 -53 38q-6 17 -3 32q4 19 25 40
l250 251q28 26 60 26h197q34 0 47 -27l145 -250q11 -19 7 -41q-3 -13 -14 -31q-26 -38 -69 -38h-77q-27 0 -47 24z" />
    <glyph glyph-name="Ycircumflex" unicode="&#x176;" horiz-adv-x="1235" 
d="M1441 1441l-94 -444q-41 -189 -191 -332q-148 -140 -311 -172l-79 -372q-10 -50 -54 -85q-44 -36 -93 -36h-3q-48 0 -77 36q-28 34 -18 85l79 372q-151 32 -239 172q-89 145 -49 332l94 444q10 49 55 86q44 35 92 35h3q49 0 78 -35q28 -35 17 -86l-94 -444
q-24 -114 38 -194q63 -79 176 -79q114 0 211 79q96 79 120 194l94 444q10 49 55 86q44 35 92 35h3q49 0 78 -35q28 -35 17 -86zM1137 1655l-132 165l-203 -165q-28 -24 -56 -24h-77q-42 0 -53 38q-6 17 -2 32q4 20 24 40l250 251q28 26 60 26h197q33 0 47 -27l145 -250
q11 -19 7 -41q-3 -13 -14 -31q-26 -38 -69 -38h-77q-28 0 -47 24z" />
    <glyph glyph-name="ycircumflex" unicode="&#x177;" horiz-adv-x="1167" 
d="M564 1030l-112 -525q-21 -99 33 -169q55 -70 156 -70q99 0 182 70q85 70 106 169l112 525q11 50 54 86t94 36h2q51 0 77 -36q29 -36 18 -86l-203 -957q-43 -198 -222 -342q-175 -142 -364 -142q-149 0 -258 74q-104 72 -141 193q-8 28 -2 54q5 23 20 46q32 52 84 69l5 2
q21 7 44 7q21 0 42 -8q37 -16 49 -57q19 -58 76 -97q58 -38 133 -38q96 0 181 70q87 72 108 169l1 8q-92 -59 -250 -59q-200 0 -312 142q-112 141 -70 341l112 525q11 50 54 86t93 36h3q49 0 77 -36q29 -36 18 -86zM1016 1245l-132 165l-203 -165q-29 -24 -56 -24h-77
q-42 0 -53 38q-6 17 -3 32q4 19 25 40l250 251q28 26 60 26h197q34 0 47 -27l145 -250q11 -19 7 -41q-3 -13 -14 -31q-26 -38 -69 -38h-77q-27 0 -47 24z" />
    <glyph glyph-name="Ydieresis" unicode="&#x178;" horiz-adv-x="1235" 
d="M1441 1441l-94 -444q-41 -189 -191 -332q-148 -140 -311 -172l-79 -372q-10 -50 -54 -85q-44 -36 -93 -36h-3q-48 0 -77 36q-28 34 -18 85l79 372q-151 32 -239 172q-89 145 -49 332l94 444q10 49 55 86q44 35 92 35h3q49 0 78 -35q28 -35 17 -86l-94 -444
q-24 -114 38 -194q63 -79 176 -79q114 0 211 79q96 79 120 194l94 444q10 49 55 86q44 35 92 35h3q49 0 78 -35q28 -35 17 -86zM775 1593q-58 0 -91 41q-32 41 -20 99q12 57 62 98t108 41q57 0 89 -41q34 -40 21 -98q-12 -59 -63 -99q-50 -41 -106 -41zM1138 1593
q-58 0 -91 41q-32 41 -20 99q12 57 62 98t108 41q57 0 89 -41q34 -40 21 -98q-12 -59 -63 -99q-50 -41 -106 -41z" />
    <glyph glyph-name="Zacute" unicode="&#x179;" horiz-adv-x="1093" 
d="M390 1439v2q11 50 54 86q44 35 93 35h619q89 -2 135 -64q49 -62 31 -150q-13 -64 -61 -119l-896 -984h619q52 0 77 -36q29 -36 18 -86v-2q-10 -50 -54 -85q-42 -36 -93 -36h-697q-80 7 -124 70q-43 61 -25 145q10 54 49 105l909 998h-559q-49 0 -78 35q-28 35 -17 86z
M1241 1930l-306 -251q-31 -23 -57 -23h-77q-42 0 -53 38q-5 16 -2 30q4 20 23 40l229 251q25 28 61 28h154q43 0 53 -39q6 -18 3 -33q-4 -20 -28 -41z" />
    <glyph glyph-name="zacute" unicode="&#x17a;" horiz-adv-x="1082" 
d="M448 248l506 -1q50 0 77 -35q29 -36 18 -86l-1 -2q-11 -50 -54 -86q-43 -35 -92 -35h-653q-118 0 -142 111q-9 40 -1 79q13 66 83 124q168 143 365 312q54 46 169.5 145t157.5 136h-462q-51 0 -78 36t-17 85l1 3q11 50 53 85q43 36 94 36h604q121 0 145 -111q9 -40 1 -79
q-14 -68 -83 -124q-498 -427 -691 -593zM1151 1520l-306 -251q-31 -23 -57 -23h-77q-42 0 -53 38q-5 16 -2 30q4 20 23 40l229 251q25 28 61 28h154q43 0 53 -39q6 -18 3 -33q-4 -20 -28 -41z" />
    <glyph glyph-name="Zdotaccent" unicode="&#x17b;" horiz-adv-x="1093" 
d="M390 1439v2q11 50 54 86q44 35 93 35h619q89 -2 135 -64q49 -62 31 -150q-13 -64 -61 -119l-896 -984h619q52 0 77 -36q29 -36 18 -86v-2q-10 -50 -54 -85q-42 -36 -93 -36h-697q-80 7 -124 70q-43 61 -25 145q10 54 49 105l909 998h-559q-49 0 -78 35q-28 35 -17 86z
M900 1663q-58 0 -90 41t-20 99q12 57 62 98t108 41q57 0 89 -41q34 -40 21 -98q-12 -59 -63 -99q-50 -41 -107 -41z" />
    <glyph glyph-name="zdotaccent" unicode="&#x17c;" horiz-adv-x="1082" 
d="M448 248l506 -1q50 0 77 -35q29 -36 18 -86l-1 -2q-11 -50 -54 -86q-43 -35 -92 -35h-653q-118 0 -142 111q-9 40 -1 79q13 66 83 124q168 143 365 312q54 46 169.5 145t157.5 136h-462q-51 0 -78 36t-17 85l1 3q11 50 53 85q43 36 94 36h604q121 0 145 -111q9 -40 1 -79
q-14 -68 -83 -124q-498 -427 -691 -593zM810 1253q-58 0 -90 41t-20 99q12 57 62 98t108 41q57 0 89 -41q33 -40 21 -98q-12 -59 -63 -99q-50 -41 -107 -41z" />
    <glyph glyph-name="Zcaron" unicode="&#x17d;" horiz-adv-x="1093" 
d="M390 1439v2q11 50 54 86q44 35 93 35h619q89 -2 135 -64q49 -62 31 -150q-13 -64 -61 -119l-896 -984h619q52 0 77 -36q29 -36 18 -86v-2q-10 -50 -54 -85q-42 -36 -93 -36h-697q-80 7 -124 70q-43 61 -25 145q10 54 49 105l909 998h-559q-49 0 -78 35q-28 35 -17 86z
M805 2003l133 -165q18 15 88 72q49 39 114 94q31 23 57 23h77q42 0 53 -38q4 -15 1 -31q-4 -22 -25 -41l-250 -251q-25 -25 -59 -25h-197q-32 0 -48 25l-144 251q-11 21 -7 41q3 13 14 31q29 38 70 38h77q28 0 46 -24z" />
    <glyph glyph-name="zcaron" unicode="&#x17e;" horiz-adv-x="1082" 
d="M448 248l506 -1q50 0 77 -35q29 -36 18 -86l-1 -2q-11 -50 -54 -86q-43 -35 -92 -35h-653q-118 0 -142 111q-9 40 -1 79q13 66 83 124q168 143 365 312q54 46 169.5 145t157.5 136h-462q-51 0 -78 36t-17 85l1 3q11 50 53 85q43 36 94 36h604q121 0 145 -111q9 -40 1 -79
q-14 -68 -83 -124q-498 -427 -691 -593zM714 1593l133 -165q18 15 88 72q49 39 114 94q31 23 57 23h77q42 0 53 -38q4 -15 1 -31q-4 -20 -25 -41l-250 -251q-25 -25 -59 -25h-197q-32 0 -48 25l-144 251q-11 19 -7 41q3 13 14 31q29 38 70 38h77q28 0 46 -24z" />
    <glyph glyph-name="longs" unicode="&#x17f;" horiz-adv-x="733" 
d="M873 1562h57q50 0 79 -35q27 -36 16 -86v-2q-11 -50 -53 -86q-44 -35 -94 -35h-57q-82 0 -151 -57q-68 -57 -87 -139l-212 -1001q-10 -50 -54 -85q-43 -36 -93 -36h-3q-49 0 -77 36q-28 34 -18 85l212 1001q40 183 196 311q156 129 339 129z" />
  </font>
</defs>
</svg>
